<svg width="470" height="287" viewBox="0 0 470 287" fill="none" xmlns="http://www.w3.org/2000/svg">
<path d="M455.981 231.985L455.967 231.954C454.54 228.729 455.239 225.484 456.705 222.421C457.849 220.032 459.495 217.686 461.037 215.488C461.462 214.882 461.88 214.288 462.276 213.707C465.408 209.11 467.623 203.952 468.8 198.515L468.806 198.486L468.816 198.458C469.014 197.884 469.093 197.276 469.046 196.671C469 196.083 468.837 195.509 468.566 194.985C468.291 194.655 467.95 194.386 467.566 194.194C467.167 193.996 466.729 193.886 466.284 193.872L466.274 193.872L466.264 193.871C464.719 193.761 463.286 194.365 462.015 195.387C460.742 196.411 459.661 197.834 458.848 199.29C458.455 199.995 458.085 200.724 457.71 201.466L457.659 201.566C457.268 202.339 456.87 203.123 456.438 203.882C455.575 205.4 454.563 206.85 453.157 207.977L453.156 207.977C451.795 209.063 450.175 209.763 448.5 210.301C447.36 210.667 446.166 210.967 445.002 211.259C444.466 211.393 443.936 211.526 443.422 211.663C440.084 212.551 437.297 213.633 436.053 216.422C435.37 217.956 435.355 219.733 435.341 221.611C435.338 221.881 435.336 222.153 435.332 222.426C435.3 224.537 435.143 226.752 433.632 228.431L433.618 228.446L433.602 228.461C432.566 229.432 431.353 230.195 430.03 230.71C422.786 234.154 416.184 239.323 412.324 246.284C408.057 254.012 409.427 264.498 414.331 271.954C416.777 275.672 420.079 278.6 423.95 280.051C427.81 281.498 432.272 281.49 437.087 279.279L437.087 279.279C440.075 277.909 442.057 276.261 443.392 274.428C444.728 272.594 445.438 270.543 445.837 268.332C446.225 266.179 446.315 263.899 446.408 261.528L446.417 261.308C446.513 258.872 446.622 256.349 447.089 253.855M455.981 231.985L447.58 253.945M455.981 231.985L455.998 232.013C456.836 233.379 457.555 234.814 458.146 236.303M455.981 231.985L458.624 236.151M447.089 253.855C447.089 253.854 447.089 253.854 447.089 253.853L447.58 253.945M447.089 253.855C447.089 253.855 447.089 253.855 447.089 253.855L447.58 253.945M447.089 253.855C447.415 252.068 448.425 250.47 449.67 248.995C450.649 247.836 451.804 246.717 452.93 245.626C453.234 245.332 453.537 245.039 453.833 244.748C455.242 243.364 456.517 242.016 457.342 240.611C458.153 239.23 458.511 237.828 458.146 236.303M447.58 253.945C448.122 250.979 450.713 248.47 453.268 245.996C456.436 242.927 459.548 239.913 458.624 236.151M458.146 236.303C458.15 236.314 458.155 236.324 458.159 236.335L458.624 236.151M458.146 236.303C458.144 236.292 458.141 236.281 458.138 236.27L458.624 236.151" stroke="black"/>
<path d="M44.6885 286.09C41.6538 286.103 38.6286 285.751 35.6777 285.043C25.2713 282.464 18.991 275.835 18.991 267.295C19.0054 266.281 19.0712 265.268 19.1882 264.261C19.5623 262.236 19.4215 260.149 18.7787 258.193C17.6947 256.297 16.1235 254.726 14.2277 253.642C12.131 252.42 10.3776 250.688 9.13073 248.606C7.68961 245.754 8.26606 242.614 8.81217 239.58C9.17344 237.93 9.36658 236.247 9.38861 234.559C9.29759 230.523 7.12833 226.974 4.8377 223.303C2.54708 219.632 0.286799 215.93 0.0289148 211.622C-0.0840198 210.682 0.136048 209.732 0.650872 208.937C1.59139 207.723 3.26006 207.496 5.62653 208.285C16.1391 211.759 23.4054 216.992 27.1978 223.894C28.1842 225.792 29.0555 227.747 29.807 229.75C31.4757 233.967 33.0533 237.957 36.5575 240.247C40.3651 242.75 44.4609 243.418 48.4202 244.055C54.033 244.965 59.8278 245.906 64.7428 252.034C69.2937 257.632 72.9496 267.007 68.6414 275.031C64.6215 282.51 54.4729 286.09 44.6885 286.09ZM3.19938 209.331C2.94878 209.311 2.69694 209.349 2.46299 209.441C2.22904 209.533 2.01915 209.677 1.84928 209.862C1.55594 210.371 1.44868 210.967 1.54588 211.546C1.75826 215.46 3.88202 218.888 6.09679 222.499C8.31157 226.109 10.7842 230.084 10.8904 234.513C10.871 236.309 10.6677 238.098 10.2836 239.853C9.75268 242.765 9.25209 245.526 10.4657 247.923C11.6095 249.72 13.1708 251.214 15.0166 252.277C17.1574 253.522 18.9193 255.326 20.1136 257.495C20.871 259.672 21.0539 262.008 20.6445 264.276C20.5535 265.262 20.4625 266.263 20.4625 267.219C20.5535 278.475 31.3998 282.389 36.0569 283.511C47.2522 286.272 62.3763 283.511 67.3217 274.288C71.2809 266.916 67.7767 258.178 63.5747 252.944C59.0238 247.271 53.7599 246.421 48.1927 245.526C44.0817 244.859 39.819 244.161 35.7384 241.476C31.6577 238.791 30.0952 234.528 28.4114 230.281C27.665 228.333 26.7987 226.433 25.8174 224.592C22.207 218.054 15.1986 213.048 5.09559 209.711C4.48528 209.493 3.84651 209.365 3.19938 209.331Z" fill="#231F20"/>
<path d="M67.6403 279.931C57.9469 279.931 47.7832 276.321 41.9884 270.283C39.6522 267.856 35.8295 262.926 36.4059 257.116C36.6868 255.111 37.2326 253.152 38.0291 251.291C38.3173 250.532 38.6207 249.774 38.8634 248.985C40.3603 244.056 40.3685 238.795 38.8869 233.862C37.4053 228.929 34.5 224.543 30.5352 221.255L29.1396 220.193C27.2234 218.977 25.6015 217.35 24.3915 215.429C21.8278 210.606 24.8163 205.008 26.8187 202.095C27.3648 201.307 27.9564 200.578 28.5328 199.729C30.5808 196.968 32.7045 194.101 33.281 190.809C34.0243 186.531 32.0977 182.253 30.247 178.127C29.8829 177.308 29.5189 176.504 29.17 175.685C26.7386 170.003 25.2871 163.951 24.877 157.785C24.6949 155.297 24.7556 152.157 26.7125 150.018C29.3823 147.09 34.1456 147.712 37.0127 150.018C39.8798 152.324 41.2299 155.449 42.6103 158.877L43.748 161.759C46.782 169.42 49.9221 177.354 55.2315 183.649C56.4299 185.075 57.8103 186.531 59.1301 187.942C64.2575 193.358 69.5669 198.97 68.5808 206.237C68.2973 207.883 67.8397 209.495 67.2156 211.045C66.4972 212.741 66.0419 214.537 65.8655 216.37C65.5772 222.847 71.3265 226.761 76.8938 230.539C79.3735 232.093 81.6909 233.892 83.8112 235.909C90.6831 243.053 94.2328 255.083 92.0635 263.866C90.2128 271.345 84.691 276.67 76.5146 278.869C73.6145 279.604 70.6318 279.96 67.6403 279.931ZM31.4909 149.563C30.8041 149.54 30.1204 149.664 29.4849 149.925C28.8495 150.187 28.2768 150.58 27.8047 151.08C26.2877 152.779 26.2119 155.524 26.2877 157.709C26.6881 163.707 28.0984 169.595 30.4594 175.124C30.8083 175.928 31.1724 176.732 31.5364 177.536C33.4933 181.874 35.5109 186.364 34.6917 191.097C34.0546 194.753 31.8247 197.757 29.6706 200.669C29.0941 201.428 28.5328 202.202 27.9867 202.99C26.4698 205.099 23.4358 210.469 25.6506 214.747C26.7613 216.472 28.2371 217.932 29.974 219.025C30.4594 219.374 30.9297 219.738 31.3999 220.102C35.6046 223.583 38.6862 228.231 40.2571 233.459C41.828 238.687 41.8181 244.263 40.2287 249.485C39.9708 250.274 39.6674 251.002 39.364 251.852C38.6606 253.588 38.1863 255.409 37.9532 257.268C37.4375 262.471 40.9872 267.006 43.1261 269.236C50.3924 276.821 64.9098 280.371 76.1505 277.352C81.5509 275.835 88.438 272.331 90.6224 263.457C92.8827 254.355 88.3924 242.78 82.7493 236.895C80.6989 234.961 78.4633 233.233 76.0746 231.737C70.4467 227.914 64.0754 223.591 64.3788 216.264C64.5842 214.271 65.0959 212.321 65.8958 210.484C66.4937 209.02 66.9262 207.494 67.1852 205.933C68.0802 199.395 63.0287 194.055 58.0834 188.883C56.7485 187.457 55.3529 186 54.1241 184.529C48.6479 178.036 45.4774 169.996 42.3979 162.214L41.245 159.347C39.9556 156.116 38.5904 153.052 36.1177 151.11C34.7879 150.099 33.1615 149.555 31.4909 149.563Z" fill="#231F20"/>
<path d="M324.069 286.257H430.499V187.138H324.069V286.257Z" fill="#7FF0B2"/>
<path d="M430.499 287H324.069C323.868 287 323.675 286.92 323.532 286.777C323.39 286.635 323.31 286.442 323.31 286.241V187.122C323.31 186.921 323.39 186.728 323.532 186.586C323.675 186.444 323.868 186.364 324.069 186.364H430.499C430.701 186.364 430.893 186.444 431.036 186.586C431.178 186.728 431.258 186.921 431.258 187.122V286.241C431.258 286.442 431.178 286.635 431.036 286.777C430.893 286.92 430.701 287 430.499 287ZM324.827 285.483H429.741V187.881H324.827V285.483Z" fill="#231F20"/>
<path d="M187.284 286.242H293.714V140.461H187.284V286.242Z" fill="#7FF0B2"/>
<path d="M293.714 287H187.268C187.067 287 186.874 286.92 186.732 286.778C186.59 286.635 186.51 286.443 186.51 286.241V140.461C186.514 140.261 186.595 140.07 186.736 139.929C186.878 139.787 187.069 139.706 187.268 139.702H293.714C293.914 139.706 294.105 139.787 294.246 139.929C294.388 140.07 294.469 140.261 294.473 140.461V286.241C294.473 286.443 294.393 286.635 294.251 286.778C294.108 286.92 293.915 287 293.714 287ZM188.027 285.483H292.956V141.219H188.027V285.483Z" fill="#231F20"/>
<path d="M50.4833 286.242H156.914L156.914 64.8553H50.4833L50.4833 286.242Z" fill="#7FF0B2"/>
<path d="M156.914 287H50.4831C50.2819 287 50.089 286.92 49.9468 286.778C49.8045 286.636 49.7246 286.443 49.7246 286.242V64.8552C49.7246 64.654 49.8045 64.4611 49.9468 64.3188C50.089 64.1766 50.2819 64.0967 50.4831 64.0967H156.914C157.115 64.0967 157.308 64.1766 157.45 64.3188C157.592 64.4611 157.672 64.654 157.672 64.8552V286.242C157.672 286.341 157.653 286.44 157.614 286.532C157.576 286.624 157.52 286.707 157.45 286.778C157.38 286.848 157.296 286.904 157.204 286.942C157.112 286.98 157.013 287 156.914 287ZM51.2416 285.483H156.155V65.6136H51.2416V285.483Z" fill="#231F20"/>
<path d="M350.297 122.682V142.433H335.765L350.297 150.897V174.441H422.854V122.682H350.297Z" fill="white"/>
<path d="M422.854 175.199H350.297C350.097 175.195 349.906 175.114 349.765 174.973C349.624 174.831 349.542 174.641 349.538 174.441V151.337L335.385 143.085C335.243 143.001 335.132 142.872 335.07 142.719C335.007 142.565 334.997 142.396 335.04 142.236C335.083 142.076 335.177 141.935 335.308 141.833C335.438 141.732 335.599 141.676 335.764 141.674H349.538V122.682C349.542 122.482 349.624 122.291 349.765 122.15C349.906 122.008 350.097 121.927 350.297 121.923H422.854C423.055 121.923 423.248 122.003 423.39 122.146C423.532 122.288 423.612 122.481 423.612 122.682V174.441C423.612 174.642 423.532 174.835 423.39 174.977C423.248 175.119 423.055 175.199 422.854 175.199ZM351.055 173.682H422.095V123.44H351.055V142.433C351.055 142.634 350.976 142.827 350.833 142.969C350.691 143.111 350.498 143.191 350.297 143.191H338.571L350.707 150.245C350.821 150.311 350.917 150.406 350.983 150.521C351.05 150.635 351.085 150.765 351.086 150.897L351.055 173.682Z" fill="#231F20"/>
<path d="M369.411 91.8112C369.608 91.2196 369.805 90.6279 370.017 90.0363C370.124 89.7329 370.245 89.4295 370.366 89.1261C370.434 88.9372 370.564 88.7771 370.735 88.6722C370.906 88.5674 371.108 88.5241 371.307 88.5497C371.792 88.5497 372.263 88.7166 372.733 88.7924C372.989 88.8377 373.247 88.8681 373.507 88.8834C373.698 88.8942 373.887 88.8348 374.037 88.7166C374.584 88.1856 375.115 87.6395 375.63 87.0934C375.72 86.9914 375.782 86.8683 375.811 86.7356C375.841 86.603 375.836 86.4651 375.797 86.3349C375.676 85.7585 375.539 85.182 375.418 84.6056C375.381 84.3796 375.381 84.149 375.418 83.9229C375.423 83.8392 375.444 83.7573 375.48 83.6818C375.517 83.6063 375.568 83.5388 375.63 83.483C376.514 82.9056 377.481 82.4657 378.497 82.1784C378.647 82.1321 378.807 82.1351 378.955 82.1871C379.102 82.239 379.229 82.337 379.316 82.4666C379.681 82.9672 380.06 83.4678 380.409 83.9836C380.525 84.1771 380.693 84.3338 380.895 84.4358C381.096 84.5377 381.322 84.5808 381.546 84.5601C382.168 84.5601 382.806 84.5601 383.443 84.469C383.56 84.4629 383.674 84.4279 383.775 84.367C383.875 84.3061 383.959 84.2213 384.019 84.1201C384.247 83.7864 384.459 83.4527 384.671 83.1189C384.884 82.7852 385.051 82.5273 385.248 82.2543C385.338 82.1111 385.474 82.003 385.634 81.9478C385.794 81.8927 385.968 81.8937 386.128 81.9509C387.008 82.2543 387.887 82.5577 388.752 82.8914C388.916 82.958 389.051 83.0787 389.137 83.2332C389.223 83.3877 389.253 83.5669 389.222 83.7409C389.222 84.2263 389.071 84.7118 388.98 85.2579C388.98 85.4854 388.98 85.713 388.904 85.9405C388.882 86.0879 388.897 86.2382 388.948 86.3784C388.998 86.5186 389.082 86.6443 389.192 86.7445C389.647 87.1844 390.117 87.6092 390.572 88.0643C390.698 88.2023 390.86 88.3024 391.039 88.3533C391.219 88.4043 391.409 88.404 391.589 88.3525L393.47 87.9277C393.675 87.8591 393.899 87.8729 394.094 87.9663C394.29 88.0597 394.441 88.2254 394.517 88.4283C394.881 89.1716 395.23 89.9453 395.548 90.6886C395.613 90.7913 395.656 90.9062 395.676 91.0262C395.695 91.1462 395.689 91.2688 395.659 91.3866C395.63 91.5044 395.576 91.6149 395.502 91.7114C395.428 91.8078 395.335 91.8883 395.229 91.9477C394.911 92.1904 394.562 92.418 394.228 92.6607L393.53 93.222C393.439 93.301 393.366 93.3989 393.316 93.5089C393.267 93.6189 393.241 93.7383 393.242 93.8591C393.242 94.5265 393.242 95.1788 393.242 95.8311C393.246 96.0114 393.297 96.1875 393.39 96.3419C393.484 96.4963 393.616 96.6235 393.773 96.711L394.85 97.3481C395.063 97.4846 395.29 97.6212 395.487 97.7729C395.642 97.8676 395.756 98.0154 395.809 98.1886C395.862 98.3618 395.85 98.5484 395.776 98.7134C395.487 99.5174 395.199 100.23 394.896 101.08C394.846 101.204 394.779 101.322 394.699 101.429C394.63 101.556 394.521 101.657 394.39 101.717C394.259 101.777 394.112 101.793 393.97 101.762L392.256 101.489H392.135C391.897 101.428 391.646 101.438 391.414 101.519C391.181 101.6 390.978 101.748 390.83 101.945C390.512 102.324 390.148 102.673 389.799 103.037C389.639 103.193 389.525 103.39 389.468 103.607C389.412 103.823 389.416 104.051 389.48 104.265C389.617 104.827 389.753 105.373 389.875 105.934C389.92 106.042 389.941 106.158 389.937 106.275C389.934 106.392 389.905 106.507 389.853 106.612C389.802 106.717 389.728 106.81 389.637 106.884C389.547 106.958 389.442 107.012 389.329 107.042C388.57 107.406 387.812 107.755 386.992 108.088C386.816 108.185 386.609 108.21 386.415 108.159C386.22 108.109 386.052 107.986 385.946 107.815C385.642 107.436 385.369 107.026 385.081 106.632C384.474 105.767 384.323 105.691 383.261 105.752H382.032C381.835 105.752 381.642 105.804 381.471 105.903C381.301 106.001 381.159 106.143 381.061 106.313C380.818 106.723 380.576 107.148 380.318 107.542C380.178 107.752 380.02 107.95 379.847 108.134C379.771 108.228 379.667 108.296 379.549 108.326C379.431 108.356 379.307 108.347 379.195 108.301L376.707 107.375C376.596 107.324 376.49 107.263 376.389 107.193C376.258 107.124 376.153 107.014 376.09 106.88C376.027 106.746 376.009 106.595 376.04 106.45L376.313 104.766C376.329 104.595 376.329 104.422 376.313 104.25C376.327 104.11 376.308 103.969 376.258 103.837C376.208 103.706 376.128 103.587 376.025 103.492L374.69 102.233C374.561 102.109 374.402 102.023 374.228 101.983C374.055 101.943 373.873 101.951 373.704 102.005L372.035 102.384C371.307 102.521 371.079 102.384 370.761 101.747C370.442 101.11 370.093 100.23 369.79 99.487C369.739 99.4009 369.706 99.3053 369.693 99.2062C369.681 99.107 369.688 99.0063 369.715 98.91C369.742 98.8137 369.788 98.7238 369.85 98.6457C369.913 98.5676 369.99 98.5029 370.078 98.4555C370.533 98.1218 370.973 97.788 371.443 97.4846C371.673 97.359 371.859 97.1675 371.978 96.9349C372.097 96.7023 372.143 96.4393 372.111 96.18C372.111 95.5884 372.111 94.9968 372.02 94.4052C372.017 94.2809 371.984 94.1591 371.923 94.0506C371.862 93.9422 371.776 93.8504 371.671 93.7832L370.154 92.8427C369.803 92.6827 369.527 92.3953 369.38 92.0387L369.411 91.8112ZM388.206 95.103C388.208 94.3628 388.063 93.6295 387.78 92.9456C387.497 92.2618 387.081 91.6409 386.556 91.1189C386.031 90.5969 385.408 90.1842 384.722 89.9046C384.037 89.625 383.303 89.4842 382.563 89.4902C381.092 89.5331 379.695 90.1426 378.663 91.1914C377.631 92.2402 377.045 93.6471 377.026 95.1182C377.038 96.5924 377.628 98.0032 378.669 99.0471C379.71 100.091 381.119 100.685 382.593 100.701C383.332 100.711 384.065 100.573 384.749 100.296C385.434 100.018 386.056 99.6063 386.579 99.0847C387.102 98.5631 387.516 97.9421 387.795 97.2583C388.074 96.5744 388.214 95.8416 388.206 95.103Z" fill="white"/>
<path d="M379.393 109.075C379.232 109.073 379.072 109.042 378.922 108.984L376.434 108.058C376.284 107.994 376.141 107.913 376.01 107.816C375.752 107.663 375.546 107.437 375.416 107.167C375.286 106.897 375.24 106.595 375.282 106.299L375.555 104.6C375.57 104.458 375.57 104.316 375.555 104.175C375.555 104.053 375.555 104.023 375.555 104.008L374.205 102.749C374.162 102.72 374.112 102.705 374.06 102.705C374.009 102.705 373.959 102.72 373.916 102.749L372.703 103.037L372.248 103.143C372.036 103.223 371.81 103.259 371.584 103.25C371.358 103.241 371.136 103.186 370.931 103.09C370.726 102.994 370.542 102.858 370.391 102.69C370.239 102.522 370.123 102.325 370.048 102.112C369.684 101.353 369.365 100.595 369.047 99.8059C368.888 99.4733 368.856 99.0943 368.957 98.7397C369.057 98.3852 369.283 98.0794 369.593 97.8794C370.048 97.5355 370.518 97.2018 371.004 96.8782C371.116 96.8218 371.207 96.7311 371.265 96.6193C371.322 96.5074 371.342 96.3803 371.322 96.2562C371.322 95.877 371.322 95.4977 371.322 95.1033V94.4814L369.805 93.5105C369.308 93.2565 368.92 92.8306 368.713 92.3121C368.706 92.2314 368.706 92.1501 368.713 92.0694V91.857C368.697 91.7769 368.697 91.6944 368.713 91.6143L368.865 91.1289L369.32 89.8243C369.426 89.5057 369.563 89.1872 369.684 88.8838C369.814 88.5422 370.056 88.2546 370.369 88.0674C370.683 87.8802 371.051 87.8044 371.413 87.8522C371.732 87.8522 372.066 87.9432 372.399 88.0039L373.082 88.1253C373.223 88.1335 373.365 88.1335 373.507 88.1253C374.063 87.6467 374.594 87.1404 375.1 86.6083L374.902 85.774C374.826 85.4402 374.751 85.1217 374.69 84.7879C374.619 84.4901 374.593 84.1832 374.614 83.8778C374.629 83.6784 374.689 83.4849 374.788 83.3116C374.888 83.1383 375.026 82.9896 375.191 82.8766C376.124 82.2577 377.147 81.787 378.225 81.481C378.521 81.3869 378.84 81.3923 379.133 81.4964C379.426 81.6005 379.677 81.7975 379.848 82.0574L380.227 82.5732L380.97 83.5744C381.122 83.8019 381.213 83.8323 381.41 83.8171H382.684H383.337C383.443 83.6047 383.579 83.4075 383.701 83.1951L384.08 82.6187L384.565 81.9057C384.754 81.6379 385.025 81.4385 385.337 81.3373C385.648 81.2361 385.985 81.2386 386.295 81.3444C387.19 81.6478 388.07 81.9512 388.949 82.3001C389.268 82.4234 389.536 82.6508 389.71 82.9454C389.883 83.24 389.952 83.5846 389.905 83.9233C389.905 84.2722 389.799 84.6059 389.738 84.9548L389.662 85.4251C389.662 85.6223 389.662 85.8346 389.571 86.047C389.547 86.1105 389.547 86.1808 389.571 86.2442L389.89 86.5325C390.254 86.8662 390.618 87.2151 390.967 87.5792C391.058 87.6702 391.119 87.7005 391.301 87.5792L393.167 87.1544C393.539 87.0316 393.945 87.0578 394.298 87.2275C394.652 87.3972 394.926 87.6972 395.063 88.0646C395.427 88.8231 395.776 89.5816 396.11 90.3552C396.31 90.7164 396.364 91.1402 396.263 91.5404C396.161 91.9406 395.911 92.287 395.563 92.5093L394.941 92.9644L394.547 93.2375L393.895 93.7532V94.2842C393.895 94.7696 393.895 95.2702 393.895 95.8011C393.894 95.8539 393.908 95.9058 393.935 95.9513C393.961 95.9968 394 96.034 394.046 96.059L394.502 96.3169L395.139 96.6961C395.386 96.8439 395.624 97.006 395.852 97.1816C396.13 97.3788 396.335 97.6643 396.431 97.9919C396.527 98.3195 396.51 98.67 396.383 98.9868C396.094 99.7756 395.806 100.504 395.503 101.353C395.433 101.518 395.347 101.676 395.245 101.823C395.088 102.075 394.861 102.276 394.591 102.4C394.321 102.524 394.021 102.566 393.728 102.521L392.014 102.233H391.847C391.743 102.2 391.631 102.204 391.53 102.242C391.428 102.281 391.342 102.352 391.286 102.445C391.043 102.719 390.785 102.992 390.527 103.249L390.224 103.553C390.155 103.621 390.106 103.706 390.082 103.799C390.058 103.893 390.06 103.991 390.087 104.084C390.239 104.645 390.375 105.206 390.497 105.783C390.563 105.973 390.591 106.174 390.579 106.376C390.567 106.577 390.515 106.773 390.426 106.954C390.337 107.135 390.213 107.296 390.061 107.428C389.909 107.561 389.732 107.661 389.541 107.725C388.752 108.104 388.024 108.453 387.175 108.786C386.845 108.953 386.467 108.995 386.109 108.903C385.752 108.811 385.44 108.591 385.233 108.286C384.975 107.967 384.732 107.618 384.49 107.285L384.338 107.072C383.913 106.465 383.913 106.465 383.185 106.511H381.956C381.882 106.508 381.808 106.527 381.743 106.564C381.679 106.602 381.627 106.657 381.592 106.723L381.349 107.133L380.834 107.982C380.663 108.228 380.476 108.461 380.272 108.68C380.035 108.911 379.723 109.051 379.393 109.075ZM374.053 101.171C374.499 101.175 374.928 101.349 375.251 101.657L376.586 102.901C376.775 103.071 376.921 103.284 377.013 103.521C377.105 103.758 377.141 104.013 377.117 104.266C377.117 104.463 377.117 104.66 377.117 104.857L376.844 106.541L377.041 106.632L379.408 107.527C379.532 107.396 379.644 107.254 379.741 107.103L380.227 106.314L380.485 105.889C380.639 105.619 380.858 105.392 381.124 105.23C381.389 105.069 381.691 104.977 382.002 104.964H383.246C383.733 104.856 384.242 104.916 384.69 105.133C385.139 105.351 385.501 105.713 385.718 106.162L385.87 106.374C386.098 106.693 386.325 107.012 386.568 107.315H386.704C387.493 106.996 388.221 106.647 389.025 106.283L389.177 106.192C389.169 106.132 389.169 106.071 389.177 106.01C389.056 105.464 388.934 104.918 388.798 104.387C388.697 104.046 388.69 103.684 388.779 103.34C388.867 102.995 389.046 102.681 389.298 102.43L389.617 102.097C389.844 101.869 390.087 101.641 390.3 101.384C390.534 101.079 390.854 100.85 391.218 100.726C391.583 100.602 391.975 100.588 392.347 100.686L394.137 100.974C394.137 100.883 394.229 100.807 394.229 100.777C394.532 99.988 394.82 99.2598 395.108 98.4103C394.904 98.2416 394.68 98.0989 394.441 97.9856L393.379 97.3636C393.113 97.2082 392.891 96.9872 392.734 96.7217C392.577 96.4561 392.491 96.1549 392.484 95.8466C392.484 95.3309 392.484 94.8303 392.484 94.3297V93.8746C392.482 93.6389 392.531 93.4056 392.628 93.1908C392.724 92.976 392.867 92.7848 393.045 92.6307C393.288 92.4183 393.531 92.2211 393.773 92.0391L394.213 91.7357C394.395 91.5991 394.577 91.4778 394.759 91.3261C394.821 91.2826 394.877 91.2317 394.926 91.1744C394.936 91.109 394.936 91.0425 394.926 90.9772C394.608 90.2187 394.259 89.4602 393.91 88.7472L393.713 88.6562L391.832 89.081C391.525 89.1577 391.203 89.1518 390.9 89.0639C390.596 88.976 390.321 88.8091 390.102 88.5804C389.769 88.2315 389.405 87.8977 389.056 87.5792L388.752 87.2758C388.56 87.098 388.412 86.878 388.32 86.6331C388.228 86.3882 388.194 86.1252 388.221 85.865C388.236 85.6155 388.266 85.3672 388.312 85.1217L388.403 84.6211C388.403 84.3177 388.51 84.0143 388.54 83.7109C387.69 83.3165 386.826 83.0131 385.961 82.7097C385.794 82.9524 385.642 83.1648 385.506 83.3923L385.142 83.9536L384.717 84.5907C384.594 84.7923 384.423 84.9603 384.219 85.0794C384.015 85.1986 383.785 85.2652 383.549 85.2734H382.882H381.668C381.313 85.3107 380.955 85.2464 380.636 85.0879C380.316 84.9295 380.048 84.6834 379.863 84.3784C379.635 84.0446 379.408 83.7261 379.165 83.4227L378.771 82.8917C377.874 83.1344 377.019 83.513 376.237 84.0143C376.224 84.1505 376.224 84.2877 376.237 84.4239C376.237 84.7424 376.374 85.061 376.45 85.3796L376.617 86.1532C376.684 86.401 376.687 86.6618 376.626 86.9112C376.565 87.1606 376.442 87.3904 376.268 87.5792C375.737 88.1404 375.191 88.7017 374.644 89.2327C374.356 89.4872 373.982 89.6227 373.598 89.6119C373.356 89.6335 373.112 89.6335 372.87 89.6119L372.187 89.4905L371.307 89.354C371.307 89.354 371.201 89.354 371.14 89.4754C371.08 89.5967 370.913 90.0367 370.807 90.34L370.367 91.6143L370.169 91.9177C370.29 92.0382 370.428 92.1404 370.579 92.2211L372.096 93.1616C372.303 93.2944 372.475 93.4757 372.597 93.6898C372.718 93.9038 372.786 94.1443 372.794 94.3904V95.0275C372.794 95.4067 372.794 95.7708 372.794 96.15C372.833 96.5439 372.758 96.9406 372.578 97.293C372.397 97.6453 372.12 97.9384 371.777 98.1373C371.322 98.4407 370.898 98.7441 370.473 99.0778C370.367 99.0778 370.351 99.184 370.351 99.184C370.716 99.9728 371.034 100.701 371.368 101.444C371.41 101.535 371.461 101.621 371.52 101.702H371.823L372.324 101.581L373.507 101.308C373.681 101.235 373.865 101.189 374.053 101.171ZM382.609 101.459C381.353 101.46 380.126 101.088 379.083 100.389C378.04 99.6899 377.229 98.6966 376.752 97.5352C376.275 96.3738 376.155 95.0968 376.407 93.8668C376.658 92.6369 377.27 91.5095 378.164 90.6283C378.738 90.036 379.423 89.5634 380.181 89.2379C380.939 88.9124 381.754 88.7405 382.578 88.7321C383.417 88.724 384.25 88.8826 385.027 89.1986C385.804 89.5146 386.511 89.9818 387.107 90.573C387.702 91.1642 388.174 91.8678 388.496 92.6428C388.817 93.4179 388.982 94.249 388.98 95.0882C389.003 95.8952 388.864 96.6986 388.572 97.4514C388.28 98.2042 387.841 98.8912 387.281 99.4722C386.68 100.106 385.955 100.609 385.151 100.951C384.347 101.293 383.482 101.466 382.609 101.459ZM382.533 90.249C381.275 90.3053 380.089 90.8494 379.226 91.766C378.757 92.2045 378.382 92.7325 378.121 93.3188C377.861 93.9051 377.72 94.5377 377.709 95.1792C377.713 96.4547 378.22 97.6771 379.121 98.5805C380.021 99.4839 381.242 99.9951 382.518 100.003C383.183 100.014 383.842 99.8844 384.454 99.623C385.066 99.3616 385.615 98.9743 386.067 98.4862C386.487 98.0548 386.817 97.5445 387.039 96.9846C387.26 96.4248 387.368 95.8266 387.357 95.2247C387.359 94.5841 387.233 93.9494 386.988 93.3576C386.743 92.7657 386.383 92.2284 385.929 91.7769C385.474 91.3253 384.935 90.9685 384.341 90.727C383.748 90.4856 383.113 90.3644 382.472 90.3704L382.533 90.249Z" fill="#D1D3D4"/>
<path d="M178.015 36.3817L164.848 30.4503V1.40039H96.2654V45.7414H164.848V36.3817H178.015Z" fill="white"/>
<path d="M164.847 46.4996H96.2653C96.0642 46.4996 95.8712 46.4197 95.729 46.2774C95.5867 46.1352 95.5068 45.9423 95.5068 45.7411V1.38495C95.5107 1.185 95.5919 0.994329 95.7333 0.852919C95.8747 0.711508 96.0654 0.630348 96.2653 0.626465H164.847C165.049 0.626465 165.242 0.706376 165.384 0.848619C165.526 0.990863 165.606 1.18379 165.606 1.38495V29.9495L178.333 35.6836C178.534 35.7259 178.711 35.8463 178.823 36.0184C178.935 36.1905 178.975 36.4002 178.933 36.6014C178.89 36.8026 178.77 36.9787 178.598 37.0911C178.426 37.2034 178.216 37.2428 178.015 37.2006H165.606V45.8018C165.591 45.9923 165.504 46.1699 165.363 46.2993C165.223 46.4287 165.039 46.5002 164.847 46.4996ZM97.0238 44.9826H164.089V36.3814C164.089 36.1803 164.169 35.9873 164.311 35.8451C164.453 35.7028 164.646 35.6229 164.847 35.6229H174.48L164.544 31.072C164.411 31.0139 164.297 30.9186 164.216 30.7976C164.136 30.6765 164.091 30.5348 164.089 30.3894V2.14343H97.0238V44.9826Z" fill="#231F20"/>
<path d="M131.687 13.3688L141.911 23.6539C141.963 23.7095 142.027 23.7532 142.098 23.782C142.168 23.8108 142.244 23.824 142.321 23.8207H158.006C157.942 26.263 157.289 28.6537 156.103 30.7895C154.916 32.9252 153.232 34.7428 151.192 36.0877C149.152 37.4326 146.818 38.2649 144.388 38.5139C141.957 38.7629 139.503 38.4213 137.233 37.518C134.963 36.6146 132.945 35.1764 131.35 33.3256C129.755 31.4748 128.631 29.2662 128.073 26.8877C127.515 24.5091 127.54 22.031 128.145 19.6641C128.75 17.2972 129.919 15.1115 131.55 13.293L131.687 13.3688Z" fill="#7FF0B2"/>
<path d="M143.428 8.10547V22.6987H143.58H157.703C158.021 22.6987 158.021 22.6987 158.006 22.3802C157.786 18.7427 156.263 15.3061 153.717 12.6989C151.172 10.0917 147.772 8.48804 144.141 8.18132L143.428 8.10547Z" fill="#D1D3D4"/>
<path d="M142.351 22.5015V8.12061C140.653 8.20828 138.979 8.56147 137.39 9.16732C135.488 9.91237 133.755 11.0318 132.293 12.4591L142.351 22.5015Z" fill="#D1D3D4"/>
<path d="M121.25 15.8265H103.698C103.497 15.8265 103.304 15.7466 103.162 15.6044C103.02 15.4621 102.94 15.2692 102.94 15.0681C102.94 14.8669 103.02 14.674 103.162 14.5317C103.304 14.3895 103.497 14.3096 103.698 14.3096H121.25C121.451 14.3096 121.644 14.3895 121.786 14.5317C121.928 14.674 122.008 14.8669 122.008 15.0681C122.008 15.2692 121.928 15.4621 121.786 15.6044C121.644 15.7466 121.451 15.8265 121.25 15.8265Z" fill="#D1D3D4"/>
<path d="M121.25 23.2142H103.698C103.497 23.2142 103.304 23.1343 103.162 22.9921C103.02 22.8498 102.94 22.6569 102.94 22.4558C102.94 22.2546 103.02 22.0617 103.162 21.9194C103.304 21.7772 103.497 21.6973 103.698 21.6973H121.25C121.451 21.6973 121.644 21.7772 121.786 21.9194C121.928 22.0617 122.008 22.2546 122.008 22.4558C122.008 22.6569 121.928 22.8498 121.786 22.9921C121.644 23.1343 121.451 23.2142 121.25 23.2142Z" fill="#D1D3D4"/>
<path d="M115.318 30.6019H103.774C103.573 30.6019 103.38 30.522 103.238 30.3798C103.096 30.2375 103.016 30.0446 103.016 29.8434C103.016 29.6423 103.096 29.4494 103.238 29.3071C103.38 29.1649 103.573 29.085 103.774 29.085H115.318C115.52 29.085 115.713 29.1649 115.855 29.3071C115.997 29.4494 116.077 29.6423 116.077 29.8434C116.077 30.0446 115.997 30.2375 115.855 30.3798C115.713 30.522 115.52 30.6019 115.318 30.6019Z" fill="#D1D3D4"/>
<path d="M371.125 144.405H365.497V167.357H371.125V144.405Z" fill="#7FF0B2"/>
<path d="M381.501 153.886H375.873V167.357H381.501V153.886Z" fill="#7FF0B2"/>
<path d="M391.877 147.712H386.249V167.357H391.877V147.712Z" fill="#7FF0B2"/>
<path d="M402.268 158.923H396.64V167.357H402.268V158.923Z" fill="#7FF0B2"/>
<path d="M412.645 147.712H407.017V167.357H412.645V147.712Z" fill="#7FF0B2"/>
<path d="M412.508 130.494H402.981C402.791 130.49 402.609 130.412 402.476 130.276C402.343 130.14 402.268 129.957 402.268 129.766C402.266 129.671 402.283 129.577 402.318 129.489C402.353 129.4 402.405 129.32 402.472 129.252C402.538 129.184 402.617 129.131 402.705 129.094C402.792 129.057 402.886 129.038 402.981 129.038H412.508C412.701 129.038 412.886 129.115 413.023 129.251C413.159 129.388 413.236 129.573 413.236 129.766C413.232 129.958 413.154 130.141 413.018 130.277C412.883 130.413 412.7 130.49 412.508 130.494Z" fill="#D1D3D4"/>
<path d="M409.201 134.029H402.981C402.791 134.025 402.609 133.946 402.476 133.81C402.343 133.674 402.268 133.491 402.268 133.3C402.266 133.206 402.283 133.111 402.318 133.023C402.353 132.935 402.405 132.854 402.472 132.786C402.538 132.719 402.617 132.665 402.705 132.628C402.792 132.591 402.886 132.572 402.981 132.572H409.201C409.394 132.572 409.579 132.649 409.716 132.786C409.852 132.922 409.929 133.107 409.929 133.3C409.925 133.492 409.847 133.675 409.711 133.811C409.576 133.947 409.393 134.025 409.201 134.029Z" fill="#D1D3D4"/>
<path d="M400.145 148.531C396.944 148.531 394.259 145.088 392.089 142.327C390.952 140.81 389.541 139.065 388.873 139.065C387.59 139.324 386.372 139.84 385.293 140.582C383.306 141.735 381.076 143.04 378.846 142.918C374.887 142.706 367.909 134.59 367.135 133.665C367.073 133.594 367.025 133.511 366.995 133.421C366.964 133.331 366.952 133.235 366.959 133.141C366.967 133.046 366.992 132.954 367.036 132.869C367.079 132.785 367.139 132.71 367.211 132.648C367.361 132.527 367.553 132.468 367.745 132.485C367.938 132.502 368.116 132.593 368.243 132.739C370.245 135.106 376.101 141.31 378.862 141.477C380.893 141.26 382.832 140.517 384.489 139.323C385.763 138.426 387.218 137.82 388.752 137.548C390.072 137.548 391.468 139.217 393.167 141.371C395.169 143.935 397.717 147.136 400.205 147.014C402.39 146.908 403.421 145.012 404.635 142.812C405.848 140.613 407.092 138.261 409.686 137.837C409.875 137.805 410.068 137.847 410.227 137.955C410.385 138.062 410.495 138.226 410.536 138.413C410.571 138.602 410.531 138.797 410.423 138.957C410.315 139.116 410.148 139.226 409.959 139.262C408.033 139.627 407.001 141.508 405.909 143.51C404.665 145.77 403.27 148.319 400.281 148.455L400.145 148.531Z" fill="#D1D3D4"/>
<path d="M417.453 168.085H360.946C360.745 168.085 360.552 168.005 360.41 167.863C360.268 167.72 360.188 167.528 360.188 167.326C360.188 167.125 360.268 166.932 360.41 166.79C360.552 166.648 360.745 166.568 360.946 166.568H417.453C417.654 166.568 417.847 166.648 417.99 166.79C418.132 166.932 418.212 167.125 418.212 167.326C418.212 167.528 418.132 167.72 417.99 167.863C417.847 168.005 417.654 168.085 417.453 168.085Z" fill="#D1D3D4"/>
<path d="M367.818 134.893C367.488 134.893 367.165 134.796 366.891 134.612C366.617 134.429 366.403 134.168 366.276 133.863C366.15 133.558 366.117 133.223 366.181 132.899C366.246 132.576 366.405 132.278 366.638 132.045C366.872 131.812 367.169 131.653 367.493 131.588C367.816 131.524 368.152 131.557 368.457 131.683C368.762 131.809 369.022 132.023 369.206 132.298C369.389 132.572 369.487 132.895 369.487 133.225C369.489 133.445 369.447 133.662 369.364 133.866C369.281 134.069 369.158 134.254 369.003 134.409C368.847 134.565 368.662 134.687 368.459 134.771C368.256 134.854 368.038 134.896 367.818 134.893ZM367.818 133.012C367.762 133.012 367.708 133.035 367.668 133.075C367.628 133.114 367.606 133.168 367.606 133.225C367.606 133.468 368.046 133.468 368.046 133.225C368.042 133.167 368.016 133.113 367.974 133.074C367.932 133.034 367.876 133.012 367.818 133.012Z" fill="#D1D3D4"/>
<path d="M409.899 140.279C409.456 140.279 409.032 140.103 408.719 139.79C408.406 139.477 408.23 139.053 408.23 138.61C408.23 138.168 408.406 137.743 408.719 137.43C409.032 137.117 409.456 136.941 409.899 136.941C410.341 136.941 410.766 137.117 411.079 137.43C411.392 137.743 411.568 138.168 411.568 138.61C411.568 139.053 411.392 139.477 411.079 139.79C410.766 140.103 410.341 140.279 409.899 140.279ZM409.899 138.398C409.843 138.398 409.789 138.42 409.749 138.46C409.709 138.5 409.687 138.554 409.687 138.61C409.687 138.853 410.111 138.853 410.111 138.61C410.111 138.554 410.089 138.5 410.049 138.46C410.009 138.42 409.955 138.398 409.899 138.398Z" fill="#D1D3D4"/>
<path d="M390.405 71.2719V66.9637C388.889 66.5389 387.372 66.2204 385.855 65.7198C382.998 64.8092 380.534 62.9594 378.861 60.471C377.484 58.2964 376.782 55.7627 376.844 53.1896H385.233C385.293 54.6455 385.829 56.0416 386.757 57.1646C387.686 58.2876 388.957 59.0759 390.375 59.4092V48.0016C388.691 47.5161 387.023 47.0611 385.354 46.4846C383.526 45.9654 381.851 45.0131 380.469 43.7085C379.042 42.2824 378.094 40.4484 377.754 38.4598C377.261 36.0197 377.445 33.4913 378.285 31.148C378.896 29.4598 379.875 27.9282 381.15 26.6639C382.425 25.3995 383.964 24.4337 385.657 23.8363C387.051 23.3922 388.47 23.0275 389.905 22.744L390.405 22.6379V16.9492H398.263V17.4953C398.263 19.1337 398.263 20.7568 398.263 22.38C398.263 22.7896 398.4 22.9109 398.779 23.0019C401.467 23.5123 403.986 24.6855 406.106 26.4151C408.334 28.2601 409.812 30.8545 410.263 33.7117C410.399 34.4854 410.46 35.2287 410.566 36.1085H402.025C402.004 34.9433 401.642 33.8098 400.984 32.8476C400.326 31.8854 399.402 31.1365 398.324 30.693V41.3117L399.249 41.5241C401.554 41.9765 403.799 42.6943 405.939 43.663C407.549 44.3633 408.938 45.486 409.961 46.9122C410.984 48.3383 411.602 50.0148 411.749 51.7636C412.235 55.0185 411.441 58.335 409.534 61.0172C407.964 63.2091 405.747 64.8537 403.194 65.7198C401.677 66.2659 399.978 66.6148 398.279 67.085V71.2567L390.405 71.2719ZM398.294 49.6399V59.5457C399.567 59.3613 400.767 58.8373 401.768 58.0287C403.588 56.5118 404.24 52.7952 401.57 51.172C400.507 50.6014 399.413 50.0899 398.294 49.6399ZM390.375 39.5065V29.9496C389.335 30.3953 388.322 30.9018 387.341 31.4666C386.782 31.8629 386.33 32.3923 386.027 33.0071C385.723 33.6218 385.578 34.3024 385.603 34.9875C385.629 35.6725 385.825 36.3404 386.173 36.9308C386.522 37.5211 387.012 38.0154 387.599 38.3688C388.494 38.8239 389.419 39.1121 390.375 39.5065Z" fill="#7FF0B2"/>
<path d="M398.264 72.0301H390.406C390.206 72.0262 390.015 71.945 389.874 71.8036C389.732 71.6622 389.651 71.4715 389.647 71.2716V67.555L388.752 67.3275C387.675 67.0544 386.644 66.7813 385.612 66.4324C382.597 65.4615 379.995 63.5063 378.224 60.8803C376.761 58.587 376.016 55.9088 376.085 53.1893C376.081 53.0886 376.098 52.988 376.134 52.894C376.171 52.8001 376.227 52.7147 376.298 52.6434C376.369 52.5721 376.455 52.5164 376.549 52.4798C376.643 52.4432 376.743 52.4265 376.844 52.4308H385.233C385.418 52.4257 385.598 52.4896 385.738 52.6103C385.878 52.7309 385.969 52.8995 385.991 53.0831C386.022 54.217 386.381 55.3175 387.025 56.2517C387.668 57.1859 388.569 57.9136 389.617 58.347V48.5777L388.661 48.3047C387.478 47.9558 386.295 47.622 385.127 47.2579C383.179 46.6764 381.4 45.6359 379.939 44.224C378.386 42.6848 377.361 40.6933 377.011 38.5354C376.489 35.9587 376.683 33.2881 377.572 30.814C378.225 29.0294 379.264 27.4108 380.615 26.0736C381.965 24.7363 383.594 23.7133 385.385 23.0775C386.374 22.7266 387.388 22.4477 388.418 22.2431L389.662 21.9701V16.9489C389.662 16.7478 389.742 16.5548 389.885 16.4126C390.027 16.2703 390.22 16.1904 390.421 16.1904H398.279C398.48 16.1904 398.673 16.2703 398.815 16.4126C398.957 16.5548 399.037 16.7478 399.037 16.9489V18.8603C399.037 19.998 399.037 21.1357 399.037 22.2735C401.823 22.8128 404.429 24.0381 406.622 25.8384C408.988 27.7923 410.558 30.5438 411.036 33.5749C411.143 34.121 411.203 34.6823 411.264 35.2436L411.355 36.0172C411.366 36.1237 411.354 36.2313 411.321 36.333C411.287 36.4348 411.233 36.5286 411.162 36.6084C411.091 36.6883 411.004 36.7524 410.906 36.7969C410.809 36.8414 410.704 36.8651 410.597 36.8667H402.026C401.833 36.8635 401.649 36.7887 401.509 36.6569C401.368 36.525 401.282 36.3456 401.267 36.1537C401.259 35.3372 401.057 34.5344 400.677 33.8116C400.297 33.0888 399.751 32.4669 399.083 31.9972V40.7198H399.401C401.767 41.1763 404.069 41.9147 406.258 42.9194C407.986 43.6696 409.478 44.874 410.576 46.4046C411.674 47.9351 412.336 49.7346 412.493 51.6117C413.015 55.055 412.172 58.5662 410.141 61.3961C408.488 63.7207 406.141 65.4624 403.436 66.3718C402.329 66.751 401.222 67.0392 400.038 67.3426L398.992 67.646V71.2412C398.996 71.3409 398.98 71.4403 398.946 71.5339C398.911 71.6275 398.859 71.7133 398.791 71.7866C398.724 71.8599 398.642 71.9191 398.552 71.9609C398.461 72.0026 398.363 72.0261 398.264 72.0301ZM391.164 70.5131H397.475V67.0999C397.476 66.9338 397.531 66.7726 397.632 66.6411C397.734 66.5096 397.876 66.4149 398.036 66.3718L399.553 65.947C400.706 65.6588 401.783 65.3706 402.845 65.0065C405.244 64.1933 407.329 62.6497 408.807 60.5921C410.618 58.0705 411.365 54.9372 410.885 51.8695C410.761 50.2467 410.196 48.6886 409.249 47.3648C408.302 46.0409 407.011 45.0019 405.515 44.3605C403.424 43.4149 401.23 42.7174 398.977 42.2823L398.309 42.1306L398.051 42.0547C397.884 42.0199 397.734 41.9284 397.626 41.7958C397.518 41.6632 397.459 41.4975 397.46 41.3266V30.7078C397.462 30.5793 397.496 30.4534 397.556 30.34C397.617 30.2267 397.703 30.1293 397.808 30.0555C397.921 29.9958 398.046 29.9645 398.173 29.9645C398.3 29.9645 398.425 29.9958 398.537 30.0555C399.629 30.5059 400.582 31.2395 401.297 32.1808C402.011 33.1221 402.462 34.2369 402.602 35.4104H409.61C409.61 34.8947 409.504 34.3941 409.413 33.8935C408.992 31.2137 407.605 28.7805 405.515 27.0519C403.487 25.4064 401.085 24.2862 398.521 23.7904C398.194 23.7597 397.892 23.6003 397.681 23.3473C397.471 23.0942 397.369 22.7681 397.399 22.4403C397.399 21.2571 397.399 20.089 397.399 18.921V17.7681H391.058V22.6982C391.061 22.8738 391.002 23.0448 390.891 23.1809C390.78 23.317 390.624 23.4093 390.451 23.4415H390.269H389.981L388.631 23.7449C387.677 23.9255 386.739 24.1791 385.824 24.5034C384.233 25.0665 382.787 25.9746 381.588 27.1627C380.39 28.3508 379.469 29.7894 378.892 31.3753C378.089 33.5855 377.92 35.9766 378.406 38.2775C378.7 40.1306 379.576 41.8418 380.909 43.1621C382.191 44.3861 383.754 45.2769 385.46 45.7562C386.613 46.1354 387.781 46.4691 388.965 46.8029L390.482 47.2276C390.639 47.2736 390.777 47.3694 390.876 47.5007C390.974 47.632 391.028 47.7916 391.028 47.9558V59.3634C391.028 59.4775 391.003 59.5902 390.953 59.6928C390.903 59.7954 390.83 59.8851 390.739 59.955C390.646 60.0282 390.538 60.0787 390.422 60.1024C390.306 60.1261 390.186 60.1224 390.072 60.0915C388.651 59.7429 387.367 58.975 386.388 57.8876C385.408 56.8001 384.779 55.4432 384.581 53.9933H377.618C377.684 56.1489 378.334 58.2462 379.499 60.0612C381.082 62.4088 383.413 64.1517 386.113 65.0065C387.084 65.3402 388.07 65.5981 389.147 65.8712L390.664 66.2504C390.821 66.2964 390.959 66.3922 391.058 66.5235C391.156 66.6548 391.21 66.8144 391.21 66.9785L391.164 70.5131ZM398.294 60.3039C398.115 60.3063 397.942 60.2413 397.808 60.1218C397.726 60.0495 397.659 59.961 397.612 59.8619C397.565 59.7627 397.539 59.655 397.535 59.5454V49.6396C397.536 49.5127 397.569 49.3881 397.631 49.2772C397.692 49.1663 397.781 49.0726 397.888 49.0046C397.995 48.9367 398.117 48.8968 398.244 48.8884C398.371 48.8801 398.497 48.9037 398.612 48.957L399.674 49.4121C400.465 49.7175 401.23 50.0826 401.965 50.5043C402.587 50.8805 403.107 51.4037 403.48 52.0279C403.853 52.652 404.067 53.3581 404.104 54.0843C404.168 54.9342 404.034 55.7874 403.713 56.5769C403.391 57.3665 402.892 58.0709 402.253 58.6352C401.152 59.5404 399.825 60.1278 398.415 60.3342L398.294 60.3039ZM399.052 50.7925V58.5442C399.869 58.315 400.629 57.9171 401.282 57.3761C401.729 56.9676 402.079 56.4637 402.305 55.9017C402.531 55.3398 402.627 54.7341 402.587 54.1298C402.566 53.6473 402.427 53.1773 402.181 52.7617C401.935 52.3462 401.59 51.998 401.176 51.7482C400.502 51.3715 399.803 51.042 399.083 50.7622L399.052 50.7925ZM390.375 40.3406C390.28 40.3606 390.182 40.3606 390.087 40.3406L389.207 39.9917C388.54 39.7338 387.918 39.4911 387.296 39.1877C386.599 38.8287 386.01 38.2913 385.589 37.6304C385.168 36.9694 384.93 36.2086 384.899 35.4256C384.832 34.5699 384.986 33.7112 385.348 32.9326C385.709 32.154 386.265 31.4818 386.962 30.9809C387.627 30.5518 388.327 30.1813 389.056 29.8735L390.042 29.4032C390.157 29.3419 390.286 29.3119 390.417 29.3164C390.547 29.321 390.674 29.3598 390.785 29.429C390.896 29.4982 390.986 29.5953 391.047 29.7106C391.109 29.826 391.138 29.9554 391.134 30.0859V39.6428C391.135 39.7662 391.106 39.8881 391.047 39.9969C390.989 40.1057 390.904 40.1978 390.8 40.2647C390.67 40.3333 390.521 40.3598 390.375 40.3406ZM389.617 31.2388C388.99 31.508 388.387 31.8276 387.812 32.1944C387.346 32.545 386.975 33.0058 386.731 33.5353C386.487 34.0649 386.379 34.6467 386.416 35.2284C386.427 35.7401 386.573 36.2399 386.839 36.6769C387.105 37.1139 387.483 37.4725 387.933 37.7162C388.462 37.9812 389.003 38.2191 389.556 38.4292L389.617 31.2388Z" fill="#231F20"/>
<path d="M293.138 6.3152C293.138 6.3152 341.347 3.93356 351.101 35.7899V99.5026C351.101 99.5026 313.647 69.952 293.138 79.782V6.3152Z" fill="#D1D3D4"/>
<path d="M351.101 100.14C350.93 100.138 350.765 100.079 350.631 99.9728C350.252 99.6846 313.283 70.8318 293.471 80.4039C293.361 80.4678 293.235 80.5014 293.107 80.5014C292.979 80.5014 292.854 80.4678 292.743 80.4039C292.633 80.3337 292.543 80.2374 292.479 80.1236C292.416 80.0098 292.381 79.882 292.379 79.7516V6.31514C292.379 6.11912 292.455 5.93066 292.59 5.78926C292.726 5.64785 292.911 5.56449 293.107 5.55665C293.593 5.55665 342.03 3.50874 351.829 35.5016C351.837 35.5773 351.837 35.6535 351.829 35.7292V99.4419C351.829 99.584 351.79 99.7234 351.715 99.8441C351.64 99.9648 351.532 100.062 351.404 100.125C351.305 100.147 351.202 100.152 351.101 100.14ZM302.907 76.9149C310.386 76.9149 319.503 79.6758 330.212 85.1672C337.263 88.8615 344.014 93.1017 350.403 97.849V35.7898C341.514 7.11913 299.964 6.87642 293.957 6.96743V78.4773C296.811 77.3819 299.851 76.8512 302.907 76.9149Z" fill="#231F20"/>
<path d="M341.347 80.6314C341.172 80.6314 341.002 80.5711 340.867 80.4605C340.732 80.3499 340.638 80.1959 340.603 80.0246C337.827 66.4933 332.382 47.2884 328.984 46.9699C327.193 46.7878 326.207 51.1264 325.343 54.9491C324.357 59.2725 323.431 63.3683 321.035 64.3088C320.466 64.4999 319.857 64.5416 319.268 64.4301C318.678 64.3185 318.127 64.0574 317.667 63.6717C310.188 58.6505 302.315 26.9004 301.981 25.5503C301.935 25.3533 301.968 25.1461 302.073 24.9731C302.178 24.8001 302.347 24.6751 302.543 24.6249C302.738 24.5793 302.943 24.6127 303.114 24.7179C303.284 24.823 303.406 24.9914 303.453 25.1862C303.544 25.5048 311.508 57.7252 318.501 62.4126C318.768 62.65 319.087 62.8194 319.433 62.9066C319.779 62.9937 320.141 62.996 320.488 62.9132C322.127 62.2457 323.052 58.1954 323.856 54.6154C324.964 49.7459 325.98 45.1495 329.12 45.5136C334.885 46.0597 340.937 74.1539 342.09 79.7819C342.11 79.8795 342.111 79.9801 342.092 80.0779C342.073 80.1757 342.035 80.2689 341.98 80.352C341.925 80.4351 341.854 80.5066 341.771 80.5623C341.689 80.6181 341.596 80.657 341.498 80.6769L341.347 80.6314Z" fill="#231F20"/>
<path d="M351.101 35.79C351.101 35.79 347.794 61.7605 331.623 67.3278V123.774C331.623 123.774 343.759 118.283 351.101 99.5027V35.79Z" fill="white"/>
<path d="M331.623 124.487C331.422 124.487 331.229 124.407 331.087 124.265C330.945 124.123 330.865 123.93 330.865 123.729V67.2673C330.868 67.1101 330.919 66.9577 331.011 66.8303C331.104 66.7029 331.232 66.6067 331.381 66.5543C346.914 61.1994 350.312 35.8812 350.343 35.6385C350.35 35.5413 350.377 35.4467 350.422 35.3601C350.467 35.2736 350.529 35.1969 350.603 35.1347C350.678 35.0725 350.765 35.0259 350.858 34.9978C350.952 34.9697 351.05 34.9605 351.147 34.971C351.339 34.9861 351.518 35.0721 351.65 35.2124C351.782 35.3526 351.856 35.537 351.86 35.7295V99.4422C351.874 99.5326 351.874 99.6248 351.86 99.7152C344.533 118.647 332.488 124.245 331.987 124.472C331.869 124.505 331.744 124.51 331.623 124.487ZM332.382 67.7982V122.409C335.416 120.574 344.517 114.187 350.343 99.1995V43.0716C348.143 51.2329 343.107 63.7782 332.382 67.7982Z" fill="#231F20"/>
<path d="M323.765 20.62C323.619 20.6244 323.476 20.5819 323.356 20.4987C320.686 18.8199 317.684 17.7384 314.557 17.3282C314.458 17.3187 314.361 17.2896 314.272 17.2424C314.184 17.1952 314.106 17.131 314.042 17.0534C313.979 16.9758 313.931 16.8864 313.902 16.7904C313.874 16.6943 313.864 16.5936 313.875 16.4939C313.898 16.2967 313.995 16.1159 314.148 15.9889C314.3 15.8618 314.496 15.7982 314.694 15.8112C318.07 16.2426 321.312 17.4076 324.19 19.2244C324.357 19.3384 324.473 19.5135 324.513 19.712C324.553 19.9105 324.513 20.1167 324.403 20.2863C324.33 20.3884 324.235 20.472 324.124 20.53C324.013 20.588 323.89 20.6189 323.765 20.62Z" fill="#231F20"/>
<path d="M323.143 25.6108C322.993 25.6078 322.847 25.566 322.718 25.4895C320.992 24.3522 319.083 23.5209 317.075 23.032C316.976 23.016 316.88 22.9807 316.794 22.9278C316.708 22.875 316.634 22.8057 316.574 22.724C316.515 22.6423 316.473 22.5498 316.449 22.4516C316.426 22.3535 316.422 22.2518 316.438 22.1522C316.454 22.0525 316.489 21.957 316.542 21.8711C316.595 21.7852 316.664 21.7105 316.746 21.6514C316.828 21.5922 316.92 21.5497 317.018 21.5263C317.117 21.5029 317.218 21.4991 317.318 21.515C319.537 22.0329 321.647 22.9366 323.553 24.1849C323.721 24.2937 323.84 24.465 323.883 24.6612C323.925 24.8574 323.889 25.0625 323.78 25.2316C323.714 25.3431 323.621 25.4363 323.51 25.5025C323.399 25.5688 323.273 25.606 323.143 25.6108Z" fill="#231F20"/>
<path d="M268.532 79.6301L276.026 74.7758C278.393 73.2588 281.078 68.7079 283.034 68.9203C284.991 69.1327 280.789 74.5179 280.789 74.5179C280.789 74.5179 288.708 69.8456 290.983 69.967C293.259 70.0883 294.017 74.0325 293.35 75.155C292.682 76.2776 286.144 78.3862 283.596 80.3886C280.173 82.6409 276.628 84.7021 272.977 86.5626" fill="white"/>
<path d="M272.947 87.3671C272.779 87.3646 272.616 87.3065 272.485 87.2019C272.354 87.0972 272.261 86.952 272.221 86.7889C272.181 86.6259 272.197 86.4542 272.265 86.3007C272.333 86.1473 272.45 86.0208 272.598 85.9411C276.202 84.1157 279.702 82.0899 283.08 79.8733C284.912 78.6726 286.858 77.6563 288.89 76.8393C290.219 76.3255 291.486 75.664 292.667 74.8673C292.899 73.8909 292.758 72.8633 292.273 71.985C292.162 71.6958 291.978 71.4402 291.738 71.2435C291.499 71.0467 291.213 70.9154 290.908 70.8625C289.391 70.7563 284.112 73.5475 281.123 75.3072C280.971 75.3972 280.792 75.4312 280.618 75.4035C280.443 75.3758 280.284 75.2881 280.167 75.1555C280.057 75.018 279.996 74.8467 279.996 74.67C279.996 74.4934 280.057 74.3221 280.167 74.1846C281.29 72.8924 282.169 71.4069 282.761 69.8006C281.957 69.9068 280.622 71.3175 279.53 72.607C278.642 73.7075 277.623 74.6957 276.496 75.5499L269.003 80.4042L268.183 79.1299C268.183 79.1299 273.311 75.7926 275.677 74.2756C276.712 73.4954 277.649 72.5939 278.468 71.5906C280.092 69.7854 281.639 68.0864 283.186 68.2988C283.421 68.3178 283.646 68.4016 283.836 68.5409C284.026 68.6801 284.174 68.8694 284.263 69.0876C284.398 70.2685 284.066 71.4554 283.338 72.3946C285.871 71.0445 289.406 69.3607 290.923 69.3607H291.029C291.603 69.4164 292.151 69.6263 292.616 69.9681C293.081 70.3099 293.444 70.7709 293.668 71.3024C294.048 71.965 294.273 72.7043 294.328 73.4657C294.383 74.2272 294.267 74.9913 293.987 75.7016C293.532 76.4146 292.151 77.0517 289.573 78.2349C287.648 79.0201 285.803 79.9905 284.066 81.1323C280.616 83.4226 277.035 85.5094 273.341 87.3823C273.211 87.4153 273.074 87.41 272.947 87.3671Z" fill="#231F20"/>
<path d="M275.268 48.9116C277.737 47.5872 280.348 46.544 283.05 45.8018C286.084 45.195 289.952 44.9827 289.254 43.6326C288.556 42.2825 281.366 43.223 281.336 43.2381C284.627 42.7982 287.737 32.7559 288.723 30.3136C288.904 29.9244 288.993 29.4987 288.981 29.0697C288.963 28.8558 288.869 28.6554 288.716 28.505C288.563 28.3546 288.361 28.2643 288.147 28.2505C287.852 28.2988 287.584 28.4491 287.388 28.6752C281.867 33.7571 276.921 39.021 271.157 43.8449C270.58 44.4214 275.268 48.9116 275.268 48.9116Z" fill="white"/>
<path d="M275.268 49.6706C275.07 49.6687 274.881 49.5929 274.737 49.4582C270.338 45.2259 270.338 44.3157 270.353 44.0123C270.369 43.7631 270.47 43.5272 270.641 43.3448C274.175 40.3109 277.467 37.1556 280.638 34.061C282.655 32.1041 284.734 30.0865 286.872 28.1145C287.194 27.7662 287.63 27.5454 288.101 27.4925C288.516 27.4841 288.918 27.638 289.221 27.9213C289.524 28.2046 289.705 28.595 289.724 29.0095C289.771 29.568 289.667 30.1288 289.421 30.6326C289.284 30.9815 289.102 31.467 288.89 32.0586C287.494 35.9269 285.856 39.9772 284.066 42.2375C286.797 42.0554 289.36 42.2375 289.937 43.3297C290.034 43.5199 290.085 43.7304 290.085 43.944C290.085 44.1576 290.034 44.3682 289.937 44.5584C289.436 45.5141 287.889 45.8175 285.189 46.2422L283.171 46.5912C280.54 47.3222 277.996 48.3396 275.586 49.6251C275.485 49.6649 275.376 49.6805 275.268 49.6706ZM271.976 44.1943C273.012 45.5513 274.158 46.8198 275.404 47.9868C277.782 46.7265 280.296 45.7441 282.898 45.059C283.581 44.9225 284.294 44.8163 284.976 44.6949C286.171 44.5664 287.346 44.3017 288.48 43.9061C286.146 43.5397 283.767 43.5653 281.442 43.982C281.241 44.0101 281.036 43.9572 280.874 43.8349C280.712 43.7126 280.605 43.5308 280.577 43.3297C280.549 43.1285 280.602 42.9244 280.724 42.7622C280.846 42.6001 281.028 42.4932 281.229 42.465C283.596 42.1464 286.402 34.4099 287.464 31.4821C287.692 30.8754 287.874 30.3596 288.01 29.9652C288.148 29.6975 288.22 29.4013 288.223 29.1005C288.22 29.0678 288.211 29.0359 288.195 29.0071C288.18 28.9783 288.158 28.9532 288.132 28.9336C288.065 29.0226 287.989 29.104 287.904 29.1763C285.78 31.1332 283.702 33.1508 281.7 35.0925C278.605 38.1568 275.404 41.2666 271.976 44.1943Z" fill="#231F20"/>
<path d="M223.934 51.7337C223.934 51.7337 249.115 58.5146 253.12 57.9988L270.322 42.8291L278.514 49.7161C278.514 49.7161 272.158 63.1261 264.755 70.4379C257.352 77.7497 215.196 74.3366 215.196 74.3366L223.934 51.7337Z" fill="white"/>
<path d="M235.918 75.9139C225.299 75.9139 215.939 75.1706 215.135 75.1099C215.018 75.1025 214.904 75.0669 214.804 75.0062C214.704 74.9454 214.619 74.8613 214.559 74.761C214.506 74.6548 214.479 74.5381 214.479 74.4197C214.479 74.3014 214.506 74.1846 214.559 74.0784L223.296 51.4604C223.365 51.2852 223.496 51.1416 223.664 51.0576C223.832 50.9735 224.025 50.9548 224.207 51.0053C230.881 52.7953 248.478 57.2704 252.65 57.2704H252.877L269.898 42.2827C270.034 42.1622 270.209 42.0957 270.391 42.0957C270.572 42.0957 270.748 42.1622 270.884 42.2827L279.075 49.1698C279.205 49.278 279.294 49.4262 279.33 49.591C279.366 49.7559 279.345 49.9279 279.272 50.08C279.015 50.6261 272.78 63.7327 265.362 71.0141C261.281 74.9582 247.871 75.9139 235.918 75.9139ZM216.273 73.7143C222.72 74.1694 257.777 76.3387 264.224 69.9674C270.671 63.5961 276.36 52.5223 277.573 49.9738L270.338 43.9059L253.651 58.6357C253.535 58.7354 253.393 58.7988 253.241 58.8177C249.449 59.3031 228.515 53.7965 224.419 52.7498L216.273 73.7143Z" fill="#231F20"/>
<path d="M261.387 206.631C261.387 206.631 256.169 211.531 256.518 214.216C256.867 216.901 272.461 234.437 274.342 232.723C276.223 231.009 271.066 216.036 271.066 216.036L261.387 206.631Z" fill="#231F20"/>
<path d="M273.993 233.557C273.739 233.551 273.487 233.5 273.25 233.406C269.336 231.98 256.139 216.916 255.775 214.261C255.38 211.334 260.325 206.601 260.872 206.085C261.013 205.95 261.2 205.875 261.395 205.875C261.59 205.875 261.777 205.95 261.918 206.085L271.566 215.399C271.653 215.479 271.721 215.577 271.763 215.687C273.356 220.36 276.86 231.403 274.797 233.239C274.58 233.444 274.292 233.558 273.993 233.557ZM261.387 207.678C259.506 209.559 257.064 212.562 257.276 214.064C257.64 216.764 271.445 231.646 273.887 232.04C274.509 230.842 272.962 223.834 270.398 216.355L261.387 207.678Z" fill="#231F20"/>
<path d="M269.048 194.101L261.387 206.631L271.066 215.945L280.941 201.397L269.048 194.101Z" fill="white"/>
<path d="M271.066 216.703C270.868 216.705 270.677 216.628 270.535 216.491L260.856 207.207C260.735 207.086 260.657 206.928 260.635 206.758C260.613 206.587 260.648 206.415 260.735 206.267L268.32 193.737C268.37 193.649 268.438 193.573 268.518 193.513C268.599 193.453 268.692 193.41 268.79 193.388C268.888 193.364 268.989 193.36 269.088 193.375C269.186 193.391 269.281 193.426 269.367 193.479L281.26 200.775C281.348 200.828 281.424 200.899 281.484 200.982C281.544 201.066 281.586 201.16 281.609 201.261C281.631 201.362 281.632 201.467 281.611 201.569C281.59 201.671 281.548 201.768 281.487 201.852L271.688 216.309C271.626 216.399 271.545 216.474 271.45 216.529C271.356 216.584 271.25 216.618 271.142 216.628L271.066 216.703ZM262.358 206.509L270.944 214.762L279.864 201.625L269.245 195.132L262.358 206.509Z" fill="#231F20"/>
<path d="M246.597 115.294C246.597 115.294 289.74 131.981 297.628 140.218C305.516 148.455 292.516 198.758 280.774 206.889L265.18 196.088C265.18 196.088 278.833 157.966 275.996 154.341C273.159 150.715 236.964 141.492 236.964 141.492L216.227 111.638L246.597 115.294Z" fill="#231F20"/>
<path d="M280.774 207.647C280.622 207.648 280.473 207.601 280.349 207.511L264.755 196.71C264.619 196.614 264.517 196.477 264.465 196.318C264.413 196.159 264.414 195.988 264.467 195.83C271.126 177.293 277.027 156.874 275.404 154.872C273.402 152.354 251.209 145.967 236.782 142.281C236.604 142.237 236.447 142.129 236.342 141.978L215.605 112.169C215.523 112.049 215.476 111.908 215.472 111.762C215.468 111.617 215.505 111.473 215.58 111.348C215.656 111.223 215.765 111.123 215.896 111.058C216.027 110.994 216.173 110.969 216.318 110.986L246.658 114.596H246.84C248.614 115.279 290.24 131.495 298.128 139.702C301.162 142.736 301.011 150.579 300.419 156.586C298.583 174.881 289.603 201.686 281.169 207.526C281.052 207.604 280.915 207.647 280.774 207.647ZM266.09 195.8L280.759 205.963C288.753 199.759 297.173 174.107 298.963 156.419C299.767 148.395 299.099 142.767 297.097 140.734C289.588 132.937 248.63 116.887 246.43 116.022L217.82 112.624L237.45 140.825C242.258 142.054 273.72 150.23 276.603 153.871C277.103 154.523 279.03 159.635 266.09 195.8Z" fill="#231F20"/>
<path d="M228.848 224.789L225.951 236.848L237.07 243.948L241.818 227.398L228.848 224.789Z" fill="white"/>
<path d="M237.071 244.692C236.927 244.694 236.785 244.657 236.661 244.585L225.542 237.547C225.41 237.46 225.309 237.335 225.252 237.188C225.194 237.041 225.184 236.88 225.223 236.727L228.12 224.668C228.14 224.572 228.179 224.482 228.234 224.402C228.289 224.322 228.36 224.254 228.442 224.201C228.524 224.149 228.616 224.114 228.711 224.097C228.807 224.081 228.906 224.084 229 224.106L241.97 226.715C242.075 226.732 242.174 226.772 242.261 226.832C242.348 226.893 242.419 226.972 242.471 227.064C242.524 227.155 242.558 227.256 242.571 227.36C242.584 227.464 242.576 227.57 242.547 227.671L237.799 244.206C237.77 244.321 237.714 244.426 237.634 244.514C237.555 244.601 237.455 244.667 237.344 244.707L237.071 244.692ZM226.816 236.5L236.631 242.75L240.863 227.975L229.425 225.669L226.816 236.5Z" fill="#231F20"/>
<path d="M201.634 121.408C201.634 121.408 197.523 140.612 208.218 142.236C227.453 145.148 237.192 159.832 237.298 169.844C237.465 183.785 225.481 226.792 225.481 226.792L245.201 234.134C245.201 234.134 266.97 177.869 263.815 162.442C260.659 147.014 236.024 112.67 236.024 112.67L201.634 121.408Z" fill="#231F20"/>
<path d="M245.202 234.892C245.111 234.906 245.019 234.906 244.929 234.892L225.208 227.55C225.033 227.481 224.889 227.35 224.805 227.182C224.721 227.014 224.702 226.821 224.753 226.64C224.874 226.215 236.707 183.573 236.555 169.89C236.373 154.477 219.474 144.754 208.097 143.024C206.98 142.871 205.908 142.484 204.951 141.888C203.995 141.292 203.174 140.5 202.544 139.566C198.358 133.498 200.785 121.802 200.891 121.362C200.921 121.223 200.99 121.095 201.089 120.993C201.188 120.891 201.314 120.819 201.452 120.785L235.842 112.048C235.989 112.009 236.145 112.017 236.288 112.068C236.432 112.119 236.556 112.213 236.646 112.336C237.647 113.747 261.403 146.999 264.558 162.396C267.713 177.793 246.794 232.177 245.899 234.513C245.831 234.635 245.729 234.736 245.605 234.803C245.482 234.87 245.342 234.901 245.202 234.892ZM226.391 226.336L244.762 233.178C247.234 226.655 265.999 176.701 263.071 162.593C260.144 148.485 238.527 117.494 235.766 113.534L202.393 122.029C201.998 124.214 200.512 133.756 203.91 138.716C204.422 139.484 205.094 140.132 205.879 140.616C206.664 141.1 207.545 141.409 208.461 141.522C228.773 144.556 238.072 159.969 238.193 169.875C238.193 182.936 227.954 220.632 226.391 226.336Z" fill="#231F20"/>
<path d="M211.707 36.1392C201.74 33.4542 204.471 17.6928 206.428 10.2294C206.698 8.62038 207.48 7.14148 208.658 6.01218C209.265 5.4855 210.057 5.22161 210.859 5.2785C211.662 5.33539 212.408 5.7084 212.936 6.31558C212.708 4.22216 214.756 2.58383 216.728 1.76467C220.468 0.300449 224.623 0.300449 228.363 1.76467C230.942 2.81138 233.278 4.54072 235.948 5.04132C238.618 5.54192 242.107 4.14631 242.38 1.38543C243.612 2.65862 244.528 4.20287 245.055 5.89421C245.582 7.58555 245.705 9.37688 245.414 11.1244C244.762 14.932 242.38 16.631 239.847 19.0278C237.313 21.4246 236.676 25.1715 233.642 27.1587C228.075 30.7539 225.162 35.7903 218.139 36.5033C215.99 36.7726 213.811 36.6492 211.707 36.1392Z" fill="white"/>
<path d="M215.833 37.3827C214.381 37.401 212.932 37.2276 211.525 36.867C200.709 33.9696 203.834 17.1464 205.685 10.047C205.998 8.2872 206.871 6.67537 208.172 5.45054C208.63 5.08926 209.157 4.82604 209.721 4.67728C210.285 4.52852 210.873 4.4974 211.449 4.58587C211.757 4.64253 212.057 4.73414 212.344 4.85893C212.734 3.98798 213.301 3.20772 214.008 2.56784C214.716 1.92797 215.549 1.4425 216.455 1.14235C220.357 -0.380784 224.689 -0.380784 228.591 1.14235C229.562 1.53676 230.502 2.02219 231.397 2.49245C232.862 3.33972 234.441 3.97315 236.085 4.3735C236.829 4.5088 237.593 4.49535 238.333 4.33393C239.072 4.17251 239.772 3.8663 240.393 3.43297C240.732 3.19795 241.018 2.89417 241.233 2.54135C241.447 2.18853 241.585 1.79457 241.637 1.38507C241.652 1.24301 241.708 1.10822 241.796 0.996213C241.885 0.884208 242.004 0.799547 242.138 0.751988C242.273 0.704428 242.419 0.695904 242.558 0.727394C242.697 0.758884 242.825 0.829108 242.926 0.929978C244.249 2.28701 245.236 3.93511 245.808 5.74223C246.38 7.54934 246.52 9.46524 246.218 11.3364C245.596 14.9923 243.578 16.7975 241.242 18.9212L240.423 19.6797C239.394 20.7183 238.525 21.9044 237.844 23.1991C236.937 25.003 235.61 26.5635 233.976 27.75C232.331 28.8646 230.765 30.0912 229.289 31.4211C226.133 34.1364 223.221 36.7001 218.139 37.2159C217.374 37.3131 216.604 37.3689 215.833 37.3827ZM210.797 6.02699C210.194 6.02472 209.607 6.22208 209.128 6.58827C208.09 7.63318 207.401 8.97391 207.156 10.4262C205.427 17.0857 202.408 32.847 211.904 35.3955C213.914 35.881 215.995 36.0043 218.048 35.7596C222.599 35.2893 225.254 32.9835 228.363 30.3137C229.887 28.9337 231.51 27.6662 233.218 26.5212C234.677 25.454 235.863 24.0554 236.676 22.4406C237.423 21.0127 238.385 19.7081 239.528 18.5723L240.363 17.8138C242.577 15.8114 244.337 14.2338 244.913 11.1088C245.119 9.68446 245.032 8.23325 244.659 6.84333C244.286 5.45341 243.635 4.15379 242.744 3.0234C242.41 3.67748 241.927 4.24388 241.333 4.67689C240.544 5.23315 239.652 5.6269 238.71 5.83524C237.767 6.04359 236.792 6.06236 235.842 5.89047C234.06 5.49556 232.347 4.83595 230.76 3.93358C229.895 3.49365 228.985 3.02339 228.09 2.65932C224.526 1.25989 220.565 1.25989 217.001 2.65932C215.226 3.35713 213.512 4.76791 213.694 6.3759C213.714 6.54682 213.676 6.71953 213.585 6.86563C213.494 7.01174 213.356 7.12255 213.194 7.17989C213.03 7.23387 212.854 7.23186 212.691 7.17417C212.529 7.11647 212.391 7.00639 212.299 6.86133C212.176 6.67719 212.015 6.52205 211.826 6.40675C211.638 6.29145 211.426 6.2188 211.206 6.19386C211.077 6.1222 210.939 6.06618 210.797 6.02699Z" fill="#231F20"/>
<path d="M236.282 28.2051C236.282 28.2051 239.225 35.6231 238.041 36.7911C236.858 37.9592 234.097 36.427 234.097 36.427" fill="white"/>
<path d="M236.798 37.944C235.733 37.8726 234.697 37.5669 233.764 37.049C233.676 37.0012 233.599 36.9366 233.536 36.8588C233.473 36.7811 233.426 36.6918 233.398 36.596C233.37 36.5002 233.361 36.3998 233.372 36.3006C233.382 36.2013 233.412 36.1051 233.46 36.0174C233.508 35.9298 233.573 35.8524 233.65 35.7897C233.728 35.727 233.817 35.6803 233.913 35.6521C234.009 35.6239 234.109 35.6149 234.209 35.6255C234.308 35.6361 234.404 35.6662 234.492 35.714C235.417 36.2298 237.025 36.7304 237.526 36.1995C238.026 35.6685 236.995 31.9671 235.599 28.4326C235.56 28.3402 235.54 28.2409 235.54 28.1406C235.541 28.0402 235.561 27.941 235.601 27.8489C235.641 27.7568 235.699 27.6736 235.771 27.6045C235.844 27.5353 235.93 27.4816 236.024 27.4466C236.117 27.4096 236.216 27.3913 236.315 27.3926C236.415 27.394 236.513 27.415 236.605 27.4545C236.697 27.4939 236.78 27.551 236.849 27.6226C236.918 27.6941 236.973 27.7786 237.01 27.8713C238.163 30.8142 239.923 35.9568 238.527 37.2765C238.061 37.719 237.44 37.959 236.798 37.944Z" fill="#231F20"/>
<path d="M237.177 19.3458C239.452 22.1674 237.662 26.7183 236.98 29.7977C236.039 34.1211 234.992 38.4293 233.855 42.6919C233.127 45.4073 226.012 43.9662 224.92 42.8891L223.676 52.0971C223.676 52.0971 220.945 56.7694 215.772 52.9011C210.6 49.0329 210.038 45.0887 210.038 45.0887L213.072 32.6799C213.072 32.6799 217.775 33.6963 221.719 28.6903C225.663 23.6843 227.377 15.0376 227.377 15.0376C227.377 15.0376 234.962 16.6001 237.177 19.3458Z" fill="white"/>
<path d="M219.671 55.1922C218.075 55.1194 216.547 54.5283 215.317 53.5083C209.962 49.5035 209.249 45.3774 209.249 45.1953C209.227 45.1006 209.227 45.0019 209.249 44.9071L212.405 32.4831C212.451 32.2923 212.572 32.1277 212.739 32.0254C212.907 31.9231 213.109 31.8913 213.3 31.937C213.467 31.937 217.593 32.7714 221.188 28.2205C224.98 23.4117 226.664 14.9925 226.694 14.9166C226.711 14.8179 226.747 14.7237 226.802 14.64C226.857 14.5564 226.929 14.4852 227.013 14.4312C227.095 14.3774 227.187 14.3403 227.283 14.322C227.379 14.3038 227.478 14.3048 227.574 14.325C227.893 14.325 235.402 15.933 237.768 18.8759C239.892 21.5154 238.921 25.2927 238.132 28.3266C237.981 28.9031 237.844 29.4644 237.723 29.9801C236.782 34.3035 235.72 38.642 234.583 42.9047C234.437 43.3933 234.156 43.8308 233.772 44.1663C233.388 44.5019 232.917 44.7219 232.413 44.8009C230.099 45.206 227.717 44.9699 225.526 44.1183L224.419 52.2189C224.405 52.3194 224.374 52.4168 224.328 52.5071C223.503 53.8204 222.196 54.7573 220.687 55.1163C220.352 55.1723 220.011 55.1977 219.671 55.1922ZM210.888 45.1195C211.812 48.0637 213.725 50.5982 216.303 52.2947C216.865 52.794 217.525 53.1695 218.241 53.3969C218.957 53.6243 219.713 53.6984 220.46 53.6145C221.497 53.3432 222.405 52.7147 223.023 51.8397L224.252 42.7378C224.273 42.5988 224.333 42.4685 224.424 42.3613C224.515 42.2542 224.634 42.1744 224.768 42.1311C224.901 42.0851 225.044 42.0778 225.181 42.11C225.318 42.1422 225.443 42.2126 225.542 42.3131C227.571 43.315 229.864 43.6495 232.095 43.2688C232.717 43.1019 233.096 42.8289 233.202 42.4648C234.325 38.2173 235.372 33.8939 236.327 29.5857C236.433 29.0548 236.585 28.4935 236.737 27.8867C237.435 25.1865 238.254 21.8188 236.661 19.7709C235.144 17.9051 230.487 16.4943 228.09 15.9178C227.574 18.1781 225.83 24.8376 222.447 29.1155C221.481 30.5054 220.182 31.6308 218.669 32.3888C217.156 33.1467 215.477 33.513 213.785 33.454L210.888 45.1195Z" fill="#231F20"/>
<path d="M234.431 39.4463C233.951 39.6421 233.435 39.7319 232.918 39.7097C232.4 39.6874 231.893 39.5535 231.432 39.3173C230.971 39.081 230.567 38.7479 230.247 38.3408C229.926 37.9337 229.698 37.4621 229.577 36.9585" fill="white"/>
<path d="M232.944 40.4318C232.25 40.442 231.563 40.2859 230.942 39.9768C230.412 39.683 229.951 39.2792 229.59 38.7926C229.229 38.3059 228.976 37.7476 228.848 37.1552C228.797 36.9621 228.824 36.7566 228.924 36.5834C229.023 36.4101 229.187 36.2831 229.379 36.2298C229.574 36.1782 229.782 36.2049 229.957 36.304C230.133 36.4032 230.263 36.5671 230.32 36.7608C230.392 37.1487 230.547 37.5163 230.775 37.8384C231.003 38.1606 231.298 38.4295 231.64 38.6267C232.444 38.9658 233.343 39.0035 234.173 38.7328C234.364 38.6694 234.572 38.683 234.754 38.7709C234.935 38.8587 235.075 39.0137 235.144 39.2031C235.177 39.2957 235.192 39.394 235.187 39.4924C235.183 39.5908 235.158 39.6872 235.116 39.7761C235.074 39.8651 235.014 39.9447 234.941 40.0104C234.867 40.076 234.782 40.1265 234.689 40.1588C234.124 40.3375 233.536 40.4295 232.944 40.4318Z" fill="#231F20"/>
<path d="M227.392 29.1757C227.503 28.071 227.304 26.9572 226.816 25.9598C226.538 25.1395 226.145 24.3631 225.648 23.654C225.395 23.3051 225.068 23.0166 224.69 22.8094C224.312 22.6022 223.893 22.4813 223.463 22.4556C223.083 22.471 222.711 22.5668 222.371 22.7368C222.031 22.9068 221.731 23.147 221.491 23.4416C221.006 24.0337 220.664 24.7291 220.49 25.4743C220.085 27.0832 220.108 28.7701 220.558 30.367C221.008 31.964 221.868 33.4152 223.054 34.5761L222.856 34.2576" fill="white"/>
<path d="M223.024 35.3803C222.826 35.3784 222.637 35.3027 222.493 35.1679C221.211 33.9023 220.283 32.324 219.798 30.5893C219.314 28.8547 219.291 27.0236 219.732 25.2773C219.934 24.4214 220.328 23.6226 220.885 22.9412C221.197 22.5648 221.585 22.2592 222.025 22.0447C222.464 21.8302 222.944 21.7118 223.433 21.6973C223.98 21.7239 224.515 21.8743 224.995 22.137C225.476 22.3997 225.891 22.768 226.209 23.2142C226.756 23.9786 227.18 24.8229 227.468 25.7172C228.014 26.8481 228.229 28.11 228.09 29.358C228.052 29.5591 227.935 29.7369 227.766 29.8521C227.597 29.9673 227.389 30.0106 227.188 29.9723C226.986 29.9341 226.809 29.8175 226.693 29.6483C226.578 29.479 226.535 29.2709 226.573 29.0697C226.653 28.0969 226.464 27.1209 226.027 26.2482C225.78 25.5039 225.428 24.7989 224.98 24.1548C224.799 23.8944 224.562 23.6777 224.287 23.5202C224.011 23.3628 223.704 23.2687 223.388 23.2446C223.117 23.2609 222.853 23.3341 222.612 23.4596C222.372 23.5851 222.16 23.7599 221.992 23.9727C221.581 24.4749 221.295 25.0676 221.158 25.7021C220.805 27.0755 220.792 28.5141 221.12 29.8937C221.448 31.2733 222.106 32.5524 223.039 33.6206C223.203 33.6773 223.343 33.7901 223.433 33.9392L223.615 34.2578C223.685 34.372 223.723 34.5026 223.726 34.6363C223.728 34.77 223.696 34.9021 223.631 35.0191C223.567 35.1362 223.472 35.234 223.357 35.3028C223.243 35.3716 223.112 35.4088 222.978 35.4107L223.024 35.3803Z" fill="#231F20"/>
<path d="M224.92 42.8889C222.948 41.7624 221.342 40.0932 220.293 38.0801C220.293 38.0801 219.155 44.7244 224.404 47.819L224.92 42.8889Z" fill="#231F20"/>
<path d="M224.404 48.5781C224.269 48.5826 224.137 48.5455 224.025 48.4719C218.381 45.1498 219.474 38.2475 219.549 37.9593C219.58 37.7965 219.661 37.6473 219.78 37.533C219.9 37.4186 220.053 37.3449 220.217 37.3222C220.382 37.3035 220.548 37.3394 220.691 37.4244C220.833 37.5093 220.944 37.6386 221.006 37.7925C221.984 39.6488 223.474 41.1859 225.299 42.222C225.426 42.2967 225.53 42.4064 225.597 42.5381C225.664 42.6699 225.692 42.8181 225.678 42.9653L225.162 47.9258C225.148 48.0544 225.101 48.1773 225.027 48.2833C224.953 48.3893 224.853 48.475 224.738 48.5326C224.631 48.5707 224.517 48.5862 224.404 48.5781ZM220.975 40.5837C221.033 41.6924 221.311 42.7785 221.793 43.7786C222.274 44.7788 222.951 45.6729 223.782 46.4088L224.116 43.2232C222.95 42.4953 221.893 41.6067 220.975 40.5837Z" fill="#231F20"/>
<path d="M235.044 24.8889C235.363 24.0782 235.363 23.319 235.043 23.1931C234.724 23.0672 234.206 23.6223 233.886 24.433C233.567 25.2437 233.567 26.0029 233.887 26.1288C234.206 26.2547 234.724 25.6996 235.044 24.8889Z" fill="#231F20"/>
<path d="M205.699 41.19C205.699 41.19 221.628 43.9054 226.937 53.3257C232.246 62.7461 233.475 96.2711 236.357 98.8348C239.24 101.398 246.688 114.672 246.521 115.279C246.354 115.886 198.797 124.851 198.797 124.851C198.797 124.851 197.402 113.974 194.034 99.6691C190.666 85.3641 192.244 40.5225 205.699 41.19Z" fill="white"/>
<path d="M198.873 125.625C198.716 125.626 198.562 125.579 198.433 125.489C198.35 125.428 198.279 125.351 198.227 125.263C198.175 125.174 198.142 125.075 198.13 124.973C198.13 124.867 196.613 113.944 193.366 99.8518C190.697 88.4897 190.818 54.0545 199.601 43.5116C200.304 42.5473 201.23 41.7676 202.3 41.2393C203.37 40.7109 204.552 40.4496 205.745 40.4776H205.836C206.503 40.5838 222.174 43.3447 227.665 52.9471C230.699 58.3475 232.428 70.9839 233.885 82.1336C234.825 89.2785 235.887 97.3033 236.919 98.3197C239.406 100.565 247.659 114.233 247.31 115.522C247.143 116.129 247.022 116.584 198.994 125.655L198.873 125.625ZM205.396 41.9491C204.494 41.9961 203.616 42.2489 202.827 42.688C202.038 43.1271 201.36 43.7409 200.845 44.4824C192.942 53.9635 192.032 87.2003 194.914 99.5029C197.751 111.502 199.207 121.211 199.601 123.987C216.713 120.74 241.439 115.947 245.717 114.885C244.488 112.2 238.496 101.748 235.993 99.4726C234.598 98.1983 233.779 92.4338 232.459 82.3611C231.078 71.8941 229.425 58.8633 226.391 53.7208C221.4 44.9982 206.579 42.1766 205.669 42.0098L205.396 41.9491Z" fill="#231F20"/>
<path d="M226.451 52.4009L225.192 56.9821L227.043 57.6648L227.544 89.9762L234.279 95.9075L237.252 85.85L228.499 57.7861L229.804 56.254L226.451 52.4009Z" fill="#231F20"/>
<path d="M217.122 56.2085C217.441 56.7243 232.019 87.8221 232.019 87.8221L270.156 74.9127L277.74 86.1383C277.74 86.1383 244.579 105.313 232.231 107.785C219.883 110.258 197.887 64.6125 198.752 60.0616" fill="white"/>
<path d="M231.306 108.604C228.636 108.604 225.511 106.829 221.992 103.31C210.888 92.1754 197.235 63.9749 198.069 59.8488C198.113 59.6536 198.231 59.4829 198.397 59.3726C198.564 59.2623 198.767 59.2209 198.964 59.2571C199.062 59.2771 199.155 59.316 199.237 59.3717C199.32 59.4275 199.39 59.499 199.445 59.5821C199.5 59.6652 199.538 59.7583 199.557 59.8561C199.576 59.954 199.576 60.0545 199.556 60.1522C198.903 63.3681 211.692 90.8556 223.069 102.278C226.71 105.919 229.759 107.512 232.171 107.042C243.199 104.827 271.809 88.656 276.663 85.8041L269.882 75.7466L232.307 88.4588C232.129 88.5183 231.936 88.5111 231.763 88.4385C231.59 88.366 231.449 88.233 231.367 88.0644C227.377 79.539 216.925 57.2699 216.516 56.5266C216.42 56.3525 216.395 56.1483 216.446 55.9562C216.497 55.7642 216.619 55.5991 216.789 55.4951C216.958 55.3929 217.161 55.361 217.354 55.4064C217.546 55.4517 217.714 55.5707 217.82 55.7378C218.124 56.2384 229.486 80.4492 232.459 86.8053L269.958 74.1234C270.116 74.0728 270.286 74.075 270.442 74.1298C270.598 74.1846 270.732 74.2889 270.823 74.4268L278.408 85.6372C278.466 85.723 278.505 85.82 278.523 85.9218C278.542 86.0237 278.538 86.1283 278.514 86.2289C278.494 86.3298 278.452 86.4253 278.392 86.509C278.332 86.5927 278.254 86.6627 278.165 86.7143C276.8 87.5031 244.792 105.98 232.504 108.452C232.112 108.547 231.71 108.598 231.306 108.604Z" fill="#231F20"/>
<path d="M233.051 108.012C224.844 108.012 216.849 100.534 209.249 85.7433C209.203 85.655 209.174 85.5582 209.166 85.4587C209.158 85.3593 209.169 85.2591 209.2 85.1642C209.232 85.0694 209.282 84.9818 209.347 84.9066C209.413 84.8315 209.493 84.7704 209.583 84.7269C209.76 84.6358 209.966 84.6182 210.157 84.6778C210.347 84.7374 210.506 84.8695 210.599 85.0455C218.26 99.9573 226.164 107.163 234.112 106.45C242.061 105.737 259.355 95.3305 259.522 95.2243C259.606 95.1622 259.703 95.1183 259.805 95.0954C259.908 95.0726 260.014 95.0712 260.117 95.0915C260.22 95.1117 260.318 95.1532 260.404 95.2131C260.49 95.2731 260.563 95.3503 260.618 95.4399C260.672 95.5294 260.708 95.6294 260.722 95.7334C260.736 95.8375 260.729 95.9433 260.7 96.0443C260.671 96.1452 260.622 96.2391 260.554 96.3199C260.487 96.4007 260.404 96.4667 260.311 96.5138C259.598 96.9537 242.683 107.224 234.249 107.967L233.051 108.012Z" fill="#231F20"/>
<path d="M225.951 236.849C225.951 236.849 221.749 247.316 222.037 248.317C222.325 249.319 237.313 273.954 239.831 267.204C242.349 260.453 237.07 243.933 237.07 243.933L225.951 236.849Z" fill="#231F20"/>
<path d="M238.421 269.13H238.33C233.232 268.902 221.643 249.531 221.309 248.514C220.975 247.498 223.296 241.445 225.253 236.561C225.299 236.46 225.364 236.369 225.444 236.293C225.525 236.218 225.62 236.159 225.723 236.121C225.83 236.09 225.942 236.083 226.052 236.098C226.162 236.114 226.267 236.153 226.361 236.212L237.48 243.311C237.629 243.401 237.742 243.541 237.799 243.706C238.011 244.388 243.123 260.544 240.544 267.461C240.424 267.935 240.15 268.355 239.766 268.657C239.382 268.959 238.909 269.125 238.421 269.13ZM226.285 237.971C224.855 241.287 223.673 244.705 222.75 248.196C223.312 249.591 234.552 267.613 238.405 267.613C238.557 267.613 238.845 267.613 239.103 266.93C241.333 260.953 237.055 246.542 236.403 244.434L226.285 237.971Z" fill="#231F20"/>
<path d="M256.564 145.907C256.432 145.909 256.303 145.877 256.188 145.813C256.074 145.749 255.978 145.656 255.911 145.543L242.926 124.108C242.853 123.94 242.844 123.75 242.9 123.575C242.956 123.4 243.074 123.251 243.232 123.157C243.39 123.062 243.576 123.028 243.757 123.061C243.938 123.094 244.101 123.191 244.215 123.335L257.201 144.754C257.255 144.839 257.292 144.934 257.308 145.034C257.325 145.133 257.321 145.235 257.297 145.333C257.272 145.431 257.229 145.523 257.168 145.603C257.107 145.684 257.03 145.751 256.943 145.801C256.829 145.871 256.697 145.908 256.564 145.907Z" fill="white"/>
</svg>
