<svg width="475" height="317" viewBox="0 0 475 317" fill="none" xmlns="http://www.w3.org/2000/svg">
<path d="M146.389 23.2075H280.397V97.6106C280.397 99.1254 279.724 100.578 278.527 101.649C277.33 102.721 275.706 103.322 274.013 103.322H152.773C151.08 103.322 149.456 102.721 148.259 101.649C147.062 100.578 146.389 99.1254 146.389 97.6106V23.2075Z" fill="white"/>
<path d="M274.013 103.999H152.773C150.877 103.995 149.061 103.318 147.723 102.118C146.384 100.918 145.633 99.2912 145.633 97.5956V23.2075C145.633 23.0267 145.712 22.8531 145.853 22.7239C145.994 22.5946 146.187 22.52 146.389 22.5161H280.397C280.602 22.5161 280.798 22.589 280.943 22.7186C281.088 22.8483 281.169 23.0242 281.169 23.2075V97.5956C281.169 99.2938 280.415 100.922 279.073 102.123C277.731 103.324 275.911 103.999 274.013 103.999ZM147.162 23.899V97.5505C147.162 98.8833 147.752 100.162 148.804 101.106C149.856 102.05 151.283 102.582 152.773 102.586H274.013C275.505 102.586 276.937 102.055 277.992 101.111C279.048 100.167 279.641 98.8859 279.641 97.5505V23.899H147.162Z" fill="#231F20"/>
<path d="M152.773 12.5654H274.013C275.706 12.5654 277.33 13.1672 278.527 14.2384C279.724 15.3095 280.397 16.7623 280.397 18.2772V23.2073H146.389V18.2772C146.389 16.7623 147.062 15.3095 148.259 14.2384C149.456 13.1672 151.08 12.5654 152.773 12.5654Z" fill="white"/>
<path d="M280.397 23.8994H146.389C146.187 23.8954 145.994 23.8208 145.853 23.6916C145.712 23.5624 145.633 23.3887 145.633 23.2079V18.2778C145.637 16.5848 146.391 14.9622 147.729 13.7651C149.067 12.5679 150.88 11.8936 152.773 11.8896H274.013C275.902 11.8976 277.711 12.5736 279.046 13.7704C280.38 14.9671 281.131 16.5874 281.136 18.2778V23.2079C281.136 23.3862 281.059 23.5577 280.921 23.6865C280.784 23.8153 280.596 23.8916 280.397 23.8994ZM147.162 22.5165H279.641V18.2778C279.636 16.9449 279.041 15.668 277.986 14.727C276.931 13.7859 275.503 13.2575 274.013 13.2575H152.773C151.286 13.2614 149.861 13.7916 148.81 14.7323C147.759 15.6729 147.166 16.9475 147.162 18.2778V22.5165Z" fill="#231F20"/>
<path d="M179.383 52.9845C184.152 52.9845 188.018 49.5255 188.018 45.2586C188.018 40.9917 184.152 37.5327 179.383 37.5327C174.614 37.5327 170.748 40.9917 170.748 45.2586C170.748 49.5255 174.614 52.9845 179.383 52.9845Z" fill="#7FF0B2"/>
<path d="M163.692 68.6163C163.826 64.9705 165.538 61.5139 168.468 58.9771C171.397 56.4403 175.314 55.022 179.391 55.022C183.468 55.022 187.385 56.4403 190.315 58.9771C193.245 61.5139 194.957 64.9705 195.09 68.6163H163.692Z" fill="#7FF0B2"/>
<path d="M247.403 52.9845C252.172 52.9845 256.038 49.5255 256.038 45.2586C256.038 40.9917 252.172 37.5327 247.403 37.5327C242.634 37.5327 238.768 40.9917 238.768 45.2586C238.768 49.5255 242.634 52.9845 247.403 52.9845Z" fill="#7FF0B2"/>
<path d="M231.713 68.6163C231.846 64.9705 233.559 61.5139 236.488 58.9771C239.418 56.4403 243.335 55.022 247.412 55.022C251.489 55.022 255.406 56.4403 258.335 58.9771C261.265 61.5139 262.977 64.9705 263.111 68.6163H231.713Z" fill="#7FF0B2"/>
<path d="M228.134 45.9494H207.975C207.77 45.9494 207.573 45.8766 207.428 45.7469C207.284 45.6173 207.202 45.4414 207.202 45.258C207.202 45.0746 207.284 44.8988 207.428 44.7691C207.573 44.6394 207.77 44.5666 207.975 44.5666H226.353L222.338 40.7938C222.267 40.7309 222.211 40.656 222.172 40.5735C222.134 40.4909 222.114 40.4023 222.114 40.3129C222.114 40.2234 222.134 40.1348 222.172 40.0522C222.211 39.9697 222.267 39.8948 222.338 39.8319C222.485 39.706 222.681 39.6357 222.884 39.6357C223.088 39.6357 223.283 39.706 223.43 39.8319L228.672 44.777C228.777 44.8717 228.848 44.9928 228.875 45.1243C228.902 45.2558 228.884 45.3915 228.823 45.5135C228.768 45.6381 228.673 45.7456 228.551 45.823C228.428 45.9004 228.284 45.9443 228.134 45.9494Z" fill="#231F20"/>
<path d="M223.094 50.3534C222.885 50.3515 222.686 50.2758 222.539 50.1429C222.395 50.0133 222.313 49.8376 222.313 49.6544C222.313 49.4713 222.395 49.2956 222.539 49.1659L227.579 44.7769C227.728 44.6573 227.922 44.5939 228.122 44.6C228.322 44.6061 228.511 44.6813 228.651 44.8097C228.79 44.9381 228.868 45.1098 228.869 45.2886C228.869 45.4675 228.792 45.6397 228.654 45.7689L223.615 50.158C223.475 50.2795 223.289 50.3493 223.094 50.3534Z" fill="#231F20"/>
<path d="M218.575 51.7369H198.416C198.267 51.7391 198.12 51.7017 197.995 51.6295C197.869 51.5573 197.77 51.4534 197.711 51.331C197.65 51.2063 197.633 51.0685 197.66 50.9349C197.687 50.8012 197.757 50.6776 197.862 50.5795L203.103 45.6493C203.172 45.5804 203.255 45.5245 203.348 45.4848C203.442 45.4452 203.543 45.4227 203.646 45.4186C203.749 45.4146 203.852 45.429 203.949 45.4612C204.046 45.4933 204.134 45.5424 204.209 45.6057C204.285 45.6689 204.345 45.745 204.387 45.8295C204.428 45.9139 204.451 46.005 204.453 46.0973C204.454 46.1897 204.436 46.2814 204.397 46.3671C204.359 46.4528 204.301 46.5307 204.229 46.5963L200.197 50.354H218.575C218.779 50.3578 218.973 50.4319 219.117 50.5608C219.261 50.6896 219.344 50.8633 219.348 51.0454C219.348 51.2288 219.267 51.4047 219.122 51.5343C218.977 51.664 218.78 51.7369 218.575 51.7369Z" fill="#231F20"/>
<path d="M203.44 56.1255C203.343 56.1267 203.246 56.11 203.157 56.0764C203.067 56.0428 202.986 55.993 202.919 55.9301L197.879 51.5561C197.739 51.4246 197.66 51.2496 197.66 51.0676C197.66 50.8855 197.739 50.7105 197.879 50.5791C198.024 50.4496 198.221 50.377 198.425 50.377C198.63 50.377 198.826 50.4496 198.971 50.5791L204.011 54.9681C204.082 55.031 204.139 55.1059 204.177 55.1885C204.216 55.271 204.236 55.3596 204.236 55.4491C204.236 55.5385 204.216 55.6271 204.177 55.7097C204.139 55.7923 204.082 55.8672 204.011 55.9301C203.935 55.995 203.846 56.0457 203.747 56.0792C203.649 56.1128 203.545 56.1285 203.44 56.1255Z" fill="#231F20"/>
<path d="M253.35 77.7101H173.436C173.213 77.7101 173 77.6309 172.842 77.49C172.685 77.3491 172.596 77.1579 172.596 76.9586C172.6 76.7605 172.69 76.5715 172.847 76.4314C173.004 76.2913 173.215 76.2109 173.436 76.207H253.35C253.573 76.207 253.787 76.2862 253.944 76.4272C254.102 76.5681 254.19 76.7593 254.19 76.9586C254.19 77.1579 254.102 77.3491 253.944 77.49C253.787 77.6309 253.573 77.7101 253.35 77.7101Z" fill="#D1D3D4"/>
<path d="M253.35 82.7902H173.436C173.213 82.7902 173 82.711 172.842 82.5701C172.685 82.4291 172.596 82.238 172.596 82.0387C172.6 81.8405 172.69 81.6516 172.847 81.5115C173.004 81.3714 173.215 81.291 173.436 81.2871H253.35C253.573 81.2871 253.787 81.3663 253.944 81.5072C254.102 81.6482 254.19 81.8393 254.19 82.0387C254.19 82.238 254.102 82.4291 253.944 82.5701C253.787 82.711 253.573 82.7902 253.35 82.7902Z" fill="#D1D3D4"/>
<path d="M245.135 87.9308H173.436C173.213 87.9308 173 87.8516 172.842 87.7107C172.685 87.5698 172.596 87.3786 172.596 87.1793C172.6 86.9812 172.69 86.7922 172.847 86.6521C173.004 86.512 173.215 86.4316 173.436 86.4277H245.135C245.357 86.4316 245.568 86.512 245.725 86.6521C245.881 86.7922 245.971 86.9812 245.975 87.1793C245.975 87.3786 245.887 87.5698 245.729 87.7107C245.572 87.8516 245.358 87.9308 245.135 87.9308Z" fill="#D1D3D4"/>
<path d="M155.813 19.7208C156.945 19.7208 157.862 18.8998 157.862 17.887C157.862 16.8742 156.945 16.0532 155.813 16.0532C154.681 16.0532 153.763 16.8742 153.763 17.887C153.763 18.8998 154.681 19.7208 155.813 19.7208Z" fill="#7FF0B2"/>
<path d="M163.037 19.7208C164.169 19.7208 165.087 18.8998 165.087 17.887C165.087 16.8742 164.169 16.0532 163.037 16.0532C161.905 16.0532 160.988 16.8742 160.988 17.887C160.988 18.8998 161.905 19.7208 163.037 19.7208Z" fill="#D1D3D4"/>
<path d="M170.26 19.7208C171.392 19.7208 172.31 18.8998 172.31 17.887C172.31 16.8742 171.392 16.0532 170.26 16.0532C169.129 16.0532 168.211 16.8742 168.211 17.887C168.211 18.8998 169.129 19.7208 170.26 19.7208Z" fill="#D1D3D4"/>
<path d="M301.144 16.3389H474.076V198.935C474.076 200.928 473.191 202.839 471.615 204.249C470.04 205.658 467.904 206.45 465.676 206.45H309.527C307.299 206.45 305.162 205.658 303.587 204.249C302.012 202.839 301.127 200.928 301.127 198.935V16.3389H301.144Z" fill="white"/>
<path d="M465.676 207.202H309.443C306.995 207.198 304.649 206.325 302.92 204.775C301.191 203.225 300.22 201.125 300.22 198.935V16.3389C300.22 16.1396 300.308 15.9485 300.466 15.8075C300.623 15.6666 300.837 15.5874 301.06 15.5874H474.075C474.298 15.5874 474.512 15.6666 474.669 15.8075C474.827 15.9485 474.915 16.1396 474.915 16.3389V198.935C474.911 201.126 473.936 203.226 472.204 204.776C470.472 206.325 468.125 207.198 465.676 207.202ZM301.984 17.0905V198.965C301.984 200.756 302.778 202.474 304.192 203.742C305.606 205.01 307.524 205.725 309.527 205.729H465.76C467.763 205.725 469.684 205.011 471.1 203.743C472.517 202.475 473.315 200.757 473.319 198.965V17.0905H301.984Z" fill="#231F20"/>
<path d="M438.814 191.403H336.339C334.185 191.388 332.123 190.617 330.597 189.257C329.07 187.897 328.201 186.056 328.174 184.129V179.77C328.179 177.821 329.046 175.954 330.585 174.577C332.125 173.199 334.212 172.423 336.389 172.419H438.865C441.043 172.419 443.133 173.194 444.674 174.572C446.214 175.951 447.08 177.82 447.08 179.77V184.129C447.057 186.073 446.175 187.93 444.626 189.293C443.077 190.657 440.987 191.415 438.814 191.403ZM336.339 173.923C334.614 173.934 332.965 174.556 331.75 175.651C330.536 176.746 329.854 178.227 329.854 179.77V184.129C329.859 185.677 330.549 187.16 331.774 188.253C332.999 189.347 334.659 189.961 336.389 189.961H438.865C440.595 189.961 442.255 189.347 443.48 188.253C444.705 187.16 445.395 185.677 445.4 184.129V179.77C445.4 178.219 444.711 176.732 443.486 175.635C442.26 174.539 440.598 173.923 438.865 173.923H336.339Z" fill="#231F20"/>
<path d="M339.581 66.377H325.873V154.774H339.581V66.377Z" fill="#7FF0B2"/>
<path d="M364.881 87.0742H351.172V154.758H364.881V87.0742Z" fill="#7FF0B2"/>
<path d="M390.163 73.5913H376.455V154.773H390.163V73.5913Z" fill="#7FF0B2"/>
<path d="M415.463 98.0469H401.754V154.759H415.463V98.0469Z" fill="#7FF0B2"/>
<path d="M440.763 73.5913H427.054V154.773H440.763V73.5913Z" fill="#7FF0B2"/>
<path d="M440.443 32.3166H417.21C416.987 32.3166 416.774 32.2374 416.616 32.0964C416.459 31.9555 416.37 31.7643 416.37 31.565C416.37 31.3657 416.459 31.1745 416.616 31.0336C416.774 30.8927 416.987 30.8135 417.21 30.8135H440.41C440.631 30.8173 440.842 30.8977 440.999 31.0379C441.156 31.178 441.246 31.3669 441.25 31.565C441.25 31.7592 441.166 31.946 441.016 32.0861C440.865 32.2262 440.66 32.3088 440.443 32.3166Z" fill="#231F20"/>
<path d="M432.329 40.0573H417.21C416.987 40.0573 416.774 39.9781 416.616 39.8372C416.459 39.6962 416.37 39.5051 416.37 39.3057C416.37 39.1064 416.459 38.9153 416.616 38.7743C416.774 38.6334 416.987 38.5542 417.21 38.5542H432.329C432.552 38.5542 432.766 38.6334 432.923 38.7743C433.081 38.9153 433.169 39.1064 433.169 39.3057C433.169 39.5051 433.081 39.6962 432.923 39.8372C432.766 39.9781 432.552 40.0573 432.329 40.0573Z" fill="#231F20"/>
<path d="M410.305 74.5078C402.981 74.5078 396.597 67.2028 391.456 61.3106C388.096 57.4928 384.955 53.7952 382.855 53.7952C380.47 53.7952 377.177 55.5538 373.699 57.3575C368.962 59.8076 363.62 62.5883 358.58 62.3328C349.156 61.8818 331.449 43.2735 330.71 42.4769C330.641 42.4063 330.588 42.324 330.554 42.2348C330.521 42.1456 330.508 42.0514 330.515 41.9576C330.523 41.8638 330.552 41.7723 330.6 41.6885C330.648 41.6048 330.714 41.5304 330.794 41.4698C330.947 41.3376 331.152 41.2637 331.365 41.2637C331.578 41.2637 331.783 41.3376 331.936 41.4698C332.104 41.6652 349.928 60.4088 358.664 60.8297C363.267 61.0702 368.408 58.3946 372.943 56.0348C376.606 54.1409 380.066 52.3522 382.855 52.2771C385.644 52.2019 388.886 55.7642 392.817 60.2885C397.857 66.0454 404.073 73.2001 410.809 72.9145C416.638 72.659 419.427 68.1197 422.384 63.3098C425.34 58.4999 428.146 53.9004 434.042 52.8933C434.242 52.8791 434.44 52.9317 434.598 53.0409C434.757 53.1501 434.864 53.3081 434.9 53.4841C434.935 53.6602 434.897 53.8419 434.791 53.9938C434.685 54.1457 434.52 54.2571 434.328 54.3062C429.187 55.178 426.567 59.4618 423.778 64.0012C420.754 68.9464 417.613 74.0569 410.893 74.3575L410.305 74.5078Z" fill="#D1D3D4"/>
<path d="M452.488 155.48H314.734C314.629 155.48 314.525 155.461 314.428 155.425C314.331 155.388 314.243 155.335 314.17 155.268C314.096 155.2 314.038 155.121 314 155.033C313.961 154.946 313.942 154.852 313.945 154.758C313.953 154.575 314.039 154.401 314.186 154.273C314.333 154.144 314.529 154.071 314.734 154.067H452.488C452.702 154.067 452.907 154.143 453.058 154.278C453.21 154.414 453.295 154.597 453.295 154.788C453.292 154.881 453.27 154.973 453.228 155.058C453.186 155.143 453.126 155.219 453.051 155.284C452.977 155.348 452.888 155.398 452.792 155.432C452.695 155.465 452.592 155.482 452.488 155.48Z" fill="#D1D3D4"/>
<path d="M331.533 44.777C330.922 44.777 330.324 44.6148 329.816 44.3109C329.308 44.007 328.912 43.575 328.678 43.0697C328.444 42.5643 328.383 42.0082 328.502 41.4717C328.621 40.9352 328.915 40.4425 329.348 40.0557C329.78 39.6689 330.331 39.4055 330.93 39.2987C331.53 39.192 332.152 39.2468 332.716 39.4561C333.281 39.6655 333.764 40.0199 334.104 40.4748C334.443 40.9296 334.625 41.4643 334.625 42.0113C334.625 42.7448 334.299 43.4483 333.719 43.9669C333.139 44.4856 332.353 44.777 331.533 44.777ZM331.533 40.6886C331.237 40.6886 330.947 40.7674 330.701 40.9151C330.455 41.0628 330.263 41.2726 330.151 41.5179C330.038 41.7632 330.009 42.033 330.068 42.2929C330.127 42.5528 330.272 42.7911 330.482 42.9776C330.693 43.1641 330.961 43.2903 331.252 43.3402C331.543 43.3901 331.844 43.3614 332.117 43.2579C332.39 43.1543 332.623 42.9805 332.785 42.7586C332.947 42.5366 333.032 42.2765 333.029 42.0113C333.029 41.8363 332.99 41.6631 332.914 41.5016C332.839 41.3402 332.729 41.1937 332.59 41.0706C332.451 40.9476 332.286 40.8505 332.104 40.7849C331.923 40.7193 331.729 40.6866 331.533 40.6886Z" fill="#D1D3D4"/>
<path d="M434.009 56.5162C433.399 56.5132 432.803 56.3485 432.297 56.0428C431.791 55.7371 431.397 55.3041 431.166 54.7985C430.934 54.2929 430.875 53.7373 430.997 53.2018C431.118 52.6663 431.413 52.1749 431.846 51.7896C432.279 51.4043 432.83 51.1424 433.429 51.0369C434.028 50.9314 434.649 50.9871 435.213 51.1968C435.777 51.4066 436.258 51.7611 436.597 52.2156C436.936 52.67 437.117 53.2042 437.117 53.7505C437.113 54.4854 436.783 55.1888 436.201 55.7071C435.619 56.2253 434.831 56.5162 434.009 56.5162ZM434.009 52.4128C433.714 52.4128 433.425 52.4912 433.179 52.6382C432.933 52.7852 432.741 52.9941 432.628 53.2386C432.515 53.483 432.485 53.752 432.543 54.0115C432.601 54.271 432.743 54.5094 432.952 54.6964C433.161 54.8835 433.428 55.0109 433.718 55.0626C434.008 55.1142 434.308 55.0877 434.581 54.9864C434.855 54.8852 435.088 54.7137 435.253 54.4937C435.417 54.2737 435.504 54.0151 435.504 53.7505C435.504 53.3957 435.347 53.0555 435.067 52.8046C434.786 52.5537 434.406 52.4128 434.009 52.4128Z" fill="#D1D3D4"/>
<path d="M309.526 0.751465H465.676C467.903 0.751465 470.04 1.54327 471.615 2.95269C473.19 4.36211 474.075 6.2737 474.075 8.26692V16.3085H301.144V8.26692C301.144 6.2763 302.026 4.36699 303.598 2.958C305.169 1.54901 307.302 0.755446 309.526 0.751465Z" fill="white"/>
<path d="M474.075 17.0902H301.144C300.921 17.0902 300.707 17.011 300.55 16.87C300.392 16.7291 300.304 16.5379 300.304 16.3386V8.26701C300.304 6.07706 301.275 3.97659 303.004 2.42666C304.733 0.876726 307.079 0.00398172 309.526 0H465.76C468.209 0.0039734 470.556 0.876238 472.288 2.42574C474.02 3.97525 474.995 6.07568 474.999 8.26701V16.3085C475.005 16.4164 474.984 16.524 474.939 16.6241C474.894 16.7242 474.825 16.8144 474.737 16.8886C474.65 16.9627 474.545 17.0191 474.431 17.0539C474.317 17.0887 474.195 17.1011 474.075 17.0902ZM301.984 15.5871H473.235V8.26701C473.231 6.47432 472.433 4.7562 471.016 3.48858C469.6 2.22096 467.679 1.50706 465.676 1.50309H309.443C307.44 1.50707 305.522 2.22145 304.108 3.4895C302.694 4.75755 301.9 6.47571 301.9 8.26701L301.984 15.5871Z" fill="#231F20"/>
<path d="M122.702 93.688H7.00518C3.60015 93.688 0.839844 96.1577 0.839844 99.2043V228.921C0.839844 231.968 3.60015 234.438 7.00518 234.438H122.702C126.107 234.438 128.867 231.968 128.867 228.921V99.2043C128.867 96.1577 126.107 93.688 122.702 93.688Z" fill="white"/>
<path d="M122.702 235.234H7.00529C5.14737 235.234 3.36555 234.574 2.0518 233.398C0.738053 232.223 0 230.629 0 228.966V99.2044C0.00443624 97.5433 0.743916 95.9513 2.0567 94.7767C3.36949 93.6021 5.14874 92.9405 7.00529 92.9365H122.702C124.558 92.9405 126.338 93.6021 127.65 94.7767C128.963 95.9513 129.703 97.5433 129.707 99.2044V228.921C129.714 229.748 129.538 230.568 129.188 231.334C128.839 232.099 128.324 232.796 127.673 233.383C127.022 233.969 126.248 234.435 125.394 234.753C124.541 235.071 123.626 235.234 122.702 235.234ZM7.00529 94.4396C5.59428 94.4436 4.24233 94.9469 3.24459 95.8396C2.24684 96.7323 1.68436 97.9419 1.67993 99.2044V228.921C1.67327 229.551 1.8061 230.175 2.07074 230.759C2.33538 231.342 2.72659 231.872 3.22176 232.32C3.71693 232.767 4.30624 233.122 4.95565 233.364C5.60506 233.606 6.3017 233.731 7.00529 233.731H122.702C124.114 233.731 125.469 233.229 126.468 232.336C127.466 231.442 128.027 230.23 128.027 228.966V99.2044C128.023 97.9419 127.46 96.7323 126.463 95.8396C125.465 94.9469 124.113 94.4436 122.702 94.4396H7.00529Z" fill="#231F20"/>
<path d="M96.5958 204.706H27.6012C27.3784 204.706 27.1648 204.627 27.0072 204.486C26.8497 204.345 26.7612 204.154 26.7612 203.954C26.7655 203.756 26.8554 203.567 27.012 203.427C27.1686 203.287 27.3798 203.207 27.6012 203.203H96.5958C96.8186 203.203 97.0322 203.282 97.1898 203.423C97.3473 203.564 97.4358 203.755 97.4358 203.954C97.4358 204.154 97.3473 204.345 97.1898 204.486C97.0322 204.627 96.8186 204.706 96.5958 204.706Z" fill="#D1D3D4"/>
<path d="M63.2829 214.792H27.6012C27.3798 214.788 27.1686 214.707 27.012 214.567C26.8554 214.427 26.7655 214.238 26.7612 214.04C26.7612 213.841 26.8497 213.65 27.0072 213.509C27.1648 213.368 27.3784 213.289 27.6012 213.289H63.2829C63.5056 213.289 63.7193 213.368 63.8768 213.509C64.0343 213.65 64.1228 213.841 64.1228 214.04C64.1185 214.238 64.0286 214.427 63.872 214.567C63.7154 214.707 63.5043 214.788 63.2829 214.792Z" fill="#D1D3D4"/>
<path d="M31.8679 125.373C41.9475 134.392 51.9879 143.38 61.989 152.339C62.1421 152.488 62.3296 152.605 62.5384 152.683C62.7473 152.761 62.9725 152.797 63.1986 152.79H109.346C109.093 159.168 107.131 165.398 103.624 170.955C100.117 176.512 95.1687 181.234 89.1957 184.722C83.2227 188.21 76.4001 190.362 69.3029 190.998C62.2056 191.633 55.0417 190.732 48.4147 188.372C41.7878 186.012 35.892 182.261 31.2242 177.436C26.5564 172.61 23.2534 166.851 21.5934 160.645C19.9335 154.438 19.9653 147.965 21.6862 141.772C23.407 135.579 26.7665 129.846 31.4815 125.058L31.8679 125.373Z" fill="#7FF0B2"/>
<path d="M66.458 111.5V149.949H66.8948L108.49 149.858C109.414 149.858 109.414 149.858 109.347 149.032C108.822 141.719 106.072 134.674 101.393 128.66C96.7143 122.646 90.2858 117.891 82.8037 114.912C78.2366 113.127 73.3729 112.025 68.4067 111.65L66.458 111.5Z" fill="#D1D3D4"/>
<path d="M63.2831 149.438V111.53C58.2867 111.762 53.3612 112.69 48.6846 114.28C43.0903 116.261 37.9869 119.208 33.666 122.953L63.2831 149.438Z" fill="#D1D3D4"/>
<path d="M196.636 128.966C186.741 126.305 181.516 115.949 178.879 107.712C175.922 98.3475 172.445 90.6817 176.661 80.9267C177.619 78.6871 179.164 76.4174 181.701 75.6959C182.334 75.6143 182.944 75.4256 183.499 75.1398C183.939 74.75 184.268 74.2703 184.456 73.7419C190.47 61.0558 207.488 60.7101 220.255 62.4988C227.647 63.5359 237.239 66.5571 239.541 73.3511C243.758 85.8719 240.196 99.4899 232.435 110.312C225.178 120.488 211.453 133.024 196.636 128.966Z" fill="white"/>
<path d="M202.297 130.469C200.299 130.473 198.312 130.21 196.401 129.687C186.069 126.906 180.727 116.325 178.073 107.922C177.737 106.855 177.401 105.803 177.048 104.766C174.36 96.6039 172.008 89.5394 175.872 80.7163C177.233 77.5447 179.148 75.6358 181.517 75.0346L182.021 74.9293C182.431 74.9325 182.828 74.8012 183.138 74.5603C183.447 74.3194 183.647 73.9856 183.701 73.6217C189.967 60.4546 207.22 59.9435 220.457 61.8224C225.497 62.5288 237.694 65.0691 240.432 73.2008C244.43 85.1053 241.809 98.7534 233.225 110.778C225.951 120.804 214.494 130.469 202.297 130.469ZM209.756 62.4687C199.677 62.4687 189.597 65.024 185.28 74.0275C185.055 74.6806 184.637 75.2674 184.07 75.726C183.57 76.0405 182.995 76.2464 182.39 76.3272L181.97 76.4324C180.139 76.8834 178.61 78.4917 177.435 81.1972C173.806 89.5995 176.057 96.4386 178.661 104.345C179.014 105.382 179.35 106.434 179.702 107.516C182.239 115.543 187.279 125.674 196.888 128.259C210.328 131.851 223.767 121.134 231.78 109.906C240.096 98.3024 242.649 85.0602 238.785 73.5615C236.316 66.2565 224.943 63.9117 220.172 63.2503C216.728 62.75 213.245 62.4887 209.756 62.4687Z" fill="#231F20"/>
<path d="M241.59 103.623C241.59 103.623 252.191 115.482 250.528 118.263C248.864 121.044 242.279 119.766 242.279 119.766" fill="white"/>
<path d="M245.421 120.864C244.292 120.865 243.167 120.764 242.061 120.563C241.838 120.523 241.642 120.406 241.516 120.237C241.39 120.068 241.344 119.861 241.389 119.661C241.433 119.462 241.565 119.287 241.754 119.174C241.943 119.061 242.174 119.02 242.397 119.06C244.077 119.361 248.629 119.752 249.738 117.888C250.612 116.385 245.807 109.576 240.885 104.059C240.745 103.903 240.678 103.704 240.7 103.504C240.722 103.305 240.831 103.121 241.002 102.992C241.181 102.872 241.404 102.818 241.626 102.84C241.847 102.862 242.051 102.96 242.195 103.112C244.766 105.998 253.014 115.603 251.216 118.594C250.175 120.443 247.537 120.864 245.421 120.864Z" fill="#231F20"/>
<path d="M237.895 87.0892C244.278 90.9371 243.489 100.256 244.043 106.224C244.816 114.611 245.376 123.018 245.723 131.445C245.942 136.781 230.604 138.149 227.698 136.781L232.233 157.599L198.82 149.122L197.392 124.787C197.392 124.787 207.471 124.02 212.511 112.762C217.551 101.504 215.484 84.8045 215.484 84.8045C215.484 84.8045 231.662 83.3165 237.895 87.0892Z" fill="white"/>
<path d="M232.234 158.35H231.999L198.551 149.873C198.382 149.832 198.231 149.745 198.119 149.624C198.008 149.503 197.941 149.353 197.93 149.196L196.502 124.846C196.492 124.654 196.565 124.466 196.706 124.321C196.846 124.175 197.044 124.084 197.258 124.065C197.661 124.065 206.985 123.178 211.638 112.461C216.426 101.428 214.578 85.0143 214.561 84.849C214.547 84.6499 214.613 84.4528 214.746 84.2929C214.816 84.2163 214.903 84.1529 215.001 84.1065C215.099 84.06 215.207 84.0314 215.317 84.0223C215.989 84.0223 231.965 82.6244 238.366 86.4874C244.027 89.9144 244.38 97.1293 244.665 103.021C244.665 104.164 244.783 105.261 244.884 106.268C245.657 114.655 246.228 123.148 246.564 131.52C246.556 132.369 246.281 133.199 245.77 133.914C245.259 134.629 244.532 135.201 243.674 135.563C239.76 137.758 232.368 138.494 228.773 137.953L233.057 157.493C233.084 157.621 233.075 157.752 233.031 157.875C232.987 157.998 232.909 158.11 232.805 158.2C232.638 158.305 232.438 158.358 232.234 158.35ZM199.576 148.55L231.142 156.546L226.875 136.931C226.839 136.792 226.85 136.646 226.907 136.512C226.964 136.378 227.064 136.262 227.194 136.18C227.328 136.107 227.482 136.068 227.639 136.068C227.796 136.068 227.95 136.107 228.084 136.18C229.949 137.066 238.584 136.6 242.784 134.256C244.229 133.444 244.934 132.527 244.884 131.535C244.548 123.178 243.977 114.7 243.204 106.343C243.103 105.321 243.053 104.209 242.985 103.036C242.717 97.5652 242.381 90.7562 237.425 87.765C232.385 84.6686 219.668 85.2699 216.308 85.4803C216.627 88.9224 217.602 102.916 213.2 113.032C208.799 123.148 200.819 125.057 198.215 125.493L199.576 148.55Z" fill="#231F20"/>
<path d="M244.867 125.207C244.867 125.207 235.661 125.207 233.46 114.084L244.867 125.207Z" fill="white"/>
<path d="M244.866 125.959C244.766 125.959 234.921 125.824 232.62 114.22C232.585 114.023 232.638 113.822 232.767 113.659C232.895 113.497 233.089 113.385 233.308 113.348C233.527 113.313 233.752 113.357 233.934 113.469C234.117 113.582 234.242 113.755 234.283 113.95C236.315 124.291 244.53 124.471 244.866 124.471C245.089 124.471 245.303 124.55 245.46 124.691C245.618 124.832 245.706 125.023 245.706 125.223C245.702 125.419 245.611 125.607 245.454 125.744C245.297 125.882 245.086 125.959 244.866 125.959Z" fill="#231F20"/>
<path d="M224.152 110.478C223.673 108.404 222.562 106.49 220.944 104.946C219.881 103.607 218.602 102.416 217.147 101.414C216.417 100.916 215.573 100.569 214.675 100.4C213.777 100.231 212.848 100.244 211.956 100.437C211.2 100.683 210.511 101.069 209.932 101.568C209.353 102.068 208.898 102.671 208.596 103.338C207.992 104.688 207.734 106.141 207.84 107.592C207.999 110.764 209.09 113.842 211.005 116.516C212.919 119.189 215.588 121.363 218.743 122.818L218.188 122.352" fill="white"/>
<path d="M218.693 123.539C218.563 123.537 218.436 123.506 218.324 123.449C215.045 121.924 212.27 119.658 210.274 116.876C208.279 114.094 207.133 110.893 206.95 107.591C206.847 106.052 207.129 104.511 207.774 103.082C208.131 102.309 208.667 101.613 209.348 101.041C210.029 100.468 210.838 100.031 211.721 99.7598C212.735 99.5311 213.792 99.5097 214.816 99.697C215.84 99.8844 216.803 100.276 217.635 100.842C219.159 101.881 220.497 103.123 221.599 104.525C223.319 106.177 224.483 108.23 224.959 110.447C224.983 110.644 224.918 110.841 224.78 110.996C224.642 111.151 224.44 111.251 224.22 111.273C224 111.295 223.779 111.237 223.606 111.113C223.433 110.989 223.322 110.809 223.296 110.612C222.823 108.675 221.772 106.888 220.256 105.441C219.248 104.168 218.037 103.033 216.66 102.075C216.034 101.642 215.308 101.34 214.536 101.189C213.763 101.038 212.962 101.043 212.192 101.203C211.541 101.413 210.947 101.744 210.449 102.174C209.951 102.604 209.56 103.123 209.302 103.698C208.747 104.943 208.511 106.284 208.614 107.621C208.774 110.468 209.713 113.237 211.347 115.685C212.981 118.132 215.261 120.184 217.988 121.66C218.11 121.638 218.237 121.643 218.357 121.674C218.477 121.706 218.586 121.763 218.676 121.84L219.248 122.291C219.38 122.392 219.474 122.528 219.516 122.678C219.559 122.829 219.548 122.988 219.486 123.134C219.423 123.279 219.311 123.403 219.166 123.489C219.022 123.575 218.85 123.619 218.676 123.614L218.693 123.539Z" fill="#231F20"/>
<path d="M227.697 136.781C227.697 136.781 219.483 135.278 215.283 130.619C215.283 130.619 216.761 141.742 229.36 144.447L227.697 136.781Z" fill="#231F20"/>
<path d="M229.36 145.199H229.159C216.139 142.418 214.459 130.859 214.443 130.739C214.421 130.577 214.458 130.414 214.549 130.273C214.64 130.132 214.779 130.021 214.947 129.957C215.112 129.892 215.298 129.877 215.474 129.915C215.65 129.953 215.807 130.042 215.921 130.168C219.902 134.512 227.781 136.06 227.865 136.075C228.029 136.105 228.179 136.179 228.295 136.286C228.412 136.393 228.49 136.529 228.52 136.676L230.2 144.327C230.225 144.436 230.223 144.549 230.193 144.657C230.163 144.765 230.107 144.866 230.028 144.953C229.949 145.039 229.85 145.109 229.737 145.156C229.625 145.204 229.502 145.229 229.377 145.229L229.36 145.199ZM216.761 132.994C217.578 135.441 219.058 137.671 221.068 139.485C223.078 141.299 225.557 142.642 228.285 143.395L226.975 137.383C223.271 136.575 219.793 135.091 216.761 133.024V132.994Z" fill="#231F20"/>
<path d="M236.99 98.3459C237.133 96.6906 236.657 95.3077 235.926 95.2572C235.195 95.2066 234.487 96.5076 234.344 98.1629C234.201 99.8182 234.677 101.201 235.408 101.252C236.139 101.302 236.847 100.001 236.99 98.3459Z" fill="#231F20"/>
<path d="M148.237 198.919L131 225.975L86.1128 184.76C86.1128 184.76 89.7415 167.249 84.9033 168.647C81.8464 169.621 79.1886 171.397 77.2764 173.743C77.2764 173.743 73.295 149.693 62.8122 157.599C52.3295 165.506 57.1509 179.394 65.0969 192.742C70.9935 202.647 123.39 274.901 137.922 272C152.453 269.099 186.959 203.474 186.959 203.474L148.237 198.919Z" fill="white"/>
<path d="M137.116 272.812C120.602 272.812 69.6163 201.926 64.3581 193.148C57.7392 182.01 50.3139 166.092 62.275 157.073C64.4925 155.39 66.6428 154.879 68.6755 155.57C74.1857 157.434 76.9072 167.911 77.7807 172.104C79.6436 170.246 82.0099 168.848 84.6517 168.046C85.0082 167.921 85.3964 167.887 85.7732 167.948C86.1499 168.009 86.5002 168.163 86.7852 168.392C89.5906 170.601 87.6251 181.559 87.0203 184.625L130.816 224.713L147.515 198.514C147.597 198.383 147.721 198.278 147.87 198.211C148.02 198.144 148.189 198.119 148.355 198.138L186.993 202.647C187.124 202.662 187.25 202.705 187.358 202.773C187.467 202.841 187.555 202.932 187.614 203.038C187.672 203.143 187.702 203.259 187.702 203.376C187.702 203.493 187.672 203.609 187.614 203.714C186.186 206.405 152.739 269.715 137.989 272.646C137.705 272.726 137.412 272.781 137.116 272.812ZM66.878 156.728C65.54 156.838 64.2895 157.371 63.3502 158.231C54.9505 164.604 55.7401 175.486 65.8533 192.456C72.2538 203.218 124.248 273.999 137.737 271.339C150.774 268.738 181.415 212.147 185.716 204.15L148.758 199.791L131.79 226.411C131.725 226.512 131.636 226.598 131.528 226.663C131.42 226.728 131.298 226.771 131.169 226.787C131.04 226.803 130.908 226.791 130.785 226.752C130.662 226.713 130.552 226.647 130.463 226.561L85.5756 185.347C85.484 185.259 85.4165 185.154 85.3786 185.039C85.3407 184.924 85.3334 184.803 85.3572 184.685C86.4996 179.139 87.3899 170.767 85.7436 169.474C85.7436 169.474 85.5588 169.339 85.2228 169.474C82.3511 170.405 79.85 172.072 78.0327 174.269C77.9348 174.393 77.7984 174.489 77.6402 174.546C77.482 174.602 77.309 174.615 77.1424 174.584C76.9795 174.55 76.8317 174.473 76.7179 174.364C76.6042 174.254 76.5297 174.116 76.504 173.968C75.8152 169.805 72.993 158.667 68.1044 157.043C67.7219 156.869 67.3056 156.762 66.878 156.728Z" fill="#231F20"/>
<path d="M279.54 186.789C279.54 186.789 314.28 178.732 327.3 171.893C341.579 164.378 368.475 116.91 377.211 105.111C381.952 98.5951 385.476 91.4317 387.643 83.9022C388.651 80.5353 389.121 78.1003 387.24 74.8837C386.853 74.2073 380.688 68.1648 380.402 68.8713C382.082 64.6476 383.762 60.6343 385.543 56.4558C386.013 55.2984 386.366 53.8404 385.375 52.9986C384.941 52.6951 384.406 52.5303 383.855 52.5303C383.304 52.5303 382.768 52.6951 382.334 52.9986C381.458 53.5994 380.746 54.3703 380.251 55.2533L365.972 77.4089C366.087 74.6732 365.47 71.9524 364.174 69.4725C363.97 68.9748 363.601 68.5447 363.116 68.24C361.554 67.4584 360.042 69.3673 359.554 70.9005C357.018 78.8969 358.849 88.5317 353.372 95.6113C349.206 100.992 312.197 140.704 312.197 140.704L279.54 148.22" fill="white"/>
<path d="M279.54 187.541C279.317 187.567 279.092 187.513 278.914 187.39C278.736 187.267 278.62 187.087 278.591 186.887C278.562 186.688 278.622 186.486 278.759 186.327C278.896 186.168 279.099 186.064 279.321 186.038C279.674 185.963 314.113 177.951 326.88 171.233C337.212 165.791 354.767 138.27 366.392 120.052C370.592 113.484 374.204 107.802 376.472 104.691C381.156 98.2219 384.634 91.1148 386.77 83.6474C387.727 80.4909 388.231 78.1911 386.433 75.1098C384.637 73.0942 382.635 71.2324 380.453 69.5483C380.331 69.5706 380.205 69.5706 380.083 69.5483C379.874 69.4802 379.702 69.3416 379.605 69.162C379.507 68.9823 379.492 68.7758 379.563 68.5864C380.587 65.8808 381.73 63.2203 382.822 60.635C383.46 59.1319 384.082 57.6288 384.703 56.1257C385.325 54.6226 385.274 53.9162 384.703 53.4803C384.414 53.2887 384.064 53.1853 383.704 53.1853C383.344 53.1853 382.993 53.2887 382.704 53.4803C381.951 54.0378 381.344 54.7354 380.923 55.5245L366.594 77.7252C366.502 77.8719 366.357 77.9862 366.183 78.0491C366.009 78.1119 365.816 78.1196 365.636 78.0709C365.491 78.0143 365.367 77.9222 365.277 77.8052C365.188 77.6882 365.138 77.551 365.132 77.4095C365.23 74.8218 364.655 72.2491 363.452 69.8941C363.31 69.5432 363.06 69.2356 362.73 69.0072C362.638 68.9597 362.534 68.9347 362.427 68.9347C362.321 68.9347 362.217 68.9597 362.125 69.0072C361.266 69.5347 360.665 70.3359 360.445 71.2468C359.581 74.3032 359.019 77.4216 358.765 80.566C358.211 85.9771 357.623 91.5837 354.061 96.1681C349.929 101.534 314.348 139.638 312.836 141.261C312.723 141.381 312.57 141.466 312.399 141.501L279.741 149.017C279.525 149.063 279.298 149.032 279.107 148.931C278.916 148.83 278.776 148.667 278.717 148.476C278.689 148.38 278.682 148.28 278.698 148.182C278.713 148.084 278.75 147.99 278.806 147.905C278.862 147.82 278.937 147.745 279.025 147.686C279.114 147.627 279.214 147.583 279.321 147.559L311.727 140.043C314.465 137.037 348.686 100.362 352.684 95.2512C356.044 90.9824 356.548 85.5713 357.102 80.3556C357.336 77.1151 357.898 73.9004 358.782 70.7508C358.959 70.0764 359.291 69.4422 359.757 68.8885C360.222 68.3348 360.811 67.8737 361.487 67.5342C361.818 67.4084 362.177 67.3538 362.536 67.3747C362.895 67.3955 363.243 67.4914 363.553 67.6545C364.198 68.0001 364.695 68.5293 364.964 69.1575C365.891 70.9326 366.487 72.8316 366.728 74.7791L379.563 54.8631C380.124 53.8694 380.935 53.0052 381.931 52.3379C382.53 51.9461 383.257 51.7424 383.998 51.7587C384.739 51.775 385.454 52.0104 386.03 52.4281C387.072 53.3149 387.206 54.7579 386.4 56.6969C385.778 58.2 385.14 59.7031 384.502 61.2062C383.51 63.551 382.486 65.971 381.528 68.421C383.95 70.1959 386.137 72.2132 388.046 74.4334C390.113 77.9807 389.541 80.6562 388.517 84.0532C386.322 91.6553 382.765 98.8888 377.983 105.472C375.699 108.554 372.104 114.205 367.904 120.744C355.489 140.194 338.505 166.843 327.77 172.48C314.818 179.304 281.22 187.12 279.792 187.511L279.54 187.541Z" fill="#231F20"/>
<path d="M287.856 316.401L276.987 272.18L168.581 298.198C168.581 298.198 168.799 305.458 169.102 316.371L287.856 316.401Z" fill="#231F20"/>
<path d="M309.695 137.533C309.695 137.533 186.355 135.203 170.698 155.014C158.514 171.454 148.31 189.003 140.258 207.367L162.433 225.915C162.335 252.147 163.827 278.364 166.901 304.452C205.12 310.464 284.295 283.108 283.623 282.837L273.543 191.148L320.749 178.102L309.695 137.533Z" fill="#7FF0B2"/>
<path d="M160.988 219.031C160.877 219.027 160.769 219.004 160.669 218.962C160.568 218.921 160.478 218.862 160.403 218.789C160.329 218.717 160.27 218.632 160.232 218.539C160.194 218.446 160.177 218.348 160.181 218.249C160.181 216.596 161.643 177.47 167.64 163.792C167.679 163.699 167.739 163.614 167.815 163.542C167.892 163.47 167.984 163.412 168.086 163.373C168.188 163.334 168.298 163.313 168.409 163.313C168.52 163.313 168.63 163.332 168.732 163.371C168.836 163.404 168.931 163.456 169.011 163.523C169.091 163.59 169.155 163.671 169.199 163.761C169.243 163.851 169.266 163.949 169.267 164.047C169.268 164.145 169.246 164.243 169.203 164.333C163.323 177.771 161.878 217.903 161.861 218.294C161.853 218.495 161.756 218.684 161.593 218.822C161.429 218.96 161.212 219.035 160.988 219.031Z" fill="#231F20"/>
<path d="M256.66 195.837C256.477 195.84 256.299 195.788 256.153 195.69C256.007 195.592 255.902 195.454 255.853 195.296C255.796 195.103 255.826 194.897 255.935 194.723C256.045 194.549 256.227 194.42 256.441 194.364L291.3 185.496C291.522 185.44 291.761 185.466 291.963 185.568C292.164 185.669 292.312 185.838 292.375 186.037C292.437 186.237 292.409 186.45 292.295 186.63C292.182 186.811 291.993 186.943 291.77 186.999L256.895 195.868C256.815 195.872 256.735 195.862 256.66 195.837Z" fill="#231F20"/>
<path d="M392.935 301.129H331.97C331.125 301.131 330.287 300.984 329.505 300.695C328.724 300.407 328.014 299.983 327.416 299.448C326.818 298.913 326.344 298.277 326.021 297.578C325.699 296.879 325.534 296.129 325.536 295.372V235.114C325.536 234.358 325.703 233.609 326.026 232.91C326.349 232.212 326.823 231.577 327.421 231.043C328.018 230.508 328.727 230.084 329.508 229.795C330.289 229.506 331.125 229.357 331.97 229.357H385.728L399.302 241.201V295.312C399.311 296.068 399.153 296.819 398.838 297.52C398.523 298.222 398.056 298.861 397.465 299.401C396.874 299.941 396.169 300.372 395.392 300.668C394.615 300.965 393.78 301.121 392.935 301.129Z" fill="white"/>
<path d="M392.934 301.881H331.97C330.041 301.881 328.19 301.195 326.826 299.975C325.462 298.754 324.696 297.099 324.696 295.373V235.114C324.7 233.389 325.468 231.736 326.831 230.516C328.194 229.296 330.042 228.609 331.97 228.605H385.728C385.836 228.603 385.945 228.62 386.046 228.657C386.147 228.693 386.238 228.747 386.316 228.816L399.906 240.675C400.063 240.815 400.153 241.003 400.158 241.201V295.312C400.172 297.04 399.419 298.702 398.064 299.933C396.71 301.165 394.865 301.865 392.934 301.881ZM331.97 230.108C330.488 230.112 329.067 230.641 328.019 231.579C326.971 232.516 326.38 233.787 326.376 235.114V295.357C326.376 296.015 326.52 296.666 326.802 297.273C327.083 297.88 327.495 298.432 328.014 298.897C328.534 299.362 329.15 299.73 329.829 299.982C330.508 300.233 331.235 300.363 331.97 300.363H392.934C394.417 300.359 395.837 299.83 396.885 298.892C397.933 297.955 398.524 296.684 398.529 295.357V241.517L385.442 230.108H331.97Z" fill="#231F20"/>
<path d="M311.626 11.2735C313.185 11.2735 314.448 10.143 314.448 8.74834C314.448 7.35371 313.185 6.22314 311.626 6.22314C310.067 6.22314 308.804 7.35371 308.804 8.74834C308.804 10.143 310.067 11.2735 311.626 11.2735Z" fill="#7FF0B2"/>
<path d="M321.42 11.2735C322.979 11.2735 324.242 10.143 324.242 8.74834C324.242 7.35371 322.979 6.22314 321.42 6.22314C319.861 6.22314 318.598 7.35371 318.598 8.74834C318.598 10.143 319.861 11.2735 321.42 11.2735Z" fill="#D1D3D4"/>
<path d="M331.214 11.2735C332.773 11.2735 334.037 10.143 334.037 8.74834C334.037 7.35371 332.773 6.22314 331.214 6.22314C329.656 6.22314 328.392 7.35371 328.392 8.74834C328.392 10.143 329.656 11.2735 331.214 11.2735Z" fill="#D1D3D4"/>
<path d="M385.291 48.3844C385.099 48.3831 384.914 48.3189 384.771 48.2041C384.61 48.0815 384.509 47.9073 384.49 47.719C384.471 47.5306 384.536 47.3432 384.67 47.197L391.927 39.5011C392.003 39.4204 392.099 39.3557 392.206 39.3115C392.313 39.2673 392.43 39.2448 392.549 39.2456H410.709C410.931 39.2456 411.145 39.3248 411.303 39.4657C411.46 39.6067 411.549 39.7978 411.549 39.9972C411.549 40.1965 411.46 40.3877 411.303 40.5286C411.145 40.6695 410.931 40.7487 410.709 40.7487H392.885L385.863 48.2642C385.696 48.367 385.492 48.4099 385.291 48.3844Z" fill="#D1D3D4"/>
<path d="M385.795 229.357V241.562L399.369 241.201L385.795 229.357Z" fill="#7FF0B2"/>
<path d="M385.779 242.313C385.565 242.312 385.36 242.237 385.208 242.103C385.123 242.035 385.055 241.951 385.008 241.858C384.962 241.765 384.938 241.664 384.939 241.562V229.356C384.942 229.209 384.993 229.065 385.085 228.942C385.177 228.819 385.308 228.723 385.46 228.665C385.61 228.606 385.777 228.589 385.939 228.616C386.101 228.643 386.25 228.712 386.367 228.815L399.958 240.675C400.072 240.779 400.15 240.911 400.182 241.054C400.214 241.197 400.199 241.345 400.138 241.48C400.077 241.616 399.974 241.733 399.841 241.816C399.707 241.9 399.549 241.947 399.386 241.952L385.813 242.313H385.779ZM386.619 231.145V240.795L397.354 240.509L386.619 231.145Z" fill="#231F20"/>
<path d="M91.9758 261.102H74.7229C72.19 261.102 70.1367 262.939 70.1367 265.205V280.642C70.1367 282.909 72.19 284.746 74.7229 284.746H91.9758C94.5087 284.746 96.562 282.909 96.562 280.642V265.205C96.562 262.939 94.5087 261.102 91.9758 261.102Z" fill="#7FF0B2"/>
<path d="M87.4235 253.526H69.5995C67.2243 253.526 65.2988 255.249 65.2988 257.374V273.322C65.2988 275.447 67.2243 277.17 69.5995 277.17H87.4235C89.7986 277.17 91.7241 275.447 91.7241 273.322V257.374C91.7241 255.249 89.7986 253.526 87.4235 253.526Z" fill="white"/>
<path d="M87.4235 277.922H69.5995C68.9216 277.926 68.2495 277.81 67.6219 277.58C66.9944 277.351 66.4237 277.013 65.9428 276.585C65.4619 276.158 65.0802 275.649 64.8198 275.089C64.5593 274.529 64.4253 273.929 64.4253 273.322V257.374C64.4253 256.155 64.9669 254.985 65.9309 254.122C66.895 253.259 68.2025 252.775 69.5659 252.775H87.3899C88.065 252.775 88.7334 252.894 89.3571 253.125C89.9808 253.356 90.5475 253.695 91.0248 254.122C91.5022 254.549 91.8808 255.056 92.1392 255.614C92.3975 256.172 92.5305 256.77 92.5305 257.374V273.322C92.5305 274.537 91.9935 275.702 91.0367 276.564C90.0799 277.426 88.781 277.914 87.4235 277.922ZM69.5995 254.278C69.1422 254.274 68.6886 254.351 68.2648 254.505C67.8411 254.659 67.4556 254.886 67.1307 255.174C66.8058 255.462 66.5478 255.805 66.3718 256.182C66.1958 256.56 66.1052 256.965 66.1052 257.374V273.322C66.1052 274.143 66.4698 274.931 67.1188 275.512C67.7678 276.092 68.648 276.419 69.5659 276.419H87.3899C88.3077 276.419 89.188 276.092 89.837 275.512C90.486 274.931 90.8506 274.143 90.8506 273.322V257.374C90.8506 256.553 90.486 255.766 89.837 255.185C89.188 254.604 88.3077 254.278 87.3899 254.278H69.5995Z" fill="#231F20"/>
<path d="M358.816 287.677V284.129C357.371 283.769 355.977 283.513 354.616 283.092C351.991 282.358 349.719 280.854 348.165 278.823C346.887 277.031 346.238 274.937 346.301 272.811H354.045C354.096 274.016 354.589 275.173 355.448 276.102C356.308 277.032 357.485 277.682 358.799 277.952V268.542C357.237 268.136 355.691 267.761 354.146 267.325C352.461 266.891 350.918 266.102 349.644 265.025C348.322 263.841 347.447 262.317 347.141 260.666C346.692 258.659 346.86 256.581 347.628 254.654C348.198 253.266 349.103 252.007 350.279 250.968C351.455 249.929 352.873 249.134 354.431 248.641C355.717 248.279 357.024 247.978 358.346 247.74L358.816 247.649V242.749H366.073V243.215C366.073 244.553 366.073 245.906 366.073 247.244C366.073 247.574 366.191 247.679 366.544 247.755C369.011 248.182 371.321 249.153 373.263 250.58C375.331 252.091 376.701 254.233 377.11 256.593C377.245 257.239 377.295 257.9 377.396 258.577H369.517C369.504 257.615 369.18 256.677 368.584 255.877C367.987 255.077 367.145 254.448 366.157 254.068V262.861L367.014 263.041C369.144 263.41 371.219 264 373.196 264.8C374.681 265.376 375.963 266.303 376.904 267.481C377.845 268.66 378.41 270.045 378.538 271.488C379.002 274.178 378.273 276.924 376.506 279.139C375.051 280.941 373.009 282.296 370.659 283.017C369.198 283.468 367.686 283.754 366.124 284.144V287.587L358.816 287.677ZM366.09 269.805V277.982C367.27 277.827 368.38 277.385 369.299 276.704C369.773 276.359 370.151 275.921 370.405 275.424C370.66 274.927 370.782 274.384 370.765 273.838C370.747 273.291 370.589 272.756 370.302 272.273C370.016 271.79 369.609 271.372 369.114 271.052C368.14 270.574 367.129 270.157 366.09 269.805ZM358.799 261.433V253.526C357.849 253.899 356.923 254.32 356.027 254.789C355.513 255.117 355.097 255.554 354.818 256.061C354.539 256.568 354.406 257.129 354.429 257.694C354.452 258.259 354.632 258.81 354.952 259.297C355.272 259.784 355.722 260.193 356.262 260.486C357.052 260.862 357.909 261.117 358.799 261.448V261.433Z" fill="#7FF0B2"/>
<path d="M115.495 32.7827H41.5107V72.2239H115.495V32.7827Z" fill="#D1D3D4"/>
</svg>
