<svg width="335" height="324" viewBox="0 0 335 324" fill="none" xmlns="http://www.w3.org/2000/svg">
<path d="M301.657 218.336C301.657 218.336 330.111 92.7833 316.148 84.0914C302.185 75.3995 206.825 68.001 194.726 84.0914C182.627 100.182 174.018 200.201 174.018 200.201L301.657 218.336Z" fill="#231F20"/>
<path d="M301.657 219.031H301.56L173.935 200.952C173.759 200.925 173.6 200.833 173.49 200.693C173.379 200.554 173.324 200.379 173.337 200.201C173.699 196.113 182.098 99.8206 194.198 83.7441C201.902 73.5085 239.145 73.6476 254.79 74.176C282.465 75.1217 309.598 79.2521 316.538 83.5772C330.75 92.422 303.534 213.413 302.366 218.559C302.315 218.704 302.218 218.828 302.091 218.914C301.963 218.999 301.81 219.04 301.657 219.031ZM174.783 199.562L301.115 217.516C309.069 182.275 326.815 91.5181 315.787 84.648C302.575 76.4429 207.312 68.4881 195.282 84.4672C183.962 99.5981 175.562 190.981 174.783 199.603V199.562Z" fill="#231F20"/>
<path d="M4.6449 244.731C21.1664 216.013 87.6002 194.527 167.065 194.527C246.53 194.527 312.963 216.013 329.485 244.731H333.434V258.638C333.434 294.06 258.949 322.778 167.065 322.778C75.1813 322.778 0.695312 294.087 0.695312 258.666V244.759L4.6449 244.731Z" fill="#231F20"/>
<path d="M167.065 323.501C74.9449 323.501 0 294.421 0 258.666V244.759C0 244.575 0.0732594 244.398 0.203663 244.268C0.334066 244.137 0.510932 244.064 0.695351 244.064H4.24163C12.5858 230.032 33.0292 217.307 62.0392 208.226C91.6055 198.963 128.904 193.86 167.065 193.86C205.226 193.86 242.524 198.963 272.091 208.226C301.101 217.307 321.6 230.032 329.888 244.064H333.435C333.619 244.064 333.796 244.137 333.926 244.268C334.057 244.398 334.13 244.575 334.13 244.759V258.666C334.13 294.421 259.185 323.501 167.065 323.501ZM1.3907 245.427V258.666C1.3907 293.656 75.7098 322.11 167.065 322.11C258.42 322.11 332.739 293.656 332.739 258.666V245.427H329.485C329.362 245.426 329.241 245.393 329.134 245.332C329.027 245.272 328.937 245.184 328.873 245.079C312.268 216.194 244.221 195.223 167.065 195.223C89.9088 195.223 21.8618 216.194 5.25685 245.079C5.1929 245.184 5.10313 245.272 4.99604 245.332C4.88895 245.393 4.7681 245.426 4.64494 245.427H1.3907Z" fill="#231F20"/>
<path d="M182.252 2.29088C182.252 2.29088 193.711 -3.27193 201.235 6.67159C208.758 16.6151 204.225 27.9493 221.094 35.0419C237.963 42.1345 224.292 62.5917 236.572 70.0736C236.572 70.0736 227.269 76.7212 219.425 78.8212L213.765 74.1623L214.168 79.1827C214.168 79.1827 165.299 101.225 145.036 87.2349L142.505 81.1854L138.695 85.3575L126.178 77.0133C126.178 77.0133 135.913 71.9233 133.007 62.0771C130.1 52.2309 123.773 43.6781 135.705 31.1201C147.637 18.5621 138.486 10.649 153.172 5.05837C162.492 1.7671 172.478 0.816733 182.252 2.29088Z" fill="white"/>
<path d="M163.56 92.6584C155.606 92.6584 149.278 91.059 144.647 87.8604C144.539 87.7875 144.452 87.6865 144.397 87.5684L142.283 82.5062L139.251 85.9413C139.139 86.0652 138.987 86.1456 138.822 86.1685C138.656 86.1914 138.488 86.1553 138.347 86.0664L125.831 77.7222C125.733 77.6534 125.654 77.5615 125.601 77.4547C125.547 77.348 125.521 77.2296 125.525 77.1103C125.529 76.9882 125.566 76.8696 125.632 76.7668C125.699 76.6641 125.791 76.581 125.9 76.5262C126.276 76.3176 135.037 71.5614 132.381 62.3967C131.908 60.7696 131.324 59.1424 130.754 57.571C127.972 49.6857 125.024 41.5223 135.246 30.7721C139.028 26.934 141.551 22.0343 142.477 16.7261C143.59 11.9003 144.563 7.74213 152.963 4.52961C162.314 1.19035 172.331 0.150497 182.168 1.49788C183.809 0.788626 194.601 -3.34176 201.805 6.18454C204.152 9.55594 205.867 13.3257 206.867 17.3102C208.883 23.8047 210.789 29.9377 221.386 34.3741C230.912 38.3793 231.121 46.7096 231.315 54.0525C231.468 60.3106 231.635 66.2211 236.948 69.4615C237.049 69.5183 237.133 69.6011 237.192 69.7013C237.251 69.8015 237.281 69.9155 237.281 70.0316C237.29 70.1463 237.267 70.261 237.216 70.3638C237.164 70.4665 237.086 70.5536 236.989 70.6157C236.614 70.8939 227.505 77.3606 219.62 79.4745C219.513 79.5063 219.4 79.5115 219.291 79.4897C219.182 79.4679 219.08 79.4197 218.994 79.3493L214.599 75.7613L214.877 79.1685C214.887 79.3132 214.852 79.4574 214.778 79.5817C214.703 79.7061 214.592 79.8045 214.46 79.8639C205.684 83.6639 196.626 86.7791 187.369 89.1816C179.606 91.3127 171.609 92.4804 163.56 92.6584ZM145.606 86.8313C164.381 99.5145 208.508 80.9486 213.431 78.807L213.069 74.2733C213.062 74.136 213.094 73.9994 213.16 73.879C213.226 73.7586 213.325 73.6591 213.445 73.5918C213.567 73.5307 213.704 73.506 213.84 73.5208C213.975 73.5356 214.104 73.5893 214.21 73.6753L219.578 78.056C225.794 76.2898 232.942 71.7005 235.334 70.0734C230.231 66.3463 230.064 60.1298 229.911 54.0942C229.716 46.501 229.521 39.325 220.829 35.6813C209.704 30.9808 207.548 24.2498 205.532 17.7274C204.575 13.9218 202.936 10.3217 200.692 7.10241C193.6 -2.28483 182.683 2.86077 182.613 2.9303C182.473 2.97906 182.321 2.97906 182.182 2.9303C172.505 1.55704 162.639 2.55937 153.436 5.85078C145.662 8.79907 144.814 12.3036 143.743 17.1433C142.757 22.6914 140.115 27.8111 136.164 31.8291C126.526 41.9673 129.21 49.3658 131.991 57.1955C132.562 58.7809 133.146 60.4358 133.633 62.1046C136.052 70.4489 129.892 75.5805 127.43 77.2494L138.556 84.5923L142.032 80.7679C142.113 80.6823 142.214 80.6175 142.325 80.5788C142.436 80.5401 142.555 80.5286 142.672 80.5453C142.788 80.5656 142.897 80.6144 142.989 80.6872C143.081 80.7601 143.154 80.8547 143.201 80.9625L145.606 86.8313Z" fill="#231F20"/>
<path d="M193.015 82.1448C193.015 82.1448 236.294 81.7971 254.971 93.8962C273.648 105.995 263.315 146.548 260.757 160.066C258.198 173.583 246.599 225.943 246.599 225.943L148.527 231.631C148.527 231.631 131.213 145.742 129.919 120.639C129.655 115.424 135.83 95.7876 139.946 92.8254C153.853 82.7011 173.42 81.2965 193.015 82.1448Z" fill="#7FF0B2"/>
<path d="M203.084 94.689L193.113 176.74L167.705 111.002C167.705 111.002 193.391 104.758 203.084 94.689Z" fill="#231F20"/>
<path d="M193.113 177.491C192.973 177.493 192.836 177.451 192.721 177.372C192.606 177.292 192.52 177.178 192.473 177.046L167.065 111.308C167.02 111.219 166.996 111.122 166.996 111.022C166.996 110.923 167.02 110.826 167.065 110.737C167.11 110.65 167.173 110.573 167.25 110.511C167.326 110.448 167.415 110.403 167.51 110.376C167.774 110.376 193.113 104.034 202.556 94.2019C202.657 94.0994 202.788 94.031 202.93 94.0061C203.072 93.9812 203.218 94.001 203.348 94.0629C203.482 94.1221 203.592 94.2237 203.663 94.3518C203.733 94.4799 203.759 94.6276 203.738 94.7721L193.78 176.824C193.761 176.977 193.692 177.119 193.584 177.23C193.476 177.34 193.335 177.412 193.182 177.435L193.113 177.491ZM168.636 111.544L192.765 173.959L202.152 96.5383C192.57 105.008 172.85 110.445 168.636 111.544Z" fill="#231F20"/>
<path d="M167.065 308.871C258.948 308.871 333.434 280.155 333.434 244.732C333.434 209.309 258.948 180.593 167.065 180.593C75.1815 180.593 0.695312 209.309 0.695312 244.732C0.695312 280.155 75.1815 308.871 167.065 308.871Z" fill="white"/>
<path d="M167.065 309.566C74.9449 309.566 0 280.473 0 244.732C0 208.991 74.9449 179.855 167.065 179.855C259.185 179.855 334.13 208.935 334.13 244.69C334.13 280.445 259.185 309.566 167.065 309.566ZM167.065 181.246C75.7098 181.246 1.3907 209.7 1.3907 244.69C1.3907 279.68 75.7098 308.175 167.065 308.175C258.42 308.175 332.739 279.708 332.739 244.732C332.739 209.756 258.42 181.246 167.065 181.246Z" fill="#231F20"/>
<path d="M129.822 187.365L195.352 213.191L86.0148 253.132L26.6458 221.048L129.822 187.365Z" fill="white"/>
<path d="M86.0148 253.827C85.8986 253.826 85.7842 253.797 85.6811 253.743L26.312 221.66C26.1945 221.595 26.0984 221.497 26.0353 221.378C25.9723 221.259 25.945 221.125 25.9568 220.991C25.9685 220.857 26.0189 220.729 26.1017 220.623C26.1845 220.518 26.2962 220.438 26.4233 220.394L129.599 186.711C129.751 186.65 129.921 186.65 130.072 186.711L195.616 212.537C195.748 212.588 195.861 212.677 195.94 212.794C196.02 212.911 196.062 213.049 196.061 213.19C196.056 213.33 196.01 213.466 195.928 213.58C195.847 213.694 195.733 213.781 195.602 213.83L86.2513 253.771C86.1766 253.804 86.0964 253.823 86.0148 253.827ZM28.3981 221.215L86.0705 252.366L193.405 213.232L129.794 188.199L28.3981 221.215Z" fill="#D1D3D4"/>
<path d="M140.197 186.67L205.726 212.495L96.3895 252.422L37.0066 220.353L140.197 186.67Z" fill="white"/>
<path d="M96.3896 253.118C96.2731 253.118 96.1583 253.089 96.0558 253.034L36.6868 220.965C36.5669 220.897 36.4682 220.798 36.4018 220.677C36.3355 220.557 36.3041 220.42 36.3113 220.283C36.3261 220.147 36.38 220.018 36.4663 219.912C36.5527 219.806 36.6679 219.727 36.7981 219.685L139.974 186.002C140.127 185.947 140.294 185.947 140.447 186.002L206.005 211.842C206.133 211.896 206.242 211.987 206.319 212.104C206.395 212.22 206.436 212.356 206.436 212.495C206.434 212.638 206.389 212.776 206.307 212.893C206.225 213.009 206.11 213.099 205.977 213.149L96.6399 253.076C96.5597 253.105 96.4749 253.119 96.3896 253.118ZM38.7729 220.506L96.4452 251.671L203.766 212.467L140.169 187.435L38.7729 220.506Z" fill="#D1D3D4"/>
<path d="M150.933 187.977L216.477 213.816L107.126 253.743L47.7568 221.66L150.933 187.977Z" fill="white"/>
<path d="M107.126 254.439C107.014 254.439 106.903 254.411 106.806 254.355L47.4646 222.272C47.3437 222.21 47.2443 222.114 47.1797 221.994C47.1151 221.875 47.0884 221.739 47.103 221.604C47.1151 221.469 47.1662 221.341 47.2502 221.235C47.3342 221.128 47.4474 221.049 47.5759 221.006L150.752 187.323C150.905 187.268 151.072 187.268 151.225 187.323L216.727 213.232C216.858 213.285 216.97 213.375 217.049 213.491C217.128 213.608 217.171 213.745 217.172 213.886C217.165 214.027 217.118 214.163 217.037 214.279C216.955 214.394 216.843 214.485 216.713 214.539L107.362 254.397C107.287 254.425 107.206 254.439 107.126 254.439ZM49.509 221.827L107.181 252.992L214.516 213.788L150.905 188.756L49.509 221.827Z" fill="#231F20"/>
<path d="M95.0126 239.739C94.8728 239.741 94.7358 239.699 94.621 239.619C94.5063 239.539 94.4194 239.426 94.3728 239.294C94.3393 239.208 94.3232 239.116 94.3254 239.024C94.3276 238.932 94.348 238.842 94.3855 238.757C94.423 238.673 94.4769 238.598 94.544 238.534C94.611 238.471 94.6899 238.422 94.7762 238.39L181.111 205.472C181.283 205.412 181.471 205.421 181.636 205.496C181.802 205.571 181.933 205.707 182.001 205.875C182.034 205.961 182.051 206.053 182.048 206.145C182.046 206.237 182.026 206.327 181.988 206.412C181.951 206.496 181.897 206.571 181.83 206.635C181.763 206.698 181.684 206.747 181.598 206.779L95.2629 239.655C95.1847 239.697 95.1001 239.725 95.0126 239.739Z" fill="#D1D3D4"/>
<path d="M182.516 218.948C182.424 218.968 182.329 218.968 182.237 218.948L136.344 199.186C136.26 199.15 136.184 199.097 136.121 199.031C136.057 198.965 136.007 198.887 135.973 198.802C135.906 198.63 135.909 198.438 135.983 198.268C136.056 198.099 136.195 197.965 136.367 197.897C136.539 197.83 136.731 197.833 136.901 197.907L182.794 217.682C182.877 217.717 182.953 217.769 183.017 217.833C183.081 217.898 183.131 217.974 183.164 218.058C183.198 218.143 183.215 218.233 183.213 218.323C183.211 218.414 183.192 218.503 183.155 218.586C183.093 218.7 183 218.795 182.887 218.859C182.774 218.923 182.645 218.954 182.516 218.948Z" fill="#D1D3D4"/>
<path d="M167.885 224.858C167.148 224.858 163.06 222.856 121.061 201.564C120.895 201.481 120.768 201.335 120.71 201.159C120.651 200.983 120.665 200.791 120.748 200.625C120.831 200.459 120.976 200.333 121.152 200.274C121.328 200.216 121.52 200.229 121.686 200.312C134.036 206.584 166.189 222.883 167.885 223.537C167.976 223.56 168.062 223.602 168.136 223.659C168.21 223.716 168.272 223.789 168.317 223.871C168.403 224.032 168.424 224.221 168.375 224.397C168.325 224.573 168.21 224.723 168.052 224.817C168.003 224.849 167.944 224.863 167.885 224.858Z" fill="#D1D3D4"/>
<path d="M148.151 232.326C148.051 232.352 147.946 232.352 147.845 232.326L101.396 209.561C101.232 209.477 101.108 209.333 101.048 209.159C100.988 208.986 100.998 208.795 101.076 208.629C101.116 208.547 101.172 208.473 101.241 208.412C101.309 208.352 101.389 208.305 101.476 208.275C101.562 208.246 101.654 208.233 101.745 208.239C101.836 208.245 101.926 208.269 102.008 208.309L148.457 231.089C148.605 231.152 148.726 231.264 148.798 231.408C148.871 231.551 148.89 231.715 148.854 231.871C148.817 232.027 148.727 232.165 148.598 232.261C148.47 232.357 148.312 232.405 148.151 232.396V232.326Z" fill="#D1D3D4"/>
<path d="M109.295 247.096C109.187 247.096 109.082 247.067 108.989 247.012L60.9542 222.286C60.8308 222.222 60.7292 222.124 60.6623 222.002C60.5954 221.881 60.5663 221.742 60.5787 221.604C60.5871 221.468 60.6369 221.338 60.7214 221.231C60.8059 221.124 60.9211 221.046 61.0516 221.006L149.862 192.872C150.015 192.817 150.182 192.817 150.335 192.872L198.091 212.106C198.221 212.157 198.332 212.246 198.411 212.361C198.489 212.477 198.531 212.613 198.531 212.752C198.531 212.892 198.489 213.028 198.411 213.143C198.332 213.259 198.221 213.348 198.091 213.399L109.559 247.026C109.479 247.071 109.388 247.095 109.295 247.096ZM63.082 221.827L109.337 245.635L195.922 212.745L150.029 194.277L63.082 221.827Z" fill="#D1D3D4"/>
<path d="M166.495 83.3964L167.413 107.4C167.413 107.4 169.457 116.259 185.158 112.74C189.298 111.892 193.093 109.836 196.064 106.83C199.034 103.825 201.047 100.006 201.846 95.8571C200.317 87.5128 197.841 47.1825 196.284 36.7244L186.368 38.5045C186.156 33.8599 185.414 29.2546 184.157 24.7783C182.474 28.2948 181.5 32.1084 181.292 36.0013L163.213 37.9065C162.829 37.9929 162.428 37.9488 162.072 37.7814C161.764 37.5242 161.548 37.1722 161.461 36.7801L159.875 32.0239L158.582 37.7257C158.589 38.0447 158.526 38.3614 158.399 38.6541C158.272 38.9467 158.083 39.2084 157.845 39.4211C157.607 39.6338 157.326 39.7926 157.021 39.8864C156.716 39.9803 156.395 40.007 156.079 39.9648L148.861 40.3959C147.817 40.3641 146.784 40.6139 145.871 41.1191C143.187 42.9548 144.48 53.8023 144.786 56.7505C145.23 62.7282 146.595 68.6014 148.833 74.1621C153.589 85.4685 166.495 83.3964 166.495 83.3964Z" fill="white"/>
<path d="M178.385 114.27C175.429 114.394 172.508 113.582 170.041 111.948C168.488 110.892 167.337 109.344 166.773 107.553L165.869 84.1615C162.935 84.3979 152.449 84.4675 148.235 74.4266C145.938 68.8053 144.531 62.8607 144.063 56.8064L143.965 55.7495C143.284 48.796 143.006 42.1901 145.44 40.5352C146.454 39.9533 147.608 39.66 148.777 39.6869L155.995 39.2558C156.425 39.279 156.854 39.1827 157.233 38.9776C157.587 38.5942 157.806 38.1061 157.859 37.5869L159.152 31.8851C159.185 31.7373 159.265 31.6045 159.381 31.5066C159.496 31.4087 159.641 31.3511 159.792 31.3427C159.944 31.3298 160.097 31.3698 160.223 31.4558C160.35 31.5419 160.443 31.6689 160.487 31.8155L162.1 36.6134C162.184 36.822 162.281 37.1558 162.434 37.2393C162.662 37.2981 162.901 37.2981 163.129 37.2393L180.569 35.3896C180.843 31.6064 181.824 27.9082 183.461 24.4865C183.517 24.3566 183.614 24.2484 183.737 24.1782C183.86 24.1079 184.002 24.0795 184.143 24.0971C184.284 24.1086 184.418 24.1626 184.527 24.252C184.636 24.3415 184.716 24.4621 184.755 24.5978C185.951 28.8693 186.687 33.2564 186.952 37.6843L196.089 36.0572C196.18 36.0379 196.274 36.0378 196.365 36.057C196.456 36.0761 196.542 36.1141 196.617 36.1684C196.692 36.2227 196.755 36.2912 196.803 36.37C196.85 36.4487 196.882 36.5362 196.896 36.6273C197.674 41.7451 198.676 54.025 199.677 65.9155C200.706 78.4318 201.763 91.5044 202.542 95.746C201.78 100.08 199.732 104.085 196.664 107.24C193.596 110.395 189.65 112.553 185.339 113.436C183.059 113.97 180.727 114.25 178.385 114.27ZM166.495 82.7013C166.656 82.7012 166.813 82.7551 166.94 82.8543C167.015 82.9179 167.076 82.9966 167.119 83.0852C167.162 83.1738 167.186 83.2704 167.19 83.3688L168.108 107.372C168.178 107.567 170.236 115.369 185.005 112.059C188.996 111.265 192.662 109.302 195.534 106.42C198.407 103.537 200.357 99.8653 201.137 95.8712C200.331 91.4766 199.329 79.0994 198.258 66.0129C197.341 54.6647 196.381 42.9689 195.63 37.5313L186.424 39.1862C186.326 39.2042 186.225 39.201 186.129 39.1769C186.032 39.1527 185.942 39.1082 185.865 39.0462C185.787 38.9843 185.723 38.9064 185.678 38.8178C185.633 38.7292 185.607 38.6319 185.603 38.5326C185.425 34.6022 184.861 30.6988 183.92 26.8785C182.767 29.8019 182.091 32.8915 181.918 36.0293C181.906 36.1957 181.838 36.353 181.724 36.4747C181.61 36.5963 181.457 36.6748 181.292 36.6969L163.213 38.6021C162.673 38.7069 162.113 38.6234 161.627 38.3657C161.176 38.0191 160.857 37.5283 160.723 36.975L159.931 34.5969L159.194 37.8651C159.18 38.2575 159.087 38.6431 158.919 38.9982C158.752 39.3534 158.514 39.6708 158.22 39.931C157.926 40.1913 157.582 40.3889 157.209 40.5119C156.836 40.6349 156.442 40.6807 156.051 40.6465L148.833 41.0776C147.915 41.0433 147.004 41.2494 146.191 41.6756C144.105 43.0663 145.009 52.5231 145.314 55.5826L145.412 56.6395C145.852 62.5461 147.203 68.3491 149.417 73.8425C153.895 84.4953 165.827 82.7291 166.328 82.6456L166.495 82.7013Z" fill="#231F20"/>
<path d="M166.982 96.0098C169.718 95.8737 172.379 95.0716 174.735 93.6731C177.091 92.2747 179.069 90.3223 180.499 87.9855C185.589 79.8777 183.726 74.6069 183.726 74.6069C183.726 74.6069 176.939 82.9511 166.495 83.3962L166.982 96.0098Z" fill="#231F20"/>
<path d="M167.065 96.7053C166.888 96.7019 166.718 96.6309 166.592 96.5068C166.465 96.3827 166.391 96.2149 166.384 96.0378L165.897 83.4241C165.893 83.3328 165.907 83.2416 165.939 83.1558C165.97 83.07 166.019 82.9913 166.081 82.9241C166.143 82.857 166.217 82.8027 166.3 82.7644C166.383 82.7261 166.473 82.7045 166.564 82.7009C176.55 82.242 183.253 74.2455 183.253 74.162C183.333 74.0699 183.436 74.0001 183.551 73.9593C183.666 73.9185 183.789 73.908 183.91 73.929C184.03 73.95 184.143 74.0017 184.237 74.079C184.332 74.1564 184.405 74.2568 184.449 74.3706C184.532 74.6071 186.368 80.0586 181.167 88.2777C179.688 90.7319 177.629 92.7846 175.169 94.2544C172.71 95.7242 169.927 96.5659 167.065 96.7053ZM167.288 84.0499L167.719 95.2729C170.214 95.0205 172.617 94.1983 174.744 92.8697C176.871 91.5411 178.664 89.7416 179.985 87.6101C183.392 82.1864 183.559 78.0699 183.364 76.109C179.081 80.5692 173.365 83.3803 167.218 84.0499H167.288Z" fill="#231F20"/>
<path d="M164.617 48.1145C164.617 48.1145 162.239 60.6308 164.617 62.2718C166.996 63.9129 171.168 60.7838 171.168 60.7838" fill="white"/>
<path d="M166.23 63.4537C165.496 63.4749 164.775 63.2605 164.172 62.8418C161.599 60.9922 163.532 50.1308 163.936 47.9752C163.973 47.7937 164.079 47.6339 164.233 47.5299C164.386 47.426 164.574 47.3861 164.756 47.4189C164.846 47.4372 164.931 47.4729 165.006 47.524C165.082 47.5751 165.147 47.6406 165.197 47.7168C165.248 47.793 165.282 47.8784 165.3 47.9681C165.317 48.0577 165.317 48.1499 165.298 48.2394C164.2 54.0387 163.755 60.8392 164.979 61.7014C166.564 62.8418 169.651 61.02 170.708 60.2273C170.856 60.1166 171.041 60.0691 171.224 60.0952C171.406 60.1213 171.571 60.2188 171.682 60.3664C171.789 60.5151 171.834 60.6996 171.808 60.8811C171.782 61.0626 171.687 61.227 171.543 61.3398C169.999 62.5179 168.161 63.2491 166.23 63.4537Z" fill="#231F20"/>
<path d="M176.535 54.6729C177.638 54.4836 178.315 53.0664 178.047 51.5077C177.779 49.9489 176.669 48.8387 175.566 49.028C174.463 49.2174 173.787 50.6345 174.054 52.1933C174.322 53.7521 175.433 54.8622 176.535 54.6729Z" fill="#231F20"/>
<path d="M155.43 57.1194C156.532 56.9301 157.209 55.513 156.941 53.9542C156.674 52.3954 155.563 51.2852 154.46 51.4746C153.358 51.6639 152.681 53.081 152.949 54.6398C153.216 56.1986 154.327 57.3088 155.43 57.1194Z" fill="#231F20"/>
<path d="M173.268 55.7492C172.105 55.7461 170.982 55.3218 170.108 54.5547C169.233 53.7877 168.666 52.7299 168.512 51.5771L167.608 44.415C167.596 44.3236 167.603 44.2308 167.627 44.1419C167.652 44.0531 167.694 43.97 167.751 43.8976C167.808 43.8251 167.878 43.7647 167.959 43.7198C168.039 43.6749 168.128 43.6465 168.22 43.6362L187.161 41.2581C187.252 41.2444 187.344 41.2492 187.433 41.2721C187.522 41.295 187.605 41.3356 187.677 41.3914C187.75 41.4473 187.811 41.5172 187.856 41.597C187.901 41.6769 187.929 41.765 187.94 41.8561L188.844 49.0182C188.927 49.6422 188.884 50.2766 188.716 50.8835C188.549 51.4904 188.261 52.0574 187.87 52.5506C187.487 53.0506 187.008 53.4692 186.461 53.782C185.914 54.0948 185.311 54.2955 184.685 54.3724L173.866 55.7631L173.268 55.7492ZM169.082 44.9574L169.888 51.438C170.01 52.3284 170.475 53.1357 171.185 53.6869C171.895 54.2381 172.792 54.4892 173.685 54.3863L184.519 52.9956C184.967 52.9375 185.399 52.7911 185.791 52.5648C186.182 52.3385 186.525 52.0369 186.799 51.6774C187.073 51.3179 187.273 50.9076 187.388 50.4703C187.503 50.033 187.529 49.5772 187.467 49.1295L186.646 42.6488L169.082 44.9574Z" fill="#231F20"/>
<path d="M145.899 59.4622C144.735 59.4591 143.613 59.0348 142.738 58.2678C141.864 57.5007 141.297 56.443 141.142 55.2901L140.238 48.128C140.215 47.9455 140.264 47.761 140.376 47.615C140.489 47.4691 140.654 47.3735 140.836 47.3492L159.792 44.9572C159.883 44.9456 159.976 44.9522 160.065 44.9768C160.154 45.0013 160.237 45.0433 160.309 45.1002C160.382 45.1572 160.442 45.228 160.487 45.3084C160.532 45.3889 160.56 45.4776 160.57 45.5691L161.474 52.7312C161.558 53.3552 161.514 53.9896 161.347 54.5965C161.18 55.2034 160.892 55.7704 160.501 56.2636C160.117 56.7569 159.639 57.1694 159.095 57.4773C158.551 57.7851 157.951 57.9824 157.33 58.0576L146.511 59.4483L145.899 59.4622ZM141.726 48.6148L142.533 55.0954C142.588 55.5386 142.73 55.9666 142.951 56.3548C143.171 56.743 143.467 57.0839 143.819 57.3578C144.172 57.6317 144.575 57.8333 145.006 57.951C145.437 58.0687 145.887 58.1002 146.33 58.0437L157.163 56.653C158.05 56.5349 158.855 56.0742 159.406 55.3698C159.957 54.6654 160.21 53.7731 160.112 52.8842L159.277 46.3479L141.726 48.6148Z" fill="#231F20"/>
<path d="M201.29 48.8099L187.87 47.6139C187.687 47.5929 187.519 47.5012 187.402 47.3584C187.285 47.2156 187.228 47.0329 187.244 46.849C187.262 46.6669 187.35 46.499 187.491 46.3819C187.632 46.2647 187.813 46.2077 187.995 46.2232L201.415 47.4331C201.506 47.44 201.595 47.4651 201.676 47.5069C201.757 47.5487 201.829 47.6063 201.887 47.6763C201.945 47.7463 201.989 47.8274 202.015 47.9146C202.042 48.0018 202.051 48.0934 202.041 48.1841C202.023 48.3662 201.935 48.5341 201.794 48.6512C201.654 48.7684 201.472 48.8254 201.29 48.8099Z" fill="#231F20"/>
<path d="M191.04 55.8049C191.005 54.5143 191.374 53.2449 192.097 52.1752C193.051 50.3875 194.313 48.7821 195.824 47.4329C197.366 46.0787 199.336 45.3106 201.387 45.2634C205.351 45.2634 208.688 49.0322 208.939 52.9818C208.967 54.9706 208.478 56.9325 207.519 58.6755C206.561 60.4185 205.167 61.8829 203.473 62.9253C202.169 63.8531 200.666 64.4622 199.084 64.7037C197.502 64.9452 195.886 64.8124 194.364 64.316" fill="white"/>
<path d="M197.368 65.5257C196.242 65.5332 195.124 65.3304 194.072 64.9277C193.901 64.8595 193.763 64.7259 193.69 64.5564C193.617 64.3869 193.615 64.1953 193.683 64.0238C193.751 63.8523 193.885 63.7149 194.054 63.6419C194.224 63.5688 194.415 63.5661 194.587 63.6344C196.004 64.0974 197.509 64.2216 198.982 63.997C200.456 63.7724 201.856 63.2052 203.07 62.341C204.661 61.3661 205.971 59.995 206.873 58.3617C207.775 56.7284 208.238 54.889 208.216 53.0233C208.103 51.2192 207.349 49.5149 206.089 48.219C204.829 46.9231 203.146 46.1212 201.346 45.9586C199.471 46.0103 197.675 46.7191 196.27 47.9612C194.816 49.2528 193.609 50.7985 192.709 52.5227C192.056 53.4598 191.716 54.5792 191.736 55.7213C191.756 55.9053 191.703 56.0897 191.588 56.2352C191.474 56.3807 191.307 56.4757 191.124 56.5001C190.94 56.5198 190.756 56.4669 190.61 56.3526C190.465 56.2383 190.37 56.0716 190.345 55.8882C190.29 54.4465 190.695 53.0246 191.5 51.8273C192.481 49.9629 193.796 48.2942 195.38 46.9042C197.041 45.454 199.155 44.6278 201.36 44.5679C203.512 44.7225 205.535 45.654 207.052 47.1889C208.569 48.7239 209.477 50.7578 209.606 52.9121C209.644 55.0229 209.131 57.107 208.116 58.9582C207.101 60.8095 205.621 62.3639 203.821 63.4675C201.914 64.7617 199.673 65.4766 197.368 65.5257Z" fill="#231F20"/>
<path d="M160.459 48.8095C160.318 48.8081 160.18 48.7635 160.064 48.6817C159.949 48.6 159.861 48.4849 159.813 48.3518C159.764 48.2188 159.758 48.0741 159.794 47.9372C159.83 47.8003 159.907 47.6777 160.014 47.5857C160.62 46.9705 161.342 46.482 162.138 46.1485C162.934 45.815 163.789 45.6433 164.652 45.6433C165.515 45.6433 166.37 45.815 167.166 46.1485C167.963 46.482 168.685 46.9705 169.29 47.5857C169.401 47.7225 169.456 47.8964 169.444 48.0721C169.431 48.2478 169.353 48.4124 169.224 48.5324C169.095 48.6525 168.925 48.7192 168.749 48.719C168.573 48.7188 168.404 48.6517 168.275 48.5314C167.799 48.0363 167.228 47.6424 166.595 47.3734C165.963 47.1044 165.284 46.9657 164.597 46.9657C163.91 46.9657 163.23 47.1044 162.598 47.3734C161.966 47.6424 161.394 48.0363 160.918 48.5314C160.864 48.6058 160.795 48.6687 160.717 48.7165C160.638 48.7642 160.55 48.7958 160.459 48.8095Z" fill="#231F20"/>
<path d="M158.929 72.5768C158.745 72.5768 158.568 72.5035 158.438 72.3731C158.307 72.2427 158.234 72.0659 158.234 71.8815C158.238 71.6981 158.312 71.5233 158.442 71.3937C158.571 71.2641 158.746 71.1897 158.929 71.1861C159.069 71.1861 173.17 71.0888 180.861 63.0783C180.924 63.0136 181 62.9621 181.084 62.927C181.167 62.8919 181.257 62.8738 181.348 62.8738C181.438 62.8738 181.528 62.8919 181.612 62.927C181.695 62.9621 181.771 63.0136 181.834 63.0783C181.9 63.143 181.951 63.2199 181.987 63.3046C182.022 63.3893 182.04 63.4802 182.04 63.572C182.04 63.6638 182.022 63.7547 181.987 63.8394C181.951 63.9242 181.9 64.0011 181.834 64.0657C173.754 72.4795 159.541 72.5768 158.929 72.5768Z" fill="#231F20"/>
<path d="M151.823 287.676L218.312 258.931L165.188 239.516L124.092 256.469L91.3274 257.568L151.823 287.676Z" fill="white"/>
<path d="M151.767 288.33C151.655 288.331 151.545 288.302 151.447 288.247L90.9656 258.138C90.8296 258.068 90.7205 257.955 90.6551 257.817C90.5897 257.679 90.5718 257.523 90.604 257.373C90.6355 257.222 90.7173 257.086 90.836 256.988C90.9547 256.889 91.1034 256.834 91.2576 256.831L123.883 255.732L164.867 238.835C165.029 238.773 165.207 238.773 165.368 238.835L218.507 258.305C218.636 258.356 218.748 258.445 218.826 258.561C218.905 258.676 218.947 258.812 218.947 258.952C218.947 259.091 218.905 259.227 218.826 259.343C218.748 259.458 218.636 259.547 218.507 259.598L152.101 288.33C151.991 288.356 151.877 288.356 151.767 288.33ZM94.0529 258.124L151.837 286.94L216.435 258.986L165.201 240.254L124.356 257.109C124.274 257.129 124.188 257.129 124.106 257.109L94.0529 258.124Z" fill="#231F20"/>
<path d="M218.312 258.93L218.994 265.661L150.933 295.77L149.445 280.876L171.585 279.123L218.312 258.93Z" fill="white"/>
<path d="M150.933 296.466C150.811 296.462 150.692 296.428 150.585 296.368C150.49 296.313 150.41 296.237 150.349 296.145C150.289 296.053 150.251 295.949 150.238 295.84L148.75 280.946C148.735 280.761 148.79 280.578 148.902 280.431C149.026 280.287 149.2 280.197 149.389 280.181L171.404 278.442L218.048 258.291C218.146 258.243 218.253 258.218 218.361 258.218C218.47 258.218 218.577 258.243 218.674 258.291C218.766 258.349 218.843 258.426 218.901 258.517C218.959 258.609 218.995 258.712 219.008 258.819L219.675 265.55C219.695 265.695 219.666 265.841 219.593 265.967C219.52 266.093 219.407 266.191 219.272 266.246L151.211 296.396C151.125 296.44 151.03 296.464 150.933 296.466ZM150.21 281.516L151.6 294.741L218.354 265.231L217.826 259.946L171.932 279.763C171.864 279.782 171.792 279.782 171.724 279.763L150.21 281.516Z" fill="#231F20"/>
<path d="M150.933 295.77L92.6069 270.293L91.3274 257.568L149.445 280.876L150.933 295.77Z" fill="white"/>
<path d="M150.933 296.466C150.841 296.486 150.746 296.486 150.654 296.466L92.3284 271.002C92.2169 270.951 92.1209 270.871 92.05 270.771C91.9792 270.671 91.9361 270.554 91.9252 270.432L90.6457 257.707C90.6365 257.589 90.6569 257.47 90.7052 257.362C90.7534 257.254 90.828 257.16 90.922 257.088C91.016 257.016 91.1265 256.969 91.2434 256.951C91.3603 256.933 91.4799 256.944 91.5914 256.984L149.695 280.306C149.814 280.349 149.919 280.425 149.995 280.527C150.072 280.628 150.117 280.749 150.126 280.876L151.628 295.77C151.641 295.891 151.621 296.014 151.569 296.124C151.518 296.234 151.437 296.328 151.336 296.396C151.211 296.458 151.071 296.483 150.933 296.466ZM93.2602 269.82L150.126 294.658L148.735 281.363L92.092 258.639L93.2602 269.82Z" fill="#231F20"/>
<path d="M148.986 277.483C148.898 277.496 148.809 277.496 148.722 277.483L110.741 261.907C110.557 261.881 110.39 261.783 110.278 261.634C110.166 261.486 110.118 261.298 110.144 261.114C110.169 260.93 110.267 260.763 110.416 260.651C110.565 260.539 110.752 260.49 110.936 260.516L127.027 258.903C127.137 258.883 127.25 258.883 127.36 258.903L164.826 274.548C164.969 274.609 165.089 274.715 165.164 274.852C165.24 274.988 165.268 275.145 165.243 275.299C165.222 275.451 165.15 275.592 165.039 275.698C164.928 275.804 164.784 275.869 164.631 275.883L149.097 277.441L148.986 277.483ZM113.801 261.615L149.097 276.078L161.711 274.812L126.943 260.293L113.801 261.615Z" fill="#D1D3D4"/>
<path d="M172.962 274.27H172.878C172.377 274.159 145.259 262.853 133.619 257.985C133.492 257.933 133.383 257.844 133.306 257.731C133.229 257.617 133.188 257.483 133.188 257.345C133.193 257.209 133.237 257.078 133.313 256.965C133.389 256.852 133.495 256.762 133.619 256.706L165.925 243.411C166.094 243.341 166.284 243.341 166.453 243.411L205.907 259.042C206.037 259.093 206.148 259.182 206.227 259.298C206.305 259.413 206.347 259.549 206.347 259.689C206.347 259.828 206.305 259.964 206.227 260.08C206.148 260.195 206.037 260.284 205.907 260.335C175.854 273.436 173.379 274.27 172.962 274.27ZM135.705 257.345C148.708 262.769 170.82 271.976 173.073 272.852C175.062 272.184 191.833 264.953 203.849 259.71L166.203 244.787L135.705 257.345Z" fill="#D1D3D4"/>
<path d="M183.754 269.208C183.667 269.228 183.576 269.228 183.489 269.208L144.703 253.423C144.618 253.389 144.54 253.338 144.475 253.273C144.41 253.208 144.358 253.132 144.323 253.047C144.287 252.963 144.269 252.872 144.268 252.78C144.268 252.688 144.286 252.597 144.32 252.512C144.355 252.428 144.406 252.35 144.471 252.285C144.535 252.22 144.612 252.168 144.696 252.133C144.781 252.097 144.872 252.079 144.964 252.078C145.055 252.078 145.146 252.095 145.231 252.13L184.004 267.873C184.089 267.906 184.166 267.957 184.231 268.021C184.296 268.084 184.348 268.161 184.383 268.245C184.418 268.33 184.436 268.42 184.435 268.511C184.435 268.603 184.416 268.693 184.379 268.777C184.328 268.902 184.242 269.009 184.131 269.085C184.019 269.162 183.888 269.204 183.754 269.208Z" fill="#D1D3D4"/>
<path d="M196.353 263.701C196.257 263.72 196.158 263.72 196.061 263.701C195.324 263.367 170.403 253.479 157.33 248.292C157.162 248.224 157.027 248.092 156.954 247.926C156.882 247.76 156.877 247.572 156.941 247.402C157.009 247.23 157.142 247.092 157.311 247.016C157.48 246.941 157.671 246.935 157.845 246.998C159.402 247.624 195.853 262.06 196.659 262.449C196.801 262.518 196.915 262.633 196.983 262.775C197.051 262.917 197.069 263.078 197.034 263.232C196.998 263.385 196.911 263.522 196.788 263.62C196.664 263.718 196.511 263.771 196.353 263.77V263.701Z" fill="#D1D3D4"/>
<path d="M142.672 261.698C142.532 261.695 142.395 261.652 142.279 261.573C142.163 261.494 142.072 261.383 142.018 261.253C141.985 261.167 141.969 261.076 141.971 260.984C141.973 260.892 141.994 260.801 142.031 260.717C142.069 260.633 142.122 260.557 142.189 260.494C142.257 260.431 142.335 260.381 142.422 260.349L175.993 247.374C176.079 247.34 176.171 247.324 176.263 247.326C176.355 247.329 176.445 247.349 176.529 247.387C176.614 247.424 176.689 247.478 176.752 247.545C176.816 247.612 176.865 247.691 176.897 247.777C176.93 247.862 176.946 247.953 176.944 248.044C176.942 248.135 176.921 248.224 176.884 248.307C176.846 248.39 176.792 248.465 176.725 248.527C176.658 248.589 176.58 248.636 176.494 248.667L142.922 261.642C142.845 261.681 142.759 261.7 142.672 261.698Z" fill="#D1D3D4"/>
<path d="M158.359 268.234C158.22 268.233 158.085 268.189 157.971 268.11C157.857 268.031 157.769 267.919 157.719 267.789C157.655 267.617 157.659 267.427 157.732 267.259C157.804 267.09 157.939 266.956 158.109 266.885C170.903 261.962 190.276 254.369 191.861 253.298C191.925 253.22 192.006 253.157 192.097 253.113C192.188 253.07 192.288 253.048 192.39 253.048C192.574 253.048 192.751 253.121 192.881 253.252C193.012 253.382 193.085 253.559 193.085 253.743C193.085 254.369 193.085 254.897 158.609 268.179C158.532 268.217 158.446 268.236 158.359 268.234Z" fill="#D1D3D4"/>
<path d="M231.135 230.63C230.884 231.353 208.883 238.432 208.883 238.432C208.883 238.432 193.766 231.589 184.351 232.799C173.768 234.19 164.131 236.86 156.301 244.579C155.661 245.218 154.994 246.067 155.272 246.915C155.55 247.763 156.746 248.069 157.692 247.986C162.476 247.61 166.036 243.202 170.736 242.201C168.223 243.453 165.846 244.963 163.644 246.706C161.43 248.487 159.834 250.92 159.082 253.66C158.99 253.913 158.948 254.183 158.96 254.453C158.972 254.722 159.037 254.987 159.152 255.231C159.597 256.01 160.682 256.038 161.558 255.843C166.022 254.87 169.137 250.92 173.101 248.639C170.777 250.277 168.657 252.186 166.787 254.327C164.902 256.491 163.834 259.247 163.769 262.115C163.769 263.172 164.478 264.535 165.494 264.229C165.757 264.125 165.995 263.963 166.189 263.756C169.415 260.729 172.422 257.476 175.187 254.021C173.677 256.472 173.013 259.349 173.295 262.213C173.33 263.167 173.573 264.103 174.008 264.954C174.443 265.804 175.059 266.549 175.813 267.136C177.398 268.179 179.985 267.748 180.638 265.968C180.852 264.897 180.899 263.799 180.777 262.713C181.028 258.291 187.731 256.33 191.347 256.817C197.466 257.637 211.303 260.752 214.683 260.892C218.062 261.031 244.944 248.57 244.944 248.57" fill="white"/>
<path d="M177.732 268.332C176.9 268.34 176.084 268.108 175.381 267.664C174.553 267.012 173.875 266.189 173.395 265.25C172.915 264.311 172.643 263.28 172.6 262.226C172.452 260.743 172.541 259.245 172.864 257.79C170.903 260.029 168.817 262.171 166.648 264.201C166.382 264.493 166.048 264.713 165.674 264.841C165.439 264.906 165.191 264.918 164.95 264.875C164.71 264.831 164.482 264.734 164.284 264.591C163.924 264.276 163.636 263.89 163.437 263.456C163.238 263.022 163.133 262.551 163.129 262.073C163.161 259.523 163.972 257.044 165.452 254.967C164.31 255.659 163.067 256.166 161.766 256.469C161.332 256.693 160.839 256.778 160.354 256.714C159.869 256.649 159.415 256.437 159.055 256.107C158.694 255.776 158.443 255.343 158.336 254.866C158.229 254.389 158.271 253.89 158.456 253.437C159.049 251.195 160.219 249.148 161.85 247.499C160.587 248.144 159.214 248.546 157.803 248.681C157.184 248.807 156.541 248.723 155.975 248.444C155.408 248.164 154.951 247.705 154.674 247.137C154.201 245.747 155.453 244.495 155.856 244.092C164.423 235.65 175.048 233.3 184.31 232.118C193.28 230.963 206.909 236.777 208.981 237.681C216.894 235.136 229.466 230.95 230.703 230.157C230.796 230.055 230.917 229.982 231.05 229.948C231.183 229.913 231.324 229.918 231.454 229.962C231.541 229.99 231.621 230.036 231.69 230.095C231.759 230.155 231.815 230.228 231.855 230.309C231.895 230.391 231.918 230.48 231.924 230.571C231.929 230.662 231.916 230.753 231.886 230.838C231.76 231.228 231.538 231.895 209.161 239.085C209 239.147 208.822 239.147 208.661 239.085C208.508 239.016 193.599 232.326 184.49 233.522C175.381 234.718 165.104 236.957 156.843 245.107C156.148 245.788 155.856 246.331 155.981 246.72C156.106 247.11 156.982 247.374 157.706 247.318C160.137 246.921 162.436 245.943 164.409 244.467C166.307 243.143 168.42 242.155 170.653 241.547C170.817 241.512 170.988 241.537 171.135 241.618C171.281 241.699 171.394 241.831 171.451 241.988C171.509 242.145 171.508 242.318 171.448 242.475C171.388 242.631 171.274 242.761 171.126 242.84C168.659 244.065 166.328 245.547 164.172 247.263C162.081 248.934 160.56 251.213 159.819 253.785C159.694 254.131 159.694 254.51 159.819 254.856C160.056 255.273 160.862 255.273 161.474 255.134C164.158 254.55 166.328 252.825 168.636 250.962C169.951 249.863 171.346 248.864 172.809 247.972C172.958 247.878 173.138 247.848 173.31 247.887C173.482 247.926 173.632 248.031 173.726 248.18C173.827 248.328 173.867 248.508 173.839 248.684C173.81 248.86 173.715 249.018 173.573 249.126C171.295 250.725 169.217 252.593 167.385 254.689C165.6 256.72 164.586 259.314 164.52 262.018C164.529 262.539 164.738 263.037 165.104 263.409C165.139 263.431 165.18 263.443 165.222 263.443C165.264 263.443 165.305 263.431 165.34 263.409C165.507 263.336 165.654 263.227 165.772 263.089C168.979 260.093 171.963 256.867 174.7 253.437C174.753 253.362 174.82 253.299 174.898 253.25C174.975 253.201 175.062 253.168 175.152 253.152C175.242 253.137 175.335 253.139 175.424 253.159C175.514 253.18 175.598 253.217 175.673 253.27C175.748 253.323 175.812 253.39 175.861 253.468C175.91 253.546 175.943 253.632 175.958 253.723C175.974 253.813 175.971 253.905 175.951 253.995C175.931 254.084 175.893 254.169 175.84 254.244C174.403 256.557 173.772 259.281 174.046 261.99C174.078 262.839 174.291 263.671 174.67 264.431C175.049 265.191 175.585 265.862 176.244 266.399C176.617 266.627 177.035 266.772 177.469 266.825C177.903 266.877 178.344 266.836 178.761 266.704C179.048 266.623 179.313 266.478 179.536 266.281C179.76 266.083 179.937 265.839 180.054 265.564C180.213 264.97 180.251 264.351 180.165 263.742C180.165 263.339 180.165 262.922 180.165 262.518C180.225 261.731 180.452 260.965 180.831 260.272C181.21 259.579 181.732 258.975 182.363 258.499C184.999 256.55 188.264 255.648 191.527 255.968C194.309 256.358 198.717 257.206 202.973 258.027C207.896 258.986 213 259.974 214.794 260.043C217.311 260.043 234.013 252.77 244.68 247.847C244.763 247.807 244.853 247.784 244.945 247.779C245.037 247.774 245.129 247.788 245.216 247.819C245.302 247.85 245.382 247.898 245.45 247.96C245.518 248.022 245.573 248.097 245.612 248.18C245.684 248.351 245.688 248.542 245.624 248.716C245.559 248.889 245.43 249.031 245.264 249.112C242.483 250.378 218.187 261.503 214.669 261.434C212.763 261.35 207.854 260.405 202.639 259.389C198.467 258.569 194.031 257.721 191.263 257.359C188.39 257.082 185.515 257.869 183.183 259.57C182.699 259.924 182.297 260.378 182.004 260.901C181.711 261.424 181.535 262.004 181.486 262.602C181.486 262.95 181.486 263.297 181.486 263.659C181.594 264.466 181.523 265.288 181.278 266.065C181.091 266.531 180.801 266.95 180.43 267.289C180.06 267.629 179.617 267.88 179.136 268.026C178.687 268.2 178.213 268.303 177.732 268.332Z" fill="#231F20"/>
<path d="M258.504 97.2894C258.504 97.2894 325.605 183.332 305.009 208.865C284.412 234.399 222.693 258.666 222.693 258.666L207.395 230.366C207.395 230.366 266.417 201.94 267.71 196.238L224.32 145.255C224.32 145.255 234.695 92.9087 258.504 97.2894Z" fill="#7FF0B2"/>
<path d="M267.195 195.223C267.095 195.225 266.996 195.206 266.904 195.165C266.813 195.124 266.732 195.063 266.667 194.986L233.68 157.243C233.558 157.102 233.497 156.92 233.51 156.734C233.523 156.549 233.609 156.377 233.749 156.255C233.889 156.133 234.072 156.072 234.257 156.085C234.442 156.099 234.615 156.185 234.736 156.325L267.71 194.082C267.837 194.212 267.909 194.387 267.909 194.569C267.909 194.751 267.837 194.926 267.71 195.056C267.565 195.173 267.382 195.233 267.195 195.223Z" fill="#231F20"/>
<path d="M181.361 172.665C181.268 172.667 181.175 172.65 181.089 172.614C181.003 172.578 180.925 172.525 180.861 172.457C180.68 172.29 163.936 155.017 160.584 151.193C157.233 147.368 163.964 139.094 166.05 136.674C163.769 134.949 155.842 128.942 154.813 128.093C154.326 127.704 153.186 126.703 164.019 106.078C164.062 105.997 164.12 105.924 164.191 105.865C164.262 105.806 164.343 105.762 164.431 105.735C164.519 105.708 164.612 105.698 164.703 105.707C164.795 105.716 164.884 105.743 164.965 105.786C165.126 105.872 165.248 106.018 165.302 106.192C165.357 106.367 165.341 106.556 165.257 106.718C160.64 115.549 155.953 125.409 155.856 127.148C157.608 128.538 167.385 135.937 167.482 136.02C167.56 136.077 167.625 136.15 167.673 136.233C167.721 136.317 167.75 136.41 167.759 136.506C167.768 136.602 167.757 136.699 167.726 136.79C167.695 136.881 167.645 136.965 167.58 137.036C165.104 139.817 159.235 147.494 161.641 150.275C164.965 154.086 181.681 171.316 181.848 171.483C181.913 171.548 181.965 171.625 182 171.709C182.036 171.794 182.054 171.885 182.054 171.977C182.054 172.069 182.036 172.16 182 172.244C181.965 172.329 181.913 172.406 181.848 172.471C181.786 172.536 181.71 172.588 181.626 172.621C181.542 172.655 181.452 172.67 181.361 172.665Z" fill="#231F20"/>
<path d="M208.995 170.732C208.846 170.733 208.701 170.69 208.577 170.607C208.431 170.496 208.333 170.333 208.304 170.151C208.276 169.97 208.319 169.784 208.424 169.633C213.918 162.165 228.159 141.903 228.159 137.856C228.159 133.809 217.283 127.704 213.097 125.604C212.981 125.549 212.883 125.462 212.814 125.354C212.745 125.246 212.709 125.12 212.708 124.992C212.709 124.867 212.743 124.745 212.806 124.637C212.87 124.53 212.961 124.441 213.069 124.38C213.208 124.297 227.143 116.676 230.231 112.74C230.29 112.667 230.33 112.581 230.347 112.488C230.364 112.396 230.358 112.301 230.328 112.211C229.591 108.776 216.143 100.571 204.85 94.5913L204.711 94.5078C204.63 94.4654 204.557 94.4071 204.498 94.3364C204.439 94.2657 204.395 94.184 204.368 94.096C204.34 94.0081 204.331 93.9156 204.34 93.8239C204.349 93.7323 204.376 93.6433 204.419 93.5621C204.51 93.4022 204.659 93.2838 204.836 93.2319C205.012 93.1801 205.202 93.1987 205.365 93.284H205.504C213.042 97.2753 230.676 107.08 231.677 111.864C231.749 112.15 231.756 112.449 231.696 112.738C231.635 113.027 231.51 113.299 231.329 113.533C228.548 117.037 218.34 122.948 214.877 124.895C218.702 126.911 229.549 133.058 229.549 137.786C229.549 143.015 211.595 167.603 209.551 170.384C209.493 170.483 209.412 170.566 209.315 170.627C209.219 170.687 209.109 170.723 208.995 170.732Z" fill="#231F20"/>
<path d="M148.151 216.653L142.867 218.267L130.879 175.822L136.164 174.223L148.151 216.653Z" fill="white"/>
<path d="M142.867 218.948C142.75 218.948 142.635 218.92 142.533 218.864C142.451 218.822 142.38 218.762 142.322 218.691C142.265 218.619 142.223 218.536 142.199 218.447L130.211 176.003C130.164 175.828 130.187 175.641 130.275 175.483C130.363 175.324 130.51 175.206 130.684 175.155L135.969 173.555C136.146 173.504 136.336 173.525 136.498 173.613C136.659 173.702 136.779 173.851 136.831 174.028L148.819 216.472C148.844 216.558 148.853 216.648 148.844 216.737C148.835 216.827 148.808 216.913 148.765 216.992C148.723 217.071 148.665 217.14 148.595 217.197C148.526 217.253 148.446 217.295 148.36 217.321L143.061 218.92C142.999 218.944 142.933 218.953 142.867 218.948ZM131.741 176.295L143.339 217.404L147.303 216.208L135.691 175.099L131.741 176.295Z" fill="#231F20"/>
<path d="M148.151 216.653L142.867 218.267L148.11 226.68L148.151 216.653Z" fill="white"/>
<path d="M148.11 227.376C147.992 227.375 147.876 227.344 147.774 227.286C147.671 227.227 147.586 227.143 147.526 227.042L142.269 218.628C142.224 218.532 142.201 218.428 142.201 218.322C142.201 218.217 142.224 218.112 142.269 218.016C142.307 217.915 142.368 217.825 142.448 217.752C142.528 217.68 142.624 217.627 142.728 217.599L148.012 215.986C148.116 215.959 148.225 215.955 148.331 215.974C148.436 215.993 148.537 216.035 148.624 216.097C148.71 216.163 148.779 216.247 148.828 216.343C148.876 216.44 148.901 216.546 148.902 216.653V226.68C148.902 226.831 148.854 226.977 148.763 227.098C148.673 227.218 148.546 227.306 148.402 227.348L148.11 227.376ZM143.938 218.656L147.428 224.219V217.557L143.938 218.656Z" fill="#231F20"/>
<path d="M107.626 192.497C107.626 192.497 90.6598 196.238 87.1414 205.319C87.1414 205.319 114.246 218.141 118.766 219.226C123.286 220.311 151.573 218.642 151.67 213.663C151.767 208.684 149.792 202.162 147.72 200.243C145.648 198.324 136.595 198.546 136.595 198.546C136.399 196.734 135.93 194.961 135.204 193.289C131.574 193.456 118.057 196.544 107.626 192.497Z" fill="white"/>
<path d="M123.661 220.186C121.967 220.238 120.272 220.126 118.599 219.852C114.065 218.753 88.0036 206.418 86.8493 205.945C86.6886 205.869 86.563 205.735 86.4983 205.569C86.4337 205.404 86.4349 205.22 86.5016 205.055C90.1035 195.723 106.778 191.954 107.487 191.801C107.62 191.767 107.758 191.767 107.891 191.801C116.235 195.056 126.623 193.623 132.214 192.858C133.507 192.678 134.536 192.539 135.246 192.497C135.383 192.487 135.521 192.518 135.64 192.588C135.759 192.657 135.854 192.761 135.913 192.886C136.607 194.429 137.076 196.064 137.304 197.74C139.543 197.74 146.288 197.823 148.235 199.631C150.516 201.745 152.49 208.393 152.407 213.538C152.375 213.954 152.246 214.356 152.031 214.713C151.816 215.071 151.521 215.373 151.169 215.596C147.15 218.795 132.075 220.186 123.661 220.186ZM88.0453 204.888C92.0783 206.779 114.9 217.488 118.919 218.447C122.938 219.407 145.565 218.127 150.279 214.47C150.738 214.122 150.961 213.802 150.974 213.496C151.058 208.351 149.014 202.232 147.247 200.591C145.857 199.339 140.057 199.005 136.664 199.089C136.488 199.097 136.316 199.036 136.183 198.919C136.051 198.802 135.969 198.639 135.955 198.463C135.791 196.887 135.422 195.34 134.856 193.86L132.409 194.18C126.735 194.958 116.221 196.405 107.585 193.123C105.735 193.665 91.6611 197.267 88.0453 204.985V204.888Z" fill="#231F20"/>
<path d="M132.297 181.121C132.157 181.12 132.019 181.077 131.903 180.998C131.786 180.918 131.696 180.806 131.644 180.676C131.581 180.504 131.587 180.314 131.663 180.148C131.738 179.981 131.876 179.851 132.047 179.786L137.207 177.755C137.292 177.722 137.384 177.706 137.476 177.708C137.568 177.71 137.659 177.73 137.743 177.768C137.827 177.805 137.903 177.859 137.966 177.926C138.029 177.993 138.078 178.072 138.111 178.158C138.174 178.33 138.167 178.52 138.092 178.686C138.016 178.853 137.878 178.983 137.707 179.049L132.548 181.079C132.467 181.106 132.383 181.12 132.297 181.121Z" fill="#231F20"/>
<path d="M144.118 220.965C144.027 220.973 143.935 220.963 143.848 220.936C143.76 220.908 143.679 220.864 143.608 220.805C143.466 220.687 143.377 220.516 143.36 220.332C143.344 220.147 143.401 219.964 143.52 219.822C143.639 219.68 143.809 219.591 143.993 219.574L148.012 218.837C148.102 218.819 148.194 218.819 148.284 218.837C148.373 218.856 148.458 218.892 148.534 218.944C148.609 218.996 148.673 219.062 148.722 219.14C148.771 219.217 148.804 219.303 148.819 219.393C148.851 219.574 148.811 219.76 148.707 219.911C148.603 220.062 148.443 220.166 148.263 220.2L144.244 220.937L144.118 220.965Z" fill="#231F20"/>
<path d="M139.946 92.7974C139.946 92.7974 18.385 179.021 32.5424 192.497C46.6997 205.973 103.663 216.653 103.663 216.653L116.666 191.621L88.8519 177.811C96.8206 172.665 139.932 144.935 139.932 144.935L139.946 92.7974Z" fill="#7FF0B2"/>
<path d="M136.094 168.048C135.925 168.046 135.763 167.983 135.638 167.87C135.513 167.758 135.433 167.604 135.412 167.436L129.196 118.15C129.176 117.966 129.229 117.782 129.343 117.636C129.458 117.491 129.624 117.395 129.808 117.371C129.99 117.352 130.173 117.405 130.316 117.52C130.46 117.634 130.552 117.801 130.573 117.983L136.789 167.256C136.813 167.438 136.763 167.623 136.651 167.769C136.539 167.915 136.374 168.01 136.191 168.034L136.094 168.048Z" fill="#231F20"/>
<path d="M128.654 239.739C128.548 239.736 128.444 239.712 128.348 239.669L81.3004 215.847C81.218 215.807 81.1444 215.751 81.0841 215.682C81.0239 215.613 80.9781 215.533 80.9495 215.446C80.921 215.359 80.9102 215.267 80.918 215.176C80.9257 215.085 80.9517 214.996 80.9944 214.915C81.0345 214.833 81.0904 214.759 81.1589 214.698C81.2275 214.638 81.3073 214.591 81.3939 214.562C81.4804 214.532 81.572 214.52 81.6634 214.525C81.7547 214.531 81.844 214.555 81.9262 214.595L128.974 238.418C129.117 238.487 129.232 238.603 129.3 238.747C129.368 238.89 129.384 239.053 129.347 239.208C129.309 239.362 129.22 239.499 129.094 239.596C128.968 239.692 128.813 239.743 128.654 239.739Z" fill="#D1D3D4"/>
<path d="M264.97 257.999L222.651 277.343L253.928 291.695L296.567 270.459L264.97 257.999Z" fill="white"/>
<path d="M253.928 292.391C253.832 292.41 253.733 292.41 253.636 292.391L222.373 278.053C222.252 277.997 222.149 277.908 222.077 277.796C222.005 277.684 221.966 277.553 221.966 277.42C221.966 277.287 222.005 277.156 222.077 277.044C222.149 276.932 222.252 276.843 222.373 276.787L264.678 257.429C264.766 257.391 264.861 257.372 264.957 257.372C265.052 257.372 265.147 257.391 265.235 257.429L296.831 269.945C296.955 269.994 297.062 270.078 297.139 270.186C297.215 270.295 297.258 270.424 297.263 270.557C297.269 270.69 297.238 270.823 297.171 270.939C297.105 271.055 297.006 271.149 296.887 271.21L254.234 292.46C254.129 292.459 254.024 292.435 253.928 292.391ZM224.334 277.343L253.914 290.917L294.871 270.529L264.998 258.75L224.334 277.343Z" fill="#D1D3D4"/>
<path d="M252.371 259.807L210.065 279.165L241.328 293.517L283.967 272.281L252.371 259.807Z" fill="white"/>
<path d="M241.328 294.213C241.232 294.232 241.133 294.232 241.036 294.213L209.773 279.874C209.652 279.819 209.549 279.73 209.477 279.618C209.405 279.506 209.366 279.375 209.366 279.242C209.366 279.108 209.405 278.978 209.477 278.865C209.549 278.753 209.652 278.664 209.773 278.609L252.078 259.125C252.166 259.088 252.261 259.068 252.357 259.068C252.452 259.068 252.547 259.088 252.635 259.125L284.231 271.641C284.355 271.69 284.462 271.774 284.539 271.883C284.615 271.992 284.658 272.12 284.663 272.253C284.669 272.387 284.638 272.52 284.571 272.636C284.504 272.751 284.406 272.846 284.287 272.907L241.634 294.157C241.537 294.197 241.433 294.216 241.328 294.213ZM211.734 279.165L241.314 292.738L282.271 272.351L252.398 260.516L211.734 279.165Z" fill="#D1D3D4"/>
<path d="M243.832 287.162C243.735 287.181 243.636 287.181 243.54 287.162L223.333 278.053C223.165 277.977 223.035 277.838 222.969 277.666C222.904 277.494 222.91 277.303 222.985 277.135C223.064 276.966 223.206 276.835 223.38 276.77C223.554 276.705 223.747 276.711 223.917 276.787L244.11 285.896C244.275 285.975 244.403 286.114 244.468 286.285C244.533 286.456 244.529 286.646 244.458 286.814C244.396 286.924 244.305 287.015 244.194 287.077C244.083 287.138 243.958 287.168 243.832 287.162Z" fill="#D1D3D4"/>
<path d="M251.314 283.393C251.222 283.414 251.127 283.414 251.036 283.393L230.829 274.27C230.672 274.187 230.553 274.048 230.495 273.881C230.438 273.714 230.446 273.531 230.519 273.369C230.592 273.208 230.723 273.08 230.887 273.012C231.05 272.945 231.233 272.942 231.399 273.004L251.606 282.127C251.773 282.203 251.904 282.343 251.969 282.515C252.034 282.687 252.029 282.877 251.953 283.045C251.887 283.155 251.793 283.244 251.681 283.306C251.568 283.367 251.442 283.397 251.314 283.393Z" fill="#D1D3D4"/>
<path d="M258.643 280.097C258.542 280.094 258.442 280.07 258.351 280.028L238.158 270.918C238.073 270.882 237.997 270.83 237.934 270.763C237.87 270.697 237.821 270.619 237.789 270.533C237.756 270.448 237.741 270.356 237.745 270.265C237.749 270.173 237.771 270.083 237.81 270.001C237.886 269.833 238.025 269.702 238.197 269.637C238.369 269.572 238.56 269.578 238.728 269.653L258.935 278.762C259.119 278.801 259.281 278.911 259.384 279.069C259.487 279.227 259.523 279.419 259.484 279.603C259.445 279.788 259.335 279.949 259.177 280.052C259.019 280.155 258.827 280.191 258.643 280.153V280.097Z" fill="#D1D3D4"/>
<path d="M266.458 275.536C266.362 275.555 266.263 275.555 266.166 275.536L245.96 266.413C245.792 266.337 245.661 266.197 245.596 266.025C245.531 265.853 245.537 265.663 245.612 265.495C245.691 265.326 245.832 265.195 246.007 265.13C246.181 265.065 246.374 265.071 246.544 265.147L266.737 274.27C266.921 274.307 267.083 274.416 267.188 274.572C267.292 274.729 267.33 274.92 267.293 275.104C267.256 275.289 267.147 275.451 266.991 275.555C266.834 275.66 266.643 275.698 266.458 275.661V275.536Z" fill="#D1D3D4"/>
</svg>
