<svg width="128" height="119" viewBox="0 0 128 119" fill="none" xmlns="http://www.w3.org/2000/svg">
<ellipse cx="64" cy="59.3592" rx="64" ry="59.3592" fill="#7FF0B2" fill-opacity="0.25"/>
<path d="M87.0242 70.0737C85.6487 68.7008 83.8424 67.8434 81.9091 67.6456C79.9758 67.4477 78.0333 67.9215 76.4082 68.9873L72.8837 65.4628C77.1468 60.5721 79.3435 54.2167 79.0105 47.7374C78.6774 41.2581 75.8408 35.1614 71.0988 30.7335C66.3568 26.3056 60.0804 23.8926 53.5934 24.0037C47.1065 24.1147 40.9163 26.7411 36.3287 31.3287C31.7411 35.9163 29.1147 42.1065 29.0037 48.5934C28.8926 55.0804 31.3056 61.3568 35.7335 66.0988C40.1614 70.8408 46.2581 73.6774 52.7374 74.0105C59.2167 74.3435 65.5721 72.1468 70.4628 67.8837L73.9873 71.4082C72.9215 73.0333 72.4477 74.9758 72.6456 76.9091C72.8434 78.8424 73.7008 80.6487 75.0737 82.0242L84.6033 91.5196C85.3897 92.306 86.3232 92.9298 87.3507 93.3554C88.3781 93.781 89.4793 94 90.5914 94C91.7035 94 92.8047 93.781 93.8322 93.3554C94.8596 92.9298 95.7932 92.306 96.5795 91.5196C97.3659 90.7333 97.9897 89.7997 98.4153 88.7723C98.8408 87.7448 99.0599 86.6436 99.0599 85.5315C99.0599 84.4194 98.8408 83.3182 98.4153 82.2908C97.9897 81.2634 97.3659 80.3298 96.5795 79.5434L87.0242 70.0737ZM38.7516 64.2994C35.2145 60.7657 33.0123 56.1148 32.5202 51.1393C32.0282 46.1638 33.2767 41.1716 36.0531 37.0135C38.8295 32.8554 42.9619 29.7888 47.746 28.3362C52.5301 26.8836 57.6699 27.135 62.2895 29.0475C66.909 30.9601 70.7224 34.4153 73.0798 38.8245C75.4371 43.2337 76.1925 48.3239 75.2172 53.2277C74.242 58.1314 71.5964 62.5452 67.7313 65.7169C63.8663 68.8885 59.021 70.6218 54.0212 70.6212C51.1845 70.6288 48.3745 70.074 45.7535 68.9889C43.1326 67.9038 40.7527 66.31 38.7516 64.2994ZM94.133 89.1073C93.1898 90.0491 91.9115 90.5782 90.5786 90.5782C89.2457 90.5782 87.9673 90.0491 87.0242 89.1073L77.4946 79.6033C76.5527 78.6602 76.0237 77.3818 76.0237 76.049C76.0237 74.7161 76.5527 73.4377 77.4946 72.4946C78.4377 71.5527 79.7161 71.0237 81.049 71.0237C82.3818 71.0237 83.6602 71.5527 84.6033 72.4946L94.133 82.0242C95.0748 82.9673 95.6038 84.2457 95.6038 85.5786C95.6038 86.9115 95.0748 88.1898 94.133 89.133V89.1073ZM66.0402 58.0718C66.0402 58.5256 65.8599 58.9607 65.5391 59.2816C65.2182 59.6024 64.7831 59.7827 64.3293 59.7827H43.7217C43.2679 59.7827 42.8328 59.6024 42.5119 59.2816C42.191 58.9607 42.0108 58.5256 42.0108 58.0718C42.0108 57.6181 42.191 57.1829 42.5119 56.862C42.8328 56.5412 43.2679 56.3609 43.7217 56.3609H45.1246V50.9117C45.1246 50.458 45.3049 50.0228 45.6257 49.702C45.9466 49.3811 46.3817 49.2009 46.8355 49.2009C47.2893 49.2009 47.7244 49.3811 48.0453 49.702C48.3661 50.0228 48.5464 50.458 48.5464 50.9117V56.3609H52.3103V46.3522C52.3103 45.8985 52.4906 45.4633 52.8114 45.1425C53.1323 44.8216 53.5675 44.6414 54.0212 44.6414C54.475 44.6414 54.9101 44.8216 55.231 45.1425C55.5519 45.4633 55.7321 45.8985 55.7321 46.3522V56.3609H59.4961V39.9706C59.4961 39.5169 59.6763 39.0817 59.9972 38.7608C60.318 38.44 60.7532 38.2597 61.2069 38.2597C61.6607 38.2597 62.0959 38.44 62.4167 38.7608C62.7376 39.0817 62.9178 39.5169 62.9178 39.9706V56.3609H64.3293C64.7831 56.3609 65.2182 56.5412 65.5391 56.862C65.8599 57.1829 66.0402 57.6181 66.0402 58.0718Z" fill="#2D6848"/>
</svg>
