<svg width="128" height="119" viewBox="0 0 128 119" fill="none" xmlns="http://www.w3.org/2000/svg">
<ellipse cx="64" cy="59.3592" rx="64" ry="59.3592" fill="#7FF0B2" fill-opacity="0.25"/>
<path d="M34.9246 75.696V92.2894C34.9246 92.743 35.1048 93.1782 35.4256 93.499C35.7464 93.8198 36.1815 94 36.6352 94H91.8294C92.2831 94 92.7182 93.8198 93.039 93.499C93.3598 93.1782 93.5401 92.743 93.5401 92.2894V47.3505C93.5389 47.3064 93.5467 47.2625 93.5631 47.2215C93.5794 47.1805 93.6039 47.1432 93.6352 47.112C93.6664 47.0808 93.7036 47.0563 93.7446 47.0399C93.7856 47.0236 93.8295 47.0157 93.8737 47.0169C94.5323 47.0145 95.1787 46.8393 95.7484 46.5088C96.318 46.1782 96.791 45.704 97.12 45.1335C97.449 44.5629 97.6225 43.916 97.6232 43.2574C97.6239 42.5988 97.4517 41.9516 97.1239 41.3803L88.1772 25.8733C87.8506 25.3005 87.3773 24.8251 86.8061 24.4959C86.2348 24.1667 85.5862 23.9955 84.9269 24.0001C84.2676 23.9955 83.619 24.1667 83.0478 24.4959C82.4766 24.8251 82.0033 25.3005 81.6767 25.8733L72.7214 41.3803C72.3911 41.9524 72.2172 42.6013 72.2172 43.2619C72.2172 43.9225 72.3911 44.5715 72.7213 45.1436C73.0516 45.7157 73.5266 46.1908 74.0987 46.5211C74.6707 46.8514 75.3196 47.0254 75.9802 47.0255C76.0243 47.0243 76.0683 47.0321 76.1093 47.0485C76.1503 47.0648 76.1875 47.0893 76.2187 47.1206C76.2499 47.1518 76.2745 47.189 76.2908 47.23C76.3072 47.271 76.315 47.3149 76.3138 47.3591V59.9666H70.1982C70.0984 56.8331 69.2485 53.7694 67.7199 51.0323C66.1914 48.2952 64.0286 45.9646 61.4132 44.236C58.7978 42.5075 55.806 41.4313 52.6888 41.098C49.5715 40.7646 46.4198 41.1837 43.498 42.3201C40.5762 43.4564 37.9695 45.277 35.8967 47.6289C33.8239 49.9809 32.3453 52.7956 31.5851 55.8371C30.8249 58.8785 30.8052 62.0579 31.5276 65.1085C32.2501 68.1592 33.6936 70.9921 35.7371 73.3695C35.2123 74.0315 34.926 74.8512 34.9246 75.696ZM38.3459 75.8927C41.3108 78.3036 44.9184 79.7907 48.721 80.1694V90.5787H38.3459V75.8927ZM52.1423 80.1694C55.9136 79.8797 59.5188 78.4976 62.5174 76.1921V90.5787H52.1423V80.1694ZM75.9717 43.6042C75.9132 43.6054 75.8557 43.5899 75.8057 43.5596C75.7557 43.5294 75.7154 43.4855 75.6894 43.4331C75.6563 43.3838 75.6386 43.3257 75.6386 43.2663C75.6386 43.2069 75.6563 43.1489 75.6894 43.0995L84.6361 27.5839C84.6647 27.5325 84.707 27.49 84.7584 27.4613C84.8098 27.4326 84.8681 27.4188 84.9269 27.4214C84.9859 27.4177 85.0447 27.4311 85.0962 27.4599C85.1478 27.4887 85.19 27.5318 85.2177 27.5839L94.173 43.091C94.2023 43.1417 94.2177 43.1992 94.2177 43.2578C94.2177 43.3163 94.2023 43.3738 94.173 43.4246C94.1448 43.4769 94.1028 43.5206 94.0515 43.5508C94.0003 43.5809 93.9417 43.5964 93.8822 43.5956C92.887 43.5979 91.9333 43.9942 91.2296 44.6979C90.5259 45.4016 90.1296 46.3553 90.1273 47.3505V90.5787H79.718V47.3505C79.7157 46.3576 79.3203 45.406 78.6182 44.7039C77.9161 44.0019 76.9646 43.6064 75.9717 43.6042ZM76.2967 90.5787H65.9387V72.8136C68.1128 70.0979 69.5187 66.8488 70.01 63.405H76.2967V90.5787ZM50.6369 44.4595C53.8357 44.473 56.9587 45.4343 59.6115 47.2218C62.2643 49.0093 64.3278 51.5429 65.5414 54.5026C66.755 57.4623 67.0642 60.7152 66.43 63.8506C65.7958 66.9859 64.2466 69.8629 61.9781 72.1183C59.7097 74.3736 56.8237 75.906 53.6847 76.522C50.5458 77.138 47.2947 76.8099 44.3421 75.5792C41.3895 74.3484 38.8679 72.2702 37.0958 69.6071C35.3237 66.944 34.3807 63.8154 34.3857 60.6166C34.3913 58.4885 34.8162 56.3823 35.636 54.4185C36.4559 52.4546 37.6546 50.6715 39.1638 49.171C40.673 47.6706 42.463 46.4822 44.4316 45.6738C46.4002 44.8654 48.5088 44.4527 50.6369 44.4595ZM53.8871 64.534C53.8871 63.2083 52.3989 62.0878 50.6369 62.0878C46.9504 62.0878 43.9568 59.4534 43.9568 56.2202C43.9568 53.5089 46.0695 51.2251 48.9263 50.558V49.2664C48.9263 48.8127 49.1065 48.3776 49.4273 48.0568C49.7481 47.736 50.1832 47.5558 50.6369 47.5558C51.0906 47.5558 51.5257 47.736 51.8465 48.0568C52.1673 48.3776 52.3476 48.8127 52.3476 49.2664V50.5323C55.1958 51.1995 57.3084 53.4832 57.3084 56.1946C57.3084 56.6483 57.1282 57.0834 56.8074 57.4042C56.4866 57.725 56.0515 57.9052 55.5978 57.9052C55.1441 57.9052 54.709 57.725 54.3882 57.4042C54.0674 57.0834 53.8871 56.6483 53.8871 56.1946C53.8871 54.8688 52.3989 53.7483 50.6369 53.7483C48.8749 53.7483 47.3781 54.8688 47.3781 56.1946C47.3781 57.5203 48.8407 58.6408 50.6369 58.6408C54.3148 58.6408 57.3084 61.2752 57.3084 64.5083C57.3084 67.2197 55.1958 69.5035 52.3476 70.1706V71.9668C52.3476 72.4205 52.1673 72.8556 51.8465 73.1764C51.5257 73.4972 51.0906 73.6775 50.6369 73.6775C50.1832 73.6775 49.7481 73.4972 49.4273 73.1764C49.1065 72.8556 48.9263 72.4205 48.9263 71.9668V70.1706C46.0695 69.5035 43.9568 67.2197 43.9568 64.5083C43.9568 64.0547 44.137 63.6195 44.4578 63.2987C44.7787 62.9779 45.2138 62.7977 45.6675 62.7977C46.1212 62.7977 46.5563 62.9779 46.8771 63.2987C47.1979 63.6195 47.3781 64.0547 47.3781 64.5083C47.3781 65.8341 48.8664 66.946 50.6369 66.946C52.4074 66.946 53.8615 65.8427 53.8615 64.5083L53.8871 64.534Z" fill="#2D6848"/>
</svg>
