<svg width="128" height="119" viewBox="0 0 128 119" fill="none" xmlns="http://www.w3.org/2000/svg">
<ellipse cx="64" cy="59.3592" rx="64" ry="59.3592" fill="#7FF0B2" fill-opacity="0.25"/>
<mask id="path-2-outside-1_77_48" maskUnits="userSpaceOnUse" x="31" y="23" width="66" height="72" fill="black">
<rect fill="white" x="31" y="23" width="66" height="72"/>
<path d="M93.0906 62.3901C91.9223 61.8587 90.5934 61.8018 89.3839 62.2313C88.1745 62.6608 87.1791 63.5432 86.6076 64.6924L82.5655 72.7767L79.7871 74.7588C79.4366 73.4724 78.6716 72.3375 77.6106 71.53C76.5497 70.7225 75.252 70.2876 73.9187 70.2926H69.2793C69.0477 70.2923 68.8188 70.2437 68.6071 70.1498C68.3955 70.0559 68.2058 69.9188 68.0502 69.7473C67.132 68.7206 66.0075 67.8994 64.7501 67.3371C63.4928 66.7748 62.131 66.4841 60.7536 66.4841H57.8973C57.4571 66.4854 57.0175 66.5172 56.5817 66.5793L43.4945 68.3104V68.2585C43.4945 67.2362 43.089 66.2556 42.3669 65.5319C41.6448 64.8082 40.6651 64.4004 39.6428 64.3981H33.2983C32.954 64.3981 32.6238 64.5349 32.3803 64.7784C32.1368 65.0219 32 65.3521 32 65.6965C32 66.0408 32.1368 66.371 32.3803 66.6145C32.6238 66.858 32.954 66.9948 33.2983 66.9948H39.6428C39.9765 66.9971 40.2957 67.1312 40.5308 67.368C40.7659 67.6047 40.8979 67.9248 40.8979 68.2585V90.1483C40.8979 90.4812 40.7656 90.8004 40.5303 91.0358C40.2949 91.2711 39.9757 91.4033 39.6428 91.4033H33.2983C32.954 91.4033 32.6238 91.5401 32.3803 91.7836C32.1368 92.0271 32 92.3573 32 92.7017C32 93.046 32.1368 93.3762 32.3803 93.6197C32.6238 93.8632 32.954 94 33.2983 94H39.6428C40.6495 93.9979 41.6154 93.6019 42.3336 92.8965C43.0519 92.1912 43.4655 91.2327 43.4859 90.2262H71.876C73.6163 90.2278 75.3255 89.7647 76.8269 88.8846L86.9539 82.9642C88.6402 81.9737 89.9932 80.5032 90.8402 78.7403L95.5142 69.0721C95.8029 68.4758 95.9693 67.8276 96.0034 67.1659C96.0375 66.5042 95.9387 65.8424 95.7128 65.2196C95.4869 64.5967 95.1385 64.0254 94.6881 63.5394C94.2377 63.0534 93.6945 62.6626 93.0906 62.3901ZM93.1772 67.9469L88.5032 77.6065C87.8778 78.8964 86.8837 79.9718 85.6469 80.6965L75.5113 86.6168C74.4092 87.264 73.154 87.6047 71.876 87.6036H43.4945V70.9677L56.9279 69.15C57.2491 69.1054 57.573 69.0823 57.8973 69.0808H60.7536C61.7662 69.0822 62.7671 69.2964 63.6916 69.7094C64.616 70.1224 65.4434 70.7251 66.12 71.4784C66.5179 71.9224 67.0049 72.2775 67.5493 72.5206C68.0936 72.7637 68.6831 72.8893 69.2793 72.8892H73.9187C74.8369 72.8892 75.7175 73.254 76.3668 73.9033C77.0161 74.5526 77.3809 75.4332 77.3809 76.3514V76.4293L75.6498 77.6844H62.4414C62.0971 77.6844 61.7669 77.8211 61.5234 78.0646C61.2799 78.3081 61.1431 78.6383 61.1431 78.9827C61.1431 79.327 61.2799 79.6573 61.5234 79.9007C61.7669 80.1442 62.0971 80.281 62.4414 80.281H76.0652C76.3387 80.2848 76.6059 80.1997 76.8269 80.0387L84.3399 74.6722C84.5225 74.5616 84.6743 74.4068 84.7813 74.2222L88.9706 65.8523C89.2484 65.2899 89.7382 64.8608 90.3323 64.6595C90.9264 64.4583 91.5761 64.5012 92.1385 64.779C92.7009 65.0568 93.13 65.5466 93.3313 66.1407C93.5325 66.7348 93.4896 67.3845 93.2118 67.9469H93.1772ZM80.5228 40.0761C80.5205 38.2955 79.8121 36.5884 78.553 35.3293C77.2939 34.0701 75.5868 33.3618 73.8061 33.3595C73.4618 33.3595 73.1316 33.2227 72.8881 32.9792C72.6446 32.7357 72.5078 32.4055 72.5078 32.0611C72.5078 31.7168 72.6446 31.3866 72.8881 31.1431C73.1316 30.8996 73.4618 30.7628 73.8061 30.7628C76.2282 30.8366 78.5263 31.8507 80.2134 33.59C81.9005 35.3294 82.8441 37.6573 82.8441 40.0805C82.8441 42.5036 81.9005 44.8316 80.2134 46.5709C78.5263 48.3103 76.2282 49.3243 73.8061 49.3981C73.4618 49.3981 73.1316 49.2613 72.8881 49.0179C72.6446 48.7744 72.5078 48.4441 72.5078 48.0998C72.5078 47.7555 72.6446 47.4252 72.8881 47.1818C73.1316 46.9383 73.4618 46.8015 73.8061 46.8015C75.5876 46.7969 77.2947 46.0866 78.5535 44.8261C79.8124 43.5656 80.5205 41.8576 80.5228 40.0761ZM66.0854 58.4691L66.5442 62.4507C66.5803 62.7674 66.7317 63.0598 66.9695 63.2721C67.2074 63.4844 67.515 63.6018 67.8338 63.6018H80.0121C80.3248 63.6079 80.6292 63.501 80.8693 63.3006C81.1094 63.1003 81.2691 62.82 81.3191 62.5112L82.1847 57.2573C82.5155 55.0994 83.518 53.1005 85.0496 51.5447C87.3646 49.2727 88.938 46.3534 89.563 43.1706C90.1881 39.9877 89.8355 36.6902 88.5517 33.7115C87.2679 30.7327 85.1128 28.2121 82.3698 26.4809C79.6269 24.7496 76.4243 23.8888 73.1829 24.0115C69.0837 24.2135 65.2126 25.9587 62.3468 28.8968C59.4811 31.8348 57.8328 35.7481 57.7328 39.8511C57.6917 42.0313 58.0993 44.1966 58.9301 46.2127C59.7609 48.2288 60.9974 50.0525 62.5626 51.5707C64.4973 53.3951 65.7419 55.8322 66.0854 58.4691ZM78.9215 60.9965H68.9937L68.6648 58.1662C68.5711 57.398 68.4119 56.6394 68.1887 55.8984H79.8477C79.7698 56.2014 79.7092 56.4957 79.6573 56.764L78.9215 60.9965ZM73.2781 26.6082C75.9977 26.4955 78.6874 27.21 80.9925 28.6574C83.2976 30.1048 85.1097 32.2171 86.1897 34.7155C87.2697 37.2139 87.5668 39.981 87.0418 42.6518C86.5169 45.3225 85.1946 47.7713 83.2493 49.6751C82.1931 50.7282 81.3394 51.9662 80.7305 53.3277C80.6469 53.3235 80.5632 53.3235 80.4795 53.3277H67.0981C66.3698 52.0036 65.4511 50.7933 64.3716 49.7357C63.0625 48.4612 62.0284 46.9319 61.3332 45.2423C60.638 43.5526 60.2964 41.7385 60.3295 39.9117C60.4063 36.4681 61.7846 33.1813 64.1871 30.713C66.5896 28.2447 69.8378 26.778 73.2781 26.6082Z"/>
</mask>
<path d="M93.0906 62.3901C91.9223 61.8587 90.5934 61.8018 89.3839 62.2313C88.1745 62.6608 87.1791 63.5432 86.6076 64.6924L82.5655 72.7767L79.7871 74.7588C79.4366 73.4724 78.6716 72.3375 77.6106 71.53C76.5497 70.7225 75.252 70.2876 73.9187 70.2926H69.2793C69.0477 70.2923 68.8188 70.2437 68.6071 70.1498C68.3955 70.0559 68.2058 69.9188 68.0502 69.7473C67.132 68.7206 66.0075 67.8994 64.7501 67.3371C63.4928 66.7748 62.131 66.4841 60.7536 66.4841H57.8973C57.4571 66.4854 57.0175 66.5172 56.5817 66.5793L43.4945 68.3104V68.2585C43.4945 67.2362 43.089 66.2556 42.3669 65.5319C41.6448 64.8082 40.6651 64.4004 39.6428 64.3981H33.2983C32.954 64.3981 32.6238 64.5349 32.3803 64.7784C32.1368 65.0219 32 65.3521 32 65.6965C32 66.0408 32.1368 66.371 32.3803 66.6145C32.6238 66.858 32.954 66.9948 33.2983 66.9948H39.6428C39.9765 66.9971 40.2957 67.1312 40.5308 67.368C40.7659 67.6047 40.8979 67.9248 40.8979 68.2585V90.1483C40.8979 90.4812 40.7656 90.8004 40.5303 91.0358C40.2949 91.2711 39.9757 91.4033 39.6428 91.4033H33.2983C32.954 91.4033 32.6238 91.5401 32.3803 91.7836C32.1368 92.0271 32 92.3573 32 92.7017C32 93.046 32.1368 93.3762 32.3803 93.6197C32.6238 93.8632 32.954 94 33.2983 94H39.6428C40.6495 93.9979 41.6154 93.6019 42.3336 92.8965C43.0519 92.1912 43.4655 91.2327 43.4859 90.2262H71.876C73.6163 90.2278 75.3255 89.7647 76.8269 88.8846L86.9539 82.9642C88.6402 81.9737 89.9932 80.5032 90.8402 78.7403L95.5142 69.0721C95.8029 68.4758 95.9693 67.8276 96.0034 67.1659C96.0375 66.5042 95.9387 65.8424 95.7128 65.2196C95.4869 64.5967 95.1385 64.0254 94.6881 63.5394C94.2377 63.0534 93.6945 62.6626 93.0906 62.3901ZM93.1772 67.9469L88.5032 77.6065C87.8778 78.8964 86.8837 79.9718 85.6469 80.6965L75.5113 86.6168C74.4092 87.264 73.154 87.6047 71.876 87.6036H43.4945V70.9677L56.9279 69.15C57.2491 69.1054 57.573 69.0823 57.8973 69.0808H60.7536C61.7662 69.0822 62.7671 69.2964 63.6916 69.7094C64.616 70.1224 65.4434 70.7251 66.12 71.4784C66.5179 71.9224 67.0049 72.2775 67.5493 72.5206C68.0936 72.7637 68.6831 72.8893 69.2793 72.8892H73.9187C74.8369 72.8892 75.7175 73.254 76.3668 73.9033C77.0161 74.5526 77.3809 75.4332 77.3809 76.3514V76.4293L75.6498 77.6844H62.4414C62.0971 77.6844 61.7669 77.8211 61.5234 78.0646C61.2799 78.3081 61.1431 78.6383 61.1431 78.9827C61.1431 79.327 61.2799 79.6573 61.5234 79.9007C61.7669 80.1442 62.0971 80.281 62.4414 80.281H76.0652C76.3387 80.2848 76.6059 80.1997 76.8269 80.0387L84.3399 74.6722C84.5225 74.5616 84.6743 74.4068 84.7813 74.2222L88.9706 65.8523C89.2484 65.2899 89.7382 64.8608 90.3323 64.6595C90.9264 64.4583 91.5761 64.5012 92.1385 64.779C92.7009 65.0568 93.13 65.5466 93.3313 66.1407C93.5325 66.7348 93.4896 67.3845 93.2118 67.9469H93.1772ZM80.5228 40.0761C80.5205 38.2955 79.8121 36.5884 78.553 35.3293C77.2939 34.0701 75.5868 33.3618 73.8061 33.3595C73.4618 33.3595 73.1316 33.2227 72.8881 32.9792C72.6446 32.7357 72.5078 32.4055 72.5078 32.0611C72.5078 31.7168 72.6446 31.3866 72.8881 31.1431C73.1316 30.8996 73.4618 30.7628 73.8061 30.7628C76.2282 30.8366 78.5263 31.8507 80.2134 33.59C81.9005 35.3294 82.8441 37.6573 82.8441 40.0805C82.8441 42.5036 81.9005 44.8316 80.2134 46.5709C78.5263 48.3103 76.2282 49.3243 73.8061 49.3981C73.4618 49.3981 73.1316 49.2613 72.8881 49.0179C72.6446 48.7744 72.5078 48.4441 72.5078 48.0998C72.5078 47.7555 72.6446 47.4252 72.8881 47.1818C73.1316 46.9383 73.4618 46.8015 73.8061 46.8015C75.5876 46.7969 77.2947 46.0866 78.5535 44.8261C79.8124 43.5656 80.5205 41.8576 80.5228 40.0761ZM66.0854 58.4691L66.5442 62.4507C66.5803 62.7674 66.7317 63.0598 66.9695 63.2721C67.2074 63.4844 67.515 63.6018 67.8338 63.6018H80.0121C80.3248 63.6079 80.6292 63.501 80.8693 63.3006C81.1094 63.1003 81.2691 62.82 81.3191 62.5112L82.1847 57.2573C82.5155 55.0994 83.518 53.1005 85.0496 51.5447C87.3646 49.2727 88.938 46.3534 89.563 43.1706C90.1881 39.9877 89.8355 36.6902 88.5517 33.7115C87.2679 30.7327 85.1128 28.2121 82.3698 26.4809C79.6269 24.7496 76.4243 23.8888 73.1829 24.0115C69.0837 24.2135 65.2126 25.9587 62.3468 28.8968C59.4811 31.8348 57.8328 35.7481 57.7328 39.8511C57.6917 42.0313 58.0993 44.1966 58.9301 46.2127C59.7609 48.2288 60.9974 50.0525 62.5626 51.5707C64.4973 53.3951 65.7419 55.8322 66.0854 58.4691ZM78.9215 60.9965H68.9937L68.6648 58.1662C68.5711 57.398 68.4119 56.6394 68.1887 55.8984H79.8477C79.7698 56.2014 79.7092 56.4957 79.6573 56.764L78.9215 60.9965ZM73.2781 26.6082C75.9977 26.4955 78.6874 27.21 80.9925 28.6574C83.2976 30.1048 85.1097 32.2171 86.1897 34.7155C87.2697 37.2139 87.5668 39.981 87.0418 42.6518C86.5169 45.3225 85.1946 47.7713 83.2493 49.6751C82.1931 50.7282 81.3394 51.9662 80.7305 53.3277C80.6469 53.3235 80.5632 53.3235 80.4795 53.3277H67.0981C66.3698 52.0036 65.4511 50.7933 64.3716 49.7357C63.0625 48.4612 62.0284 46.9319 61.3332 45.2423C60.638 43.5526 60.2964 41.7385 60.3295 39.9117C60.4063 36.4681 61.7846 33.1813 64.1871 30.713C66.5896 28.2447 69.8378 26.778 73.2781 26.6082Z" fill="#2D6848"/>
<path d="M93.0906 62.3901C91.9223 61.8587 90.5934 61.8018 89.3839 62.2313C88.1745 62.6608 87.1791 63.5432 86.6076 64.6924L82.5655 72.7767L79.7871 74.7588C79.4366 73.4724 78.6716 72.3375 77.6106 71.53C76.5497 70.7225 75.252 70.2876 73.9187 70.2926H69.2793C69.0477 70.2923 68.8188 70.2437 68.6071 70.1498C68.3955 70.0559 68.2058 69.9188 68.0502 69.7473C67.132 68.7206 66.0075 67.8994 64.7501 67.3371C63.4928 66.7748 62.131 66.4841 60.7536 66.4841H57.8973C57.4571 66.4854 57.0175 66.5172 56.5817 66.5793L43.4945 68.3104V68.2585C43.4945 67.2362 43.089 66.2556 42.3669 65.5319C41.6448 64.8082 40.6651 64.4004 39.6428 64.3981H33.2983C32.954 64.3981 32.6238 64.5349 32.3803 64.7784C32.1368 65.0219 32 65.3521 32 65.6965C32 66.0408 32.1368 66.371 32.3803 66.6145C32.6238 66.858 32.954 66.9948 33.2983 66.9948H39.6428C39.9765 66.9971 40.2957 67.1312 40.5308 67.368C40.7659 67.6047 40.8979 67.9248 40.8979 68.2585V90.1483C40.8979 90.4812 40.7656 90.8004 40.5303 91.0358C40.2949 91.2711 39.9757 91.4033 39.6428 91.4033H33.2983C32.954 91.4033 32.6238 91.5401 32.3803 91.7836C32.1368 92.0271 32 92.3573 32 92.7017C32 93.046 32.1368 93.3762 32.3803 93.6197C32.6238 93.8632 32.954 94 33.2983 94H39.6428C40.6495 93.9979 41.6154 93.6019 42.3336 92.8965C43.0519 92.1912 43.4655 91.2327 43.4859 90.2262H71.876C73.6163 90.2278 75.3255 89.7647 76.8269 88.8846L86.9539 82.9642C88.6402 81.9737 89.9932 80.5032 90.8402 78.7403L95.5142 69.0721C95.8029 68.4758 95.9693 67.8276 96.0034 67.1659C96.0375 66.5042 95.9387 65.8424 95.7128 65.2196C95.4869 64.5967 95.1385 64.0254 94.6881 63.5394C94.2377 63.0534 93.6945 62.6626 93.0906 62.3901ZM93.1772 67.9469L88.5032 77.6065C87.8778 78.8964 86.8837 79.9718 85.6469 80.6965L75.5113 86.6168C74.4092 87.264 73.154 87.6047 71.876 87.6036H43.4945V70.9677L56.9279 69.15C57.2491 69.1054 57.573 69.0823 57.8973 69.0808H60.7536C61.7662 69.0822 62.7671 69.2964 63.6916 69.7094C64.616 70.1224 65.4434 70.7251 66.12 71.4784C66.5179 71.9224 67.0049 72.2775 67.5493 72.5206C68.0936 72.7637 68.6831 72.8893 69.2793 72.8892H73.9187C74.8369 72.8892 75.7175 73.254 76.3668 73.9033C77.0161 74.5526 77.3809 75.4332 77.3809 76.3514V76.4293L75.6498 77.6844H62.4414C62.0971 77.6844 61.7669 77.8211 61.5234 78.0646C61.2799 78.3081 61.1431 78.6383 61.1431 78.9827C61.1431 79.327 61.2799 79.6573 61.5234 79.9007C61.7669 80.1442 62.0971 80.281 62.4414 80.281H76.0652C76.3387 80.2848 76.6059 80.1997 76.8269 80.0387L84.3399 74.6722C84.5225 74.5616 84.6743 74.4068 84.7813 74.2222L88.9706 65.8523C89.2484 65.2899 89.7382 64.8608 90.3323 64.6595C90.9264 64.4583 91.5761 64.5012 92.1385 64.779C92.7009 65.0568 93.13 65.5466 93.3313 66.1407C93.5325 66.7348 93.4896 67.3845 93.2118 67.9469H93.1772ZM80.5228 40.0761C80.5205 38.2955 79.8121 36.5884 78.553 35.3293C77.2939 34.0701 75.5868 33.3618 73.8061 33.3595C73.4618 33.3595 73.1316 33.2227 72.8881 32.9792C72.6446 32.7357 72.5078 32.4055 72.5078 32.0611C72.5078 31.7168 72.6446 31.3866 72.8881 31.1431C73.1316 30.8996 73.4618 30.7628 73.8061 30.7628C76.2282 30.8366 78.5263 31.8507 80.2134 33.59C81.9005 35.3294 82.8441 37.6573 82.8441 40.0805C82.8441 42.5036 81.9005 44.8316 80.2134 46.5709C78.5263 48.3103 76.2282 49.3243 73.8061 49.3981C73.4618 49.3981 73.1316 49.2613 72.8881 49.0179C72.6446 48.7744 72.5078 48.4441 72.5078 48.0998C72.5078 47.7555 72.6446 47.4252 72.8881 47.1818C73.1316 46.9383 73.4618 46.8015 73.8061 46.8015C75.5876 46.7969 77.2947 46.0866 78.5535 44.8261C79.8124 43.5656 80.5205 41.8576 80.5228 40.0761ZM66.0854 58.4691L66.5442 62.4507C66.5803 62.7674 66.7317 63.0598 66.9695 63.2721C67.2074 63.4844 67.515 63.6018 67.8338 63.6018H80.0121C80.3248 63.6079 80.6292 63.501 80.8693 63.3006C81.1094 63.1003 81.2691 62.82 81.3191 62.5112L82.1847 57.2573C82.5155 55.0994 83.518 53.1005 85.0496 51.5447C87.3646 49.2727 88.938 46.3534 89.563 43.1706C90.1881 39.9877 89.8355 36.6902 88.5517 33.7115C87.2679 30.7327 85.1128 28.2121 82.3698 26.4809C79.6269 24.7496 76.4243 23.8888 73.1829 24.0115C69.0837 24.2135 65.2126 25.9587 62.3468 28.8968C59.4811 31.8348 57.8328 35.7481 57.7328 39.8511C57.6917 42.0313 58.0993 44.1966 58.9301 46.2127C59.7609 48.2288 60.9974 50.0525 62.5626 51.5707C64.4973 53.3951 65.7419 55.8322 66.0854 58.4691ZM78.9215 60.9965H68.9937L68.6648 58.1662C68.5711 57.398 68.4119 56.6394 68.1887 55.8984H79.8477C79.7698 56.2014 79.7092 56.4957 79.6573 56.764L78.9215 60.9965ZM73.2781 26.6082C75.9977 26.4955 78.6874 27.21 80.9925 28.6574C83.2976 30.1048 85.1097 32.2171 86.1897 34.7155C87.2697 37.2139 87.5668 39.981 87.0418 42.6518C86.5169 45.3225 85.1946 47.7713 83.2493 49.6751C82.1931 50.7282 81.3394 51.9662 80.7305 53.3277C80.6469 53.3235 80.5632 53.3235 80.4795 53.3277H67.0981C66.3698 52.0036 65.4511 50.7933 64.3716 49.7357C63.0625 48.4612 62.0284 46.9319 61.3332 45.2423C60.638 43.5526 60.2964 41.7385 60.3295 39.9117C60.4063 36.4681 61.7846 33.1813 64.1871 30.713C66.5896 28.2447 69.8378 26.778 73.2781 26.6082Z" stroke="#2D6848" mask="url(#path-2-outside-1_77_48)"/>
</svg>
