<svg width="128" height="119" viewBox="0 0 128 119" fill="none" xmlns="http://www.w3.org/2000/svg">
<ellipse cx="64" cy="59.3592" rx="64" ry="59.3592" fill="#7FF0B2" fill-opacity="0.25"/>
<path d="M85.0181 94C86.606 94 88.1289 93.3692 89.2517 92.2464C90.3746 91.1235 91.0054 89.6006 91.0054 88.0127V29.9873C91.0054 28.3994 90.3746 26.8765 89.2517 25.7536C88.1289 24.6308 86.606 24 85.0181 24H42.9873C41.3994 24 39.8765 24.6308 38.7536 25.7536C37.6308 26.8765 37 28.3994 37 29.9873V88.0127C37 89.6006 37.6308 91.1235 38.7536 92.2464C39.8765 93.3692 41.3994 94 42.9873 94H85.0181ZM40.4213 88.0127V29.9873C40.4213 29.3068 40.6917 28.6541 41.1729 28.1729C41.6541 27.6917 42.3068 27.4213 42.9873 27.4213H85.0181C85.6986 27.4213 86.3513 27.6917 86.8325 28.1729C87.3137 28.6541 87.5841 29.3068 87.5841 29.9873V88.0127C87.5841 88.6932 87.3137 89.3459 86.8325 89.8271C86.3513 90.3083 85.6986 90.5787 85.0181 90.5787H42.9873C42.3068 90.5787 41.6541 90.3083 41.1729 89.8271C40.6917 89.3459 40.4213 88.6932 40.4213 88.0127ZM45.5533 87.1574H82.4521C82.9058 87.1574 83.3409 86.9772 83.6617 86.6563C83.9825 86.3355 84.1628 85.9004 84.1628 85.4467V32.5533C84.1628 32.0996 83.9825 31.6645 83.6617 31.3437C83.3409 31.0228 82.9058 30.8426 82.4521 30.8426H45.5533C45.0996 30.8426 44.6645 31.0228 44.3437 31.3437C44.0228 31.6645 43.8426 32.0996 43.8426 32.5533V85.4467C43.8426 85.9004 44.0228 86.3355 44.3437 86.6563C44.6645 86.9772 45.0996 87.1574 45.5533 87.1574ZM47.2639 83.7361V47.8123H80.7414V83.7361H47.2639ZM47.2639 34.2639H80.7414V44.3653H47.2639V34.2639ZM78.1584 53.6285V57.9651C78.1584 58.4187 77.9781 58.8539 77.6573 59.1747C77.3365 59.4955 76.9014 59.6757 76.4477 59.6757H72.1197C71.6661 59.6757 71.2309 59.4955 70.9101 59.1747C70.5893 58.8539 70.4091 58.4187 70.4091 57.9651C70.4091 57.5114 70.5893 57.0762 70.9101 56.7554C71.2309 56.4346 71.6661 56.2544 72.1197 56.2544H74.737V53.6285C74.737 53.1748 74.9173 52.7397 75.2381 52.4189C75.5589 52.0981 75.994 51.9179 76.4477 51.9179C76.9014 51.9179 77.3365 52.0981 77.6573 52.4189C77.9781 52.7397 78.1584 53.1748 78.1584 53.6285ZM67.5266 53.6285V57.9651C67.5266 58.4187 67.3464 58.8539 67.0256 59.1747C66.7048 59.4955 66.2697 59.6757 65.816 59.6757H61.4795C61.0258 59.6757 60.5907 59.4955 60.2699 59.1747C59.949 58.8539 59.7688 58.4187 59.7688 57.9651C59.7688 57.5114 59.949 57.0762 60.2699 56.7554C60.5907 56.4346 61.0258 56.2544 61.4795 56.2544H64.1053V53.6285C64.1053 53.1748 64.2856 52.7397 64.6064 52.4189C64.9272 52.0981 65.3623 51.9179 65.816 51.9179C66.2697 51.9179 66.7048 52.0981 67.0256 52.4189C67.3464 52.7397 67.5266 53.1748 67.5266 53.6285ZM57.5963 53.6285V57.9651C57.5963 58.4187 57.4161 58.8539 57.0952 59.1747C56.7744 59.4955 56.3393 59.6757 55.8856 59.6757H51.5577C51.104 59.6757 50.6689 59.4955 50.3481 59.1747C50.0272 58.8539 49.847 58.4187 49.847 57.9651C49.847 57.5114 50.0272 57.0762 50.3481 56.7554C50.6689 56.4346 51.104 56.2544 51.5577 56.2544H54.175V53.6285C54.175 53.1748 54.3552 52.7397 54.676 52.4189C54.9968 52.0981 55.4319 51.9179 55.8856 51.9179C56.3393 51.9179 56.7744 52.0981 57.0952 52.4189C57.4161 52.7397 57.5963 53.1748 57.5963 53.6285ZM78.1241 63.8925V68.229C78.1241 68.6827 77.9439 69.1178 77.6231 69.4386C77.3023 69.7594 76.8672 69.9396 76.4135 69.9396H72.1197C71.6661 69.9396 71.2309 69.7594 70.9101 69.4386C70.5893 69.1178 70.4091 68.6827 70.4091 68.229C70.4091 67.7753 70.5893 67.3402 70.9101 67.0194C71.2309 66.6986 71.6661 66.5183 72.1197 66.5183H74.737V63.8925C74.737 63.4388 74.9173 63.0037 75.2381 62.6829C75.5589 62.362 75.994 62.1818 76.4477 62.1818C76.9014 62.1818 77.3365 62.362 77.6573 62.6829C77.9781 63.0037 78.1584 63.4388 78.1584 63.8925H78.1241ZM67.4924 63.8925V68.229C67.4924 68.6827 67.3122 69.1178 66.9914 69.4386C66.6706 69.7594 66.2355 69.9396 65.7818 69.9396H61.4795C61.0258 69.9396 60.5907 69.7594 60.2699 69.4386C59.949 69.1178 59.7688 68.6827 59.7688 68.229C59.7688 67.7753 59.949 67.3402 60.2699 67.0194C60.5907 66.6986 61.0258 66.5183 61.4795 66.5183H64.1053V63.8925C64.1053 63.4388 64.2856 63.0037 64.6064 62.6829C64.9272 62.362 65.3623 62.1818 65.816 62.1818C66.2697 62.1818 66.7048 62.362 67.0256 62.6829C67.3464 63.0037 67.5266 63.4388 67.5266 63.8925H67.4924ZM57.5621 63.8925V68.229C57.5621 68.6827 57.3818 69.1178 57.061 69.4386C56.7402 69.7594 56.3051 69.9396 55.8514 69.9396H51.5577C51.104 69.9396 50.6689 69.7594 50.3481 69.4386C50.0272 69.1178 49.847 68.6827 49.847 68.229C49.847 67.7753 50.0272 67.3402 50.3481 67.0194C50.6689 66.6986 51.104 66.5183 51.5577 66.5183H54.175V63.8925C54.175 63.4388 54.3552 63.0037 54.676 62.6829C54.9968 62.362 55.4319 62.1818 55.8856 62.1818C56.3393 62.1818 56.7744 62.362 57.0952 62.6829C57.4161 63.0037 57.5963 63.4388 57.5963 63.8925H57.5621ZM78.0899 74.1564V78.4929C78.0899 78.9466 77.9097 79.3817 77.5889 79.7025C77.2681 80.0233 76.833 80.2036 76.3793 80.2036H72.1197C71.6661 80.2036 71.2309 80.0233 70.9101 79.7025C70.5893 79.3817 70.4091 78.9466 70.4091 78.4929C70.4091 78.0392 70.5893 77.6041 70.9101 77.2833C71.2309 76.9625 71.6661 76.7823 72.1197 76.7823H74.737V74.1564C74.737 73.7027 74.9173 73.2676 75.2381 72.9468C75.5589 72.626 75.994 72.4457 76.4477 72.4457C76.9014 72.4457 77.3365 72.626 77.6573 72.9468C77.9781 73.2676 78.1584 73.7027 78.1584 74.1564H78.0899ZM67.4582 74.1564V78.4929C67.4582 78.9466 67.278 79.3817 66.9572 79.7025C66.6364 80.0233 66.2013 80.2036 65.7476 80.2036H61.4795C61.0258 80.2036 60.5907 80.0233 60.2699 79.7025C59.949 79.3817 59.7688 78.9466 59.7688 78.4929C59.7688 78.0392 59.949 77.6041 60.2699 77.2833C60.5907 76.9625 61.0258 76.7823 61.4795 76.7823H64.1053V74.1564C64.1053 73.7027 64.2856 73.2676 64.6064 72.9468C64.9272 72.626 65.3623 72.4457 65.816 72.4457C66.2697 72.4457 66.7048 72.626 67.0256 72.9468C67.3464 73.2676 67.5266 73.7027 67.5266 74.1564H67.4582ZM57.5279 74.1564V78.4929C57.5279 78.9466 57.3476 79.3817 57.0268 79.7025C56.706 80.0233 56.2709 80.2036 55.8172 80.2036H51.5577C51.104 80.2036 50.6689 80.0233 50.3481 79.7025C50.0272 79.3817 49.847 78.9466 49.847 78.4929C49.847 78.0392 50.0272 77.6041 50.3481 77.2833C50.6689 76.9625 51.104 76.7823 51.5577 76.7823H54.175V74.1564C54.175 73.7027 54.3552 73.2676 54.676 72.9468C54.9968 72.626 55.4319 72.4457 55.8856 72.4457C56.3393 72.4457 56.7744 72.626 57.0952 72.9468C57.4161 73.2676 57.5963 73.7027 57.5963 74.1564H57.5279Z" fill="#2D6848"/>
</svg>
