<svg width="128" height="119" viewBox="0 0 128 119" fill="none" xmlns="http://www.w3.org/2000/svg">
<ellipse cx="64" cy="59.3592" rx="64" ry="59.3592" fill="#7FF0B2" fill-opacity="0.25"/>
<path d="M105.569 48.808C106.574 47.803 107.13 46.4928 107.13 45.0749C107.13 43.6571 106.574 42.3469 105.569 41.3418L90.7801 26.7325C88.6982 24.6685 85.3061 24.6685 83.2242 26.7325L78.9168 30.9861L70.6071 30.0708C69.0636 29.8913 67.5201 30.0169 66.0125 30.4297L58.6719 32.4039C58.3309 32.4937 57.9899 32.6193 57.6489 32.727L49.5366 30.0528L44.9062 25.4941C42.8781 23.502 39.3604 23.502 37.3502 25.4941L22.5614 40.1035C20.4795 42.1674 20.4795 45.5057 22.5614 47.5696L27.3534 52.3078L33.4736 60.7791C33.4736 60.7791 33.5992 60.9406 33.671 60.9944L36.1298 63.4173L34.2991 65.2301C33.1326 66.3787 32.4864 67.9042 32.4864 69.5375C32.4864 71.1707 33.1326 72.6962 34.2991 73.8449C35.2145 74.7423 36.3631 75.3166 37.6194 75.532C37.5118 75.9806 37.4579 76.4293 37.4579 76.896C37.4579 78.5292 38.104 80.0547 39.2706 81.2034C40.4372 82.352 41.9807 82.9802 43.6319 82.9802C43.6319 82.9802 43.6498 82.9802 43.6678 82.9802C43.6678 84.5596 44.26 86.121 45.4625 87.3235C46.665 88.508 48.2444 89.1003 49.8238 89.1003C50.2904 89.1003 50.7391 89.0285 51.2058 88.9388C51.4211 90.1772 51.9955 91.3258 52.9108 92.2232C54.0774 93.3718 55.6209 94 57.272 94C58.9232 94 60.4667 93.3718 61.6333 92.2232L63.4639 90.4105L65.2946 92.2232C66.4971 93.4077 68.0765 94 69.6559 94C71.2352 94 72.8146 93.4077 74.0171 92.2232C75.1837 91.0745 75.8119 89.549 75.8119 87.9158C75.8119 87.9158 75.8119 87.8978 75.8119 87.8799C75.8119 87.8799 75.8298 87.8799 75.8478 87.8799C77.4272 87.8799 79.0065 87.2876 80.209 86.1031C81.4115 84.9185 82.0217 83.4289 82.0217 81.7957V81.7598C82.0217 81.7598 82.0397 81.7598 82.0576 81.7598C83.637 81.7598 85.2164 81.1675 86.4189 79.9829C87.6214 78.7805 88.2316 77.219 88.2136 75.6396H88.2495C89.9007 75.6396 91.4442 75.0115 92.6108 73.8628C94.8722 71.6194 94.9799 68.0837 92.9698 65.6967L100.813 53.5282L105.587 48.808H105.569ZM85.7369 29.2272C86.4368 28.5452 87.5675 28.5452 88.2675 29.2272L103.056 43.8365C103.397 44.1776 103.577 44.6083 103.577 45.0749C103.577 45.5416 103.397 45.9903 103.056 46.3133L99.395 49.9208L90.7442 41.3777L82.0935 32.8347L85.7548 29.2272H85.7369ZM66.9278 33.8398C68.0047 33.5526 69.0995 33.4629 70.1943 33.5885L78.7373 34.5218L84.337 40.0496L97.1336 52.6847L90.4212 63.1122L83.9242 56.705L70.9122 43.8545C70.643 43.5853 70.284 43.4058 69.9071 43.352L61.2205 42.1315C61.2205 42.1315 61.059 42.1136 60.9692 42.1136C60.359 42.1136 59.7667 42.4366 59.4437 42.9751L54.4722 51.1592C54.0774 51.8053 53.4492 52.254 52.6954 52.4334C51.9416 52.595 51.1878 52.4514 50.5417 52.0386C49.3392 51.2489 48.9444 49.7054 49.6264 48.4491L54.203 40.0676C55.3337 38.0036 57.29 36.4601 59.6052 35.8319L66.9458 33.8577L66.9278 33.8398ZM25.0741 42.6161L39.8629 28.0068C40.2039 27.6658 40.6526 27.4863 41.1192 27.4863C41.5859 27.4863 42.0345 27.6658 42.3756 28.0068L46.0369 31.6143L28.7175 48.7183L25.0562 45.1108C24.3562 44.4288 24.3562 43.3161 25.0562 42.6161H25.0741ZM36.058 69.5734C36.058 68.8914 36.3272 68.2452 36.8118 67.7607L39.2886 65.3198C39.7732 64.8352 40.4372 64.566 41.1192 64.566C41.8012 64.566 42.4653 64.8352 42.9499 65.3198C43.4345 65.8044 43.7037 66.4505 43.7037 67.1325C43.7037 67.8145 43.4345 68.4606 42.9499 68.9452L40.4731 71.3861C39.486 72.3552 37.781 72.3552 36.7939 71.3861C36.3093 70.9015 36.0401 70.2554 36.0401 69.5734H36.058ZM41.7833 78.7266C41.2987 78.242 41.0295 77.5959 41.0295 76.9139C41.0295 76.2319 41.2987 75.5858 41.7833 75.1012L46.7368 70.2015C47.7598 69.1965 49.411 69.1965 50.4161 70.2015C51.4391 71.2066 51.4391 72.8398 50.4161 73.8269L45.4625 78.7266C44.4754 79.6958 42.7704 79.6958 41.7833 78.7266ZM47.9752 84.8467C46.9522 83.8417 46.9522 82.2085 47.9752 81.2213L52.9287 76.3217C53.4133 75.8371 54.0774 75.5678 54.7594 75.5678C55.4414 75.5678 56.1054 75.8371 56.59 76.3217C57.0746 76.8062 57.3438 77.4523 57.3438 78.1344C57.3438 78.8164 57.0746 79.4625 56.59 79.9471L55.3516 81.1675L52.8749 83.6084L51.6365 84.8288C50.6135 85.8339 48.9623 85.8339 47.9572 84.8288L47.9752 84.8467ZM59.0847 89.7464C58.0976 90.7156 56.3926 90.7156 55.4055 89.7464C54.9209 89.2618 54.6517 88.6157 54.6517 87.9337C54.6517 87.2517 54.9209 86.6056 55.4055 86.121L57.8823 83.6622C58.3668 83.1776 59.0309 82.9084 59.7129 82.9084C60.3949 82.9084 61.059 83.1776 61.5436 83.6622C62.0281 84.1468 62.2974 84.7929 62.2974 85.4749C62.2974 86.1569 62.0281 86.803 61.5436 87.2876L59.0668 89.7285L59.0847 89.7464ZM90.0802 71.3861C89.0931 72.3552 87.3881 72.3552 86.4009 71.3861L79.5809 64.6557C78.8809 63.9737 77.7502 63.9737 77.0682 64.6557C76.3862 65.3377 76.3682 66.4505 77.0682 67.1504L83.8883 73.8808C84.8933 74.8858 84.8933 76.5191 83.8883 77.5062C82.8832 78.5113 81.2141 78.5113 80.209 77.5062L74.2504 71.6194C73.5505 70.9374 72.4198 70.9374 71.7378 71.6194C71.0558 72.3014 71.0378 73.4141 71.7378 74.1141L77.6964 80.0009C78.1809 80.4855 78.4502 81.1316 78.4502 81.8136C78.4502 82.4956 78.1809 83.1417 77.6964 83.6263C76.6913 84.6314 75.0401 84.6314 74.0351 83.6263L68.92 78.583C68.22 77.901 67.0894 77.901 66.4073 78.583C65.7253 79.265 65.7074 80.3778 66.4073 81.0778L71.5045 86.121C71.989 86.6056 72.2583 87.2517 72.2583 87.9337C72.2583 88.6157 71.989 89.2618 71.5045 89.7464C70.5173 90.7156 68.8123 90.7156 67.8252 89.7464L65.5459 87.485C65.7792 86.8389 65.9228 86.1749 65.9228 85.4749C65.9228 83.8417 65.2766 82.3161 64.1101 81.1675C63.1947 80.2701 62.0102 79.7317 60.7718 79.5343C60.8795 79.0676 60.9513 78.601 60.9513 78.1344C60.9513 76.5011 60.3052 74.9756 59.1386 73.8269C57.954 72.6603 56.3388 72.086 54.7414 72.104C54.7594 70.5066 54.1671 68.9093 52.9467 67.7068C51.3852 66.1813 49.2136 65.6428 47.2214 66.0915C47.006 64.8532 46.4317 63.7045 45.5164 62.8071C43.8473 61.1739 41.3166 60.7252 39.145 61.4252L36.3093 58.6253L31.0686 51.3925L49.052 33.6244L53.6466 35.132C52.6057 36.0473 51.7262 37.1421 51.0622 38.3625L46.4855 46.7441C44.9241 49.5977 45.8215 53.1334 48.5495 54.9281C50.0033 55.8794 51.7442 56.2024 53.4672 55.8255C55.1722 55.4486 56.608 54.4256 57.5233 52.936L61.8846 45.7569L68.7944 46.7261L77.0503 54.8743L81.8423 59.6125L89.452 67.1145L90.0622 67.7248C91.0673 68.7298 91.0673 70.3631 90.0622 71.3502L90.0802 71.3861Z" fill="#2D6848"/>
</svg>
