<svg width="128" height="119" viewBox="0 0 128 119" fill="none" xmlns="http://www.w3.org/2000/svg">
<ellipse cx="64" cy="59.3592" rx="64" ry="59.3592" fill="#7FF0B2" fill-opacity="0.25"/>
<path d="M35.9873 94H76.6921C78.28 94 79.8029 93.3692 80.9257 92.2464C82.0486 91.1235 82.6794 89.6007 82.6794 88.0127V83.8473C87.0005 82.9952 90.8918 80.6694 93.6887 77.2671C96.4856 73.8648 98.0146 69.5971 98.0146 65.1927C98.0146 60.7884 96.4856 56.5206 93.6887 53.1183C90.8918 49.716 87.0005 47.3902 82.6794 46.5381V39.456C82.6879 38.6723 82.5411 37.8947 82.2475 37.168C81.9539 36.4414 81.5192 35.78 80.9687 35.2222L71.4575 25.7538C70.8982 25.1904 70.2315 24.7449 69.4969 24.4437C68.7623 24.1425 67.9748 23.9918 67.1809 24.0003H35.9873C34.3993 24.0003 32.8765 24.6311 31.7536 25.754C30.6308 26.8768 30 28.3997 30 29.9876V88.0127C30 89.6007 30.6308 91.1235 31.7536 92.2464C32.8765 93.3692 34.3993 94 35.9873 94ZM94.6111 65.1927C94.6094 68.2763 93.6935 71.2901 91.9792 73.8531C90.2648 76.4162 87.829 78.4134 84.9797 79.5922C82.1303 80.7711 78.9955 81.0787 75.9714 80.4761C72.9473 79.8734 70.1698 78.3877 67.99 76.2067C65.8102 74.0257 64.326 71.2474 63.725 68.223C63.1241 65.1985 63.4334 62.0638 64.6138 59.2152C65.7942 56.3665 67.7927 53.9318 70.3567 52.2188C72.9207 50.5059 75.935 49.5916 79.0186 49.5916C83.1541 49.5962 87.1188 51.2416 90.0422 54.1666C92.9656 57.0916 94.6089 61.0572 94.6111 65.1927ZM78.5567 37.6171C78.8963 37.9639 79.1306 38.3998 79.2324 38.8744H69.4903C69.0366 38.8744 68.6015 38.6942 68.2807 38.3734C67.9599 38.0526 67.7796 37.6175 67.7796 37.1638V27.4815C68.2531 27.5912 68.6877 27.8278 69.037 28.1658L78.5567 37.6171ZM33.4641 29.9192C33.4641 29.2386 33.7344 28.586 34.2156 28.1048C34.6968 27.6236 35.3495 27.3532 36.03 27.3532H64.3583V37.1894C64.3583 38.5505 64.899 39.8558 65.8615 40.8183C66.8239 41.7807 68.1292 42.3214 69.4903 42.3214H79.2581V46.1703H79.0186C73.9758 46.1703 69.1396 48.1736 65.5738 51.7394C62.008 55.3051 60.0047 60.1414 60.0047 65.1842C60.0047 70.2269 62.008 75.0632 65.5738 78.629C69.1396 82.1948 73.9758 84.198 79.0186 84.198H79.2581V88.0127C79.2581 88.6933 78.9877 89.3459 78.5065 89.8272C78.0253 90.3084 77.3726 90.5787 76.6921 90.5787H35.9873C35.3067 90.5787 34.6541 90.3084 34.1728 89.8272C33.6916 89.3459 33.4213 88.6933 33.4213 88.0127L33.4641 29.9192ZM71.0983 70.6839L84.5867 57.2125C84.742 57.0406 84.9307 56.9019 85.1412 56.805C85.3517 56.7081 85.5797 56.655 85.8113 56.6489C86.0429 56.6428 86.2734 56.6838 86.4887 56.7695C86.7041 56.8551 86.8997 56.9836 87.0639 57.1472C87.228 57.3108 87.3572 57.506 87.4436 57.721C87.5301 57.936 87.5719 58.1663 87.5666 58.398C87.5613 58.6297 87.509 58.8579 87.4129 59.0687C87.3167 59.2795 87.1787 59.4687 87.0073 59.6246L73.4248 73.1729C73.2658 73.3318 73.0771 73.4579 72.8695 73.5439C72.6618 73.6299 72.4393 73.6742 72.2145 73.6742C71.9897 73.6742 71.7671 73.6299 71.5595 73.5439C71.3518 73.4579 71.1631 73.3318 71.0042 73.1729C70.8453 73.0139 70.7192 72.8253 70.6332 72.6176C70.5472 72.4099 70.5029 72.1874 70.5029 71.9626C70.5029 71.7378 70.5472 71.5153 70.6332 71.3076C70.7192 71.0999 70.8453 70.9113 71.0042 70.7523L71.0983 70.6839ZM75.9138 58.1449C76.3064 58.5387 76.5736 59.0402 76.6814 59.5858C76.7893 60.1314 76.7331 60.6968 76.5198 61.2105C76.3066 61.7241 75.9459 62.1631 75.4833 62.4719C75.0208 62.7808 74.477 62.9456 73.9209 62.9456C73.3647 62.9456 72.821 62.7808 72.3584 62.4719C71.8958 62.1631 71.5351 61.7241 71.3219 61.2105C71.1086 60.6968 71.0524 60.1314 71.1603 59.5858C71.2681 59.0402 71.5353 58.5387 71.928 58.1449C72.457 57.6173 73.1737 57.3211 73.9209 57.3211C74.668 57.3211 75.3847 57.6173 75.9138 58.1449ZM86.9389 70.2904C86.9389 70.6607 86.8658 71.0273 86.7239 71.3693C86.5819 71.7113 86.3739 72.0219 86.1116 72.2833C85.8494 72.5447 85.5382 72.7518 85.1958 72.8927C84.8534 73.0336 84.4866 73.1056 84.1163 73.1045C83.7465 73.1056 83.38 73.0336 83.0381 72.8926C82.6962 72.7515 82.3855 72.5443 82.124 72.2828C81.8625 72.0212 81.6552 71.7106 81.5142 71.3687C81.3732 71.0267 81.3012 70.6603 81.3023 70.2904C81.3036 69.9178 81.38 69.5493 81.5269 69.2068C81.6739 68.8644 81.8884 68.5552 82.1576 68.2975C82.6853 67.7705 83.4005 67.4745 84.1462 67.4745C84.892 67.4745 85.6072 67.7705 86.1349 68.2975C86.3948 68.5595 86.5998 68.8707 86.7379 69.2129C86.876 69.5551 86.9443 69.9215 86.9389 70.2904ZM37.9203 48.052C37.9203 47.5983 38.1005 47.1632 38.4213 46.8424C38.7421 46.5216 39.1772 46.3414 39.6309 46.3414H57.4986C57.9523 46.3414 58.3874 46.5216 58.7083 46.8424C59.0291 47.1632 59.2093 47.5983 59.2093 48.052C59.2093 48.5057 59.0291 48.9408 58.7083 49.2616C58.3874 49.5825 57.9523 49.7627 57.4986 49.7627H39.6309C39.1831 49.7628 38.7531 49.5872 38.4333 49.2738C38.1134 48.9604 37.9293 48.534 37.9203 48.0863V48.052ZM37.9203 56.6053C37.9203 56.1516 38.1005 55.7165 38.4213 55.3957C38.7421 55.0749 39.1772 54.8946 39.6309 54.8946H51.7252C52.1789 54.8946 52.614 55.0749 52.9348 55.3957C53.2556 55.7165 53.4359 56.1516 53.4359 56.6053C53.4359 57.059 53.2556 57.4941 52.9348 57.8149C52.614 58.1357 52.1789 58.3159 51.7252 58.3159H39.6309C39.1831 58.316 38.7531 58.1405 38.4333 57.827C38.1134 57.5136 37.9293 57.0872 37.9203 56.6395V56.6053ZM37.9203 65.1585C37.9203 64.7048 38.1005 64.2697 38.4213 63.9489C38.7421 63.6281 39.1772 63.4479 39.6309 63.4479H51.7252C52.1789 63.4479 52.614 63.6281 52.9348 63.9489C53.2556 64.2697 53.4359 64.7048 53.4359 65.1585C53.4359 65.6122 53.2556 66.0473 52.9348 66.3681C52.614 66.6889 52.1789 66.8691 51.7252 66.8691H39.6309C39.1831 66.8692 38.7531 66.6937 38.4333 66.3803C38.1134 66.0668 37.9293 65.6405 37.9203 65.1927V65.1585ZM37.9203 73.7117C37.9203 73.258 38.1005 72.8229 38.4213 72.5021C38.7421 72.1813 39.1772 72.0011 39.6309 72.0011H51.7252C52.1789 72.0011 52.614 72.1813 52.9348 72.5021C53.2556 72.8229 53.4359 73.258 53.4359 73.7117C53.4359 74.1654 53.2556 74.6005 52.9348 74.9213C52.614 75.2422 52.1789 75.4224 51.7252 75.4224H39.6309C39.1831 75.4225 38.7531 75.2469 38.4333 74.9335C38.1134 74.6201 37.9293 74.1937 37.9203 73.7459V73.7117ZM37.9203 82.265C37.9203 81.8113 38.1005 81.3762 38.4213 81.0554C38.7421 80.7345 39.1772 80.5543 39.6309 80.5543H57.4986C57.9523 80.5543 58.3874 80.7345 58.7083 81.0554C59.0291 81.3762 59.2093 81.8113 59.2093 82.265C59.2093 82.7187 59.0291 83.1538 58.7083 83.4746C58.3874 83.7954 57.9523 83.9756 57.4986 83.9756H39.6309C39.1831 83.9757 38.7531 83.8002 38.4333 83.4867C38.1134 83.1733 37.9293 82.7469 37.9203 82.2992V82.265Z" fill="#2D6848"/>
</svg>
