<svg width="304" height="244" viewBox="0 0 304 244" fill="none" xmlns="http://www.w3.org/2000/svg">
<path d="M1.4101 242.91L297.48 242.46L286.48 199.46L270.26 196.93L261.67 179.46C261.67 179.46 241.92 164.46 233.31 163.99C224.7 163.52 225.72 146.78 219.64 141.72C213.56 136.66 90.6401 113.43 90.6401 113.43C90.6401 113.43 85.9201 107.28 84.4001 100.68C82.8801 94.08 60.0901 92.09 57.0501 89.58C54.0101 87.07 50.4701 73.86 46.4201 67.58C43.1601 62.58 12.9901 40.58 1.3501 39.04L1.4101 242.91Z" fill="white"/>
<path d="M1.41016 243.41C1.27835 243.407 1.15266 243.354 1.05944 243.261C0.966218 243.167 0.912716 243.042 0.910156 242.91V39.0799C0.910789 39.0083 0.926217 38.9376 0.955471 38.8722C0.984725 38.8068 1.02718 38.7481 1.08016 38.6999C1.19303 38.6099 1.33634 38.5669 1.48016 38.5799C13.2102 40.1099 43.6702 62.3899 46.9002 67.3499C48.8102 70.3499 50.5702 74.6699 52.2702 78.9099C54.1402 83.5499 55.9102 87.9099 57.4302 89.1999C58.4302 89.9999 62.0302 90.8499 65.8702 91.7499C73.8702 93.6199 83.8702 95.9599 84.9402 100.56C86.2902 106.42 90.2702 112 90.9902 112.98C98.2402 114.35 213.99 136.3 219.99 141.33C222.67 143.56 223.99 147.91 225.31 152.11C227.08 157.83 228.74 163.22 233.37 163.49C242.03 164 261.19 178.49 262 179.06C262.061 179.11 262.111 179.171 262.15 179.24L270.62 196.48L286.62 198.97C286.718 198.983 286.809 199.026 286.882 199.092C286.955 199.158 287.007 199.244 287.03 199.34L298.03 242.34C298.048 242.414 298.049 242.491 298.034 242.565C298.018 242.64 297.986 242.709 297.94 242.77C297.894 242.833 297.834 242.883 297.764 242.918C297.695 242.953 297.618 242.971 297.54 242.97L1.47016 243.42L1.41016 243.41ZM1.91016 39.6599V242.41L296.84 242L286.1 199.9L270.2 197.43C270.121 197.416 270.046 197.383 269.981 197.334C269.917 197.286 269.865 197.223 269.83 197.15L261.29 179.79C259.81 178.67 241.36 164.97 233.29 164.49C227.97 164.18 226.12 158.2 224.34 152.41C223.08 148.34 221.78 144.14 219.34 142.1C214.61 138.16 133.07 121.95 90.6102 113.92C90.4914 113.899 90.3846 113.835 90.3102 113.74C90.1102 113.48 85.5002 107.42 83.9702 100.74C83.0502 96.7399 72.9702 94.3899 65.6502 92.6699C61.3402 91.6699 57.9402 90.8699 56.7902 89.9199C55.0702 88.4999 53.3502 84.2099 51.3502 79.2299C49.6602 75.0399 47.9202 70.7099 46.0602 67.8499C42.9302 63.0899 13.8402 41.7799 1.91016 39.6599Z" fill="#D1D3D4"/>
<path d="M57.1104 89.5796C57.1104 89.5796 65.2104 154.74 65.2104 158.1V184.5L68.4203 155.3L61.6804 90.6296L57.1104 89.5796Z" fill="#D1D3D4"/>
<path d="M65.2202 185C65.0911 184.994 64.969 184.939 64.8795 184.846C64.79 184.753 64.7401 184.629 64.7402 184.5V158.1C64.7402 154.81 56.7402 90.2996 56.6502 89.6496C56.6398 89.5688 56.6489 89.4867 56.6767 89.4102C56.7045 89.3336 56.7503 89.2648 56.8102 89.2096C56.8683 89.1556 56.9391 89.1172 57.016 89.098C57.093 89.0788 57.1735 89.0793 57.2502 89.0996L61.8202 90.0996C61.9233 90.1223 62.0166 90.1772 62.0867 90.2562C62.1567 90.3353 62.2 90.4345 62.2102 90.5396L68.9502 155.21V155.32L65.7402 184.51C65.7389 184.576 65.7244 184.642 65.6974 184.703C65.6704 184.763 65.6316 184.818 65.5832 184.864C65.5347 184.91 65.4777 184.945 65.4153 184.968C65.353 184.992 65.2867 185.002 65.2202 185ZM57.7002 90.2296C58.6202 97.6696 65.7002 154.9 65.7002 158.1V175.37L67.9102 155.3L61.2202 90.9996L57.7002 90.2296Z" fill="#D1D3D4"/>
<path d="M229.05 161.8C229.05 161.8 235.05 177.23 236.05 182.68C237.05 188.13 244.16 217.37 244.16 217.37C244.16 217.37 239.81 186.37 239.3 183.11C238.79 179.85 235.88 170.45 235.88 170.45C235.88 170.45 244.37 177.92 245.76 179.69C247.15 181.46 251.33 194.25 251.33 194.25C251.33 194.25 248.04 177.25 246.27 175.25C244.5 173.25 233.33 164 233.33 164L229.05 161.8Z" fill="#D1D3D4"/>
<path d="M244.13 217.87C244.019 217.87 243.911 217.833 243.823 217.764C243.736 217.695 243.675 217.598 243.65 217.49C243.58 217.2 236.55 188.17 235.54 182.77C234.53 177.37 228.64 162.13 228.54 161.98C228.505 161.885 228.499 161.783 228.522 161.685C228.545 161.587 228.597 161.498 228.67 161.43C228.745 161.363 228.838 161.319 228.938 161.305C229.038 161.291 229.139 161.306 229.23 161.35L233.52 163.55C233.554 163.563 233.585 163.583 233.61 163.61C234.07 163.99 244.8 172.9 246.61 174.93C248.42 176.96 251.45 192.41 251.79 194.15C251.825 194.282 251.805 194.423 251.736 194.541C251.666 194.659 251.553 194.745 251.42 194.78C251.288 194.814 251.147 194.795 251.029 194.725C250.91 194.656 250.825 194.542 250.79 194.41C249.64 190.87 246.4 181.41 245.31 180C244.22 178.59 239.26 174.17 236.82 172C237.69 174.87 239.36 180.57 239.74 183C240.24 186.26 244.55 217 244.59 217.27C244.61 217.397 244.58 217.527 244.505 217.632C244.43 217.737 244.317 217.808 244.19 217.83L244.13 217.87ZM229.98 162.87C231.42 166.65 235.67 178.02 236.52 182.62C237.14 185.93 240.04 198.21 242.2 207.21C240.88 197.87 239.1 185.21 238.79 183.21C238.29 179.99 235.42 170.71 235.39 170.62C235.355 170.516 235.356 170.404 235.392 170.3C235.428 170.197 235.498 170.109 235.59 170.05C235.682 169.992 235.79 169.965 235.898 169.974C236.007 169.983 236.109 170.027 236.19 170.1C236.54 170.4 244.73 177.61 246.13 179.4C247.354 181.648 248.358 184.009 249.13 186.45C247.96 181.34 246.66 176.53 245.86 175.61C244.19 173.7 233.8 165.06 233.05 164.43L229.98 162.87Z" fill="#D1D3D4"/>
<path d="M28.7603 133.83C28.7603 133.83 36.3503 152.83 37.8703 164.5C39.3903 176.17 30.7803 220 30.7803 220C30.7803 220 35.5203 172.32 33.4003 161.85C31.2803 151.38 28.7603 133.83 28.7603 133.83Z" fill="#D1D3D4"/>
<path d="M30.7802 220.45H30.7102C30.5828 220.432 30.4671 220.367 30.387 220.266C30.3069 220.165 30.2687 220.038 30.2802 219.91C30.2802 219.43 34.9902 172.18 32.9102 161.91C30.8302 151.64 28.2902 134.09 28.2602 133.91C28.2414 133.787 28.2689 133.662 28.3372 133.559C28.4056 133.455 28.51 133.381 28.6302 133.35C28.7482 133.319 28.8732 133.333 28.9819 133.388C29.0905 133.444 29.1753 133.537 29.2202 133.65C29.3002 133.84 36.8602 152.86 38.3702 164.44C39.8802 176.02 31.6202 218.25 31.2702 220.04C31.251 220.156 31.1911 220.261 31.1012 220.336C31.0113 220.411 30.8974 220.451 30.7802 220.45ZM29.9302 138.34C30.8302 144.26 32.4702 154.64 33.9302 161.7C35.4302 169.09 33.5802 194.37 32.3102 209.12C34.7502 195.38 38.4402 172.42 37.4202 164.56C36.3202 156.47 32.2502 144.64 29.9302 138.34Z" fill="#D1D3D4"/>
<path d="M222.19 210.12H222.13C222.066 210.112 222.003 210.092 221.946 210.06C221.89 210.029 221.84 209.986 221.8 209.935C221.76 209.884 221.731 209.825 221.713 209.762C221.696 209.7 221.692 209.634 221.7 209.57C221.7 209.48 222.7 200.94 221.7 196.57C220.7 192.2 215.5 184.63 215.44 184.57C215.367 184.461 215.339 184.327 215.364 184.198C215.388 184.069 215.462 183.955 215.57 183.88C215.68 183.805 215.814 183.775 215.944 183.798C216.075 183.82 216.192 183.893 216.27 184C216.49 184.32 221.66 191.8 222.68 196.37C223.7 200.94 222.73 209.37 222.68 209.71C222.657 209.824 222.596 209.926 222.507 210.001C222.418 210.076 222.306 210.117 222.19 210.12Z" fill="#D1D3D4"/>
<path d="M38.0504 95.43C37.9531 95.4291 37.8581 95.4004 37.7765 95.3472C37.695 95.294 37.6304 95.2187 37.5904 95.13C36.2335 92.171 34.7008 89.2958 33.0004 86.52C30.0704 81.75 25.8404 73.39 25.8004 73.3C25.7696 73.2418 25.7509 73.178 25.7454 73.1124C25.7398 73.0468 25.7476 72.9808 25.7681 72.9183C25.7886 72.8557 25.8216 72.798 25.8649 72.7485C25.9082 72.6989 25.9611 72.6586 26.0204 72.63C26.1389 72.5733 26.2747 72.5645 26.3995 72.6055C26.5243 72.6465 26.6285 72.7341 26.6904 72.85C26.6904 72.94 30.9504 81.26 33.8504 86C35.5807 88.8154 37.1435 91.7305 38.5304 94.73C38.5812 94.8522 38.5824 94.9894 38.5339 95.1126C38.4854 95.2358 38.3909 95.3352 38.2704 95.39C38.2016 95.4216 38.1259 95.4354 38.0504 95.43Z" fill="#D1D3D4"/>
<path d="M95.5702 171.08C95.4426 171.08 95.3198 171.032 95.2268 170.944C95.1339 170.857 95.0779 170.737 95.0702 170.61C94.8163 167.235 94.2676 163.889 93.4302 160.61C93.4131 160.544 93.4092 160.476 93.4185 160.409C93.4279 160.342 93.4504 160.277 93.4847 160.218C93.5191 160.16 93.5646 160.109 93.6188 160.068C93.6729 160.027 93.7345 159.997 93.8002 159.98C93.8659 159.963 93.9342 159.959 94.0014 159.968C94.0686 159.978 94.1333 160 94.1918 160.035C94.2503 160.069 94.3015 160.114 94.3424 160.169C94.3833 160.223 94.4131 160.284 94.4302 160.35C95.2824 163.706 95.8445 167.128 96.1102 170.58C96.1133 170.711 96.0666 170.839 95.9794 170.937C95.8922 171.036 95.771 171.097 95.6402 171.11L95.5702 171.08Z" fill="#D1D3D4"/>
<path d="M90.7002 113.43C90.7002 113.43 94.8902 121.2 94.7002 123.99C94.5102 126.78 94.7002 140.99 94.7002 140.99C94.7002 140.99 98.6002 125.72 98.3402 123.44C98.1056 121.653 97.7718 119.88 97.3402 118.13C98.4311 118.274 99.4521 118.748 100.267 119.487C101.082 120.227 101.651 121.198 101.9 122.27V115.54L90.7002 113.43Z" fill="#D1D3D4"/>
<path d="M94.7402 141.53H94.6802C94.56 141.515 94.4491 141.458 94.3682 141.368C94.2872 141.277 94.2418 141.161 94.2402 141.04C94.2402 140.45 94.0902 126.73 94.2402 123.96C94.3602 121.79 91.4102 115.8 90.2402 113.67C90.1985 113.586 90.1807 113.492 90.189 113.398C90.1972 113.305 90.2311 113.215 90.287 113.14C90.3428 113.064 90.4185 113.006 90.5055 112.97C90.5925 112.935 90.6876 112.925 90.7802 112.94L102 115.09C102.116 115.109 102.221 115.169 102.296 115.259C102.371 115.349 102.412 115.463 102.41 115.58V122.31C102.408 122.433 102.362 122.55 102.279 122.641C102.196 122.731 102.082 122.788 101.96 122.8C101.838 122.815 101.714 122.783 101.614 122.711C101.514 122.638 101.445 122.531 101.42 122.41C101.245 121.555 100.833 120.767 100.232 120.134C99.6311 119.501 98.8648 119.049 98.0202 118.83C98.3782 120.348 98.6586 121.883 98.8602 123.43C99.1202 125.73 95.6002 139.58 95.2002 141.16C95.1742 141.263 95.1152 141.355 95.0322 141.422C94.9492 141.489 94.8467 141.527 94.7402 141.53ZM91.6302 114.12C92.7402 116.29 95.3702 121.69 95.2402 124.02C95.1402 125.83 95.1702 132.65 95.2402 137.08C96.4802 131.98 98.0802 124.92 97.9302 123.54C97.6937 121.773 97.3599 120.02 96.9302 118.29C96.9132 118.21 96.9142 118.127 96.9333 118.048C96.9523 117.968 96.9888 117.894 97.0402 117.83C97.0955 117.77 97.1642 117.724 97.2408 117.696C97.3173 117.669 97.3994 117.66 97.4802 117.67C99.0525 117.914 100.478 118.734 101.48 119.97V115.97L91.6302 114.12Z" fill="#D1D3D4"/>
<path d="M11.88 243.41H11.82C11.7541 243.403 11.6904 243.382 11.6325 243.35C11.5746 243.318 11.5238 243.274 11.4828 243.222C11.4419 243.17 11.4117 243.11 11.394 243.046C11.3764 242.982 11.3716 242.916 11.38 242.85C11.45 242.25 18.46 182.25 18.13 172.28C17.8 162.31 11.44 105.14 11.38 104.57C11.3641 104.437 11.4015 104.304 11.484 104.199C11.5665 104.094 11.6874 104.026 11.82 104.01C11.9526 103.994 12.0861 104.031 12.1911 104.114C12.2961 104.196 12.3641 104.317 12.38 104.45C12.45 105.03 18.8 162.22 19.14 172.25C19.48 182.28 12.66 240.5 12.37 243C12.3509 243.116 12.2909 243.221 12.201 243.296C12.1111 243.371 11.9972 243.412 11.88 243.41Z" fill="#D1D3D4"/>
<path d="M46 242.91C46 242.91 48.85 225.5 50.65 217.07C52.45 208.64 53 192.4 53 192.4C53 192.4 57.5 214.4 57.13 221.16C56.76 227.92 57.13 242.43 57.13 242.43L46 242.91Z" fill="#D1D3D4"/>
<path d="M46.0003 243.41C45.9276 243.411 45.8556 243.396 45.7894 243.366C45.7232 243.336 45.6646 243.292 45.6176 243.236C45.5707 243.181 45.5368 243.115 45.5182 243.045C45.4996 242.975 45.4969 242.901 45.5103 242.83C45.5103 242.66 48.3803 225.31 50.1603 216.97C51.9403 208.63 52.4803 192.54 52.4803 192.38C52.4697 192.247 52.5122 192.116 52.5985 192.015C52.6847 191.913 52.8077 191.851 52.9403 191.84C53.0729 191.829 53.2043 191.872 53.3056 191.958C53.4068 192.044 53.4697 192.167 53.4803 192.3C53.6703 193.2 57.9903 214.4 57.6203 221.19C57.2503 227.98 57.6203 242.28 57.6203 242.42C57.623 242.485 57.6126 242.55 57.5898 242.611C57.567 242.672 57.5322 242.728 57.4875 242.776C57.4428 242.823 57.3891 242.861 57.3295 242.888C57.2698 242.914 57.2055 242.929 57.1403 242.93L46.0003 243.41ZM53.2903 196.58C53.0103 202 52.3603 211.43 51.1403 217.17C49.5503 224.61 47.1403 239.23 46.6003 242.39L56.6003 241.95C56.5403 239.36 56.2803 227.18 56.6003 221.14C56.8803 216.25 54.5703 203.26 53.2903 196.58Z" fill="#D1D3D4"/>
<path d="M260.79 242.43C260.79 242.43 263.21 227.51 260.79 221.16C259.428 217.819 258.422 214.343 257.79 210.79C257.79 210.79 264.23 220.18 265.04 224.79C265.85 229.4 268.26 236.87 268.8 238.79L270.23 231.88L280.88 242.51L260.79 242.43Z" fill="#D1D3D4"/>
<path d="M280.93 242.93H260.79C260.718 242.931 260.647 242.917 260.581 242.887C260.516 242.858 260.457 242.814 260.41 242.76C260.361 242.705 260.325 242.639 260.306 242.568C260.287 242.497 260.285 242.422 260.3 242.35C260.3 242.21 262.66 227.49 260.3 221.35C258.931 217.97 257.925 214.453 257.3 210.86C257.284 210.748 257.308 210.635 257.366 210.538C257.424 210.441 257.514 210.368 257.62 210.33C257.725 210.29 257.839 210.286 257.946 210.318C258.053 210.351 258.146 210.418 258.21 210.51C258.48 210.9 264.72 220.05 265.54 224.67C266.397 228.721 267.458 232.726 268.72 236.67L269.72 231.67C269.736 231.58 269.777 231.497 269.837 231.429C269.898 231.361 269.976 231.311 270.063 231.285C270.15 231.26 270.243 231.258 270.331 231.282C270.419 231.306 270.498 231.354 270.56 231.42L281.21 242.05C281.279 242.12 281.325 242.208 281.344 242.304C281.363 242.4 281.353 242.5 281.316 242.59C281.278 242.681 281.215 242.758 281.134 242.814C281.053 242.869 280.958 242.899 280.86 242.9L280.93 242.93ZM261.37 241.93H279.72L270.58 232.81L269.33 238.81C269.31 238.92 269.252 239.02 269.166 239.093C269.081 239.166 268.973 239.207 268.86 239.21C268.748 239.216 268.638 239.184 268.547 239.118C268.456 239.053 268.39 238.958 268.36 238.85C268.26 238.49 268.09 237.92 267.87 237.21C266.96 234.21 265.25 228.55 264.59 224.84C264.05 221.74 260.76 216.25 258.83 213.22C259.472 215.86 260.284 218.455 261.26 220.99C263.45 226.75 261.8 239.08 261.37 241.93Z" fill="#D1D3D4"/>
<path d="M270.28 196.93C270.28 196.93 276 211.5 276 221.16Z" fill="white"/>
<path d="M276 221.67C275.868 221.667 275.743 221.614 275.649 221.52C275.556 221.427 275.503 221.301 275.5 221.17C275.5 211.7 269.87 197.26 269.81 197.17C269.764 197.046 269.767 196.909 269.819 196.788C269.871 196.667 269.968 196.571 270.09 196.52C270.151 196.494 270.216 196.481 270.283 196.481C270.349 196.481 270.414 196.495 270.475 196.521C270.536 196.547 270.59 196.585 270.636 196.633C270.682 196.681 270.717 196.738 270.74 196.8C270.98 197.4 276.5 211.56 276.5 221.22C276.488 221.343 276.429 221.458 276.337 221.541C276.245 221.625 276.124 221.67 276 221.67Z" fill="#D1D3D4"/>
<path d="M174.7 2.86963C174.7 2.86963 165.18 3.30963 161.04 6.81963C156.9 10.3296 154.92 18.2896 147.58 17.0496C140.24 15.8096 132.3 35.4296 132.3 35.4296C132.3 35.4296 141.24 25.9196 150.91 29.0696C160.58 32.2196 161.16 30.8396 165.46 27.6796C169.76 24.5196 183.46 26.4996 183.46 26.4996L174.7 2.86963Z" fill="#7FF0B2"/>
<path d="M200 106.33C200 106.33 205.9 106.21 208.37 103.57C210.84 100.93 214.22 99.6798 214.97 100.25C215.72 100.82 216.26 105.66 215.77 106.18C215.28 106.7 200.58 113.98 200.25 114.08" fill="white"/>
<path d="M200.22 114.58C200.114 114.579 200.01 114.545 199.924 114.482C199.838 114.419 199.774 114.331 199.74 114.23C199.702 114.103 199.716 113.966 199.777 113.848C199.839 113.73 199.944 113.641 200.07 113.6C200.78 113.32 214.65 106.42 215.4 105.81C215.67 105.21 215.12 101.1 214.63 100.65C214.18 100.36 211.15 101.29 208.7 103.91C206.25 106.53 200.23 106.82 199.98 106.83C199.85 106.823 199.727 106.77 199.634 106.68C199.54 106.59 199.482 106.469 199.47 106.34C199.467 106.274 199.478 106.208 199.502 106.146C199.525 106.085 199.561 106.028 199.606 105.981C199.652 105.933 199.707 105.895 199.768 105.869C199.829 105.843 199.894 105.83 199.96 105.83C199.96 105.83 205.68 105.68 207.96 103.23C210.24 100.78 214.06 98.96 215.24 99.85C216.08 100.5 216.35 103.62 216.38 103.98C216.54 106.06 216.21 106.4 216.09 106.53C215.43 107.22 200.47 114.53 200.36 114.53L200.22 114.58Z" fill="#231F20"/>
<path d="M180.76 80.8696C180.76 80.8696 149.45 77.0596 143.52 78.6396C137.59 80.2196 136.89 87.4496 136.89 87.4496C134.527 88.729 132.414 90.4226 130.65 92.4496C128.08 95.5596 125.82 127.37 128.27 130.55C130.72 133.73 169.74 134.55 174.27 132.32C178.8 130.09 180.76 80.8696 180.76 80.8696Z" fill="#231F20"/>
<path d="M157.61 134C144.87 134 129.51 132.93 127.87 130.8C125.47 127.66 127.46 95.4597 130.27 92.0697C132.014 90.0541 134.099 88.3615 136.43 87.0697C136.62 85.6897 137.79 79.5997 143.43 78.0697C149.43 76.4797 179.58 80.1297 180.86 80.2797C180.986 80.2947 181.101 80.3567 181.182 80.4532C181.264 80.5497 181.306 80.6735 181.3 80.7997C181.1 85.8597 179.24 130.36 174.55 132.64C172.74 133.59 165.7 134 157.61 134ZM148.53 78.7297C146.895 78.6723 145.258 78.7964 143.65 79.0997C138.12 80.5797 137.39 87.4097 137.39 87.4797C137.379 87.5615 137.349 87.6395 137.302 87.7073C137.255 87.7751 137.193 87.8308 137.12 87.8697C134.824 89.1123 132.766 90.7508 131.04 92.7097C128.47 95.8097 126.47 127.33 128.66 130.19C130.66 132.77 169.27 134.19 174.08 131.81C177.17 130.31 179.49 100.23 180.25 81.2897C177.08 80.9297 158.25 78.7497 148.53 78.7497V78.7297Z" fill="#231F20"/>
<path d="M139.67 65.0898L183.14 69.8998C183.14 69.8998 187.22 70.4898 186.59 75.4998C185.96 80.5098 183.06 80.4998 183.06 80.4998L138.83 78.9998L139.67 65.0898Z" fill="#231F20"/>
<path d="M183.06 80.9997L138.82 79.5497C138.754 79.5486 138.688 79.5338 138.628 79.5063C138.568 79.4787 138.514 79.439 138.47 79.3897C138.424 79.3399 138.389 79.2815 138.367 79.2179C138.345 79.1544 138.336 79.0869 138.34 79.0197L139.19 65.0997C139.2 64.9657 139.261 64.8406 139.36 64.7497C139.412 64.7054 139.473 64.6727 139.538 64.6537C139.604 64.6347 139.672 64.6299 139.74 64.6397L183.2 69.4397C183.26 69.4397 187.78 70.1697 187.09 75.6097C186.4 81.0497 183.27 80.9997 183.06 80.9997ZM139.35 78.5697L183.07 79.9997C183.16 79.9997 185.53 79.9197 186.07 75.4797C186.61 71.0397 183.19 70.4797 183.07 70.4797L140.14 65.7297L139.35 78.5697Z" fill="#231F20"/>
<path d="M143.098 72.2783C143.331 68.436 141.791 65.216 139.658 65.0862C137.524 64.9565 135.605 67.9661 135.372 71.8085C135.138 75.6508 136.678 78.8708 138.812 79.0005C140.945 79.1303 142.864 76.1206 143.098 72.2783Z" fill="#231F20"/>
<path d="M139 79.5098H138.84C138.162 79.4045 137.525 79.1173 136.997 78.6789C136.468 78.2405 136.069 77.6671 135.84 77.0198C135.123 75.375 134.824 73.5782 134.97 71.7898C135.22 67.6098 137.32 64.4598 139.77 64.5898C142.22 64.7198 143.93 68.1398 143.68 72.3198C143.36 76.3998 141.33 79.5098 139 79.5098ZM139.58 65.5898C137.8 65.5898 136.14 68.4098 135.93 71.8498C135.795 73.47 136.063 75.0984 136.71 76.5898C137.28 77.7798 138.05 78.4598 138.9 78.5198C140.7 78.6298 142.44 75.7598 142.65 72.2598C142.86 68.7598 141.51 65.6998 139.65 65.5898H139.58Z" fill="#231F20"/>
<path d="M231 155.88C230.796 155.88 230.596 155.819 230.428 155.702C230.26 155.586 230.132 155.421 230.06 155.23L173 1.42981C172.909 1.1805 172.92 0.905064 173.032 0.66408C173.143 0.423095 173.346 0.236308 173.595 0.144808C173.845 0.0533082 174.12 0.064592 174.361 0.176176C174.602 0.28776 174.789 0.490504 174.88 0.739807L231.96 154.53C232.007 154.653 232.028 154.785 232.024 154.916C232.019 155.048 231.988 155.178 231.934 155.298C231.879 155.417 231.801 155.525 231.704 155.615C231.607 155.705 231.494 155.774 231.37 155.82C231.251 155.861 231.126 155.882 231 155.88Z" fill="#231F20"/>
<path d="M182.81 91.9999C182.81 91.9999 196.49 82.9999 196.81 82.1499C197.13 81.2999 197.3 78.7699 197.81 78.1499C198.32 77.5299 202.31 73.8699 203.26 73.8499C204.21 73.8299 204.72 74.9999 204.72 74.9999C204.72 74.9999 205.66 74.1999 206.11 75.1899C206.381 75.8618 206.463 76.5945 206.35 77.3099C206.35 77.3099 208.28 76.9299 207.89 78.0899C207.5 79.2499 203.31 84.8699 198.37 89.2799C193.43 93.6899 184.77 100.17 184.8 100.42" fill="white"/>
<path d="M184.8 100.87C184.677 100.871 184.558 100.826 184.466 100.745C184.374 100.664 184.315 100.552 184.3 100.43C184.3 100.04 184.3 100.04 188.2 96.9298C191.2 94.5898 195.2 91.3798 198.04 88.8498C202.94 84.4798 207.04 78.9398 207.42 77.8498C207.43 77.8071 207.43 77.7625 207.42 77.7198C207.091 77.64 206.748 77.64 206.42 77.7198C206.339 77.7371 206.255 77.7333 206.177 77.7088C206.098 77.6843 206.027 77.6399 205.97 77.5798C205.914 77.5226 205.872 77.453 205.847 77.3765C205.823 77.3001 205.817 77.219 205.83 77.1398C205.933 76.5238 205.868 75.8913 205.64 75.3098C205.64 75.2498 205.55 75.1298 205.47 75.1198C205.301 75.1276 205.139 75.1909 205.01 75.2998C204.95 75.3505 204.879 75.386 204.802 75.4035C204.726 75.4209 204.646 75.4196 204.57 75.3998C204.494 75.3794 204.424 75.3417 204.365 75.2896C204.306 75.2376 204.26 75.1726 204.23 75.0998C204.23 75.0998 203.88 74.2798 203.28 74.2798C202.68 74.2798 198.88 77.5598 198.21 78.3898C197.915 79.0912 197.726 79.8327 197.65 80.5898C197.568 81.1688 197.441 81.7406 197.27 82.2998C196.93 83.1798 188.27 88.9998 183.06 92.3898C182.95 92.4622 182.815 92.488 182.686 92.4618C182.557 92.4356 182.443 92.3594 182.37 92.2498C182.297 92.138 182.271 92.0021 182.297 91.8712C182.323 91.7403 182.4 91.6249 182.51 91.5498C187.58 88.2298 195.82 82.6598 196.36 81.8898C196.49 81.4065 196.59 80.9155 196.66 80.4198C196.731 79.4896 196.993 78.584 197.43 77.7598C197.83 77.2698 202 73.3098 203.26 73.2798C203.585 73.3051 203.899 73.4095 204.174 73.5838C204.449 73.7581 204.678 73.997 204.84 74.2798C205.094 74.1677 205.377 74.1363 205.65 74.1898C205.844 74.2386 206.023 74.333 206.172 74.4652C206.322 74.5975 206.438 74.7636 206.51 74.9498C206.747 75.5089 206.859 76.1128 206.84 76.7198C207.076 76.6914 207.315 76.7143 207.541 76.7868C207.767 76.8592 207.975 76.9797 208.15 77.1398C208.276 77.284 208.359 77.4616 208.387 77.6513C208.415 77.841 208.389 78.0349 208.31 78.2098C207.85 79.5698 203.46 85.3098 198.65 89.6198C195.8 92.1698 191.73 95.3798 188.76 97.7298C187.06 99.0798 185.45 100.35 185.17 100.64C185.131 100.709 185.076 100.767 185.01 100.811C184.944 100.854 184.868 100.881 184.79 100.89L184.8 100.87Z" fill="#231F20"/>
<path d="M206.48 105.28C206.67 105.03 208.42 102.09 209.76 100.28C211.1 98.4697 211.28 98.2197 211.86 98.7597C212.44 99.2997 209.94 104.15 209.94 104.15" fill="white"/>
<path d="M206.48 105.78C206.372 105.781 206.266 105.745 206.18 105.68C206.076 105.599 206.008 105.48 205.989 105.35C205.97 105.219 206.003 105.087 206.08 104.98C206.14 104.91 206.32 104.62 206.57 104.21C207.25 103.11 208.4 101.28 209.35 99.9798C210.3 98.6798 210.77 98.0498 211.35 97.9798C211.514 97.9735 211.678 98.0043 211.829 98.0701C211.979 98.1359 212.113 98.235 212.22 98.3598C212.46 98.5798 213.08 99.1598 210.4 104.36C210.37 104.418 210.33 104.47 210.28 104.512C210.23 104.555 210.172 104.587 210.109 104.606C210.047 104.626 209.981 104.633 209.916 104.626C209.851 104.62 209.788 104.601 209.73 104.57C209.612 104.51 209.523 104.406 209.482 104.28C209.441 104.155 209.451 104.018 209.51 103.9C210.394 102.378 211.067 100.743 211.51 99.0398L211.42 98.9798C211.32 99.0598 210.81 99.7498 210.22 100.56C209.28 101.83 208.15 103.64 207.48 104.73C207.2 105.18 207 105.5 206.94 105.58C206.886 105.649 206.815 105.703 206.735 105.738C206.655 105.773 206.567 105.787 206.48 105.78Z" fill="#231F20"/>
<path d="M150.75 158.41C150.75 158.41 144.5 181.35 131.27 196.13L123.66 192.58L137 155L150.75 158.41Z" fill="white"/>
<path d="M131.27 196.63C131.201 196.644 131.13 196.644 131.06 196.63L123.45 193C123.338 192.947 123.249 192.855 123.201 192.74C123.152 192.625 123.149 192.497 123.19 192.38L136.49 154.8C136.533 154.684 136.617 154.588 136.725 154.529C136.834 154.47 136.96 154.453 137.08 154.48L150.87 157.89C150.936 157.905 150.998 157.933 151.053 157.973C151.107 158.013 151.153 158.063 151.188 158.121C151.222 158.179 151.245 158.243 151.254 158.31C151.263 158.377 151.258 158.445 151.24 158.51C151.17 158.74 144.8 181.74 131.65 196.44C131.604 196.497 131.547 196.543 131.481 196.576C131.415 196.609 131.344 196.627 131.27 196.63ZM124.27 192.32L131.14 195.52C142.91 182.19 149.14 162.15 150.14 158.77L137.29 155.59L124.27 192.32Z" fill="#231F20"/>
<path d="M179 142.17C179 142.17 184.9 147.46 192.57 146.62C192.57 146.62 186.49 166.62 188.42 178.09L194.96 179.16C194.96 179.16 209.63 144.67 206.29 139.49C202.29 133.29 186.53 130.61 186.53 130.61L179 142.17Z" fill="white"/>
<path d="M194.92 179.66H194.83L188.3 178.59C188.196 178.574 188.099 178.527 188.023 178.453C187.948 178.379 187.898 178.284 187.88 178.18C186.14 167.82 190.77 150.9 191.88 147.18C184.45 147.64 178.88 142.75 178.66 142.54C178.571 142.459 178.513 142.35 178.497 142.231C178.48 142.112 178.506 141.991 178.57 141.89L186.1 130.33C186.154 130.249 186.229 130.186 186.318 130.147C186.407 130.108 186.504 130.095 186.6 130.11C187.25 130.23 202.6 132.91 206.7 139.22C207.25 140.07 208.92 142.66 202.34 161.43C199.12 170.61 195.44 179.26 195.41 179.35C195.369 179.445 195.301 179.526 195.213 179.581C195.126 179.637 195.023 179.664 194.92 179.66ZM188.81 177.66L194.61 178.61C198.75 168.81 208.42 143.78 205.83 139.77C202.3 134.31 188.97 131.59 186.73 131.17L179.62 142.08C180.95 143.13 186.11 146.82 192.48 146.13C192.562 146.124 192.645 146.138 192.721 146.169C192.797 146.2 192.865 146.248 192.92 146.31C192.971 146.376 193.005 146.452 193.021 146.534C193.037 146.616 193.033 146.7 193.01 146.78C193 147 187.11 166.39 188.81 177.65V177.66Z" fill="#231F20"/>
<path d="M178.45 86C182.39 88.94 187.45 107.84 187.45 107.84L205.28 104.54L206.78 112.2C206.78 112.2 196.67 119.79 183.57 118.69C173.33 111.89 171.87 105.44 171.87 105.44C171.87 105.44 172.85 88.21 178.45 86Z" fill="#7FF0B2"/>
<path d="M172.72 120.82L196.08 131.21L179.83 145.42L163.15 141.42L154.29 161.51L133.29 160.07C133.29 160.07 144.91 124.46 147.51 117.87L172.72 120.82Z" fill="white"/>
<path d="M154.29 162L133.29 160.56C133.215 160.55 133.143 160.526 133.078 160.488C133.013 160.45 132.956 160.4 132.91 160.34C132.866 160.276 132.838 160.203 132.827 160.127C132.817 160.05 132.825 159.973 132.85 159.9C132.96 159.55 144.5 124.21 147.08 117.68C147.118 117.576 147.19 117.489 147.285 117.432C147.38 117.376 147.491 117.354 147.6 117.37L172.83 120.32H172.97L196.34 130.71C196.416 130.747 196.482 130.802 196.532 130.87C196.583 130.937 196.616 131.016 196.63 131.1C196.639 131.183 196.628 131.267 196.599 131.345C196.569 131.423 196.522 131.493 196.46 131.55L180.16 145.8C180.097 145.85 180.025 145.885 179.947 145.904C179.869 145.923 179.788 145.925 179.71 145.91L163.43 142L154.75 161.7C154.71 161.788 154.645 161.864 154.564 161.917C154.482 161.97 154.387 161.999 154.29 162ZM134 159.6L154 161L162.71 141.24C162.758 141.134 162.841 141.049 162.945 140.998C163.049 140.947 163.167 140.933 163.28 140.96L179.71 144.9L195.19 131.38L172.61 121.38L147.84 118.48C145.21 125.2 135.47 155 134 159.6Z" fill="#231F20"/>
<path d="M178.45 86C178.23 85.34 156.68 78.56 149.7 84.45C142.72 90.34 145.25 124.91 145.25 124.91L162.91 126.43L172.72 120.86C172.72 120.86 184.83 105.48 178.45 86Z" fill="#7FF0B2"/>
<path d="M172.82 80.5296L176.82 80.2396C176.82 80.2396 177.82 66.4396 173.3 63.9096C168.78 61.3796 165.16 61.4896 162.74 63.7296C162.74 63.7296 159.97 59.7296 157.09 64.3296C154.21 68.9296 156.46 80.4196 156.46 80.4196L172.82 80.5296Z" fill="white"/>
<path d="M172.82 80.9998L156.48 80.8998C156.365 80.8998 156.253 80.86 156.164 80.7871C156.075 80.7143 156.013 80.6127 155.99 80.4998C155.9 80.0198 153.74 68.7998 156.69 64.0398C157.69 62.4398 158.81 61.6098 160.03 61.5798C160.572 61.5988 161.103 61.7356 161.587 61.9809C162.071 62.2261 162.495 62.5738 162.83 62.9998C165.48 60.8798 169.26 60.9998 173.56 63.4498C178.3 66.1098 177.38 79.6798 177.34 80.2498C177.331 80.3688 177.28 80.4805 177.195 80.5649C177.111 80.6492 176.999 80.7006 176.88 80.7098L172.88 80.9998H172.82ZM156.88 79.9098L172.8 80.0098L176.36 79.7498C176.6 75.7498 176.42 66.1998 173.07 64.3198C168.89 61.9798 165.44 61.8898 163.07 64.0698C163.019 64.119 162.957 64.1562 162.89 64.1787C162.822 64.2012 162.751 64.2084 162.68 64.1998C162.608 64.1948 162.538 64.1733 162.476 64.1369C162.413 64.1005 162.36 64.0501 162.32 63.9898C162.061 63.6105 161.727 63.2886 161.338 63.0442C160.949 62.7999 160.514 62.6384 160.06 62.5698C159.2 62.5698 158.35 63.2698 157.54 64.5698C155.07 68.5298 156.53 77.8798 156.88 79.9298V79.9098Z" fill="#231F20"/>
<path d="M168.4 83.7198L167.92 89.3298C167.92 89.3298 166.97 91.8298 163.29 90.6398C159.61 89.4498 159.29 86.8198 159.29 86.8198L160.79 72.5098L164.24 71.7998C164.954 70.397 165.421 68.8814 165.62 67.3198L166.62 71.3198C167.613 71.4837 168.615 71.5938 169.62 71.6498L171 68.8898C171 68.8898 170.8 71.8898 171.08 71.8898C171.982 72.1536 172.922 72.2618 173.86 72.2098C173.696 74.9843 173.362 77.7461 172.86 80.4798C172.14 83.3998 168.4 83.7198 168.4 83.7198Z" fill="white"/>
<path d="M165.12 91.4599C164.44 91.4499 163.766 91.3352 163.12 91.12C159.19 89.84 158.76 87.0099 158.75 86.8899C158.74 86.8506 158.74 86.8093 158.75 86.7699L160.24 72.4599C160.251 72.3535 160.296 72.2532 160.368 72.174C160.44 72.0948 160.535 72.0408 160.64 72.0199L163.86 71.3499C164.462 70.0454 164.873 68.6613 165.08 67.2399C165.099 67.1266 165.155 67.023 165.241 66.9466C165.326 66.8701 165.436 66.8254 165.55 66.82C165.664 66.8122 165.777 66.8452 165.868 66.913C165.96 66.9808 166.024 67.079 166.05 67.19L167.05 70.8499C167.49 70.9199 168.44 71.01 169.35 71.08L170.53 68.6699C170.583 68.5674 170.669 68.4858 170.775 68.4385C170.88 68.3913 170.998 68.3812 171.11 68.41C171.222 68.4379 171.32 68.5043 171.388 68.5976C171.456 68.6909 171.488 68.805 171.48 68.9199C171.423 69.7857 171.423 70.6542 171.48 71.5199C172.256 71.7233 173.059 71.8043 173.86 71.76C173.931 71.7568 174.001 71.7685 174.066 71.7944C174.132 71.8202 174.191 71.8596 174.24 71.91C174.289 71.9597 174.327 72.0193 174.351 72.0848C174.376 72.1504 174.385 72.2203 174.38 72.29C174.226 75.0918 173.892 77.8809 173.38 80.64C172.77 83.25 170.01 83.98 168.94 84.16L168.5 89.3799V89.51C168.202 90.14 167.718 90.6641 167.115 91.0124C166.511 91.3608 165.815 91.5169 165.12 91.4599ZM159.76 86.8C159.83 87.15 160.37 89.17 163.44 90.16C166.34 91.16 167.27 89.54 167.44 89.16L167.91 83.6299C167.921 83.5132 167.972 83.4038 168.054 83.32C168.136 83.2362 168.244 83.1832 168.36 83.1699C168.36 83.1699 171.76 82.84 172.36 80.36C172.849 77.8361 173.183 75.2847 173.36 72.72C172.547 72.7148 171.739 72.5936 170.96 72.36C170.72 72.29 170.5 72.2199 170.46 71.1299L170.14 71.7799C170.098 71.8688 170.029 71.9423 169.943 71.9906C169.857 72.0389 169.758 72.0597 169.66 72.05C166.71 71.84 166.52 71.7099 166.41 71.6299C166.313 71.5626 166.243 71.4636 166.21 71.3499L165.69 69.3499C165.473 70.2632 165.137 71.1441 164.69 71.97C164.616 72.0842 164.502 72.1663 164.37 72.1999L161.28 72.8399L159.76 86.8Z" fill="#231F20"/>
<path d="M162.32 76.2198C162.238 75.6941 161.98 75.2116 161.59 74.8498C161.216 74.5271 160.79 74.2701 160.33 74.0898C160.09 73.9609 159.823 73.8922 159.55 73.8898C159.361 73.887 159.174 73.9245 159 73.9998C158.573 74.1644 158.218 74.4765 158 74.8798C157.871 75.2208 157.827 75.5879 157.87 75.9498C157.891 76.343 157.958 76.7324 158.07 77.1098C158.335 77.8581 158.88 78.4746 159.59 78.8298C159.946 79.002 160.333 79.1021 160.727 79.1244C161.122 79.1467 161.517 79.0907 161.89 78.9598" fill="white"/>
<path d="M160.92 79.6696C160.193 79.6692 159.484 79.4415 158.892 79.0184C158.3 78.5953 157.856 77.9979 157.62 77.3096C157.487 76.8882 157.41 76.4512 157.39 76.0097C157.344 75.5681 157.406 75.1221 157.57 74.7096C157.825 74.1963 158.259 73.7942 158.79 73.5797C159.023 73.4716 159.274 73.4072 159.53 73.3896C159.877 73.3931 160.219 73.4752 160.53 73.6296C161.045 73.8362 161.521 74.1268 161.94 74.4896C162.402 74.9318 162.71 75.5099 162.82 76.1396C162.841 76.2707 162.809 76.4045 162.733 76.5128C162.656 76.621 162.54 76.6952 162.41 76.7197C162.345 76.7311 162.278 76.7296 162.214 76.7152C162.15 76.7007 162.089 76.6737 162.035 76.6355C161.981 76.5974 161.935 76.549 161.9 76.4931C161.865 76.4371 161.841 76.3748 161.83 76.3096C161.759 75.8907 161.555 75.5054 161.25 75.2096C160.918 74.9256 160.539 74.7022 160.13 74.5497C159.96 74.4492 159.767 74.394 159.57 74.3896C159.445 74.4016 159.323 74.4355 159.21 74.4896C158.903 74.6123 158.646 74.834 158.48 75.1197C158.383 75.3884 158.352 75.6765 158.39 75.9596C158.406 76.2994 158.467 76.6356 158.57 76.9596C158.789 77.5818 159.24 78.0946 159.83 78.3896C160.126 78.533 160.446 78.6165 160.774 78.6354C161.102 78.6543 161.43 78.6081 161.74 78.4996C161.864 78.4589 161.998 78.4679 162.115 78.5248C162.233 78.5817 162.323 78.682 162.367 78.8044C162.411 78.9268 162.406 79.0616 162.353 79.1803C162.299 79.2989 162.201 79.3919 162.08 79.4397C161.709 79.5801 161.317 79.6578 160.92 79.6696Z" fill="#231F20"/>
<path d="M168.88 74.6299C168.88 74.6299 170.73 77.6299 170.24 78.1499C169.75 78.6699 168.46 78.2399 168.46 78.2399" fill="white"/>
<path d="M169.42 78.89C169.044 78.8869 168.67 78.8296 168.31 78.72C168.185 78.6807 168.08 78.5937 168.018 78.4777C167.956 78.3616 167.943 78.2259 167.98 78.1C167.999 78.0371 168.029 77.9785 168.071 77.9277C168.112 77.8769 168.163 77.8348 168.221 77.8041C168.278 77.7733 168.342 77.7544 168.407 77.7486C168.472 77.7427 168.538 77.75 168.6 77.77C168.997 77.9014 169.422 77.9221 169.83 77.83C169.518 76.7888 169.057 75.7985 168.46 74.89C168.426 74.835 168.402 74.7736 168.392 74.7095C168.381 74.6454 168.383 74.5797 168.398 74.5164C168.413 74.4531 168.44 74.3935 168.478 74.3408C168.516 74.2882 168.565 74.2437 168.62 74.21C168.676 74.175 168.738 74.1515 168.803 74.1406C168.868 74.1298 168.934 74.1318 168.999 74.1467C169.063 74.1616 169.123 74.1889 169.177 74.2273C169.23 74.2656 169.276 74.3141 169.31 74.37C171.36 77.73 170.79 78.31 170.6 78.5C170.272 78.7769 169.849 78.9166 169.42 78.89Z" fill="#231F20"/>
<path d="M167.271 73.9843C167.538 73.9378 167.701 73.5958 167.636 73.2204C167.57 72.845 167.301 72.5783 167.034 72.6248C166.768 72.6713 166.605 73.0133 166.67 73.3887C166.736 73.7641 167.005 74.0308 167.271 73.9843Z" fill="#231F20"/>
<path d="M170.509 74.1357C170.776 74.0892 170.939 73.7472 170.874 73.3718C170.808 72.9964 170.539 72.7297 170.272 72.7762C170.006 72.8227 169.843 73.1647 169.908 73.5401C169.974 73.9155 170.243 74.1822 170.509 74.1357Z" fill="#231F20"/>
<path d="M170.51 79.7598C170.51 79.7598 165.39 82.0398 165.1 77.5098Z" fill="white"/>
<path d="M167.9 80.83C167.256 80.8479 166.62 80.6888 166.06 80.37C165.599 80.0592 165.224 79.6367 164.97 79.1418C164.717 78.6469 164.593 78.0958 164.61 77.54C164.602 77.4089 164.645 77.2799 164.731 77.1807C164.817 77.0815 164.939 77.0202 165.07 77.01C165.136 77.0045 165.202 77.0125 165.265 77.0334C165.328 77.0543 165.386 77.0878 165.435 77.1317C165.485 77.1756 165.525 77.2291 165.553 77.289C165.582 77.3488 165.597 77.4138 165.6 77.48C165.594 77.869 165.682 78.2538 165.856 78.6018C166.03 78.9499 166.285 79.251 166.6 79.48C167.95 80.29 170.3 79.27 170.33 79.26C170.391 79.2248 170.458 79.2029 170.528 79.1957C170.598 79.1884 170.669 79.196 170.736 79.2179C170.802 79.2397 170.864 79.2754 170.916 79.3226C170.968 79.3698 171.009 79.4275 171.038 79.4918C171.066 79.5561 171.08 79.6257 171.08 79.696C171.079 79.7662 171.064 79.8356 171.035 79.8996C171.006 79.9636 170.964 80.0207 170.911 80.0673C170.859 80.1139 170.797 80.1489 170.73 80.17C169.838 80.5702 168.877 80.7943 167.9 80.83Z" fill="#231F20"/>
<path d="M168.4 83.7197C168.4 83.7197 165.49 83.4097 164.22 82.4697C164.471 83.4779 164.945 84.4167 165.608 85.2165C166.271 86.0163 167.106 86.6565 168.05 87.0897L168.4 83.7197Z" fill="#231F20"/>
<path d="M168.05 87.5897C167.994 87.6 167.937 87.6 167.88 87.5897C166.854 87.1289 165.946 86.4384 165.228 85.5715C164.511 84.7046 164.002 83.6845 163.74 82.5897C163.719 82.4905 163.727 82.3871 163.764 82.2926C163.802 82.1982 163.867 82.1171 163.95 82.0597C164.035 82.003 164.134 81.9727 164.235 81.9727C164.337 81.9727 164.436 82.003 164.52 82.0597C165.742 82.6998 167.077 83.0939 168.45 83.2197C168.515 83.226 168.577 83.2449 168.635 83.2755C168.692 83.3061 168.742 83.3477 168.783 83.3979C168.824 83.4481 168.854 83.506 168.873 83.5681C168.891 83.6302 168.897 83.6953 168.89 83.7597L168.55 87.1297C168.544 87.2076 168.518 87.2827 168.476 87.3489C168.435 87.415 168.378 87.4701 168.31 87.5097C168.233 87.5609 168.143 87.5887 168.05 87.5897ZM165.11 83.4797C165.624 84.68 166.507 85.6853 167.63 86.3497L167.85 84.1497C166.917 84.0197 165.999 83.7953 165.11 83.4797Z" fill="#231F20"/>
<path d="M144.68 120.87C146.139 121.757 147.749 122.367 149.43 122.67C152.1 123.12 154.36 122.9 155 123.07C155.64 123.24 157.41 124.07 157.41 124.07L158 129C157.83 129.542 157.516 130.028 157.092 130.407C156.667 130.786 156.148 131.042 155.59 131.15C154.77 131.22 144.59 129.94 143.14 128.77C141.69 127.6 144.68 120.87 144.68 120.87Z" fill="#231F20"/>
<path d="M155.55 131.61C154.28 131.61 144.49 130.41 142.85 129.12C141.21 127.83 143.48 122.32 144.22 120.67C144.249 120.603 144.292 120.544 144.346 120.496C144.401 120.448 144.465 120.412 144.534 120.391C144.604 120.37 144.677 120.364 144.749 120.375C144.82 120.385 144.889 120.41 144.95 120.45C146.351 121.301 147.897 121.888 149.51 122.18C150.864 122.388 152.231 122.491 153.6 122.49C154.112 122.473 154.625 122.506 155.13 122.59C155.8 122.78 157.54 123.53 157.61 123.59C157.69 123.626 157.759 123.682 157.811 123.751C157.864 123.821 157.898 123.903 157.91 123.99L158.5 128.94C158.515 129.009 158.515 129.081 158.5 129.15C158.302 129.785 157.932 130.354 157.431 130.791C156.929 131.229 156.316 131.519 155.66 131.63L155.55 131.61ZM144.91 121.61C143.65 124.56 142.79 127.84 143.46 128.37C144.81 129.43 154.74 130.72 155.55 130.64C155.996 130.554 156.412 130.352 156.755 130.053C157.097 129.754 157.354 129.37 157.5 128.94L156.95 124.39C156.35 124.14 155.29 123.7 154.87 123.58C154.442 123.53 154.011 123.51 153.58 123.52C152.161 123.521 150.743 123.414 149.34 123.2C147.785 122.906 146.288 122.359 144.91 121.58V121.61Z" fill="#231F20"/>
<path d="M142.79 122C142.79 122 150.45 117.75 155.54 106.17C160.63 94.5899 154.78 80.2299 154.61 80.5099C153.627 81.0741 152.605 81.5654 151.55 81.9799C151.55 81.9799 156.24 90.9099 154.07 99.4399C151.9 107.97 142.16 119.27 142.22 119.15C142.28 119.03 142.79 122 142.79 122Z" fill="#231F20"/>
<path d="M142.79 122.49C142.714 122.489 142.639 122.472 142.57 122.44C142.5 122.405 142.439 122.355 142.392 122.292C142.346 122.229 142.314 122.157 142.3 122.08C142.1 120.96 141.87 119.7 141.78 119.39C141.748 119.321 141.731 119.246 141.731 119.17C141.731 119.094 141.748 119.019 141.78 118.95C141.808 118.883 141.849 118.822 141.9 118.77C142.29 118.34 151.51 107.59 153.61 99.2999C155.71 91.0099 151.18 82.2999 151.13 82.2099C151.103 82.145 151.089 82.0753 151.089 82.0049C151.089 81.9345 151.103 81.8648 151.13 81.7999C151.152 81.7351 151.187 81.6758 151.234 81.6258C151.281 81.5757 151.337 81.5363 151.4 81.5099C152.389 81.1231 153.351 80.6721 154.28 80.1599C154.312 80.1117 154.354 80.0705 154.402 80.0388C154.451 80.007 154.505 79.9854 154.562 79.9751C154.619 79.9648 154.677 79.9661 154.734 79.979C154.79 79.9919 154.843 80.016 154.89 80.0499C155.66 80.4599 161.01 95.0499 156.03 106.36C150.94 117.96 143.39 122.25 143.03 122.43C142.956 122.469 142.874 122.489 142.79 122.49ZM142.79 119.24C142.89 119.6 143 120.24 143.17 121.17C145.06 119.9 150.97 115.37 155.1 105.96C159.5 95.9599 155.53 83.6399 154.46 81.1999C154.07 81.4199 153.4 81.7399 152.25 82.1999C153.25 84.1999 156.5 91.9399 154.58 99.5199C152.7 106.86 144.81 117.14 142.77 119.24H142.79Z" fill="#231F20"/>
<path d="M173.31 82.8398C173.31 82.8398 176.96 94.9498 177.52 102.84C178.08 110.73 172.74 118.66 172.74 118.66C175.101 116.481 176.975 113.827 178.238 110.874C179.501 107.92 180.126 104.732 180.07 101.52C180.079 95.05 178.529 88.6733 175.55 82.9298L173.31 82.8398Z" fill="#231F20"/>
<path d="M172.74 119.14C172.614 119.14 172.493 119.094 172.4 119.01C172.313 118.929 172.258 118.82 172.245 118.703C172.232 118.585 172.262 118.467 172.33 118.37C172.33 118.29 177.56 110.46 177.02 102.86C176.48 95.2596 172.87 83.1096 172.83 82.9896C172.805 82.9138 172.799 82.833 172.813 82.7544C172.827 82.6759 172.86 82.602 172.91 82.5396C172.955 82.4746 173.017 82.4227 173.089 82.3894C173.161 82.356 173.241 82.3423 173.32 82.3496L175.57 82.4196C175.654 82.4185 175.736 82.4402 175.808 82.4825C175.881 82.5248 175.94 82.586 175.98 82.6596C179.021 88.4717 180.594 94.9399 180.56 101.5C180.627 104.783 179.991 108.043 178.696 111.061C177.401 114.079 175.476 116.786 173.05 119C172.966 119.08 172.856 119.13 172.74 119.14ZM174 83.3596C174.76 86.0096 177.56 95.9996 178 102.79C178.33 107.37 176.74 111.92 175.29 115.01C178.118 111.077 179.614 106.343 179.56 101.5C179.537 95.2147 178.062 89.0202 175.25 83.3996L174 83.3596Z" fill="#231F20"/>
<path d="M173.91 118C173.7 118 169.76 120.53 169.76 120.53C169.76 120.53 169.96 125.53 171.34 125.99C172.72 126.45 177.48 124.76 177.48 124.76L173.91 118Z" fill="#231F20"/>
<path d="M172 126.54C171.737 126.547 171.473 126.513 171.22 126.44C169.63 125.92 169.35 121.77 169.3 120.52C169.295 120.433 169.313 120.345 169.354 120.268C169.394 120.19 169.455 120.125 169.53 120.08C173.53 117.54 173.75 117.5 173.86 117.48C173.965 117.456 174.075 117.469 174.171 117.516C174.268 117.564 174.345 117.643 174.39 117.74L177.96 124.5C177.987 124.565 178.001 124.635 178.001 124.705C178.001 124.775 177.987 124.845 177.96 124.91C177.935 124.978 177.895 125.039 177.843 125.089C177.791 125.139 177.729 125.177 177.66 125.2C175.84 125.89 173.937 126.34 172 126.54ZM170.31 120.76C170.43 122.94 170.93 125.29 171.53 125.49C172.34 125.76 174.99 125.05 176.81 124.49L173.75 118.68C173 119 171.6 119.92 170.27 120.76H170.31Z" fill="#231F20"/>
<path d="M155.14 126.16C155.14 126.16 167.26 124.4 169.74 121.92L170.3 124.7C170.3 124.7 160.73 129.37 155.9 128.43L155.14 126.16Z" fill="#231F20"/>
<path d="M157.32 129.05C156.814 129.054 156.308 129.011 155.81 128.92C155.723 128.904 155.641 128.865 155.574 128.807C155.507 128.749 155.457 128.674 155.43 128.59L154.66 126.32C154.638 126.25 154.631 126.177 154.639 126.104C154.648 126.032 154.672 125.962 154.71 125.9C154.748 125.838 154.799 125.785 154.859 125.745C154.92 125.706 154.988 125.68 155.06 125.67C158.39 125.18 167.45 123.5 169.39 121.57C169.452 121.505 169.531 121.46 169.617 121.438C169.704 121.417 169.795 121.421 169.88 121.45C169.967 121.475 170.046 121.524 170.108 121.591C170.169 121.658 170.212 121.74 170.23 121.83L170.78 124.6C170.804 124.708 170.791 124.822 170.741 124.922C170.692 125.022 170.611 125.102 170.51 125.15C170.15 125.32 162.44 129.05 157.32 129.05ZM156.32 127.99C160.49 128.58 168.07 125.21 169.77 124.42L169.45 122.81C166.37 124.81 158.14 126.2 155.84 126.56L156.32 127.99Z" fill="#231F20"/>
<path d="M163.14 141.91C163.068 141.927 162.992 141.927 162.92 141.91C162.802 141.85 162.713 141.746 162.672 141.62C162.631 141.495 162.641 141.358 162.7 141.24C162.7 141.17 166.42 133.63 166.61 130.86C166.619 130.727 166.681 130.604 166.781 130.516C166.882 130.429 167.013 130.385 167.145 130.395C167.278 130.404 167.401 130.466 167.488 130.566C167.576 130.666 167.619 130.797 167.61 130.93C167.41 133.93 163.75 141.37 163.61 141.68C163.562 141.759 163.493 141.824 163.409 141.864C163.326 141.905 163.232 141.921 163.14 141.91Z" fill="#231F20"/>
<path d="M151 81.7396C150.92 81.7401 150.84 81.7194 150.77 81.6796C150.709 81.6498 150.655 81.6083 150.611 81.5573C150.566 81.5063 150.532 81.447 150.511 81.3828C150.489 81.3186 150.481 81.2507 150.486 81.1832C150.491 81.1157 150.509 81.0499 150.54 80.9896C150.692 80.6505 150.916 80.3482 151.196 80.1032C151.475 79.8581 151.804 79.6762 152.16 79.5696C153.099 79.3861 154.073 79.5609 154.89 80.0596C155.003 80.1318 155.084 80.2449 155.116 80.3754C155.148 80.5059 155.128 80.6435 155.06 80.7596C155.025 80.818 154.979 80.8689 154.924 80.9092C154.869 80.9494 154.807 80.9784 154.741 80.9942C154.675 81.01 154.606 81.0125 154.539 81.0014C154.472 80.9903 154.408 80.9659 154.35 80.9296C153.774 80.5923 153.1 80.4618 152.44 80.5596C152.217 80.6255 152.011 80.7405 151.838 80.8963C151.665 81.052 151.529 81.2445 151.44 81.4596C151.397 81.5402 151.334 81.6084 151.257 81.6575C151.18 81.7065 151.091 81.7348 151 81.7396Z" fill="white"/>
<path d="M158 129.48C157.87 129.48 157.745 129.43 157.65 129.341C157.555 129.252 157.498 129.13 157.49 129L157.24 125.76C157.261 125.648 157.319 125.546 157.404 125.47C157.489 125.393 157.596 125.347 157.71 125.338C157.823 125.329 157.937 125.358 158.033 125.419C158.129 125.481 158.201 125.573 158.24 125.68L158.49 128.92C158.501 129.056 158.458 129.191 158.37 129.296C158.282 129.401 158.157 129.467 158.02 129.48H158Z" fill="white"/>
<path d="M193.62 182.88H193.53L191.29 182.46C191.16 182.433 191.045 182.357 190.97 182.246C190.895 182.136 190.867 182.001 190.89 181.87C190.915 181.74 190.989 181.625 191.098 181.55C191.207 181.475 191.34 181.446 191.47 181.47L193.71 181.89C193.841 181.916 193.956 181.993 194.031 182.103C194.105 182.214 194.134 182.349 194.11 182.48C194.089 182.594 194.028 182.696 193.939 182.769C193.849 182.843 193.736 182.882 193.62 182.88Z" fill="#231F20"/>
<path d="M190.89 184.7V183.7H193.47C193.601 183.7 193.727 183.751 193.82 183.843C193.914 183.934 193.968 184.059 193.97 184.19C193.97 184.322 193.919 184.448 193.828 184.543C193.737 184.639 193.612 184.695 193.48 184.7H190.89Z" fill="#231F20"/>
<path d="M146.14 92.7699C146.14 92.7699 166.03 116.42 172.78 112.77C179.53 109.12 197.52 91.2099 197.52 91.2099L191.59 83.8799C191.59 83.8799 179.98 92.8799 171.2 99.5999C168.81 96.5199 151.85 81.1099 149.7 84.4399C148.168 87.056 146.972 89.8547 146.14 92.7699Z" fill="#7FF0B2"/>
<path d="M70.4004 242.61C70.4004 242.61 73.1904 234.75 76.7704 233.06C80.3504 231.37 88.9204 228.68 88.9204 228.68C87.4804 226.88 89.0904 216.86 101.07 215.51C105.53 215.01 118.97 204.8 118.97 204.8C118.97 204.8 138.3 201.28 141.25 201.8C144.2 202.32 146.09 194.2 150.75 192.18C156.83 189.53 160.81 196.09 160.81 196.09C160.81 196.09 168.76 184.73 170.45 184.16C173.95 182.96 206.82 186.25 206.74 189.16C206.66 192.07 205.43 205.65 205.43 205.65C205.43 205.65 213.69 204.91 216.95 210.81C220.21 216.71 230.46 232.7 230.46 232.7L233.31 238.89V242.54L70.4004 242.61Z" fill="white"/>
<path d="M233.31 243.11H70.4003C70.3204 243.109 70.2419 243.089 70.1708 243.053C70.0997 243.016 70.0379 242.964 69.9903 242.9C69.9461 242.833 69.9177 242.756 69.9073 242.677C69.8969 242.597 69.9048 242.516 69.9303 242.44C70.0503 242.11 72.8303 234.37 76.5503 232.61C79.6303 231.16 86.2203 229.01 88.2003 228.38C87.8183 226.637 88.0185 224.817 88.7703 223.2C89.6503 221.06 92.6203 215.96 101.02 215.01C105.28 214.53 118.53 204.5 118.67 204.4C118.732 204.351 118.804 204.316 118.88 204.3C119.67 204.16 138.33 200.76 141.34 201.3C142.47 201.5 143.61 199.75 144.92 197.7C146.4 195.4 148.08 192.79 150.55 191.7C155.79 189.42 159.55 193.58 160.81 195.2C162.81 192.42 168.67 184.2 170.29 183.66C173.29 182.66 202.57 185.18 206.64 188.18C206.816 188.283 206.963 188.429 207.068 188.603C207.172 188.778 207.232 188.976 207.24 189.18C207.17 191.8 206.24 202.49 205.98 205.13C207.98 205.08 214.49 205.34 217.39 210.58C220.6 216.39 230.78 232.28 230.88 232.44L233.77 238.69C233.785 238.759 233.785 238.83 233.77 238.9V242.55C233.779 242.617 233.773 242.685 233.754 242.75C233.735 242.815 233.703 242.876 233.66 242.928C233.617 242.981 233.564 243.024 233.504 243.055C233.444 243.086 233.378 243.105 233.31 243.11ZM71.1303 242.11H232.81V239.11L230 233C229.93 232.9 219.74 217 216.51 211.14C213.45 205.59 205.51 206.23 205.51 206.24C205.437 206.244 205.363 206.233 205.295 206.207C205.226 206.181 205.164 206.14 205.112 206.088C205.06 206.036 205.019 205.974 204.993 205.905C204.967 205.837 204.956 205.763 204.96 205.69C204.96 205.56 206.19 192.13 206.27 189.23C205.51 187.18 174.86 183.23 170.64 184.69C169.58 185.05 164.51 191.78 161.25 196.44C161.203 196.509 161.138 196.564 161.063 196.601C160.987 196.638 160.904 196.654 160.82 196.65C160.737 196.65 160.655 196.628 160.583 196.585C160.511 196.543 160.451 196.483 160.41 196.41C160.26 196.16 156.59 190.26 150.98 192.7C148.78 193.65 147.19 196.13 145.79 198.31C144.28 200.66 142.98 202.69 141.18 202.31C138.86 201.86 124.65 204.26 119.18 205.25C117.86 206.25 105.52 215.49 101.13 215.99C93.5403 216.84 90.7103 221.1 89.6903 223.56C88.7603 225.83 88.8703 227.79 89.3103 228.34C89.361 228.404 89.3956 228.479 89.4113 228.559C89.4269 228.639 89.4232 228.721 89.4003 228.8C89.3763 228.877 89.3337 228.948 89.2761 229.006C89.2186 229.063 89.148 229.106 89.0703 229.13C88.9803 229.13 80.4903 231.85 76.9803 233.5C74.2203 234.82 71.8803 240.21 71.1303 242.11Z" fill="#231F20"/>
<path d="M123.38 191.16C123.68 191.25 134.38 193.98 134.38 193.98L128.11 207.27C128.11 207.27 124.68 208.27 124.25 207.83C124.001 207.597 123.815 207.304 123.71 206.98C123.234 207.629 122.543 208.09 121.76 208.28C120.63 208.43 113.47 209.56 113.08 208.57C112.69 207.58 119.65 203.74 120.24 201.57C121.45 197 123.38 191.16 123.38 191.16Z" fill="#231F20"/>
<path d="M114.88 209.47C113.09 209.47 112.73 209.12 112.58 208.75C112.28 207.97 113.28 207.16 115.58 205.4C117.21 204.15 119.45 202.4 119.72 201.4C120.96 196.82 122.89 191.01 122.91 190.95C122.952 190.826 123.039 190.723 123.155 190.664C123.271 190.604 123.406 190.592 123.53 190.63L134.46 193.45C134.53 193.47 134.596 193.505 134.652 193.551C134.709 193.598 134.756 193.655 134.79 193.72C134.82 193.786 134.835 193.857 134.835 193.93C134.835 194.002 134.82 194.074 134.79 194.14L128.52 207.43C128.488 207.494 128.443 207.551 128.388 207.598C128.333 207.644 128.269 207.679 128.2 207.7C124.5 208.7 124.04 208.31 123.87 208.15C123.758 208.037 123.655 207.917 123.56 207.79C123.08 208.275 122.462 208.599 121.79 208.72L121.41 208.78C119.251 209.151 117.07 209.382 114.88 209.47ZM113.58 208.41C113.9 208.49 115.37 208.69 121.27 207.84L121.66 207.78C122.304 207.614 122.87 207.229 123.26 206.69C123.317 206.614 123.394 206.555 123.482 206.52C123.57 206.485 123.667 206.474 123.76 206.49C123.853 206.505 123.94 206.547 124.01 206.611C124.079 206.675 124.128 206.758 124.15 206.85C124.235 207.086 124.376 207.299 124.56 207.47C125.628 207.365 126.683 207.157 127.71 206.85L133.63 194.31L123.71 191.76C123.24 193.2 121.71 197.89 120.71 201.76C120.35 203.08 118.25 204.69 116.22 206.24C115.274 206.878 114.39 207.605 113.58 208.41Z" fill="#231F20"/>
<path d="M141.28 78.2098C141.16 78.2077 141.044 78.1654 140.95 78.0898C140.844 78.002 140.778 77.876 140.765 77.7392C140.751 77.6024 140.793 77.466 140.88 77.3598C145.01 72.3598 141.22 66.5698 141.18 66.5098C141.124 66.3963 141.111 66.2663 141.144 66.144C141.177 66.0218 141.254 65.9158 141.359 65.8458C141.465 65.7759 141.592 65.7469 141.717 65.7642C141.843 65.7814 141.958 65.8439 142.04 65.9398C142.04 66.0098 146.29 72.4598 141.68 78.0198C141.631 78.0784 141.57 78.1258 141.501 78.1586C141.432 78.1914 141.357 78.2088 141.28 78.2098Z" fill="white"/>
<path d="M136.27 129.28H136.22C136.084 129.265 135.959 129.196 135.873 129.089C135.787 128.983 135.746 128.846 135.76 128.71C135.76 128.54 137.62 111.29 140.31 100.03C141.31 95.7597 141.15 92.6397 139.78 91.0297C139.457 90.6395 139.05 90.3271 138.589 90.1159C138.129 89.9047 137.627 89.8 137.12 89.8097C137.008 89.7885 136.906 89.7311 136.83 89.6463C136.754 89.5614 136.707 89.4539 136.698 89.3403C136.689 89.2266 136.718 89.1131 136.78 89.0172C136.841 88.9214 136.933 88.8485 137.04 88.8097C137.704 88.7918 138.364 88.9226 138.972 89.1925C139.579 89.4624 140.118 89.8646 140.55 90.3697C142.18 92.2797 142.43 95.6197 141.31 100.31C138.64 111.5 136.81 128.69 136.79 128.86C136.767 128.98 136.702 129.088 136.606 129.164C136.511 129.241 136.392 129.282 136.27 129.28Z" fill="white"/>
<path d="M169.7 113.74C163.56 113.74 153.16 101.86 148.88 96.6498L148.74 96.4698C148.672 96.3695 148.642 96.2478 148.657 96.1273C148.672 96.0068 148.73 95.8958 148.821 95.815C148.911 95.7342 149.028 95.6891 149.149 95.6882C149.271 95.6872 149.388 95.7305 149.48 95.8098L149.65 96.0198C156.55 104.44 165.55 113.23 170.09 112.72C176.65 111.97 193.45 94.4598 193.62 94.2898C193.714 94.2144 193.833 94.1757 193.953 94.1806C194.074 94.1855 194.188 94.2339 194.276 94.3167C194.364 94.3995 194.418 94.5112 194.43 94.6312C194.442 94.7513 194.41 94.8715 194.34 94.9698C193.64 95.7098 177.12 112.92 170.21 113.71L169.7 113.74Z" fill="#231F20"/>
<path d="M171.2 100.06C171.125 100.061 171.05 100.044 170.982 100.011C170.914 99.9782 170.855 99.9297 170.81 99.8697C170.3 99.2297 161.26 91.6697 155.3 86.7397C155.241 86.7007 155.192 86.6497 155.154 86.5902C155.116 86.5306 155.092 86.4638 155.082 86.3941C155.072 86.3244 155.077 86.2533 155.096 86.1856C155.115 86.1179 155.149 86.055 155.194 86.0012C155.24 85.9473 155.296 85.9036 155.359 85.873C155.423 85.8423 155.492 85.8255 155.562 85.8234C155.633 85.8214 155.703 85.8343 155.768 85.8612C155.833 85.8881 155.892 85.9285 155.94 85.9797C157.35 87.1497 168.99 96.7697 171.25 98.9097L190 84.5897C190.051 84.5447 190.111 84.5107 190.176 84.4898C190.241 84.4689 190.31 84.4616 190.378 84.4682C190.446 84.4748 190.512 84.4952 190.571 84.5283C190.631 84.5613 190.683 84.6062 190.725 84.6602C190.767 84.7143 190.797 84.7763 190.814 84.8424C190.831 84.9086 190.834 84.9774 190.823 85.0448C190.812 85.1122 190.788 85.1767 190.751 85.2343C190.714 85.2919 190.666 85.3413 190.61 85.3797L171.5 99.9997C171.409 100.053 171.304 100.074 171.2 100.06Z" fill="#231F20"/>
<path d="M184.8 109.35C184.699 109.349 184.6 109.318 184.516 109.261C184.433 109.204 184.368 109.124 184.33 109.03C184.284 108.908 184.287 108.772 184.34 108.653C184.392 108.533 184.489 108.439 184.61 108.39L187.26 107.39C187.322 107.355 187.391 107.334 187.462 107.328C187.532 107.321 187.604 107.33 187.671 107.354C187.738 107.378 187.799 107.415 187.851 107.464C187.902 107.514 187.942 107.573 187.969 107.639C187.995 107.705 188.008 107.776 188.005 107.847C188.002 107.918 187.983 107.988 187.951 108.051C187.919 108.115 187.874 108.171 187.819 108.215C187.763 108.26 187.699 108.292 187.63 108.31L185 109.31C184.938 109.341 184.869 109.354 184.8 109.35Z" fill="#231F20"/>
<path d="M138 158.3H137.85C137.788 158.28 137.731 158.249 137.681 158.207C137.631 158.165 137.59 158.114 137.56 158.057C137.531 157.999 137.513 157.936 137.507 157.871C137.502 157.806 137.51 157.741 137.53 157.68L145.66 132.13C145.699 132.004 145.786 131.899 145.902 131.837C146.018 131.776 146.154 131.762 146.28 131.8C146.406 131.841 146.511 131.93 146.573 132.048C146.635 132.165 146.648 132.302 146.61 132.43L138.43 158C138.394 158.085 138.335 158.159 138.259 158.212C138.182 158.265 138.093 158.295 138 158.3Z" fill="#231F20"/>
<path d="M179 142.66H178.9L165.49 139.79C165.426 139.777 165.365 139.751 165.311 139.714C165.257 139.677 165.211 139.63 165.176 139.575C165.14 139.52 165.116 139.459 165.105 139.394C165.094 139.33 165.095 139.264 165.11 139.2C165.123 139.136 165.149 139.074 165.186 139.02C165.222 138.966 165.27 138.919 165.324 138.883C165.379 138.846 165.441 138.821 165.505 138.809C165.569 138.796 165.636 138.797 165.7 138.81L179.11 141.69C179.243 141.705 179.364 141.771 179.448 141.875C179.531 141.979 179.57 142.112 179.555 142.245C179.541 142.378 179.474 142.499 179.37 142.582C179.266 142.666 179.133 142.705 179 142.69V142.66Z" fill="#231F20"/>
<path d="M212.45 101.05C212.337 101.103 212.238 101.182 212.16 101.28C212.084 101.415 212.064 101.575 212.106 101.725C212.147 101.875 212.245 102.002 212.38 102.08C212.655 102.233 212.966 102.309 213.28 102.3C213.026 102.32 212.781 102.406 212.57 102.55C212.464 102.621 212.387 102.727 212.353 102.85C212.318 102.972 212.327 103.103 212.38 103.22C212.6 103.6 213.21 103.4 213.58 103.63C213.328 103.649 213.082 103.71 212.85 103.81C212.736 103.865 212.638 103.947 212.561 104.047C212.485 104.148 212.433 104.265 212.41 104.39C212.407 104.551 212.453 104.709 212.543 104.843C212.632 104.977 212.76 105.08 212.91 105.14C213.211 105.247 213.531 105.294 213.85 105.28C213.39 105.36 212.85 105.69 212.85 106.16C212.85 106.63 213.35 106.87 213.78 106.96C214.409 107.108 215.066 107.081 215.68 106.88C215.922 106.814 216.149 106.701 216.346 106.546C216.544 106.392 216.708 106.199 216.83 105.98C216.938 105.71 216.986 105.42 216.97 105.13C216.991 104.112 216.842 103.098 216.53 102.13C216.31 101.42 215.84 100.4 214.98 100.33C214.092 100.369 213.226 100.616 212.45 101.05Z" fill="white"/>
<path d="M214.63 107.56C214.323 107.558 214.018 107.521 213.72 107.45C213.392 107.414 213.085 107.271 212.846 107.044C212.608 106.816 212.451 106.516 212.4 106.19C212.387 105.958 212.446 105.727 212.57 105.53C212.358 105.415 212.184 105.241 212.067 105.031C211.95 104.82 211.896 104.58 211.91 104.34C211.937 104.116 212.027 103.904 212.17 103.73C212.076 103.66 211.998 103.572 211.94 103.47C211.863 103.312 211.828 103.136 211.841 102.96C211.853 102.785 211.911 102.616 212.01 102.47C211.792 102.289 211.643 102.038 211.59 101.76C211.544 101.502 211.602 101.236 211.75 101.02C211.875 100.861 212.036 100.734 212.22 100.65C213.096 100.171 214.073 99.9076 215.07 99.8799C215.95 99.9599 216.64 100.7 217.07 102.03C217.392 103.048 217.548 104.112 217.53 105.18C217.535 105.523 217.47 105.863 217.34 106.18C217.195 106.467 216.991 106.721 216.741 106.925C216.491 107.128 216.201 107.276 215.89 107.36C215.483 107.492 215.058 107.56 214.63 107.56ZM212.56 101.56C212.56 101.56 212.61 101.63 212.66 101.66C212.864 101.751 213.086 101.795 213.31 101.79C213.431 101.797 213.545 101.847 213.631 101.932C213.718 102.016 213.771 102.129 213.78 102.25C213.787 102.373 213.75 102.494 213.674 102.592C213.599 102.689 213.491 102.756 213.37 102.78C213.195 102.795 213.025 102.846 212.87 102.93C212.87 102.93 212.98 102.93 213.08 102.99C213.345 102.997 213.605 103.066 213.84 103.19C213.927 103.245 213.996 103.325 214.037 103.419C214.078 103.514 214.09 103.619 214.07 103.72C214.051 103.821 214 103.914 213.925 103.984C213.849 104.055 213.753 104.099 213.65 104.11C213.453 104.123 213.26 104.171 213.08 104.25C212.98 104.25 212.91 104.38 212.91 104.43C212.91 104.48 212.99 104.61 213.12 104.67C213.359 104.747 213.609 104.781 213.86 104.77C213.983 104.769 214.102 104.816 214.193 104.899C214.284 104.982 214.34 105.097 214.35 105.22C214.362 105.345 214.327 105.47 214.251 105.57C214.175 105.67 214.064 105.738 213.94 105.76C213.66 105.76 213.39 105.99 213.4 106.12C213.41 106.25 213.65 106.4 213.94 106.47C214.48 106.592 215.043 106.568 215.57 106.4C215.922 106.303 216.225 106.078 216.42 105.77C216.5 105.56 216.534 105.334 216.52 105.11C216.539 104.15 216.4 103.194 216.11 102.28C215.97 101.86 215.6 100.88 214.99 100.83C214.179 100.867 213.388 101.093 212.68 101.49L212.56 101.56Z" fill="#231F20"/>
<path d="M186.84 175.19L184.84 185.99L191.84 187.12L191.89 185.93C192.646 186.167 193.387 186.448 194.11 186.77C195.43 187.35 203.17 187.62 203.17 187.62C203.17 187.62 204.7 185.38 201.72 183.53C198.74 181.68 196.25 183.06 195.56 182.36C194.87 181.66 197.28 176.17 197 176.36C196.72 176.55 186.84 175.19 186.84 175.19Z" fill="#231F20"/>
<path d="M203.14 188.12C202.34 188.12 195.27 187.83 193.9 187.23C193.26 186.95 192.73 186.75 192.35 186.61V187.14C192.346 187.211 192.327 187.281 192.294 187.344C192.261 187.408 192.216 187.464 192.16 187.51C192.107 187.555 192.044 187.587 191.977 187.605C191.909 187.622 191.839 187.624 191.77 187.61L184.77 186.48C184.704 186.471 184.641 186.449 184.584 186.414C184.527 186.38 184.478 186.334 184.44 186.28C184.401 186.226 184.373 186.164 184.359 186.098C184.345 186.033 184.346 185.965 184.36 185.9L186.36 175.1C186.385 174.974 186.456 174.862 186.561 174.788C186.665 174.714 186.793 174.682 186.92 174.7C190.4 175.19 196.12 175.97 196.83 175.91C196.907 175.884 196.989 175.877 197.069 175.889C197.149 175.901 197.225 175.932 197.29 175.98C197.63 176.22 197.58 176.37 197.09 177.74C196.75 178.68 195.73 181.53 195.93 182.06C196.282 182.106 196.638 182.106 196.99 182.06C198.729 181.84 200.491 182.213 201.99 183.12C202.479 183.377 202.909 183.733 203.253 184.165C203.597 184.597 203.848 185.096 203.99 185.63C204.137 186.415 203.988 187.228 203.57 187.91C203.522 187.978 203.457 188.033 203.382 188.069C203.307 188.106 203.224 188.123 203.14 188.12ZM191.86 185.43H192C192.777 185.674 193.538 185.965 194.28 186.3C195.16 186.68 199.76 186.98 202.84 187.09C203.026 186.683 203.079 186.228 202.99 185.79C202.869 185.391 202.668 185.02 202.4 184.701C202.132 184.381 201.802 184.119 201.43 183.93C200.111 183.141 198.563 182.823 197.04 183.03C196.23 183.03 195.6 183.12 195.18 182.69C194.59 182.09 195.02 180.5 196.18 177.38C196.24 177.2 196.31 177.02 196.37 176.85C195.29 176.79 192.88 176.52 187.29 175.73L185.46 185.56L191.38 186.56V185.93C191.381 185.854 191.4 185.779 191.434 185.711C191.469 185.643 191.519 185.585 191.58 185.54C191.661 185.476 191.758 185.438 191.86 185.43Z" fill="#231F20"/>
<path d="M160.81 196.13C160.81 196.13 148.7 218.38 144.81 226.23L156.81 192.4L160.81 196.13Z" fill="#231F20"/>
<path d="M144.8 226.73C144.737 226.739 144.673 226.739 144.61 226.73C144.495 226.677 144.403 226.584 144.351 226.468C144.299 226.352 144.292 226.221 144.33 226.1L156.33 192.27C156.359 192.194 156.406 192.126 156.467 192.072C156.528 192.018 156.601 191.979 156.68 191.96C156.76 191.938 156.844 191.937 156.925 191.956C157.005 191.975 157.079 192.014 157.14 192.07L161.14 195.81C161.218 195.887 161.269 195.986 161.287 196.094C161.305 196.202 161.289 196.312 161.24 196.41C161.11 196.63 149.08 218.74 145.24 226.49C145.194 226.564 145.129 226.626 145.052 226.668C144.975 226.71 144.888 226.731 144.8 226.73ZM157 193.28L147.72 219.44C152.34 210.64 158.98 198.44 160.17 196.24L157 193.28Z" fill="#231F20"/>
<path d="M206.74 231C206.638 231 206.537 230.968 206.453 230.909C206.369 230.85 206.305 230.767 206.27 230.67C203.27 222.31 204.86 206.31 204.93 205.67C204.937 205.604 204.956 205.54 204.987 205.482C205.018 205.424 205.06 205.372 205.112 205.33C205.163 205.288 205.222 205.257 205.285 205.238C205.348 205.219 205.415 205.213 205.48 205.22C205.546 205.226 205.61 205.245 205.668 205.277C205.727 205.308 205.778 205.35 205.82 205.401C205.862 205.452 205.893 205.511 205.912 205.575C205.931 205.638 205.937 205.704 205.93 205.77C205.93 205.94 204.25 222.21 207.21 230.36C207.234 230.422 207.245 230.487 207.243 230.553C207.24 230.619 207.225 230.684 207.197 230.744C207.169 230.804 207.129 230.857 207.08 230.901C207.03 230.945 206.973 230.979 206.91 231C206.854 231.01 206.797 231.01 206.74 231Z" fill="#231F20"/>
<path d="M192.18 234.57C192.052 234.573 191.927 234.525 191.834 234.437C191.74 234.349 191.685 234.228 191.68 234.1C191.68 234 191.58 231.4 193.68 223.32C195.78 215.24 199.61 200.09 199.68 199.94C199.696 199.876 199.725 199.816 199.765 199.764C199.804 199.711 199.854 199.667 199.91 199.633C199.967 199.6 200.03 199.578 200.095 199.569C200.16 199.56 200.226 199.563 200.29 199.58C200.415 199.615 200.522 199.697 200.589 199.809C200.656 199.92 200.678 200.053 200.65 200.18C200.65 200.34 196.78 215.56 194.65 223.57C192.52 231.58 192.65 234.03 192.65 234.05C192.654 234.115 192.645 234.18 192.623 234.242C192.602 234.304 192.568 234.36 192.524 234.409C192.481 234.457 192.428 234.497 192.368 234.524C192.309 234.552 192.245 234.567 192.18 234.57Z" fill="#231F20"/>
<path d="M137.21 217.57H137.07C136.943 217.533 136.835 217.447 136.772 217.33C136.708 217.214 136.693 217.077 136.73 216.95C137.35 214.84 140.91 209.3 141.06 209.06C141.133 208.95 141.247 208.874 141.376 208.848C141.505 208.822 141.64 208.848 141.75 208.92C141.805 208.954 141.852 209 141.889 209.053C141.926 209.106 141.953 209.165 141.967 209.229C141.981 209.292 141.982 209.357 141.971 209.421C141.959 209.485 141.935 209.546 141.9 209.6C141.9 209.66 138.26 215.25 137.69 217.23C137.655 217.329 137.59 217.415 137.504 217.476C137.418 217.537 137.315 217.57 137.21 217.57Z" fill="#231F20"/>
<path d="M147.74 242.43C147.74 242.43 151.29 234.8 153.82 231.43C156.001 228.159 157.946 224.737 159.64 221.19C159.64 221.19 157.52 229.3 156.81 234.11C156.376 236.962 156.834 239.878 158.12 242.46L147.74 242.43Z" fill="#231F20"/>
<path d="M158.12 242.93H147.74C147.657 242.928 147.575 242.906 147.502 242.866C147.429 242.826 147.367 242.769 147.32 242.7C147.281 242.626 147.26 242.543 147.26 242.46C147.26 242.376 147.281 242.294 147.32 242.22C147.47 241.91 150.92 234.5 153.45 231.1C155.601 227.872 157.522 224.497 159.2 221C159.257 220.893 159.35 220.811 159.463 220.768C159.575 220.725 159.7 220.724 159.813 220.766C159.926 220.807 160.021 220.888 160.079 220.993C160.137 221.099 160.155 221.222 160.13 221.34C160.13 221.42 158 229.47 157.3 234.2C156.906 236.932 157.345 239.72 158.56 242.2C158.602 242.275 158.624 242.359 158.624 242.445C158.624 242.531 158.602 242.615 158.56 242.69C158.517 242.767 158.453 242.831 158.375 242.873C158.297 242.916 158.209 242.935 158.12 242.93ZM148.53 241.93H157.33C156.273 239.429 155.927 236.685 156.33 234C156.7 231.46 157.48 228 158.12 225.26C156.971 227.492 155.671 229.644 154.23 231.7C152.078 234.963 150.173 238.383 148.53 241.93Z" fill="#231F20"/>
<path d="M76.77 233.06C76.77 233.06 88.77 231.8 91.28 231.8C93.79 231.8 130.28 237.62 129.28 236.86C128.28 236.1 93.08 226.99 91.56 226.23C90.04 225.47 90.48 221.16 90.48 221.16C89.5381 222.139 88.8933 223.365 88.6207 224.697C88.3481 226.028 88.4589 227.409 88.94 228.68C83.88 229.33 76.77 233.06 76.77 233.06Z" fill="#231F20"/>
<path d="M128.92 237.4C127.4 237.4 122.79 236.76 108.06 234.6C100.34 233.47 92.36 232.3 91.28 232.3C88.81 232.3 76.94 233.55 76.82 233.56C76.7048 233.571 76.5895 233.541 76.4936 233.476C76.3977 233.412 76.3273 233.316 76.2942 233.205C76.2612 233.094 76.2677 232.975 76.3125 232.868C76.3573 232.762 76.4377 232.674 76.54 232.62C76.82 232.48 83.24 229.12 88.24 228.27C86.9 224.03 90.08 220.84 90.11 220.81C90.1825 220.739 90.2753 220.692 90.3757 220.676C90.476 220.66 90.5789 220.675 90.67 220.72C90.7643 220.762 90.8424 220.833 90.8928 220.924C90.9433 221.014 90.9633 221.118 90.95 221.22C90.79 222.86 90.95 225.37 91.76 225.78C92.41 226.11 100.57 228.32 108.46 230.45C122.38 234.22 129 236.04 129.56 236.45C129.651 236.524 129.717 236.624 129.75 236.736C129.782 236.849 129.778 236.969 129.74 237.08C129.67 237.27 129.61 237.4 128.92 237.4ZM91.28 231.3C92.43 231.3 99.74 232.37 108.21 233.62C113.97 234.46 120.64 235.44 124.88 235.99C120.68 234.79 113.98 232.99 108.2 231.42C98.2 228.7 92 227.02 91.31 226.67C90.16 226.1 89.91 224.18 89.89 222.73C89.3505 223.579 89.0226 224.546 88.9339 225.548C88.8451 226.55 88.9981 227.559 89.38 228.49C89.4143 228.558 89.4322 228.634 89.4322 228.71C89.4322 228.786 89.4143 228.862 89.38 228.93C89.3408 228.996 89.2871 229.051 89.2229 229.093C89.1588 229.135 89.0859 229.161 89.01 229.17C85.7405 229.788 82.5666 230.834 79.57 232.28C83.26 231.9 89.5 231.3 91.28 231.3Z" fill="#231F20"/>
<path d="M208.81 205.88C208.76 206.73 206.1 212.75 205.28 223.29L205.43 205.72L208.81 205.88Z" fill="#231F20"/>
<path d="M205.28 223.78C205.152 223.775 205.031 223.719 204.943 223.626C204.855 223.532 204.807 223.408 204.81 223.28L204.96 205.71C204.967 205.577 205.024 205.452 205.12 205.36C205.217 205.268 205.346 205.217 205.48 205.22L208.87 205.38C209.002 205.391 209.126 205.448 209.22 205.54C209.306 205.643 209.349 205.776 209.34 205.91C209.253 206.422 209.115 206.924 208.93 207.41C207.25 212.571 206.199 217.917 205.8 223.33C205.788 223.457 205.727 223.575 205.63 223.658C205.533 223.742 205.408 223.786 205.28 223.78ZM205.92 206.24L205.84 215.24C206.371 212.475 207.076 209.746 207.95 207.07L208.19 206.31L205.92 206.24Z" fill="#231F20"/>
<path d="M172.26 192.4C170.845 194.416 169.671 196.591 168.76 198.88Z" fill="#231F20"/>
<path d="M168.76 199.38C168.714 199.39 168.666 199.39 168.62 199.38C168.557 199.362 168.498 199.331 168.447 199.29C168.396 199.249 168.353 199.198 168.322 199.14C168.29 199.083 168.27 199.02 168.263 198.954C168.256 198.889 168.262 198.823 168.28 198.76C169.205 196.42 170.403 194.198 171.85 192.14C171.931 192.048 172.042 191.988 172.164 191.973C172.285 191.957 172.408 191.987 172.509 192.056C172.61 192.125 172.682 192.229 172.712 192.347C172.742 192.466 172.727 192.591 172.67 192.7C171.282 194.675 170.131 196.806 169.24 199.05C169.204 199.147 169.138 199.231 169.052 199.29C168.966 199.349 168.864 199.38 168.76 199.38Z" fill="#231F20"/>
<path d="M107.23 218.13C107.23 218.13 103.69 218.89 102.17 221.13Z" fill="#231F20"/>
<path d="M102.17 221.66C102.071 221.663 101.973 221.635 101.89 221.58C101.782 221.505 101.708 221.391 101.683 221.261C101.659 221.132 101.687 220.999 101.76 220.89C103.37 218.47 106.98 217.67 107.13 217.64C107.263 217.612 107.401 217.638 107.514 217.712C107.628 217.786 107.707 217.902 107.735 218.035C107.763 218.167 107.737 218.306 107.663 218.419C107.589 218.533 107.473 218.612 107.34 218.64C107.34 218.64 103.97 219.39 102.58 221.47C102.532 221.532 102.47 221.582 102.398 221.615C102.327 221.648 102.249 221.663 102.17 221.66Z" fill="#231F20"/>
<path d="M302.59 45.9996V84.9996C264.02 84.5896 219.97 83.9496 219.67 83.1496L244.16 76.7696C243.332 76.0612 242.575 75.2742 241.9 74.4196C240.84 72.7496 242.9 70.7396 245.3 70.2296C247.7 69.7196 250.3 70.2896 252.73 70.8296C252.051 70.3681 251.499 69.7437 251.123 69.0135C250.748 68.2834 250.562 67.4708 250.582 66.6501C250.602 65.8294 250.827 65.0268 251.237 64.3157C251.647 63.6046 252.229 63.0077 252.93 62.5796C255.98 60.4696 261.42 60.5796 264.28 62.8196C262.66 58.9796 261.05 54.9596 261.91 50.9796C263.2 44.9796 270.51 39.9796 278.81 38.9796C287.11 37.9796 295.89 40.4996 301.47 45.0896C301.86 45.2996 302.23 45.6296 302.59 45.9996Z" fill="white"/>
<path d="M302.59 85.4298C219.69 84.5398 219.43 83.8298 219.22 83.2498C219.193 83.1849 219.179 83.1152 219.179 83.0448C219.179 82.9744 219.193 82.9047 219.22 82.8398C219.29 82.718 219.405 82.6283 219.54 82.5898L243.13 76.4498C242.515 75.8982 241.959 75.285 241.47 74.6198C241.26 74.2962 241.136 73.9249 241.108 73.5403C241.08 73.1558 241.149 72.7703 241.31 72.4198C241.706 71.6976 242.261 71.0747 242.934 70.5984C243.606 70.122 244.377 69.8045 245.19 69.6698C247.187 69.3568 249.226 69.4417 251.19 69.9198C250.47 68.9752 250.087 67.8173 250.1 66.6298C250.132 65.7248 250.382 64.8409 250.827 64.0526C251.273 63.2642 251.901 62.5945 252.66 62.0998C255.45 60.1698 260.09 59.9998 263.25 61.5198C261.92 58.2898 260.64 54.5198 261.44 50.8098C262.75 44.7198 270.03 39.4898 278.76 38.3698C286.9 37.3698 295.95 39.7698 301.81 44.5898C302.21 44.9098 302.59 45.2598 302.95 45.5898C303 45.6358 303.039 45.6915 303.067 45.7534C303.094 45.8153 303.109 45.8821 303.11 45.9498V84.9498C303.107 85.0815 303.053 85.2069 302.96 85.2998C302.858 85.3889 302.725 85.4354 302.59 85.4298ZM222.29 82.9098C228.18 83.2798 247.03 83.8298 302.09 84.4198V46.1798C301.79 45.8998 301.48 45.6298 301.16 45.3698C295.5 40.7098 286.75 38.3698 278.87 39.3698C270.54 40.4398 263.62 45.3698 262.4 51.0298C261.54 55.0298 263.32 59.1898 264.74 62.5698C264.783 62.6709 264.792 62.7836 264.765 62.8903C264.738 62.9969 264.676 63.0917 264.59 63.1598C264.501 63.2279 264.392 63.2648 264.28 63.2648C264.168 63.2648 264.059 63.2279 263.97 63.1598C261.3 61.0598 256.07 60.9498 253.21 62.9298C252.583 63.3363 252.062 63.8871 251.692 64.536C251.321 65.1849 251.111 65.9132 251.08 66.6598C251.084 67.3846 251.26 68.0981 251.594 68.7415C251.927 69.3848 252.409 69.9395 253 70.3598C253.093 70.428 253.16 70.5262 253.188 70.6378C253.217 70.7494 253.207 70.8676 253.159 70.9723C253.11 71.077 253.027 71.1618 252.924 71.2124C252.82 71.263 252.702 71.2762 252.59 71.2498C250.44 70.7698 247.76 70.1698 245.37 70.6498C244.716 70.7527 244.093 71 243.546 71.3736C243 71.7472 242.543 72.2378 242.21 72.8098C242.116 73.0113 242.074 73.2331 242.088 73.455C242.102 73.6768 242.172 73.8917 242.29 74.0798C242.936 74.8976 243.663 75.6481 244.46 76.3198C244.528 76.3794 244.579 76.4566 244.607 76.5429C244.635 76.6292 244.639 76.7215 244.618 76.8099C244.598 76.8983 244.554 76.9794 244.49 77.0445C244.427 77.1097 244.348 77.1565 244.26 77.1798L222.29 82.9098Z" fill="#D1D3D4"/>
<path d="M294.73 59.5297C294.623 59.5281 294.518 59.4924 294.432 59.4277C294.346 59.363 294.282 59.2727 294.25 59.1697C294.213 59.0437 294.226 58.908 294.288 58.792C294.35 58.6759 294.455 58.5889 294.58 58.5497C297.216 57.8119 299.982 57.6684 302.68 58.1297C302.811 58.1563 302.926 58.2329 303 58.3432C303.075 58.4534 303.104 58.5886 303.08 58.7197C303.054 58.8502 302.977 58.9651 302.867 59.0399C302.757 59.1146 302.621 59.1432 302.49 59.1197C299.956 58.694 297.36 58.8236 294.88 59.4997L294.73 59.5297Z" fill="#D1D3D4"/>
<path d="M263.88 75.13C263.79 75.1313 263.701 75.1077 263.623 75.0619C263.546 75.016 263.482 74.9496 263.44 74.87C263.44 74.8 259.44 67.48 266.44 60.32C273.44 53.16 280 57.91 280 58C280.096 58.0838 280.156 58.201 280.168 58.3277C280.181 58.4544 280.144 58.581 280.066 58.6817C279.989 58.7825 279.875 58.8497 279.75 58.8698C279.624 58.89 279.495 58.8614 279.39 58.79C279.16 58.62 273.61 54.49 267.17 61.06C260.73 67.63 264.26 74.36 264.29 74.42C264.323 74.4768 264.345 74.5398 264.354 74.6051C264.362 74.6705 264.357 74.7369 264.34 74.8004C264.322 74.8639 264.292 74.9231 264.25 74.9746C264.209 75.0261 264.158 75.0687 264.1 75.1C264.03 75.1286 263.955 75.1389 263.88 75.13Z" fill="#D1D3D4"/>
<path d="M267.5 48.9997C267.44 49.0093 267.38 49.0093 267.32 48.9997C267.259 48.9755 267.203 48.9394 267.156 48.8936C267.109 48.8478 267.071 48.7932 267.045 48.7328C267.019 48.6724 267.005 48.6075 267.004 48.5418C267.004 48.476 267.016 48.4108 267.04 48.3497C267.531 46.9629 268.427 45.7559 269.613 44.8856C270.799 44.0153 272.22 43.5219 273.69 43.4697C273.756 43.471 273.82 43.4853 273.881 43.5116C273.941 43.5379 273.995 43.5759 274.041 43.6232C274.086 43.6706 274.122 43.7264 274.146 43.7876C274.17 43.8488 274.181 43.9141 274.18 43.9797C274.18 44.0467 274.167 44.1129 274.14 44.1744C274.114 44.2359 274.075 44.2913 274.026 44.3373C273.977 44.3832 273.92 44.4186 273.857 44.4414C273.794 44.4642 273.727 44.4738 273.66 44.4697C272.406 44.5128 271.194 44.9342 270.184 45.6784C269.174 46.4226 268.413 47.4549 268 48.6397C267.967 48.746 267.901 48.8388 267.811 48.9038C267.72 48.9688 267.611 49.0025 267.5 48.9997Z" fill="#D1D3D4"/>
</svg>
