<svg width="68" height="61" viewBox="0 0 68 61" fill="none" xmlns="http://www.w3.org/2000/svg">
<path d="M19.3843 0C16.4942 0 13.2119 3.11276 9.53734 9.33827C3.17911 19.8815 0 30.1067 0 40.014C0 54.0047 4.72738 61 14.1822 61C17.6503 61 20.623 59.862 23.1002 57.586C25.6187 55.4104 26.878 52.6491 26.878 49.3021C26.878 42.4071 23.224 38.9597 15.9162 38.9597H11.8288C9.84699 38.9597 8.8561 37.5204 8.8561 34.642C8.8561 25.6719 12.9848 16.0658 21.2423 5.82387L22.5428 2.56049C22.5428 0.853499 21.49 0 19.3843 0ZM64.0984 2.56049C64.0984 0.853499 62.9217 0 60.5683 0C57.7608 0 54.5197 3.11276 50.8452 9.33827C44.3218 19.8815 41.0601 30.1067 41.0601 40.014C41.0601 54.0047 45.8081 61 55.3042 61C59.0613 61 62.1579 59.862 64.5938 57.586C66.8646 55.4104 68 52.6491 68 49.3021C68 45.7877 67.1536 43.2104 65.4608 41.5704C63.8094 39.8299 61.2083 38.9597 57.6576 38.9597H53.1985C51.4232 38.9597 50.5355 37.5204 50.5355 34.642C50.5355 25.5045 54.5404 15.8985 62.5501 5.82387L64.0984 2.56049Z" fill="#2D6848"/>
</svg>
