<svg width="20" height="20" viewBox="0 0 20 20" fill="none" xmlns="http://www.w3.org/2000/svg">
<circle cx="10" cy="10" r="10" fill="#7FF0B2" fill-opacity="0.25"/>
<path d="M14.3387 5.18558C14.0648 5.1956 13.8053 5.32259 13.6153 5.53956C11.5999 7.75846 10.0607 9.61169 8.19013 11.709L6.1976 9.85963C6.09188 9.76142 5.96955 9.6871 5.83763 9.64091C5.70571 9.59472 5.56679 9.57759 5.42883 9.59048C5.29087 9.60338 5.15658 9.64604 5.03366 9.71604C4.91074 9.78605 4.8016 9.88202 4.71249 9.99844C4.62339 10.1149 4.55607 10.2494 4.51439 10.3945C4.47271 10.5395 4.4575 10.6922 4.46962 10.8437C4.48173 10.9952 4.52095 11.1427 4.58501 11.2775C4.64907 11.4123 4.73673 11.532 4.84295 11.6296L7.57856 14.1725C7.77984 14.3587 8.03734 14.4553 8.30028 14.4433C8.56322 14.4313 8.8125 14.3114 8.99898 14.1074C11.2653 11.6124 12.8786 9.61948 15.1015 7.17223C15.2542 7.01012 15.3586 6.80107 15.4012 6.57254C15.4437 6.344 15.4223 6.10668 15.3398 5.89176C15.2572 5.67683 15.1175 5.49436 14.9388 5.36833C14.7601 5.24229 14.5509 5.17859 14.3387 5.18558Z" fill="#2D6848"/>
</svg>
