<svg width="436" height="308" viewBox="0 0 436 308" fill="none" xmlns="http://www.w3.org/2000/svg">
<path d="M6.6665 288.621V306.514H382.518L431.242 244.409V222.959L6.6665 288.621Z" fill="white"/>
<path d="M382.518 307.201H6.66653C6.48452 307.201 6.30997 307.129 6.18127 307C6.05258 306.871 5.98028 306.696 5.98028 306.514V288.621C5.97827 288.456 6.03574 288.296 6.14216 288.17C6.24858 288.044 6.39684 287.96 6.55978 287.934L431.135 222.288C431.236 222.273 431.338 222.281 431.436 222.31C431.533 222.339 431.623 222.388 431.699 222.456C431.776 222.519 431.837 222.598 431.879 222.688C431.922 222.778 431.943 222.876 431.943 222.975V244.424C431.946 244.581 431.892 244.733 431.791 244.852L383.067 306.957C382.999 307.036 382.915 307.098 382.82 307.141C382.725 307.183 382.622 307.204 382.518 307.201ZM7.36803 305.812H382.198L430.571 244.165V223.784L7.36803 289.217V305.812Z" fill="#231F20"/>
<path d="M86.5307 122.886C83.6557 122.98 80.8039 122.343 78.2413 121.035C75.6786 119.726 73.4886 117.79 71.8755 115.406C69.7866 111.827 68.4769 107.847 68.0325 103.727C66.5837 94.4294 65.2417 85.2999 66.6295 75.9567C66.9072 73.2912 67.6832 70.7017 68.917 68.3234C69.5382 67.1308 70.4253 66.0974 71.5095 65.3032C72.5938 64.5089 73.8461 63.9752 75.1695 63.7434C76.2186 59.8101 78.7062 56.4153 82.1387 54.2322C87.2885 50.7509 93.5822 49.3946 99.7067 50.4461C98.4527 50.4558 97.2214 50.1119 96.1535 49.4538C95.6315 49.1119 95.259 48.584 95.1117 47.9772C94.9644 47.3704 95.0534 46.7302 95.3605 46.1867C96.1077 45.1791 97.587 45.2249 98.8222 45.4081C105.198 46.3375 111.326 48.5275 116.848 51.8506C116.512 49.6064 118.967 47.7286 121.24 47.7897C123.513 48.0752 125.644 49.0562 127.34 50.5988C130.544 52.7857 133.277 55.5943 135.376 58.858C137.694 62.9037 137.359 69.2241 135.712 73.4835C135.26 74.8717 134.365 76.073 133.165 76.9032C132.281 77.5597 131.091 77.804 130.222 78.4299C128.453 79.6818 128.926 78.9337 128.163 81.1626C126.516 85.9716 125.632 90.5364 123.07 95.0553C120.529 99.3696 117.621 103.456 114.377 107.269C109.602 113.263 103.42 117.983 96.3822 121.009C93.2518 122.27 89.9053 122.908 86.5307 122.886Z" fill="white"/>
<path d="M86.7137 123.65H86.5155C83.5196 123.741 80.5495 123.07 77.8827 121.7C75.2159 120.331 72.9393 118.307 71.2655 115.818C69.1155 112.147 67.7644 108.063 67.3005 103.834C65.9585 95.3148 64.4335 85.651 65.8975 75.8498C66.1829 73.0789 66.9847 70.3862 68.2612 67.9111C68.9073 66.6996 69.8027 65.6391 70.8884 64.7996C71.9741 63.9601 73.2253 63.3607 74.5595 63.041C75.7445 59.1311 78.2866 55.774 81.727 53.5757C85.6528 50.9368 90.2381 49.4508 94.964 49.2858C94.6293 48.8334 94.4 48.3118 94.293 47.7591C94.236 47.411 94.2484 47.0551 94.3296 46.7118C94.4107 46.3685 94.5589 46.0448 94.7657 45.7592C95.8942 44.2325 98.1817 44.5684 98.9442 44.6752C105.005 45.5844 110.846 47.6027 116.177 50.6292C116.345 49.9848 116.67 49.3921 117.122 48.9041C117.644 48.3183 118.286 47.8526 119.005 47.539C119.724 47.2254 120.502 47.0713 121.285 47.0874C123.718 47.3739 126 48.4148 127.812 50.0644C131.115 52.2912 133.923 55.1755 136.063 58.5374C138.533 62.8731 138.121 69.4988 136.429 73.804C135.926 75.3156 134.94 76.6194 133.623 77.5138C133.095 77.8789 132.527 78.1812 131.93 78.4146C131.481 78.5818 131.052 78.7968 130.649 79.0558L129.81 79.6206C129.383 79.8954 129.383 79.8954 129.154 80.5824L128.88 81.4068C128.407 82.8114 127.98 84.1854 127.568 85.5594C126.675 88.988 125.391 92.3023 123.741 95.4369C121.167 99.7858 118.229 103.907 114.957 107.757C110.099 113.829 103.811 118.597 96.6567 121.634C93.5016 122.936 90.1263 123.621 86.7137 123.65ZM95.635 50.8124C90.9769 50.8365 86.4299 52.2388 82.5657 54.8428C79.2741 56.9119 76.8958 60.161 75.9167 63.9265C75.8836 64.0835 75.8028 64.2265 75.6855 64.3358C75.5681 64.4451 75.4198 64.5154 75.261 64.5372C74.0611 64.7431 72.9244 65.2217 71.9383 65.9363C70.9522 66.6509 70.1429 67.5824 69.5727 68.6592C68.3894 70.9961 67.65 73.5326 67.392 76.1398C65.9737 85.6968 67.4682 95.2384 68.795 103.62C69.23 107.634 70.4973 111.513 72.516 115.009C74.0643 117.281 76.1604 119.126 78.6101 120.373C81.0599 121.619 83.7842 122.226 86.5307 122.138C89.8115 122.13 93.0592 121.481 96.0925 120.23C103.009 117.294 109.088 112.683 113.782 106.811C116.994 103.025 119.882 98.9753 122.414 94.7041C124.001 91.6613 125.244 88.4507 126.12 85.1319C126.531 83.7426 126.958 82.3534 127.446 80.9183L127.706 80.1244C128.056 79.0558 128.148 78.8878 128.987 78.3535L129.78 77.8192C130.259 77.5017 130.77 77.2356 131.305 77.0253C131.791 76.8358 132.256 76.5953 132.692 76.3078C133.776 75.5765 134.582 74.5008 134.98 73.2544C136.505 69.2698 136.932 63.1937 134.705 59.2854C132.665 56.1028 129.998 53.3704 126.867 51.2552C125.293 49.8174 123.32 48.8912 121.209 48.5988C120.637 48.5789 120.067 48.6848 119.54 48.909C119.014 49.1332 118.542 49.4702 118.159 49.8964C117.921 50.1461 117.74 50.4449 117.63 50.7719C117.519 51.099 117.481 51.4463 117.519 51.7895C117.546 51.9336 117.53 52.0825 117.473 52.2175C117.416 52.3526 117.321 52.468 117.199 52.5493C117.077 52.6307 116.934 52.6743 116.787 52.675C116.641 52.6756 116.498 52.6331 116.375 52.5528C110.936 49.2759 104.903 47.1073 98.624 46.1714C97.1905 45.9576 96.2907 46.1714 95.8942 46.6599C95.7242 46.9101 95.6585 47.2169 95.7112 47.5148C95.8047 48.0513 96.0993 48.5319 96.5347 48.8583C96.9238 49.1363 97.3646 49.3335 97.831 49.4384C98.4715 49.4384 99.1272 49.5911 99.7677 49.7132C99.9699 49.7396 100.153 49.8452 100.278 50.007C100.402 50.1687 100.457 50.3733 100.431 50.5758C100.405 50.7782 100.299 50.9619 100.138 51.0865C99.9761 51.211 99.7717 51.2662 99.5695 51.2399C98.9031 51.1944 98.2406 51.1026 97.587 50.9651C97.0227 50.843 96.3212 50.8124 95.635 50.8124Z" fill="#231F20"/>
<path d="M132.433 95.3606C132.433 95.3606 141.324 108.444 139.555 111.207C137.786 113.971 131.777 112.23 131.777 112.23" fill="white"/>
<path d="M135.56 113.528C134.209 113.512 132.866 113.322 131.564 112.963C131.372 112.903 131.211 112.771 131.114 112.594C131.018 112.418 130.993 112.211 131.046 112.017C131.072 111.919 131.117 111.828 131.18 111.749C131.242 111.67 131.319 111.604 131.408 111.555C131.496 111.507 131.593 111.477 131.694 111.467C131.794 111.457 131.895 111.467 131.991 111.498C133.516 111.925 137.725 112.658 138.915 110.795C139.845 109.269 135.941 101.88 131.808 95.7882C131.752 95.705 131.713 95.6115 131.693 95.5132C131.673 95.4148 131.672 95.3135 131.692 95.215C131.711 95.1165 131.749 95.0227 131.804 94.939C131.86 94.8553 131.931 94.7833 132.014 94.7272C132.097 94.671 132.19 94.6318 132.289 94.6118C132.387 94.5918 132.488 94.5913 132.587 94.6105C132.685 94.6296 132.779 94.6679 132.862 94.7233C132.946 94.7787 133.018 94.85 133.074 94.9332C135.224 98.0934 142.102 108.673 140.196 111.62C139.642 112.299 138.929 112.829 138.119 113.162C137.31 113.495 136.43 113.621 135.56 113.528Z" fill="#231F20"/>
<path d="M130.359 77.9415C135.956 82.3994 134.477 92.0021 134.507 98.2309C134.507 107.014 134.355 115.782 134.05 124.535C133.821 130.092 119.456 130.398 116.894 128.764L119.593 143.42L86.5308 139.848V122.887C86.5308 122.887 99.8593 121.268 105.334 109.864C110.809 98.4599 110.595 77.1934 110.595 77.1934C110.595 77.1934 124.885 73.5905 130.359 77.9415Z" fill="white"/>
<path d="M119.593 144.183H119.517L86.4393 140.596C86.2546 140.577 86.0836 140.49 85.9596 140.351C85.8355 140.213 85.7673 140.034 85.7683 139.848V122.886C85.7635 122.698 85.8299 122.515 85.9543 122.373C86.0788 122.232 86.252 122.142 86.4393 122.123C86.5613 122.123 99.4171 120.413 104.648 109.543C109.879 98.6735 109.833 77.4834 109.833 77.2086C109.828 77.0361 109.884 76.8675 109.989 76.7311C110.095 76.5948 110.244 76.4992 110.412 76.4605C111.007 76.3079 125.129 72.8118 130.832 77.346C135.788 81.2848 135.544 88.8113 135.407 94.8569C135.407 96.0477 135.407 97.1927 135.407 98.2308C135.407 106.979 135.3 115.833 134.95 124.566C134.861 125.446 134.529 126.284 133.99 126.986C133.451 127.687 132.727 128.224 131.9 128.535C128.133 130.52 121.225 130.749 117.976 129.94L120.355 143.313C120.372 143.431 120.363 143.55 120.329 143.664C120.295 143.777 120.236 143.882 120.157 143.97C120.082 144.041 119.993 144.097 119.896 144.134C119.8 144.17 119.696 144.187 119.593 144.183ZM87.2933 139.161L118.663 142.55L116.146 128.902C116.117 128.757 116.131 128.606 116.188 128.47C116.246 128.334 116.343 128.218 116.467 128.138C116.592 128.06 116.738 128.018 116.886 128.018C117.034 128.018 117.179 128.06 117.305 128.138C118.952 129.192 127.02 129.344 131.03 127.192C132.433 126.459 133.165 125.558 133.211 124.52C133.562 115.818 133.714 106.979 133.669 98.2613C133.669 97.1927 133.669 96.0324 133.669 94.8111C133.852 89.1166 134.08 82.0176 129.719 78.5521C125.144 74.9644 113.889 77.2239 111.205 77.8193C111.205 81.4527 110.885 99.7422 105.868 110.215C100.851 120.688 89.9773 123.054 87.1408 123.558L87.2933 139.161Z" fill="#231F20"/>
<path d="M115.719 101.192C115.449 99.0004 114.572 96.9275 113.188 95.2079C112.318 93.7415 111.233 92.4139 109.97 91.2691C109.329 90.7046 108.572 90.2887 107.752 90.0512C106.932 89.8136 106.07 89.7604 105.227 89.8951C104.499 90.0914 103.819 90.4388 103.233 90.9148C102.648 91.3909 102.168 91.9849 101.826 92.6584C101.168 94.0212 100.814 95.5111 100.789 97.0246C100.691 100.324 101.46 103.591 103.021 106.498C104.581 109.405 106.878 111.851 109.68 113.589L109.192 113.07" fill="white"/>
<path d="M109.68 114.307C109.532 114.355 109.371 114.355 109.223 114.307C106.311 112.489 103.924 109.941 102.301 106.914C100.677 103.888 99.8719 100.489 99.9659 97.0552C99.9884 95.4282 100.374 93.8269 101.094 92.3683C101.484 91.5944 102.033 90.9124 102.707 90.3675C103.38 89.8226 104.161 89.4274 104.998 89.2081C105.953 89.0383 106.933 89.0875 107.865 89.3519C108.798 89.6163 109.658 90.0892 110.382 90.7348C111.714 91.9218 112.856 93.3069 113.767 94.8415C115.232 96.6777 116.151 98.8889 116.421 101.223C116.425 101.423 116.35 101.616 116.214 101.762C116.077 101.908 115.888 101.994 115.689 102.002C115.488 102.002 115.295 101.927 115.148 101.791C115.001 101.655 114.911 101.469 114.896 101.269C114.613 99.2249 113.786 97.2949 112.501 95.6812C111.677 94.2799 110.649 93.0091 109.451 91.9103C108.904 91.415 108.253 91.0483 107.546 90.837C106.839 90.6257 106.093 90.5752 105.364 90.689C104.741 90.8586 104.16 91.1585 103.661 91.569C103.161 91.9795 102.754 92.4913 102.467 93.0706C101.856 94.3269 101.533 95.7039 101.521 97.101C101.451 100.075 102.11 103.022 103.439 105.683C104.768 108.344 106.727 110.639 109.146 112.368C109.261 112.355 109.377 112.369 109.486 112.409C109.594 112.448 109.692 112.513 109.772 112.597L110.26 113.116C110.381 113.253 110.448 113.429 110.448 113.612C110.448 113.795 110.381 113.971 110.26 114.108C110.183 114.181 110.092 114.237 109.992 114.271C109.892 114.305 109.785 114.317 109.68 114.307Z" fill="#231F20"/>
<path d="M129.978 91.7071C130.659 91.6613 131.116 90.226 131.001 88.5015C130.885 86.7769 130.239 85.416 129.558 85.4619C128.877 85.5077 128.42 86.943 128.536 88.6675C128.652 90.3921 129.297 91.753 129.978 91.7071Z" fill="#231F20"/>
<path d="M79.3174 146.367L81.6506 134.367L124.137 136.962L126.806 145.618C126.806 145.618 103.473 157.71 79.3174 146.367Z" fill="white"/>
<path d="M101.369 151.969C93.6464 152.013 86.0087 150.356 78.9972 147.115C78.8425 147.043 78.7163 146.921 78.6389 146.769C78.5615 146.616 78.5373 146.443 78.5702 146.275L80.9035 134.26C80.9336 134.077 81.0323 133.911 81.1795 133.798C81.3268 133.685 81.5116 133.631 81.6965 133.649L124.183 136.245C124.339 136.251 124.489 136.306 124.612 136.402C124.735 136.498 124.825 136.629 124.869 136.779L127.523 145.451C127.578 145.621 127.57 145.807 127.5 145.972C127.43 146.137 127.302 146.272 127.142 146.351C119.047 150.037 110.261 151.953 101.369 151.969ZM80.2477 145.97C101.598 155.603 122.277 146.962 125.998 145.267L123.695 137.726L82.398 135.207L80.2477 145.97Z" fill="#231F20"/>
<path d="M134.278 117.604C134.278 117.604 131.9 122.184 124.458 117.604H134.278Z" fill="white"/>
<path d="M130.313 120.413C128.072 120.279 125.91 119.535 124.061 118.261C123.916 118.141 123.82 117.973 123.789 117.788C123.759 117.602 123.796 117.412 123.894 117.252C123.993 117.092 124.146 116.973 124.325 116.917C124.504 116.862 124.697 116.872 124.869 116.948C127.492 118.581 129.795 119.192 131.518 118.734C132.385 118.514 133.134 117.967 133.607 117.207C133.7 117.027 133.861 116.891 134.054 116.83C134.247 116.768 134.457 116.786 134.637 116.879C134.817 116.972 134.952 117.133 135.014 117.326C135.075 117.52 135.058 117.729 134.965 117.91C134.277 119.022 133.182 119.822 131.915 120.139C131.396 120.302 130.857 120.395 130.313 120.413Z" fill="#231F20"/>
<path d="M387.672 276.362H0.688477L52.4775 219.479L434.307 216.242L387.672 276.362Z" fill="white"/>
<path d="M387.672 277.049H0.688487C0.554705 277.053 0.423093 277.015 0.311327 276.941C0.19956 276.868 0.112984 276.761 0.0632314 276.637C0.00598268 276.515 -0.0129986 276.378 0.00876873 276.244C0.0305361 276.111 0.0920413 275.987 0.185234 275.889L52.0352 219.021C52.0974 218.948 52.1747 218.89 52.2616 218.85C52.3485 218.811 52.443 218.791 52.5385 218.792L434.368 215.54C434.497 215.541 434.623 215.578 434.733 215.645C434.843 215.712 434.933 215.807 434.993 215.921C435.046 216.042 435.067 216.174 435.054 216.306C435.04 216.437 434.993 216.562 434.917 216.67L388.298 276.79C388.224 276.882 388.128 276.955 388.018 277C387.909 277.045 387.79 277.062 387.672 277.049ZM2.27448 275.66H387.322L432.874 216.944L52.7977 220.181L2.27448 275.66Z" fill="#231F20"/>
<path d="M274.746 265.309L304.377 225.356H166.608L125.327 267.233L274.746 265.309Z" fill="white"/>
<path d="M125.327 267.996C125.177 267.999 125.031 267.956 124.906 267.875C124.781 267.793 124.683 267.676 124.625 267.538C124.566 267.399 124.549 267.245 124.576 267.096C124.603 266.946 124.673 266.808 124.778 266.699L166.075 224.822C166.143 224.749 166.225 224.69 166.317 224.651C166.409 224.612 166.508 224.592 166.608 224.593H304.423C304.564 224.593 304.703 224.633 304.824 224.707C304.944 224.782 305.041 224.888 305.105 225.015C305.168 225.142 305.195 225.284 305.182 225.425C305.169 225.566 305.118 225.701 305.033 225.814L275.356 265.752C275.287 265.847 275.198 265.925 275.095 265.98C274.992 266.036 274.878 266.067 274.761 266.073L125.311 267.996H125.327ZM166.929 226.12L127.172 266.454L274.365 264.546L302.898 226.12H166.929Z" fill="#231F20"/>
<path d="M292.497 231.661L271.94 258.989H139.174L170.223 232.806L292.497 231.661Z" fill="white"/>
<path d="M271.94 259.752H139.174C139.015 259.754 138.859 259.707 138.729 259.616C138.598 259.526 138.499 259.397 138.445 259.247C138.392 259.097 138.386 258.935 138.429 258.782C138.472 258.629 138.562 258.493 138.686 258.393L169.72 232.211C169.86 232.104 170.031 232.045 170.208 232.043L292.482 230.898C292.624 230.893 292.765 230.929 292.886 231.002C293.008 231.075 293.106 231.182 293.168 231.31C293.242 231.432 293.282 231.572 293.282 231.715C293.282 231.857 293.242 231.997 293.168 232.119L272.611 259.447C272.533 259.549 272.431 259.631 272.314 259.684C272.197 259.737 272.069 259.761 271.94 259.752ZM141.263 258.225H271.559L290.957 232.44L170.482 233.554L141.263 258.225Z" fill="#D1D3D4"/>
<path d="M387.657 276.362H0.688477V288.621H387.657V276.362Z" fill="white"/>
<path d="M387.672 289.324H0.688448C0.505055 289.32 0.330517 289.244 0.202241 289.113C0.0739642 288.981 0.00215393 288.805 0.00219729 288.621V276.408C0.00215393 276.224 0.0739642 276.048 0.202241 275.917C0.330517 275.786 0.505055 275.71 0.688448 275.706H387.672C387.856 275.71 388.03 275.786 388.159 275.917C388.287 276.048 388.359 276.224 388.359 276.408V288.621C388.359 288.805 388.287 288.981 388.159 289.113C388.03 289.244 387.856 289.32 387.672 289.324ZM1.38995 287.919H386.971V277.049H1.38995V287.919Z" fill="#231F20"/>
<path d="M237.597 252.226C242.889 253.554 249.797 248.287 252.588 244.409C252.976 243.767 253.529 243.24 254.189 242.883C254.64 242.73 255.117 242.668 255.592 242.699C258.601 242.652 261.598 242.319 264.544 241.707C267.411 241.096 270.644 239.906 271.62 237.127C272.596 234.349 271.04 231.31 268.814 229.494C263.751 225.219 256.446 225.448 249.934 224.257C247.281 223.525 244.521 223.257 241.776 223.463C239.22 224.021 236.983 225.555 235.538 227.738C233.948 229.548 232.134 231.149 230.14 232.501C227.242 234.781 224.386 237.091 221.569 239.432C226.144 243.295 230.719 248.592 235.874 251.646C236.419 251.916 236.999 252.112 237.597 252.226Z" fill="white"/>
<path d="M239.366 253.233C238.703 253.237 238.041 253.155 237.399 252.989C236.729 252.823 236.087 252.56 235.493 252.21C231.973 249.905 228.712 247.228 225.763 244.226C224.147 242.699 222.713 241.264 221.081 239.966C220.995 239.895 220.926 239.805 220.878 239.703C220.83 239.602 220.805 239.491 220.805 239.379C220.805 239.266 220.83 239.156 220.878 239.054C220.926 238.952 220.995 238.863 221.081 238.791C223.933 236.425 226.815 234.089 229.667 231.86L230.78 231.005C232.32 229.933 233.714 228.665 234.928 227.234C236.487 224.887 238.901 223.243 241.654 222.654C243.984 222.396 246.341 222.572 248.608 223.173L250.133 223.448C251.658 223.723 253.289 223.936 254.86 224.135C260.015 224.776 265.337 225.448 269.363 228.852C271.742 230.837 273.602 234.257 272.413 237.402C271.452 239.89 268.966 241.524 264.788 242.409C261.777 243.039 258.713 243.376 255.638 243.417C255.257 243.389 254.875 243.43 254.509 243.539C254.029 243.825 253.63 244.23 253.35 244.714L253.228 244.882C250.544 248.516 244.658 253.233 239.366 253.233ZM237.841 251.508C242.599 252.714 249.248 247.814 252.039 243.997L252.146 243.844C252.577 243.118 253.207 242.53 253.96 242.15C254.493 241.961 255.058 241.878 255.623 241.905C258.59 241.864 261.547 241.536 264.452 240.928C268.082 240.165 270.217 238.837 270.964 236.867C271.91 234.44 270.339 231.677 268.387 230.028C264.696 226.975 259.603 226.288 254.662 225.662C253.137 225.463 251.429 225.249 249.858 224.959L248.333 224.685C246.235 224.133 244.053 223.978 241.898 224.227C239.523 224.744 237.447 226.175 236.118 228.211C234.824 229.755 233.332 231.121 231.68 232.272L230.597 233.112C227.99 235.142 225.351 237.28 222.744 239.432C224.101 240.608 225.458 241.905 226.785 243.157C229.658 246.08 232.832 248.69 236.255 250.943C236.731 251.219 237.245 251.425 237.78 251.554L237.841 251.508Z" fill="#231F20"/>
<path d="M26.7812 296.713C26.7812 296.713 20.5897 165.633 54.0177 147.893C64.4182 142.367 148.324 138.596 168.133 155.282C187.943 171.969 189.59 239.799 189.59 239.799L226.434 231.066L241.181 257.813C241.181 257.813 186.906 282.79 176.521 287.629C158.77 295.888 26.7812 296.713 26.7812 296.713Z" fill="#7FF0B2"/>
<path d="M139.174 240.119C139.073 240.11 138.976 240.08 138.887 240.033C138.798 239.985 138.72 239.921 138.656 239.843C138.592 239.765 138.544 239.675 138.515 239.578C138.486 239.481 138.477 239.38 138.488 239.28L145.274 164.809C145.292 164.606 145.39 164.419 145.546 164.289C145.702 164.159 145.903 164.096 146.105 164.114C146.307 164.132 146.494 164.23 146.624 164.386C146.754 164.542 146.817 164.744 146.799 164.946L139.936 239.493C139.904 239.671 139.809 239.832 139.67 239.946C139.53 240.061 139.354 240.122 139.174 240.119Z" fill="#231F20"/>
<path d="M117.93 169.832H41.8024C36.2512 169.831 30.7638 171.018 25.708 173.312C20.6521 175.607 16.1444 178.957 12.4868 183.138C8.82928 187.318 6.10624 192.233 4.50015 197.553C2.89405 202.872 2.44196 208.474 3.17416 213.983L15.4657 306.514H170.223L156.498 203.693C155.253 194.331 150.658 185.739 143.566 179.512C136.473 173.285 127.364 169.845 117.93 169.832Z" fill="#231F20"/>
<path d="M197.764 262.805C202.675 262.805 202.675 255.172 197.764 255.172C192.854 255.172 192.854 262.805 197.764 262.805Z" fill="#7FF0B2"/>
<path d="M198.862 262.805C203.773 262.805 203.788 255.172 198.862 255.172C193.936 255.172 193.952 262.805 198.862 262.805Z" fill="#7FF0B2"/>
<path d="M387.672 288.621L434.307 227.066V216.242L387.672 276.362V288.621Z" fill="white"/>
<path d="M387.673 289.324H387.444C387.304 289.281 387.183 289.193 387.098 289.075C387.012 288.956 386.968 288.813 386.971 288.667V276.454C386.968 276.298 387.022 276.146 387.124 276.027L433.758 215.906C433.842 215.789 433.962 215.702 434.099 215.658C434.236 215.614 434.384 215.615 434.521 215.662C434.66 215.71 434.781 215.801 434.865 215.922C434.95 216.042 434.995 216.186 434.993 216.334V227.158C434.994 227.311 434.946 227.461 434.856 227.585L388.298 289.049C388.225 289.143 388.129 289.218 388.02 289.266C387.911 289.314 387.791 289.334 387.673 289.324ZM388.359 276.591V286.545L433.606 226.837V218.273L388.359 276.591Z" fill="#231F20"/>
<path d="M382.518 307.201C382.334 307.201 382.158 307.129 382.027 307.001C381.896 306.872 381.82 306.698 381.816 306.514V288.621C381.82 288.436 381.895 288.26 382.026 288.129C382.157 287.998 382.333 287.923 382.518 287.919C382.701 287.923 382.876 287.999 383.004 288.13C383.132 288.261 383.204 288.438 383.204 288.621V306.514C383.204 306.696 383.132 306.871 383.003 307C382.874 307.129 382.7 307.201 382.518 307.201Z" fill="#231F20"/>
<path d="M188.294 22.4775H433.056V153.572C433.056 155.01 432.486 156.388 431.471 157.405C430.456 158.421 429.078 158.992 427.643 158.992H193.708C192.272 158.992 190.895 158.421 189.88 157.405C188.864 156.388 188.294 155.01 188.294 153.572V22.4775Z" fill="white"/>
<path d="M427.627 159.694H193.708C192.09 159.694 190.538 159.051 189.394 157.906C188.25 156.761 187.608 155.207 187.608 153.588V22.4777C187.608 22.2914 187.682 22.1128 187.813 21.9811C187.945 21.8494 188.123 21.7754 188.309 21.7754H433.072C433.256 21.7793 433.433 21.8545 433.563 21.9854C433.694 22.1163 433.769 22.2926 433.773 22.4777V153.573C433.775 154.38 433.617 155.179 433.309 155.925C433 156.67 432.547 157.347 431.976 157.917C431.404 158.486 430.726 158.936 429.979 159.241C429.233 159.547 428.434 159.701 427.627 159.694ZM188.98 23.1799V153.573C188.984 154.825 189.484 156.025 190.37 156.909C191.256 157.793 192.456 158.29 193.708 158.29H427.627C428.879 158.29 430.079 157.793 430.965 156.909C431.851 156.025 432.351 154.825 432.355 153.573V23.1799H188.98Z" fill="#231F20"/>
<path d="M193.708 1.48584H427.627C429.063 1.48584 430.44 2.05684 431.456 3.07323C432.471 4.08961 433.041 5.46813 433.041 6.90551V22.8439H188.294V6.92078C188.292 6.20777 188.431 5.50138 188.702 4.84207C188.973 4.18276 189.371 3.5835 189.874 3.07862C190.377 2.57374 190.975 2.17316 191.632 1.89985C192.29 1.62653 192.995 1.48584 193.708 1.48584Z" fill="white"/>
<path d="M433.057 23.531H188.294C188.203 23.533 188.112 23.5168 188.027 23.4832C187.942 23.4495 187.864 23.3993 187.799 23.3353C187.734 23.2713 187.682 23.1948 187.646 23.1105C187.611 23.0261 187.593 22.9355 187.593 22.844V6.92088C187.593 5.30129 188.235 3.74803 189.379 2.60281C190.523 1.45759 192.075 0.814209 193.693 0.814209H427.628C429.245 0.814209 430.797 1.45759 431.941 2.60281C433.085 3.74803 433.728 5.30129 433.728 6.92088V22.844C433.724 23.0224 433.652 23.1928 433.528 23.3204C433.403 23.448 433.235 23.5233 433.057 23.531ZM189.057 22.1417H432.355V6.87508C432.355 5.6199 431.857 4.41612 430.97 3.52858C430.084 2.64103 428.881 2.14241 427.628 2.14241H193.708C192.454 2.14241 191.252 2.64103 190.365 3.52858C189.478 4.41612 188.98 5.6199 188.98 6.87508L189.057 22.1417Z" fill="#231F20"/>
<path d="M316.47 39.6375H200.036V115.986H316.47V39.6375Z" fill="white"/>
<path d="M316.455 116.765H200.036C199.834 116.765 199.64 116.684 199.497 116.541C199.354 116.398 199.274 116.204 199.274 116.001V39.6679C199.274 39.4654 199.354 39.2713 199.497 39.1281C199.64 38.985 199.834 38.9045 200.036 38.9045H316.455C316.657 38.9045 316.851 38.985 316.994 39.1281C317.137 39.2713 317.217 39.4654 317.217 39.6679V116.001C317.217 116.204 317.137 116.398 316.994 116.541C316.851 116.684 316.657 116.765 316.455 116.765ZM200.799 115.238H315.692V40.4312H200.799V115.238Z" fill="#D1D3D4"/>
<path d="M213.868 71.7737C216.201 71.7737 218.093 69.8803 218.093 67.5448C218.093 65.2093 216.201 63.3159 213.868 63.3159C211.535 63.3159 209.644 65.2093 209.644 67.5448C209.644 69.8803 211.535 71.7737 213.868 71.7737Z" fill="white"/>
<path d="M213.868 72.5217C212.881 72.5217 211.917 72.2286 211.096 71.6793C210.276 71.1301 209.637 70.3495 209.26 69.4364C208.883 68.5233 208.785 67.5188 208.979 66.55C209.172 65.5812 209.649 64.6917 210.348 63.9941C211.047 63.2966 211.936 62.8223 212.905 62.6314C213.873 62.4405 214.876 62.5416 215.787 62.9218C216.698 63.302 217.476 63.9442 218.022 64.7672C218.568 65.5901 218.858 66.5568 218.855 67.5448C218.851 68.8662 218.324 70.132 217.389 71.065C216.454 71.9979 215.188 72.5218 213.868 72.5217ZM213.868 64.0793C213.184 64.0793 212.514 64.2825 211.945 64.6633C211.376 65.0441 210.932 65.5854 210.67 66.2186C210.408 66.8519 210.34 67.5487 210.473 68.2209C210.607 68.8932 210.936 69.5107 211.42 69.9953C211.905 70.48 212.521 70.81 213.193 70.9438C213.864 71.0775 214.561 71.0089 215.193 70.7466C215.826 70.4843 216.366 70.0401 216.747 69.4702C217.127 68.9003 217.33 68.2302 217.33 67.5448C217.33 66.6257 216.965 65.7442 216.316 65.0943C215.667 64.4444 214.786 64.0793 213.868 64.0793Z" fill="#D1D3D4"/>
<path d="M302.898 68.3082H226.953C226.752 68.3043 226.56 68.2226 226.418 68.0803C226.276 67.9379 226.194 67.7461 226.19 67.5448C226.19 67.3424 226.271 67.1482 226.414 67.0051C226.557 66.8619 226.75 66.7815 226.953 66.7815H302.898C303.1 66.7815 303.294 66.8619 303.437 67.0051C303.58 67.1482 303.66 67.3424 303.66 67.5448C303.66 67.7473 303.58 67.9414 303.437 68.0846C303.294 68.2277 303.1 68.3082 302.898 68.3082Z" fill="#D1D3D4"/>
<path d="M213.868 86.7351C216.201 86.7351 218.093 84.8417 218.093 82.5062C218.093 80.1707 216.201 78.2773 213.868 78.2773C211.535 78.2773 209.644 80.1707 209.644 82.5062C209.644 84.8417 211.535 86.7351 213.868 86.7351Z" fill="white"/>
<path d="M213.868 87.4832C212.881 87.4832 211.917 87.19 211.096 86.6408C210.276 86.0915 209.637 85.311 209.26 84.3979C208.883 83.4848 208.785 82.4802 208.979 81.5114C209.172 80.5426 209.649 79.6531 210.348 78.9556C211.047 78.258 211.936 77.7837 212.905 77.5929C213.873 77.402 214.876 77.503 215.787 77.8832C216.698 78.2634 217.476 78.9056 218.022 79.7286C218.568 80.5516 218.858 81.5182 218.855 82.5062C218.851 83.8276 218.324 85.0935 217.389 86.0264C216.454 86.9593 215.188 87.4832 213.868 87.4832ZM213.868 79.0407C213.184 79.0407 212.514 79.244 211.945 79.6248C211.376 80.0056 210.932 80.5468 210.67 81.18C210.408 81.8133 210.34 82.5101 210.473 83.1823C210.607 83.8546 210.936 84.4721 211.42 84.9568C211.905 85.4414 212.521 85.7715 213.193 85.9052C213.864 86.0389 214.561 85.9703 215.193 85.708C215.826 85.4457 216.366 85.0015 216.747 84.4316C217.127 83.8617 217.33 83.1917 217.33 82.5062C217.33 81.5871 216.965 80.7057 216.316 80.0557C215.667 79.4058 214.786 79.0407 213.868 79.0407Z" fill="#D1D3D4"/>
<path d="M284.765 83.2696H226.998C226.796 83.2696 226.602 83.1892 226.459 83.046C226.316 82.9029 226.236 82.7087 226.236 82.5063C226.236 82.3038 226.316 82.1096 226.459 81.9665C226.602 81.8233 226.796 81.7429 226.998 81.7429H284.765C284.968 81.7429 285.162 81.8233 285.305 81.9665C285.447 82.1096 285.528 82.3038 285.528 82.5063C285.528 82.7087 285.447 82.9029 285.305 83.046C285.162 83.1892 284.968 83.2696 284.765 83.2696Z" fill="#D1D3D4"/>
<path d="M213.868 101.696C216.201 101.696 218.093 99.8029 218.093 97.4674C218.093 95.1319 216.201 93.2385 213.868 93.2385C211.535 93.2385 209.644 95.1319 209.644 97.4674C209.644 99.8029 211.535 101.696 213.868 101.696Z" fill="white"/>
<path d="M213.868 102.46C212.882 102.46 211.918 102.167 211.098 101.618C210.278 101.07 209.638 100.29 209.261 99.378C208.884 98.4658 208.785 97.462 208.977 96.4936C209.17 95.5252 209.645 94.6357 210.342 93.9375C211.039 93.2394 211.928 92.7639 212.895 92.5713C213.863 92.3786 214.865 92.4775 215.776 92.8554C216.688 93.2332 217.466 93.8731 218.014 94.694C218.562 95.515 218.855 96.4802 218.855 97.4675C218.851 98.7903 218.324 100.058 217.39 100.993C216.455 101.928 215.189 102.456 213.868 102.46ZM213.868 94.002C213.183 94.002 212.514 94.2053 211.945 94.5861C211.376 94.9669 210.932 95.5081 210.67 96.1413C210.408 96.7746 210.339 97.4714 210.473 98.1436C210.606 98.8159 210.936 99.4334 211.42 99.918C211.904 100.403 212.521 100.733 213.193 100.866C213.864 101 214.56 100.932 215.193 100.669C215.825 100.407 216.366 99.9628 216.746 99.3929C217.127 98.823 217.33 98.153 217.33 97.4675C217.33 96.5484 216.965 95.667 216.316 95.017C215.667 94.3671 214.786 94.002 213.868 94.002Z" fill="#D1D3D4"/>
<path d="M294.785 98.2308H226.998C226.796 98.2308 226.602 98.1503 226.459 98.0072C226.316 97.864 226.236 97.6699 226.236 97.4674C226.236 97.265 226.316 97.0708 226.459 96.9277C226.602 96.7845 226.796 96.7041 226.998 96.7041H294.785C294.987 96.7041 295.181 96.7845 295.324 96.9277C295.467 97.0708 295.547 97.265 295.547 97.4674C295.547 97.6699 295.467 97.864 295.324 98.0072C295.181 98.1503 294.987 98.2308 294.785 98.2308Z" fill="#D1D3D4"/>
<path d="M249.797 50.446H209.644V56.6748H249.797V50.446Z" fill="#D1D3D4"/>
<path d="M285.711 111.986C284.186 110.078 282.417 107.635 280.846 105.757C280.175 96.5972 278.117 91.4218 276.942 90.7654C275.265 89.8341 273.343 91.2997 271.574 92.0325C271.258 92.1877 270.901 92.2411 270.552 92.1852C270.288 92.086 270.048 91.9296 269.851 91.7271C265.764 88.109 262.134 81.2847 259.45 80.5367C257.651 80.0329 255.226 83.6816 258.993 87.8342C261.098 90.1547 265.322 94.4446 265.398 94.7194C265.474 94.9942 263.553 100.734 263.278 102.994C262.775 107.131 274.975 120.428 277.491 123.558L285.711 111.986Z" fill="white"/>
<path d="M277.491 124.322C277.378 124.323 277.266 124.299 277.163 124.251C277.06 124.204 276.969 124.134 276.896 124.047C276.469 123.512 275.783 122.703 274.914 121.696C268.692 114.429 262.089 106.429 262.531 102.902C262.874 101.004 263.348 99.1323 263.949 97.2996C264.224 96.3989 264.513 95.3913 264.62 94.9333C264.193 94.4447 262.973 93.1623 261.875 92.0173C260.777 90.8723 259.344 89.3609 258.429 88.3533C255.79 85.4527 255.882 82.7352 256.904 81.1475C257.157 80.6476 257.567 80.2452 258.072 80.0023C258.576 79.7595 259.146 79.6898 259.694 79.804C261.448 80.2773 263.293 82.6741 265.444 85.4527C266.924 87.4985 268.583 89.4092 270.4 91.1624C270.516 91.2799 270.65 91.3779 270.796 91.4525C270.983 91.4486 271.165 91.4015 271.33 91.3151C271.696 91.1624 272.077 90.9792 272.474 90.7807C273.999 90.0327 275.692 89.2541 277.354 90.0937C279.016 90.9334 280.968 96.5515 281.624 105.452C282.447 106.444 283.317 107.574 284.171 108.704C285.025 109.834 285.696 110.643 286.351 111.498C286.454 111.631 286.51 111.795 286.51 111.963C286.51 112.132 286.454 112.295 286.351 112.429L278.132 124.001C278.067 124.099 277.978 124.18 277.874 124.236C277.771 124.292 277.655 124.321 277.537 124.322H277.491ZM259.115 81.2543C258.912 81.2845 258.719 81.3625 258.552 81.482C258.385 81.6014 258.249 81.7589 258.154 81.9413C257.514 83.01 257.483 84.9947 259.557 87.3305C260.472 88.3381 261.784 89.7121 262.988 90.9639C266.038 94.1699 266.038 94.231 266.13 94.5058C266.221 94.7806 266.13 95.1623 265.413 97.7271C264.846 99.4833 264.388 101.273 264.041 103.086C263.659 106.139 272.352 116.368 276.073 120.703L277.445 122.306L284.75 112.017C284.155 111.269 283.53 110.49 282.92 109.635C282.02 108.46 281.105 107.269 280.251 106.246C280.144 106.124 280.084 105.966 280.084 105.803C279.413 96.6431 277.323 91.8494 276.561 91.4372C275.798 91.025 274.395 91.4372 273.099 92.1547C272.687 92.3532 272.276 92.5669 271.864 92.7349C271.392 92.9701 270.853 93.0348 270.339 92.9181C269.947 92.7976 269.591 92.5827 269.302 92.2921C267.416 90.4804 265.696 88.5031 264.163 86.3839C262.348 84.0481 260.487 81.6207 259.206 81.2696L259.115 81.2543Z" fill="#231F20"/>
<path d="M284.598 107.299C284.598 107.299 311.118 131.07 313.847 130.673C318.422 124.764 334.694 100.292 334.694 100.292C338.827 94.8417 350.737 90.6281 367.771 92.9639C367.771 92.9639 405.561 93.7425 412.881 105.773C417.09 112.704 420.674 131.161 423.007 158.443H296.935C286.657 142.886 269.195 122.139 269.195 122.139L284.598 107.299Z" fill="#7FF0B2"/>
<path d="M361.793 98.6124L362.632 150.244L385.324 95.7881L361.793 98.6124Z" fill="#231F20"/>
<path d="M362.632 150.946H362.48C362.307 150.911 362.153 150.818 362.041 150.681C361.93 150.545 361.87 150.374 361.87 150.198L361.031 98.5666C361.026 98.3781 361.092 98.1948 361.217 98.0532C361.341 97.9117 361.514 97.8224 361.702 97.8032L385.248 95.04C385.378 95.0207 385.51 95.0376 385.631 95.0887C385.753 95.1399 385.857 95.2234 385.934 95.33C386.018 95.4363 386.072 95.5631 386.091 95.6972C386.109 95.8314 386.092 95.9681 386.041 96.0934L363.349 150.55C363.279 150.677 363.175 150.782 363.048 150.853C362.921 150.923 362.777 150.955 362.632 150.946ZM362.556 99.2383L363.334 146.565L384.104 96.6888L362.556 99.2383Z" fill="#231F20"/>
<path d="M349.517 42.1258L349.624 41.9273C351.972 38.019 357.249 34.0955 361.503 32.2482C371.507 27.8514 384.119 30.3246 392.232 37.4694C395.284 40.0166 397.426 43.4891 398.332 47.3623C399.278 51.0263 401.519 54.7666 402.221 58.5069C402.739 61.2854 401.733 64.125 401.824 66.9646C402.023 73.0713 407.162 77.7887 412.377 80.9184C404.752 87.8952 393.894 90.0784 383.57 90.689C365.501 91.781 347.403 89.0768 330.439 82.7504C333.046 80.7059 335.158 78.0977 336.616 75.1208C338.073 72.1439 338.84 68.8754 338.857 65.5601C338.857 63.5296 338.613 61.3312 339.757 59.6672C340.901 58.0031 342.593 57.5756 343.966 56.4459C348.358 52.8735 346.985 46.5989 349.517 42.1258Z" fill="white"/>
<path d="M375.899 91.6814C360.308 91.6793 344.843 88.8981 330.226 83.468C330.098 83.4183 329.985 83.3357 329.899 83.2284C329.814 83.1212 329.758 82.9931 329.738 82.8573C329.721 82.7229 329.739 82.5864 329.789 82.4608C329.84 82.3352 329.922 82.2247 330.027 82.1398C332.54 80.1658 334.576 77.6499 335.983 74.7794C337.39 71.9089 338.133 68.7577 338.156 65.5602V64.69C337.923 62.8027 338.292 60.8902 339.208 59.2245C339.963 58.2657 340.915 57.4797 341.999 56.9193C342.528 56.5991 343.037 56.2474 343.524 55.8659C345.887 53.9117 346.406 51.0569 346.955 48.0188C347.234 45.8388 347.868 43.7192 348.831 41.7442L349.486 42.1259L348.861 41.6984V41.5305C351.316 37.439 356.867 33.4239 361.061 31.5461C371.05 27.1493 384.028 29.3477 392.598 36.9047C395.781 39.545 398.027 43.1431 399.003 47.1638C399.476 48.8423 400.067 50.485 400.772 52.0797C401.689 54.0992 402.4 56.2066 402.892 58.3696C403.119 60.0753 403.078 61.8062 402.77 63.4992C402.587 64.6349 402.501 65.7839 402.511 66.9342C402.694 73.0409 408.153 77.6208 412.698 80.262C412.802 80.3204 412.89 80.4041 412.954 80.5054C413.018 80.6068 413.056 80.7225 413.064 80.8421C413.077 80.9607 413.062 81.0808 413.019 81.1924C412.977 81.3039 412.908 81.4037 412.82 81.4833C406.277 87.4678 396.975 90.6433 383.54 91.4524C381.1 91.6051 378.492 91.6814 375.899 91.6814ZM332.01 82.5215C348.527 88.4432 366.073 90.9465 383.585 89.88C396.136 89.1166 404.935 86.277 411.173 80.9795C406.506 78.0178 401.321 73.3462 401.123 66.9342C401.114 65.7023 401.206 64.4718 401.397 63.2549C401.677 61.7443 401.723 60.1996 401.535 58.6749C401.052 56.6196 400.372 54.6156 399.506 52.6904C398.77 51.0319 398.153 49.3228 397.661 47.5761C396.769 43.8486 394.686 40.5145 391.729 38.0802C383.585 30.9048 371.279 28.8133 361.808 32.9811C357.813 34.7521 352.567 38.5382 350.279 42.3549L350.203 42.4922L349.517 42.1564L350.173 42.5533C349.291 44.3757 348.714 46.3302 348.465 48.3394C347.9 51.4996 347.29 54.7819 344.5 57.0872C343.955 57.5204 343.379 57.9133 342.776 58.2627C341.882 58.7282 341.089 59.3664 340.443 60.1405C339.722 61.5518 339.451 63.1502 339.665 64.7205V65.6213C339.634 68.8119 338.936 71.9607 337.618 74.8658C336.3 77.7709 334.389 80.3681 332.01 82.4909V82.5215Z" fill="#231F20"/>
<path d="M356.547 66.3234C356.185 65.0886 355.566 63.9442 354.733 62.9647C354.313 62.4787 353.751 62.1374 353.127 61.9894C352.503 61.8414 351.848 61.8942 351.256 62.1403C350.823 62.3749 350.457 62.7146 350.191 63.1281C349.924 63.5417 349.766 64.0158 349.731 64.5066C349.673 65.4767 349.835 66.4472 350.203 67.3462C350.739 69.0743 351.686 70.6462 352.964 71.9262C353.598 72.5599 354.356 73.0563 355.19 73.3846C356.025 73.7129 356.917 73.866 357.813 73.8346" fill="white"/>
<path d="M357.508 74.6133C355.628 74.566 353.835 73.8078 352.491 72.4912C351.137 71.1285 350.123 69.4652 349.532 67.6364C349.141 66.6257 348.97 65.5432 349.029 64.4609C349.063 63.8358 349.252 63.2291 349.58 62.6958C349.907 62.1625 350.363 61.7197 350.905 61.4076C351.646 61.0982 352.464 61.0261 353.248 61.201C354.032 61.3759 354.742 61.7894 355.282 62.3847C356.193 63.4351 356.869 64.6689 357.264 66.0029C357.301 66.097 357.318 66.1976 357.316 66.2986C357.314 66.3997 357.291 66.4993 357.25 66.5916C357.209 66.6839 357.15 66.7671 357.076 66.8364C357.003 66.9057 356.916 66.9597 356.822 66.9952C356.629 67.0605 356.419 67.0494 356.235 66.9642C356.05 66.8789 355.906 66.7261 355.831 66.5372C355.501 65.4185 354.945 64.3793 354.199 63.4839C353.88 63.1248 353.462 62.869 352.997 62.7493C352.533 62.6296 352.043 62.6515 351.591 62.8121C351.29 63.0012 351.038 63.2587 350.855 63.5638C350.672 63.8689 350.564 64.2129 350.539 64.5678C350.507 65.4293 350.658 66.2878 350.981 67.0868C351.484 68.6862 352.362 70.1416 353.543 71.3309C354.094 71.8997 354.756 72.349 355.488 72.651C356.22 72.953 357.006 73.1013 357.798 73.0866C357.997 73.0779 358.191 73.1458 358.342 73.2764C358.492 73.4071 358.587 73.5905 358.606 73.7889C358.614 73.8892 358.603 73.9902 358.572 74.086C358.541 74.1818 358.492 74.2706 358.427 74.3472C358.361 74.4238 358.282 74.4868 358.192 74.5324C358.103 74.5781 358.005 74.6056 357.905 74.6133H357.508Z" fill="#231F20"/>
<path d="M363.303 83.422L361.778 98.6887C361.778 98.6887 362.51 107.345 371.995 105.62C374.799 105.085 377.448 103.933 379.751 102.245C382.054 100.558 383.953 98.3781 385.309 95.8644L386.773 69.3614C386.773 68.2317 382.731 63.5906 383.829 53.9421C380.576 53.6064 377.427 52.597 374.584 50.9781C371.741 49.3591 369.265 47.1659 367.314 44.5378C367.314 44.5378 362.906 49.988 361.061 51.6674C359.586 52.917 358.274 54.3481 357.157 55.9268C354.229 60.3541 353.924 66.4608 354.626 71.514C355.19 75.7276 358.026 83.5136 363.303 83.422Z" fill="white"/>
<path d="M369.647 106.536C367.753 106.597 365.894 106.016 364.37 104.887C362.502 103.328 361.306 101.108 361.031 98.6888L362.479 84.1397C357.401 83.4985 354.504 76.2774 353.848 71.6211C353.314 67.896 352.963 60.8428 356.501 55.4995C357.649 53.8666 359.002 52.3888 360.527 51.1027C362.312 49.4691 366.627 44.1105 366.627 44.0647C366.708 43.9744 366.807 43.9019 366.917 43.852C367.027 43.802 367.147 43.7757 367.268 43.7747C367.387 43.7845 367.502 43.8212 367.605 43.882C367.708 43.9428 367.796 44.0262 367.863 44.1258C369.763 46.665 372.165 48.7849 374.92 50.3531C377.675 51.9212 380.724 52.904 383.875 53.24C384.079 53.2673 384.264 53.371 384.394 53.5301C384.517 53.6912 384.577 53.8924 384.561 54.0949C383.912 58.7287 384.717 63.4499 386.864 67.6059C387.208 68.1683 387.427 68.7985 387.505 69.4532L386.071 95.8951C386.093 95.9905 386.093 96.0896 386.071 96.1851C384.671 98.8125 382.697 101.091 380.298 102.851C377.898 104.611 375.134 105.808 372.209 106.353C371.363 106.497 370.505 106.558 369.647 106.536ZM362.556 98.6888C362.655 99.7572 362.994 100.789 363.547 101.708C364.1 102.627 364.853 103.409 365.751 103.996C366.648 104.583 367.666 104.96 368.728 105.098C369.791 105.237 370.871 105.133 371.889 104.796C374.54 104.284 377.047 103.2 379.236 101.618C381.425 100.035 383.243 97.9938 384.561 95.6355C384.683 93.4371 385.964 69.5448 385.98 69.3616C385.839 68.9858 385.676 68.6188 385.492 68.2624C383.342 64.0718 382.463 59.344 382.96 54.6598C376.792 53.8315 371.173 50.6748 367.253 45.8357C365.956 47.3623 363.013 50.9347 361.549 52.2782C360.136 53.4548 358.876 54.8037 357.798 56.2933C354.549 61.2245 354.885 67.8502 355.388 71.3615C355.891 74.8729 358.438 82.613 363.242 82.613H363.349C363.453 82.6105 363.556 82.6311 363.651 82.6734C363.746 82.7156 363.83 82.7784 363.898 82.8573C363.975 82.9344 364.033 83.0283 364.067 83.1316C364.101 83.2349 364.111 83.3449 364.096 83.4527L362.571 98.7194L362.556 98.6888Z" fill="#231F20"/>
<path d="M369.647 57.3008C369.647 57.3008 364.081 64.1555 365.072 65.5295C366.063 66.9035 369.449 66.3692 369.449 66.3692" fill="white"/>
<path d="M368.076 67.2396C367.428 67.3046 366.774 67.2261 366.16 67.0098C365.546 66.7934 364.987 66.4445 364.523 65.9877C363.349 64.461 366.353 60.1558 369.098 56.8277C369.224 56.6704 369.407 56.5693 369.607 56.5464C369.807 56.5236 370.007 56.5808 370.165 56.7056C370.321 56.8364 370.42 57.0231 370.44 57.2258C370.46 57.4284 370.399 57.6307 370.272 57.7895C367.695 60.965 365.606 64.3847 365.789 65.1328C366.338 65.835 368.473 65.774 369.403 65.6213C369.503 65.6053 369.605 65.6091 369.704 65.6327C369.803 65.6562 369.896 65.699 369.978 65.7585C370.06 65.8181 370.13 65.8932 370.183 65.9797C370.236 66.0662 370.271 66.1623 370.287 66.2625C370.303 66.3628 370.3 66.4652 370.276 66.5639C370.253 66.6627 370.21 66.7558 370.15 66.838C370.091 66.9203 370.016 66.99 369.929 67.0431C369.843 67.0963 369.747 67.1319 369.647 67.148C369.126 67.2119 368.601 67.2424 368.076 67.2396Z" fill="#231F20"/>
<path d="M363.486 59.1319C363.602 58.2627 363.324 57.5083 362.865 57.4468C362.406 57.3854 361.94 58.04 361.824 58.9092C361.707 59.7783 361.985 60.5328 362.445 60.5943C362.904 60.6557 363.37 60.001 363.486 59.1319Z" fill="#231F20"/>
<path d="M377.444 58.6764C377.454 57.7996 377.087 57.0844 376.624 57.079C376.16 57.0736 375.777 57.78 375.766 58.6568C375.756 59.5336 376.123 60.2488 376.587 60.2542C377.05 60.2596 377.433 59.5533 377.444 58.6764Z" fill="#231F20"/>
<path d="M382.35 63.545C382.687 62.2421 383.266 61.0145 384.058 59.9268C384.507 59.302 385.098 58.7932 385.782 58.4428C386.466 58.0923 387.224 57.9102 387.993 57.9116C388.466 57.9342 388.928 58.0625 389.345 58.287C389.761 58.5116 390.123 58.8267 390.402 59.2093C390.742 59.7599 390.951 60.3816 391.012 61.026C391.516 64.4152 390.387 68.812 387.215 70.5524C386.679 70.8933 386.058 71.0744 385.423 71.0744C384.788 71.0744 384.167 70.8933 383.631 70.5524" fill="white"/>
<path d="M385.248 71.8652C384.513 71.8809 383.793 71.6498 383.204 71.2087C383.118 71.1502 383.045 71.0747 382.989 70.9868C382.933 70.8989 382.896 70.8005 382.879 70.6976C382.863 70.5947 382.868 70.4895 382.893 70.3885C382.919 70.2875 382.965 70.1929 383.029 70.1104C383.092 70.0279 383.172 69.9594 383.263 69.9089C383.354 69.8585 383.455 69.8273 383.558 69.8172C383.662 69.8071 383.767 69.8183 383.866 69.8502C383.965 69.8821 384.056 69.934 384.135 70.0027C384.559 70.2384 385.04 70.3518 385.524 70.3302C386.009 70.3086 386.478 70.153 386.88 69.8805C389.747 68.3538 390.768 64.2929 390.311 61.1327C390.261 60.5944 390.094 60.0735 389.823 59.606C389.61 59.321 389.337 59.0869 389.024 58.9205C388.71 58.7542 388.363 58.6598 388.008 58.6442C387.359 58.647 386.72 58.8049 386.144 59.105C385.569 59.4051 385.073 59.8386 384.699 60.3694C383.992 61.3875 383.475 62.5254 383.174 63.728C383.114 63.9201 382.982 64.0815 382.806 64.1783C382.629 64.275 382.422 64.2997 382.228 64.2471C382.13 64.2192 382.039 64.1719 381.96 64.1081C381.881 64.0443 381.815 63.9653 381.767 63.8756C381.718 63.786 381.688 63.6876 381.679 63.5862C381.669 63.4848 381.679 63.3825 381.71 63.2853C382.075 61.8926 382.702 60.582 383.555 59.4229C384.079 58.7028 384.768 58.1191 385.564 57.7206C386.36 57.3222 387.24 57.1206 388.13 57.1329C388.729 57.147 389.317 57.3006 389.846 57.5815C390.375 57.8624 390.832 58.2628 391.18 58.7511C391.578 59.3955 391.828 60.1203 391.912 60.8732C392.446 64.5677 391.18 69.2851 387.718 71.1934C386.967 71.6275 386.115 71.8589 385.248 71.8652Z" fill="#231F20"/>
<path d="M334.633 154.244C334.436 154.24 334.248 154.16 334.109 154.021C333.97 153.881 333.89 153.693 333.886 153.496C333.886 152.366 339.635 121.65 340.779 115.497C340.817 115.295 340.934 115.116 341.104 115C341.275 114.884 341.484 114.841 341.686 114.879C341.888 114.918 342.067 115.035 342.183 115.205C342.299 115.376 342.342 115.585 342.304 115.788C339.589 130.337 335.502 152.427 335.441 153.511C335.437 153.613 335.413 153.713 335.37 153.805C335.327 153.897 335.266 153.98 335.191 154.048C335.116 154.116 335.028 154.169 334.932 154.203C334.836 154.236 334.734 154.25 334.633 154.244Z" fill="#231F20"/>
<path d="M395.801 156.656C395.599 156.656 395.405 156.576 395.262 156.433C395.119 156.29 395.038 156.095 395.038 155.893V114.154C395.038 113.952 395.119 113.757 395.262 113.614C395.405 113.471 395.599 113.391 395.801 113.391C396.003 113.391 396.197 113.471 396.34 113.614C396.483 113.757 396.563 113.952 396.563 114.154V155.893C396.563 156.095 396.483 156.29 396.34 156.433C396.197 156.576 396.003 156.656 395.801 156.656Z" fill="#231F20"/>
<path d="M375.03 68.3386L362.632 69.5142C362.632 69.5142 362.632 78.3688 367.878 77.7887C373.124 77.2086 374.573 73.8041 375.03 68.3386Z" fill="white"/>
<path d="M367.39 78.5826C366.337 78.5939 365.318 78.2068 364.538 77.4986C361.915 75.1628 361.869 69.7432 361.869 69.5142C361.865 69.3233 361.933 69.1379 362.061 68.996C362.189 68.8541 362.365 68.7664 362.556 68.7508L374.954 67.5906C375.065 67.5793 375.177 67.5926 375.283 67.6295C375.388 67.6665 375.484 67.7261 375.564 67.8043C375.642 67.8817 375.703 67.9748 375.742 68.0775C375.781 68.1801 375.799 68.2899 375.793 68.3997C375.442 73.2545 374.268 77.8498 367.969 78.552L367.39 78.5826ZM363.425 70.2012C363.516 71.6362 363.913 74.9033 365.56 76.3078C365.858 76.5779 366.213 76.7783 366.598 76.8945C366.983 77.0106 367.389 77.0397 367.786 76.9796C371.873 76.5368 373.658 74.3842 374.191 69.1478L363.425 70.2012Z" fill="#231F20"/>
<path d="M363.303 83.4222C368.271 83.5257 373.208 82.6059 377.806 80.72C377.806 80.72 369.251 91.0555 362.632 94.8874L363.303 83.4222Z" fill="#231F20"/>
<path d="M362.632 95.6509C362.528 95.651 362.425 95.6299 362.329 95.5887C362.234 95.5475 362.147 95.4871 362.076 95.4113C362.005 95.3355 361.949 95.2459 361.914 95.1479C361.878 95.05 361.863 94.9458 361.87 94.8417L362.556 83.3765C362.553 83.2747 362.572 83.1735 362.612 83.0799C362.651 82.9863 362.711 82.9024 362.787 82.8342C362.862 82.7659 362.951 82.7149 363.048 82.6846C363.146 82.6544 363.248 82.6456 363.349 82.6589C368.195 82.7391 373.009 81.8409 377.501 80.0178C377.657 79.9394 377.836 79.9183 378.006 79.9582C378.176 79.9982 378.327 80.0967 378.432 80.2365C378.538 80.3763 378.591 80.5486 378.582 80.7235C378.573 80.8983 378.504 81.0646 378.385 81.1933C378.035 81.6208 369.678 91.6968 363.013 95.544C362.896 95.6075 362.765 95.644 362.632 95.6509ZM364.035 84.2009L363.471 93.4525C367.79 90.2425 371.743 86.5666 375.259 82.491C371.619 83.597 367.839 84.1728 364.035 84.2009Z" fill="#231F20"/>
<path d="M356.684 129.573C356.581 129.574 356.478 129.552 356.384 129.51C356.289 129.468 356.204 129.406 356.135 129.329L346.208 118.887C346.133 118.807 346.077 118.712 346.043 118.608C346.009 118.505 345.997 118.395 346.008 118.286C346.02 118.178 346.054 118.073 346.11 117.979C346.165 117.885 346.24 117.804 346.33 117.742L355.373 111.543L346.314 104.811C346.217 104.74 346.137 104.647 346.082 104.54C346.028 104.432 345.999 104.313 345.999 104.192C345.999 104.072 346.028 103.953 346.082 103.845C346.137 103.738 346.217 103.645 346.314 103.574L357.432 95.9408C357.513 95.8773 357.607 95.8312 357.707 95.8052C357.808 95.7792 357.912 95.7739 358.014 95.7896C358.116 95.8052 358.215 95.8416 358.302 95.8964C358.39 95.9512 358.466 96.0234 358.525 96.1084C358.584 96.1935 358.625 96.2896 358.646 96.3911C358.667 96.4926 358.666 96.5973 358.645 96.6987C358.625 96.8001 358.583 96.8962 358.524 96.9812C358.465 97.0661 358.389 97.138 358.301 97.1927L348.053 104.261L357.127 111.009C357.227 111.078 357.309 111.172 357.362 111.281C357.416 111.391 357.44 111.513 357.432 111.635C357.432 111.757 357.402 111.877 357.343 111.984C357.284 112.091 357.199 112.181 357.096 112.246L347.946 118.535L357.249 128.321C357.32 128.392 357.377 128.477 357.416 128.57C357.454 128.663 357.474 128.763 357.474 128.863C357.474 128.964 357.454 129.064 357.416 129.157C357.377 129.25 357.32 129.334 357.249 129.405C357.089 129.532 356.887 129.592 356.684 129.573Z" fill="#231F20"/>
<path d="M375.655 130.276C375.523 130.273 375.393 130.237 375.278 130.17C375.163 130.103 375.067 130.008 375 129.894C374.948 129.808 374.914 129.713 374.9 129.614C374.886 129.515 374.892 129.414 374.917 129.317C374.943 129.22 374.988 129.129 375.049 129.05C375.11 128.971 375.187 128.905 375.274 128.856L389.655 120.261L381.786 111.253C381.706 111.166 381.647 111.061 381.615 110.947C381.584 110.833 381.579 110.713 381.603 110.597C381.627 110.478 381.677 110.367 381.752 110.272C381.826 110.176 381.921 110.099 382.03 110.047L391.866 105.467L386.178 99.3607C386.106 99.2897 386.05 99.2053 386.011 99.1122C385.972 99.0192 385.952 98.9195 385.952 98.8187C385.952 98.7179 385.972 98.6181 386.011 98.5251C386.05 98.4321 386.106 98.3477 386.178 98.2767C386.323 98.1359 386.517 98.0571 386.719 98.0571C386.921 98.0571 387.116 98.1359 387.261 98.2767L393.65 105.223C393.732 105.312 393.791 105.42 393.823 105.537C393.855 105.654 393.858 105.776 393.833 105.895C393.812 106.012 393.762 106.123 393.688 106.216C393.613 106.31 393.516 106.383 393.406 106.429L383.555 111.009L391.363 119.879C391.438 119.963 391.493 120.063 391.524 120.171C391.556 120.28 391.563 120.394 391.546 120.505C391.529 120.616 391.487 120.721 391.424 120.814C391.36 120.906 391.277 120.983 391.18 121.039L376.098 130.169C375.962 130.242 375.809 130.279 375.655 130.276Z" fill="#231F20"/>
<path d="M274.395 105.864C274.212 105.863 274.034 105.799 273.892 105.681C272.61 104.607 271.787 103.083 271.589 101.422C271.012 102.056 270.28 102.53 269.464 102.798C268.649 103.065 267.779 103.117 266.938 102.948C266.566 102.898 266.216 102.744 265.927 102.504C265.639 102.263 265.423 101.947 265.306 101.59C264.422 98.7957 269.881 92.689 271.01 91.4982C271.081 91.4267 271.165 91.3699 271.258 91.3312C271.351 91.2924 271.451 91.2725 271.551 91.2725C271.652 91.2725 271.752 91.2924 271.845 91.3312C271.937 91.3699 272.022 91.4267 272.093 91.4982C272.164 91.5692 272.221 91.6536 272.26 91.7467C272.298 91.8397 272.318 91.9395 272.318 92.0402C272.318 92.141 272.298 92.2408 272.26 92.3338C272.221 92.4268 272.164 92.5112 272.093 92.5822C269.195 95.6355 266.328 99.8797 266.74 101.177C266.74 101.254 266.816 101.422 267.228 101.498C269.424 101.986 271.025 99.9713 271.894 98.4446C272.097 97.8303 272.379 97.2452 272.733 96.7042C272.839 96.5518 272.996 96.443 273.175 96.3981C273.355 96.3531 273.545 96.3751 273.709 96.4599C273.875 96.5425 274.005 96.6824 274.075 96.8537C274.145 97.0251 274.151 97.2161 274.09 97.3912C273.874 97.9602 273.614 98.5114 273.313 99.04C272.972 100.004 272.936 101.05 273.209 102.036C273.482 103.022 274.05 103.9 274.838 104.551C274.978 104.697 275.057 104.891 275.057 105.093C275.057 105.296 274.978 105.49 274.838 105.635C274.719 105.758 274.564 105.838 274.395 105.864Z" fill="#231F20"/>
<path d="M210.132 15.1801C211.791 15.1801 213.136 13.8336 213.136 12.1726C213.136 10.5116 211.791 9.16504 210.132 9.16504C208.473 9.16504 207.128 10.5116 207.128 12.1726C207.128 13.8336 208.473 15.1801 210.132 15.1801Z" fill="#D1D3D4"/>
<path d="M224.299 15.1801C225.958 15.1801 227.303 13.8336 227.303 12.1726C227.303 10.5116 225.958 9.16504 224.299 9.16504C222.64 9.16504 221.295 10.5116 221.295 12.1726C221.295 13.8336 222.64 15.1801 224.299 15.1801Z" fill="#D1D3D4"/>
<path d="M238.466 15.1801C240.126 15.1801 241.471 13.8336 241.471 12.1726C241.471 10.5116 240.126 9.16504 238.466 9.16504C236.807 9.16504 235.462 10.5116 235.462 12.1726C235.462 13.8336 236.807 15.1801 238.466 15.1801Z" fill="#D1D3D4"/>
</svg>
