<svg width="355" height="36" viewBox="0 0 355 36" fill="none" xmlns="http://www.w3.org/2000/svg">
<path d="M19.2278 35.768C16.5078 35.768 13.9958 35.352 11.6918 34.52C9.41981 33.656 7.43581 32.44 5.73981 30.872C4.07581 29.304 2.77981 27.448 1.85181 25.304C0.92381 23.16 0.45981 20.792 0.45981 18.2C0.45981 15.608 0.92381 13.24 1.85181 11.096C2.77981 8.952 4.09181 7.096 5.78781 5.528C7.48381 3.96 9.48381 2.76 11.7878 1.928C14.1238 1.064 16.6838 0.631999 19.4678 0.631999C22.7958 0.631999 25.7558 1.192 28.3478 2.312C30.9718 3.432 33.1318 5.032 34.8278 7.112L27.5798 13.496C26.5238 12.28 25.3718 11.368 24.1238 10.76C22.9078 10.12 21.5478 9.8 20.0438 9.8C18.7958 9.8 17.6598 9.992 16.6358 10.376C15.6438 10.76 14.7958 11.32 14.0918 12.056C13.3878 12.792 12.8438 13.672 12.4598 14.696C12.0758 15.72 11.8838 16.888 11.8838 18.2C11.8838 19.448 12.0758 20.6 12.4598 21.656C12.8438 22.68 13.3878 23.56 14.0918 24.296C14.7958 25.032 15.6278 25.608 16.5878 26.024C17.5798 26.408 18.6838 26.6 19.8998 26.6C21.1798 26.6 22.4278 26.392 23.6438 25.976C24.8598 25.528 26.1558 24.776 27.5318 23.72L33.8678 31.496C31.8198 32.872 29.4838 33.928 26.8598 34.664C24.2358 35.4 21.6918 35.768 19.2278 35.768ZM24.0278 30.056V17.288H33.8678V31.496L24.0278 30.056ZM54.3904 35.768C51.6704 35.768 49.1424 35.336 46.8064 34.472C44.5024 33.608 42.5024 32.392 40.8064 30.824C39.1104 29.224 37.7824 27.352 36.8224 25.208C35.8944 23.064 35.4304 20.728 35.4304 18.2C35.4304 15.64 35.8944 13.304 36.8224 11.192C37.7824 9.048 39.1104 7.192 40.8064 5.624C42.5024 4.024 44.5024 2.792 46.8064 1.928C49.1424 1.064 51.6704 0.631999 54.3904 0.631999C57.1424 0.631999 59.6704 1.064 61.9744 1.928C64.2784 2.792 66.2784 4.024 67.9744 5.624C69.6704 7.192 70.9824 9.048 71.9104 11.192C72.8704 13.304 73.3504 15.64 73.3504 18.2C73.3504 20.728 72.8704 23.064 71.9104 25.208C70.9824 27.352 69.6704 29.224 67.9744 30.824C66.2784 32.392 64.2784 33.608 61.9744 34.472C59.6704 35.336 57.1424 35.768 54.3904 35.768ZM54.3904 26.6C55.4464 26.6 56.4224 26.408 57.3184 26.024C58.2464 25.64 59.0464 25.096 59.7184 24.392C60.4224 23.656 60.9664 22.776 61.3504 21.752C61.7344 20.696 61.9264 19.512 61.9264 18.2C61.9264 16.888 61.7344 15.72 61.3504 14.696C60.9664 13.64 60.4224 12.76 59.7184 12.056C59.0464 11.32 58.2464 10.76 57.3184 10.376C56.4224 9.992 55.4464 9.8 54.3904 9.8C53.3344 9.8 52.3424 9.992 51.4144 10.376C50.5184 10.76 49.7184 11.32 49.0144 12.056C48.3424 12.76 47.8144 13.64 47.4304 14.696C47.0464 15.72 46.8544 16.888 46.8544 18.2C46.8544 19.512 47.0464 20.696 47.4304 21.752C47.8144 22.776 48.3424 23.656 49.0144 24.392C49.7184 25.096 50.5184 25.64 51.4144 26.024C52.3424 26.408 53.3344 26.6 54.3904 26.6ZM73.9099 29.24V22.04L88.1659 1.4H99.7819L86.0539 22.04L80.7739 20.456H106.79V29.24H73.9099ZM91.3339 35V29.24L91.6699 20.456V15.32H102.326V35H91.3339ZM107.794 35V1.4H123.97C127.106 1.4 129.81 1.912 132.082 2.936C134.386 3.96 136.162 5.432 137.41 7.352C138.658 9.24 139.282 11.48 139.282 14.072C139.282 16.664 138.658 18.904 137.41 20.792C136.162 22.68 134.386 24.152 132.082 25.208C129.81 26.232 127.106 26.744 123.97 26.744H114.082L119.122 21.896V35H107.794ZM119.122 23.144L114.082 18.008H123.25C124.818 18.008 125.97 17.656 126.706 16.952C127.474 16.248 127.858 15.288 127.858 14.072C127.858 12.856 127.474 11.896 126.706 11.192C125.97 10.488 124.818 10.136 123.25 10.136H114.082L119.122 5V23.144ZM141.077 35V1.4H157.253C160.389 1.4 163.093 1.912 165.365 2.936C167.669 3.96 169.445 5.432 170.693 7.352C171.941 9.24 172.565 11.48 172.565 14.072C172.565 16.664 171.941 18.904 170.693 20.792C169.445 22.648 167.669 24.072 165.365 25.064C163.093 26.056 160.389 26.552 157.253 26.552H147.365L152.405 21.896V35H141.077ZM161.189 35L152.933 22.76H164.933L173.285 35H161.189ZM152.405 23.144L147.365 18.008H156.533C158.101 18.008 159.253 17.656 159.989 16.952C160.757 16.248 161.141 15.288 161.141 14.072C161.141 12.856 160.757 11.896 159.989 11.192C159.253 10.488 158.101 10.136 156.533 10.136H147.365L152.405 5V23.144ZM192.539 35.768C189.819 35.768 187.291 35.336 184.955 34.472C182.651 33.608 180.651 32.392 178.955 30.824C177.259 29.224 175.931 27.352 174.971 25.208C174.043 23.064 173.579 20.728 173.579 18.2C173.579 15.64 174.043 13.304 174.971 11.192C175.931 9.048 177.259 7.192 178.955 5.624C180.651 4.024 182.651 2.792 184.955 1.928C187.291 1.064 189.819 0.631999 192.539 0.631999C195.291 0.631999 197.819 1.064 200.123 1.928C202.427 2.792 204.427 4.024 206.123 5.624C207.819 7.192 209.131 9.048 210.059 11.192C211.019 13.304 211.499 15.64 211.499 18.2C211.499 20.728 211.019 23.064 210.059 25.208C209.131 27.352 207.819 29.224 206.123 30.824C204.427 32.392 202.427 33.608 200.123 34.472C197.819 35.336 195.291 35.768 192.539 35.768ZM192.539 26.6C193.595 26.6 194.571 26.408 195.467 26.024C196.395 25.64 197.195 25.096 197.867 24.392C198.571 23.656 199.115 22.776 199.499 21.752C199.883 20.696 200.075 19.512 200.075 18.2C200.075 16.888 199.883 15.72 199.499 14.696C199.115 13.64 198.571 12.76 197.867 12.056C197.195 11.32 196.395 10.76 195.467 10.376C194.571 9.992 193.595 9.8 192.539 9.8C191.483 9.8 190.491 9.992 189.563 10.376C188.667 10.76 187.867 11.32 187.163 12.056C186.491 12.76 185.963 13.64 185.579 14.696C185.195 15.72 185.003 16.888 185.003 18.2C185.003 19.512 185.195 20.696 185.579 21.752C185.963 22.776 186.491 23.656 187.163 24.392C187.867 25.096 188.667 25.64 189.563 26.024C190.491 26.408 191.483 26.6 192.539 26.6ZM224.25 15.704H239.034V24.248H224.25V15.704ZM225.018 35H213.69V1.4H241.002V9.944H225.018V35ZM242.661 35V1.4H253.989V35H242.661ZM264.818 35V10.184H254.978V1.4H285.986V10.184H276.146V35H264.818ZM289.072 35.192C288.528 35.192 288.048 35 287.632 34.616C287.248 34.2 287.056 33.704 287.056 33.128C287.056 32.552 287.248 32.072 287.632 31.688C288.048 31.304 288.528 31.112 289.072 31.112C289.616 31.112 290.08 31.304 290.464 31.688C290.88 32.072 291.088 32.552 291.088 33.128C291.088 33.704 290.88 34.2 290.464 34.616C290.08 35 289.616 35.192 289.072 35.192ZM310.548 35.24C306.388 35.24 303.108 34.024 300.708 31.592C298.308 29.16 297.108 25.544 297.108 20.744V1.4H299.556V20.648C299.556 24.84 300.516 27.944 302.436 29.96C304.356 31.976 307.076 32.984 310.596 32.984C314.084 32.984 316.788 31.976 318.708 29.96C320.628 27.944 321.588 24.84 321.588 20.648V1.4H324.036V20.744C324.036 25.544 322.836 29.16 320.436 31.592C318.036 34.024 314.74 35.24 310.548 35.24ZM342.37 35.24C339.874 35.24 337.506 34.824 335.266 33.992C333.058 33.128 331.346 32.024 330.13 30.68L331.234 28.856C332.386 30.04 333.954 31.048 335.938 31.88C337.954 32.68 340.082 33.08 342.322 33.08C344.562 33.08 346.386 32.792 347.794 32.216C349.234 31.608 350.29 30.808 350.962 29.816C351.666 28.824 352.018 27.72 352.018 26.504C352.018 25.064 351.634 23.912 350.866 23.048C350.098 22.184 349.09 21.496 347.842 20.984C346.594 20.472 345.234 20.04 343.762 19.688C342.29 19.336 340.802 18.968 339.298 18.584C337.794 18.168 336.418 17.64 335.17 17C333.922 16.36 332.914 15.496 332.146 14.408C331.41 13.288 331.042 11.848 331.042 10.088C331.042 8.488 331.458 7.016 332.29 5.672C333.122 4.328 334.418 3.24 336.178 2.408C337.938 1.576 340.194 1.16 342.946 1.16C344.802 1.16 346.626 1.432 348.418 1.976C350.242 2.52 351.794 3.256 353.074 4.184L352.162 6.152C350.754 5.192 349.234 4.488 347.602 4.04C346.002 3.56 344.45 3.32 342.946 3.32C340.802 3.32 339.026 3.624 337.618 4.232C336.21 4.84 335.17 5.656 334.498 6.68C333.826 7.672 333.49 8.792 333.49 10.04C333.49 11.48 333.858 12.632 334.594 13.496C335.362 14.36 336.37 15.048 337.618 15.56C338.866 16.072 340.242 16.504 341.746 16.856C343.25 17.208 344.738 17.592 346.21 18.008C347.682 18.392 349.042 18.904 350.29 19.544C351.538 20.184 352.546 21.048 353.314 22.136C354.082 23.224 354.466 24.632 354.466 26.36C354.466 27.928 354.034 29.4 353.17 30.776C352.306 32.12 350.978 33.208 349.186 34.04C347.426 34.84 345.154 35.24 342.37 35.24Z" fill="#F3FAF6"/>
</svg>
